<svg width="842" height="601" viewBox="0 0 842 601" fill="none" xmlns="http://www.w3.org/2000/svg">
<path fill-rule="evenodd" clip-rule="evenodd" d="M733.167 371.804C649.168 494.804 308.665 626.804 139.165 512.803C-18.3349 349.304 -19.651 80.743 202.613 63.6909C424.878 46.6389 817.165 248.805 733.167 371.804Z" fill="#FFF4E3"/>
<path fill-rule="evenodd" clip-rule="evenodd" d="M277.61 483H349.236L358.621 598H252L277.61 483Z" fill="#FCC876"/>
<path fill-rule="evenodd" clip-rule="evenodd" d="M277.61 483H299.639L312.824 598H252L277.61 483Z" fill="black" fill-opacity="0.1"/>
<path d="M802.335 210.639C800.373 287.616 723.797 345.595 660.062 357.984C596.327 370.373 595 218.139 595 192.639C595 167.139 613.507 34.9317 677.242 22.5428C740.977 10.154 805.129 101.029 802.335 210.639Z" fill="#F8DDB3"/>
<path fill-rule="evenodd" clip-rule="evenodd" d="M582.004 258.567L617.014 240.116L621.412 258.398L588.235 266.683C577.848 275.742 572.261 279.33 571.473 277.448C570.809 275.861 571.702 274.602 572.524 273.443C573.165 272.54 573.763 271.696 573.548 270.806C573.059 268.771 567.094 268.086 561.405 267.678C555.716 267.27 557.729 265.013 559.27 263.98C565.525 261.402 573.102 259.597 582.004 258.567ZM792.442 223.526C786.688 220.236 741.755 177.322 741.755 177.322L726.963 187.398C726.963 187.398 779.719 230.509 783.135 232.815C787.574 235.812 788.787 243.697 789.609 249.044C789.736 249.872 789.854 250.638 789.973 251.316C793.43 250.713 793.737 248.417 794.06 245.996C794.425 243.262 794.812 240.368 799.782 239.576C801.702 239.271 803.628 239.142 805.509 239.016C812.006 238.58 817.975 238.181 821.38 230.647C821.92 229.453 821.484 226.621 817.904 226.594C808.983 226.525 795.255 225.134 792.442 223.526Z" fill="#B28B67"/>
<path fill-rule="evenodd" clip-rule="evenodd" d="M624.853 132.964C620.744 139.311 615.852 143.795 612.83 144.413C605.252 145.961 592.623 121.637 593.096 109.389C593.57 97.1408 618.281 79.8503 629.012 98.4266C632.737 104.874 632.839 112.199 631.069 119.08L655.376 150.071L633.805 160.591L624.853 132.964Z" fill="#B28B67"/>
<path fill-rule="evenodd" clip-rule="evenodd" d="M591.599 96.5843C587.314 99.355 583.786 101.636 581.636 101.392C584.044 109.3 590.705 113.375 603.422 105.757C607.148 105.966 610.728 108.019 615.199 110.82C615.692 110.282 616.293 109.826 616.989 109.486C619.968 108.034 623.56 109.271 625.012 112.249C625.75 113.761 625.794 115.431 625.269 116.899C627.376 118.052 629.672 119.21 632.2 120.327C636.43 113.822 635.778 101.196 625.145 93.8866C614.896 81.5217 601.306 90.3085 591.599 96.5843Z" fill="#011925"/>
<mask id="mask0_96_2019" style="mask-type:alpha" maskUnits="userSpaceOnUse" x="592" y="21" width="211" height="340">
<path d="M801.943 211.225C799.98 288.202 723.404 346.181 659.669 358.57C595.934 370.958 590.769 332.772 592.952 203.45C595.135 74.1277 613.114 35.5173 676.849 23.1285C740.584 10.7396 804.737 101.615 801.943 211.225Z" fill="#FBF2E2"/>
</mask>
<g mask="url(#mask0_96_2019)">
<path fill-rule="evenodd" clip-rule="evenodd" d="M698.956 212.756L711.513 348.185L722.33 447.241L705.058 455.665L649.816 236.724L698.956 212.756Z" fill="#05434D"/>
<path fill-rule="evenodd" clip-rule="evenodd" d="M698.956 212.756L711.513 348.185L722.33 447.241L705.058 455.665L649.816 236.724L698.956 212.756Z" fill="black" fill-opacity="0.2"/>
<path fill-rule="evenodd" clip-rule="evenodd" d="M709.637 207.547C729.243 246.554 754.668 299.545 756.956 301.457C759.243 303.369 852.226 323.981 852.226 323.981L850.707 343.462C850.707 343.462 746.155 330.963 738.755 326.113C731.356 321.262 680.257 268.343 651.32 235.99L709.637 207.547Z" fill="#05434C"/>
<path fill-rule="evenodd" clip-rule="evenodd" d="M640.127 143.91L628.672 145.459C631.594 185.411 653.294 217.226 587.649 252.581L595.101 267.86C643.997 252.913 664.66 222.778 663.283 191.386C662.821 180.851 645.505 154.154 640.127 143.91Z" fill="#F6F8F9"/>
<path fill-rule="evenodd" clip-rule="evenodd" d="M640.127 143.91L628.672 145.459C631.594 185.411 653.294 217.226 587.649 252.581L595.101 267.86C643.997 252.913 664.66 222.778 663.283 191.386C662.821 180.851 645.505 154.154 640.127 143.91Z" fill="black" fill-opacity="0.08"/>
<path fill-rule="evenodd" clip-rule="evenodd" d="M719.89 221.46C719.89 221.46 679.697 246.627 653.167 254.003C650.976 254.613 649.017 251.402 648.836 248.663C646.004 206.011 640.821 170.118 628.77 145.411C633.748 145.476 643.05 139.193 643.05 139.193C673.367 155.925 695.843 181.126 719.89 221.46Z" fill="#73959A"/>
<path fill-rule="evenodd" clip-rule="evenodd" d="M647.139 134.558C646.525 134.472 646.205 134.436 646.205 134.436L646.459 134.889L639 138.527C639.7 140.914 643.136 149.352 648.146 161.656C666.352 206.368 705.345 302.128 709.39 344.079L800.892 299.451C779.285 260.051 740.882 219.062 705.495 185.613C722.382 191.38 744.908 203.866 771.035 230.197L786.028 217.438C731.853 150.693 661.747 136.836 648.439 134.751C648.232 134.574 648.027 134.399 647.823 134.224L647.139 134.558Z" fill="#F6F8F9"/>
</g>
<path fill-rule="evenodd" clip-rule="evenodd" d="M371.323 499.27C362.642 517.681 349.077 562.375 349.077 562.375L360.593 567.637C360.593 567.637 389.814 520.656 407.672 488.54C406.84 495.77 405.993 503.909 405.208 512.466C403.347 532.736 405.206 576.53 406.208 589.181C406.837 597.131 417.64 595.466 418.648 589.16C418.819 588.092 419.515 584.343 420.554 578.748C425.647 551.316 438.976 479.521 439 461.942C439.009 454.868 425.19 448.513 416.953 453.459C411.295 447.422 400.588 443.943 394.436 453.915C390.525 460.255 381.233 478.253 371.323 499.27Z" fill="#B28B67"/>
<path fill-rule="evenodd" clip-rule="evenodd" d="M349.9 545.829L389.427 452.191C398.897 436.958 425.446 455.29 422.217 464.125C414.886 484.183 377.6 549.118 375.415 555.093L349.9 545.829Z" fill="#87A5B4"/>
<path fill-rule="evenodd" clip-rule="evenodd" d="M350.664 556.888C349.971 555.944 348.63 555.721 347.734 556.474C346.099 557.849 343.748 559.968 342.899 561.437C341.547 563.78 339.733 568.724 339.733 568.724C342.45 570.293 388.578 596.925 388.578 596.925C388.578 596.925 394.116 591.73 390.304 588.86C386.491 585.99 384.012 584.019 384.012 584.019L367.152 560.79C366.821 560.334 366.179 560.241 365.733 560.585L362.23 563.283C362.23 563.283 357.409 562.862 355.035 561.491C353.59 560.657 351.824 558.471 350.664 556.888Z" fill="#CFDADF"/>
<path fill-rule="evenodd" clip-rule="evenodd" d="M406.45 582.987C405.378 582.516 404.104 582.993 403.705 584.094C402.977 586.102 402 589.112 402 590.809C402 593.514 402.901 598.703 402.901 598.703C406.039 598.703 459.303 598.703 459.303 598.703C459.303 598.703 461.502 591.435 456.765 590.856C452.028 590.276 448.895 589.809 448.895 589.809L422.68 578.122C422.165 577.893 421.563 578.134 421.348 578.654L419.663 582.742C419.663 582.742 415.278 584.788 412.537 584.788C410.868 584.788 408.246 583.778 406.45 582.987Z" fill="#CFDADF"/>
<path fill-rule="evenodd" clip-rule="evenodd" d="M441.77 469.136C441.77 495.703 429.154 557.674 429.146 563.523L402 563.544C402 563.544 407.96 480.601 406.227 479.707C404.493 478.814 335.176 486.628 314.386 486.628C284.408 486.628 272.006 467.724 271 432.703H330.386C342.478 433.997 405.549 446.719 428.972 451.092C439 452.964 441.77 461.818 441.77 469.136Z" fill="#A2C8DB"/>
<path fill-rule="evenodd" clip-rule="evenodd" d="M320.935 304.948C327.411 308.851 333.774 310.737 336.76 309.967C344.25 308.036 344.938 280.638 339.143 269.837C333.348 259.036 303.558 254.328 302.057 275.729C301.536 283.156 304.654 289.785 309.262 295.193L301 333.703H325L320.935 304.948Z" fill="#B28B67"/>
<path fill-rule="evenodd" clip-rule="evenodd" d="M342 259.703C342 265.044 337.813 269.407 332.542 269.689C329.526 270.619 325.652 271.302 321.356 271.59C321.773 273.159 322 274.941 322 276.955C322 278.733 321.804 280.619 321.442 282.534C320.511 281.426 319.265 280.703 318 280.703C314.462 280.703 312 283.613 312 286.703C312 290.625 314.264 293.462 317.569 293.689C314.593 299.401 310.476 303.703 306.364 303.703C298.554 303.703 293 293.261 293 282.033C293 281.638 293.008 281.247 293.023 280.858C290.379 282.672 287.929 285.05 285.461 287.446L285.461 287.446C280.218 292.536 274.895 297.703 267.461 297.703C252.587 297.703 246.68 267.703 267.461 267.703C281.593 267.703 288.545 269.764 294.535 272.811C295.717 269.48 297.519 266.679 299.722 264.723C300.252 264.127 301.065 263.556 302.113 263.026C302.754 262.676 303.417 262.39 304.099 262.175C307.712 260.848 312.945 259.911 318.791 259.707C319.882 259.669 320.954 259.658 322 259.672C322.017 254.163 326.488 249.703 332 249.703C337.523 249.703 342 254.18 342 259.703Z" fill="#011118"/>
<path fill-rule="evenodd" clip-rule="evenodd" d="M378.775 405.227L415.894 418.951C424.854 418.81 432.603 419.61 439.14 421.35C440.802 422.173 443.093 424.149 437.506 425.296C431.919 426.443 426.095 427.9 425.875 429.981C425.655 432.062 429.603 433.343 428.799 436.296C428.264 438.264 422.256 435.436 410.776 427.811L376.802 423.927L378.775 405.227Z" fill="#B28B67"/>
<path fill-rule="evenodd" clip-rule="evenodd" d="M318.421 368.589C346.165 392.696 378.465 406.983 421.674 418.174L414.308 437.605C370.933 437.924 347.635 437.024 326.914 412.162C321.713 405.922 311.288 383.692 305.23 372.213L318.421 368.589Z" fill="#003D5B"/>
<path fill-rule="evenodd" clip-rule="evenodd" d="M318.421 368.589C346.165 392.696 378.465 406.983 421.674 418.174L414.308 437.605C370.933 437.924 347.635 437.024 326.914 412.162C321.713 405.922 311.288 383.692 305.23 372.213L318.421 368.589Z" fill="black" fill-opacity="0.18"/>
<path fill-rule="evenodd" clip-rule="evenodd" d="M279 436.703H356C356 436.703 329.837 356.911 329.27 327.175C329.251 326.164 327.384 324.383 326.559 324.616C317.5 327.175 307.172 322.703 307.172 322.703C288.917 352.062 282.605 388.208 279 436.703Z" fill="#CFDADF"/>
<path fill-rule="evenodd" clip-rule="evenodd" d="M375.999 403.824L411 417.203C419.948 417.688 422.1 415.012 428.5 417.203C430.101 418.14 439 421.703 437 423.203C438 425.203 437.75 424.703 437 423.203C436.5 426.203 426.5 424.967 421.5 427.703C416.5 430.44 416 430.703 406.346 428.585L372.725 422.34L375.999 403.824Z" fill="#B28B67"/>
<path fill-rule="evenodd" clip-rule="evenodd" d="M311.478 461.309H270.421C263.901 417.487 281.038 356.727 296.926 326.08C297.533 324.91 298.825 322.703 301.867 322.703H313.797C317.844 334.889 321.446 347.067 324.451 358.865C340.009 374.056 361.369 394.117 392.623 408.493L381.865 426.268C364.866 423.346 348.466 419.647 333.879 414.482C335.363 442.423 329.234 461.309 311.478 461.309Z" fill="#003D5B"/>
<path fill-rule="evenodd" clip-rule="evenodd" d="M487.092 332.884C494.778 345.778 503.73 358.264 509.106 372.362C508.89 370.7 508.66 369.04 508.403 367.383C507.039 358.595 505.343 349.872 503.562 341.16C502.655 336.724 501.695 332.304 500.711 327.884C500.182 325.51 499.659 323.135 499.119 320.764C498.988 320.189 498.875 319.186 498.711 318.169C503.936 335.313 508.974 352.471 512.66 370.027C513.143 372.332 513.555 374.632 513.892 376.928C514.007 376.404 514.121 375.88 514.245 375.358C515.736 369.096 517.973 362.884 520.636 357.029C521.91 354.229 523.372 351.49 525.094 348.938C526.168 347.348 528.7 345.457 529.679 343.828C524.322 353.653 522.388 365.946 519.295 376.628C518.54 379.235 517.78 381.838 517.036 384.445C521.701 375.09 528.938 367.404 539 364.073C526.82 372.121 519.514 386.215 514.591 400.629C514.575 400.8 514.556 400.971 514.539 401.142C515.988 398.392 517.813 395.906 520.286 394.164C525.579 390.435 531.451 391.522 536.586 394.72C532.556 392.158 525.273 394.491 521.882 397.094C519.455 398.958 517.38 401.459 515.579 403.898C515.147 404.483 514.558 405.165 513.936 405.893C513.064 411.555 511.642 417.178 509.63 422.757C509.962 421.156 509.722 418.595 509.814 417.401C509.824 417.272 509.832 417.143 509.842 417.014C509.536 418.235 509.24 419.443 508.956 420.631C509.522 418.364 509.829 415.997 510.069 413.606C510.131 412.578 510.191 411.551 510.255 410.523C510.235 408.573 510.154 406.615 510.018 404.654C509.537 402.748 508.997 400.951 508.553 399.456C506.948 394.061 504.595 388.893 501.699 384.072C499.056 379.672 495.893 375.687 492.242 372.083C490.273 370.141 488.213 368.291 486.182 366.415C485.448 365.737 484.135 364.07 483 363.201C491.268 367.759 499.779 372.691 505.811 380.035C505.104 377.32 504.335 374.643 503.523 372.019C499.401 358.709 494.196 344.914 487.092 332.884Z" fill="#DDE3E9"/>
<path fill-rule="evenodd" clip-rule="evenodd" d="M495.353 405.875C495.353 420.656 496.523 432.639 512.235 432.639C527.947 432.639 529.118 420.656 529.118 405.875" fill="#B5CED2"/>
<path fill-rule="evenodd" clip-rule="evenodd" d="M359 429.703C350.163 429.703 343 436.867 343 445.703V584.703C343 593.54 350.163 600.703 359 600.703H533C541.837 600.703 549 593.54 549 584.703V445.703C549 436.867 541.837 429.703 533 429.703H359ZM376 453.703C369.925 453.703 365 458.628 365 464.703V567.703C365 573.778 369.925 578.703 376 578.703H516C522.075 578.703 527 573.778 527 567.703V464.703C527 458.628 522.075 453.703 516 453.703H376Z" fill="#C5CFD6"/>
<path d="M510.901 329L481.676 428.983" stroke="#73959A" stroke-width="8"/>
<path d="M424 427.501L486.012 427.682" stroke="#73959A" stroke-width="6"/>
<ellipse cx="450" cy="264.203" rx="65" ry="34.5" fill="#00798C"/>
<path d="M500.679 280.126L492.278 313.512L467.779 290.263L500.679 280.126Z" fill="#00798C"/>
<path d="M434 263.703C434 265.912 432.209 267.703 430 267.703C427.791 267.703 426 265.912 426 263.703C426 261.494 427.791 259.703 430 259.703C432.209 259.703 434 261.494 434 263.703Z" fill="#CFDADF"/>
<path d="M474 262.703C474 264.912 472.209 266.703 470 266.703C467.791 266.703 466 264.912 466 262.703C466 260.494 467.791 258.703 470 258.703C472.209 258.703 474 260.494 474 262.703Z" fill="#CFDADF"/>
<path d="M454 262.703C454 264.912 452.209 266.703 450 266.703C447.791 266.703 446 264.912 446 262.703C446 260.494 447.791 258.703 450 258.703C452.209 258.703 454 260.494 454 262.703Z" fill="#CFDADF"/>
<path fill-rule="evenodd" clip-rule="evenodd" d="M122.381 317.208C131.214 338.197 146.229 352.781 154.182 374.605C158.898 387.547 160.864 401.62 160.983 416.032C161.048 423.86 160.911 431.694 160.875 439.522C160.839 447.156 160.631 454.741 159.983 462.327C159.332 469.952 158.603 477.487 158.282 485.159C158.031 491.137 157.917 498.091 155.891 503.544C154.279 507.881 150.183 508.516 149.097 503.256C148.493 500.333 148.569 497.068 148.635 494.063C148.721 490.208 148.945 486.359 149.06 482.504C149.519 467.036 148.923 451.566 149.235 436.092C149.539 420.973 151.482 405.871 149.332 390.853C147.556 378.452 143.045 367.802 137.861 357.593C132.874 347.771 127.445 338.187 124.075 327.014C123.107 323.806 122.359 320.481 122 317.03C122.157 316.957 122.284 317.016 122.381 317.208Z" fill="#C1DEE2"/>
<path fill-rule="evenodd" clip-rule="evenodd" d="M119.974 358.617C121.723 359.88 122.7 361.728 123.882 363.551C125.352 365.817 127.081 367.863 128.551 370.131C131.615 374.86 134.308 379.879 137.102 384.799C142.406 394.137 146.433 404.091 148.427 414.895C150.495 426.092 151.052 437.648 151.919 449.012C152.839 461.056 153.765 473.188 153.887 485.279C153.942 490.696 154.234 496.446 153.584 501.825C153.179 505.173 151.668 508.027 148.261 508C141.025 507.942 137.627 499.927 136.208 493.354C134.119 483.674 133.702 473.393 134.033 463.494C134.432 451.558 136.504 439.802 137.4 427.912C138.35 415.325 137.814 402.96 133.486 391.109C131.3 385.12 128.763 379.274 126.484 373.325C125.514 370.792 124.719 368.19 123.409 365.831C121.951 363.208 120.142 360.826 119 358C119.324 358.206 119.649 358.411 119.974 358.617Z" fill="#89C5CC"/>
<path fill-rule="evenodd" clip-rule="evenodd" d="M203.334 333.518C203.556 333.345 203.778 333.173 204 333C203.361 335.693 202.207 337.88 201.324 340.341C200.531 342.554 200.129 345.058 199.595 347.477C198.34 353.158 196.89 358.711 195.705 364.44C193.36 375.777 193.803 387.99 195.342 400.568C196.795 412.45 199.092 424.313 200.187 436.192C201.095 446.043 201.485 456.202 200.619 465.601C200.031 471.984 198.103 479.606 192.848 478.962C190.374 478.659 189.084 475.681 188.564 472.32C187.729 466.922 187.554 461.246 187.229 455.878C186.502 443.896 186.358 431.951 186.214 420.092C186.078 408.904 185.704 397.494 186.452 386.587C187.173 376.063 189.428 366.58 192.653 357.83C194.351 353.22 195.97 348.502 197.878 344.108C198.793 342.001 199.911 340.139 200.826 338.033C201.563 336.339 202.148 334.601 203.334 333.518Z" fill="#C1DEE2"/>
<path fill-rule="evenodd" clip-rule="evenodd" d="M122.209 393.302C123.166 391.695 125.272 396.993 125.593 397.66C125.457 397.328 125.321 396.997 125.184 396.667C127.083 399.825 128.821 403.113 129.901 406.734C130.97 410.319 131.888 413.977 132.891 417.587C134.774 424.361 137.202 430.943 138.907 437.778C140.569 444.438 140.988 450.986 140.585 457.875C140.167 465.035 139.911 472.306 140.399 479.462C140.632 482.88 141.743 486.064 142.504 489.354C143.266 492.648 143.866 495.986 144.767 499.239C144.974 498.815 145 500.232 145 500.339C144.994 501.152 144.881 501.833 144.619 502.604C143.947 504.586 142.691 506.269 140.778 506.816C137.321 507.803 134.112 504.659 132.998 501.339C131.399 496.575 130.517 491.311 129.755 486.304C129.057 481.713 128.891 477.094 129.099 472.44C129.508 463.261 131.169 454.202 131.618 445.026C132.107 435.036 130.128 425.649 128.471 415.925C127.673 411.239 126.91 406.598 125.356 402.134C124.727 400.326 123.907 398.731 123.048 397.061C122.558 396.112 121.569 394.418 122.209 393.302Z" fill="#C1DEE2"/>
<path fill-rule="evenodd" clip-rule="evenodd" d="M150.252 377.697C149.856 389.142 149.172 400.5 147.646 411.824C146.089 423.38 144.3 434.897 142.802 446.463C141.343 457.722 139.814 469.168 140.018 480.585C140.168 488.993 138.774 503.219 148.113 507.369C157.572 511.572 159.601 493.623 160.222 487.699C161.412 476.333 161.027 464.847 160.449 453.419C159.856 441.689 158.866 430.02 157.64 418.334C156.277 405.353 155.208 392.314 154.349 379.296C153.925 372.857 153.82 366.429 153.937 359.988C154.048 353.911 153.817 347.77 151.656 342C151.543 342.082 151.431 342.164 151.318 342.246" fill="#69A1AC"/>
<path fill-rule="evenodd" clip-rule="evenodd" d="M199.083 413.955C197.382 416.433 195.667 418.887 194.06 421.512C191.186 426.209 188.587 431.432 187.805 438.147C186.169 452.2 187.481 467.379 187.798 481.863C187.863 484.822 187.489 487.693 188.655 490.51C189.713 493.064 191.69 495.01 193.575 495C197.611 494.977 196.995 485.095 197.002 480.746C197.014 473.123 196.159 465.422 196.233 457.806C196.306 450.26 196.765 442.694 197.859 435.528C198.967 428.275 200.589 421.309 202.729 414.81C203.026 413.908 205.158 406.937 203.144 408.139" fill="#89C5CC"/>
<path fill-rule="evenodd" clip-rule="evenodd" d="M181.262 339C178.609 339 178.625 352.226 178.546 353.925C178.257 360.055 178.325 366.188 178.143 372.319C177.744 385.701 177.253 399.2 175.243 412.426C174.161 419.547 172.907 426.636 171.557 433.702C170.204 440.789 168.387 447.867 167.497 455.044C166.642 461.943 167.125 468.977 167.242 475.91C167.359 482.885 167.57 489.874 168.484 496.788C168.709 498.494 168.974 500.195 169.257 501.891C169.492 503.305 169.355 505.058 169.754 506.401C170.393 508.552 173.133 509.256 174.978 508.92C179.97 508.009 183.159 501.74 184.865 497.16C187.043 491.311 188.198 484.967 189.339 478.804C190.631 471.821 191.388 464.732 191.743 457.623C192.466 443.175 191.539 428.712 190.504 414.31C189.928 406.301 189.263 398.327 188.246 390.367C187.232 382.441 185.932 374.55 185.086 366.601C184.471 360.825 183.865 355.04 183.467 349.241C183.371 347.859 183.291 339 181.262 339" fill="#69A1AC"/>
<path fill-rule="evenodd" clip-rule="evenodd" d="M177.941 435.139C177.508 421.253 171.926 360.259 170.657 343.467C170.339 339.264 167.281 321.765 166.885 317C165.81 318.347 165.901 339.309 165.913 344.126C165.926 348.891 165.335 353.576 165.031 358.315C164.721 363.151 157.572 425.601 156.645 430.247C154.799 439.491 153.564 448.976 152.611 458.428C151.683 467.639 150.24 477.358 151.482 486.618C151.767 488.75 152.219 490.848 152.955 492.806C153.749 494.922 154.294 496.879 154.932 499.093C155.958 502.659 157.815 505.789 160.668 507.262C166.517 510.281 169.658 503.447 171.25 497.497C173.793 487.995 175.426 478.338 176.191 468.359C177.037 457.318 178.287 446.255 177.941 435.139" fill="#89C5CC"/>
<rect x="116" y="476" width="91" height="91" rx="2" fill="#D5E0E6"/>
<rect x="106" y="486" width="10" height="113" rx="2" fill="#C5CFD6"/>
<rect x="156" y="486" width="10" height="113" rx="2" fill="#C5CFD6"/>
<rect x="207" y="486" width="10" height="113" rx="2" fill="#C5CFD6"/>
<g opacity="0.7" clip-path="url(#clip0_96_2019)">
<path fill-rule="evenodd" clip-rule="evenodd" d="M196 223C213.545 223 227.768 214.87 227.768 204.842C227.768 194.814 213.545 186.684 196 186.684C178.455 186.684 164.232 194.814 164.232 204.842C164.232 214.87 178.455 223 196 223Z" fill="#FCC876"/>
<path fill-rule="evenodd" clip-rule="evenodd" d="M233 217.351C233 195.066 216.434 177 196 177C175.565 177 159 195.066 159 217.351" fill="#C3CDD1"/>
<rect x="194" y="64" width="5" height="136" fill="#C3CDD1"/>
</g>
<defs>
<clipPath id="clip0_96_2019">
<rect width="74" height="159" fill="white" transform="translate(159 64)"/>
</clipPath>
</defs>
</svg>
