<svg width="1367" height="1030" viewBox="0 0 1367 1030" fill="none" xmlns="http://www.w3.org/2000/svg">
<path fill-rule="evenodd" clip-rule="evenodd" d="M495 202.5C517.644 202.5 536 184.144 536 161.5C536 138.856 517.644 120.5 495 120.5C472.356 120.5 454 138.856 454 161.5C454 184.144 472.356 202.5 495 202.5Z" fill="#F9E6C7"/>
<g opacity="0.5">
<path fill-rule="evenodd" clip-rule="evenodd" d="M568 720.161C776.23 720.161 945.034 559.076 945.034 360.367C945.034 161.658 776.23 0.572578 568 0.572578C359.77 0.572578 190.966 161.658 190.966 360.367C190.966 559.076 359.77 720.161 568 720.161Z" fill="#C5DAE4" fill-opacity="0.3"/>
</g>
<path fill-rule="evenodd" clip-rule="evenodd" d="M1037 943C1219.25 943 1367 801.97 1367 628C1367 454.03 1219.25 313 1037 313C854.746 313 707 454.03 707 628C707 801.97 854.746 943 1037 943Z" fill="#EDAE49" fill-opacity="0.31"/>
<path d="M1329.92 954H37C171.893 946.019 345.064 909.017 501 883.5C611 865.5 460.351 829.253 397.834 790.611C335.317 751.968 382.52 697.025 548.671 688.545C609.3 685.45 739.36 683.968 706.641 665.443C655.453 636.462 679.578 610 738.948 610H925.659C1349.46 610 892.093 610.577 824.122 614.62C700.557 621.971 848.877 664.813 866.918 688.545C874.16 698.07 857.74 715.372 706.641 742.098C535.664 772.339 799.157 781.16 1068.1 834.713C1283.26 877.556 1332.3 932.089 1329.92 954Z" fill="#A3C3C8"/>
<g opacity="0.5">
<path fill-rule="evenodd" clip-rule="evenodd" d="M191.223 526.445C195.425 520.453 203.224 505.235 209.138 503.094C212.948 501.715 211.837 515.98 211.884 518.7C212.067 529.224 211.043 539.681 209.778 550.116C207.498 568.937 200.045 585.697 189.822 601.715C184.562 609.957 178.391 618.3 169.845 623.442C165.912 625.811 161.179 626.207 157.294 628.248C152.769 630.623 155.233 628.703 153.194 633.417C150.363 639.963 149.457 648.408 148.147 655.392C142.132 687.455 127.568 856.945 130.093 889.558C130.317 892.449 126.287 893.14 126.085 889.611C125.016 870.9 134.27 741.322 138.94 698.947C143.609 656.571 148.334 619.135 153.071 604.474C158.819 586.687 169.199 565.298 177.84 548.711C181.854 541.006 186.229 533.565 191.223 526.445Z" fill="#003D5B"/>
<path fill-rule="evenodd" clip-rule="evenodd" d="M222.414 734.278C233.349 726.25 245.186 741.401 235.29 749.43C229.82 753.868 224.101 752.29 220.882 748.591C218.792 751.139 216.836 753.803 214.956 756.052C209.229 762.909 203.817 769.928 198.644 777.111C187.898 792.035 178.689 807.801 169.06 823.278C159.558 838.554 150.132 853.908 141.519 869.571C134.223 882.841 124.498 898.452 122 913C125.79 882.146 140.172 852.49 157.298 825.291C174.285 798.314 193.779 768.853 220.081 747.564C217.404 743.627 217.33 738.008 222.414 734.278Z" fill="#73959A"/>
<path fill-rule="evenodd" clip-rule="evenodd" d="M14.9132 659.031C21.0324 660.227 31.0312 674.07 36.0753 679.344C42.0699 685.612 47.5084 692.292 52.6349 699.292C63.6711 714.358 73.5411 730.376 81.9339 747.08C95.6164 774.311 106.578 802.265 114.533 831.918C119.403 850.069 122.556 868.883 124.424 887.565C124.777 891.089 128.471 918.253 123.148 918.985C118.361 919.644 119.84 898.359 119.609 895.463C116.998 862.798 109.177 831.015 98.2985 800.226C95.929 793.519 93.7276 785.304 89.9381 779.268C87.2092 774.921 89.9186 776.437 85.1228 774.792C81.0049 773.378 76.3131 773.724 72.0963 771.993C62.9356 768.237 55.6006 760.944 49.1709 753.608C36.6758 739.351 26.774 723.928 21.6126 705.66C18.7495 695.532 16.1184 685.344 14.6583 674.902C14.2806 672.203 10.9718 658.26 14.9132 659.031Z" fill="#003D5B"/>
<path fill-rule="evenodd" clip-rule="evenodd" d="M39.0614 428.716C62.1113 468.69 81.0528 512.601 93.2834 557.076C100.694 584.023 105.876 611.675 111.025 639.126C118.997 681.632 126.538 724.134 128.683 767.395C130.841 810.906 135.108 861.092 120.861 903C127.978 860.452 121.202 815.162 120.002 772.35C119.429 751.912 117.768 731.674 115.588 711.355C113.473 691.645 110.018 672.029 106.801 652.474C105.234 642.95 103.588 633.441 101.912 623.937C101.411 621.101 101.2 612.687 99.4014 610.75C97.5911 608.8 88.3543 608.005 85.4544 606.574C79.6149 603.693 74.1221 599.6 69.2609 595.275C59.9418 586.984 51.8347 576.151 45.4359 565.472C30.6307 540.764 24.7116 510.61 25.0108 481.994C25.0682 476.438 34.0034 416.61 30.4149 415.786C30.631 415.533 30.8353 415.272 31.028 415C33.7448 419.549 36.4108 424.128 39.0614 428.716Z" fill="#488892"/>
<path fill-rule="evenodd" clip-rule="evenodd" d="M287.846 572.887C288.202 572.374 290.517 568.807 289.351 569.035C291.724 568.57 286.087 572.969 292 570.27C289.192 572.922 290.813 576.366 290.85 579.935C290.911 585.73 289.942 591.476 288.851 597.146C287.126 606.109 284.557 614.823 280.828 623.159C272.701 641.326 258.901 658.814 242.518 670.172C234.43 675.779 226.504 677.689 217.28 680.27C211.453 681.901 210.991 684.915 207.898 690.569C201.46 702.345 195.136 714.078 189.457 726.251C182.677 740.788 176.095 755.34 169.886 770.132C148.969 819.957 131.945 871.578 123.005 925C122.786 893.519 130.069 861.095 139.255 831.088C145.947 809.226 154.658 788.151 163.95 767.29C166.201 762.236 169.613 755.735 170.57 750.155C171.239 746.245 169.192 742.486 168.255 738.367C164.601 722.33 164.863 704.363 168.071 688.24C171.609 670.461 181.839 662.209 199.145 659.691C205.474 658.769 213.519 659.107 219.322 656.408C225.645 653.47 228.253 643.81 231.849 637.61C241.506 620.953 252.98 604.979 266.155 590.945C269.803 587.059 273.726 583.473 277.888 580.15C280.513 578.053 286.058 575.47 287.846 572.887Z" fill="#488892"/>
<path fill-rule="evenodd" clip-rule="evenodd" d="M88.845 896.729C88.3997 893.71 90.7396 891 93.7915 891H155.209C158.26 891 160.6 893.71 160.155 896.729L155.408 928.918C153.961 938.73 145.541 946 135.622 946H113.378C103.459 946 95.039 938.73 93.5919 928.918L88.845 896.729Z" fill="#488892"/>
</g>
<rect x="206" y="110" width="173" height="328.591" rx="8" fill="#F0FAFE"/>
<rect x="224" y="156" width="137" height="137" fill="#B8D7DD"/>
<path d="M273 188.5C273 179.7 275.667 171.167 277 168C289.833 168 315.9 169.4 317.5 175C319.5 182 319.5 188.5 315.5 198C311.5 207.5 308.5 211 304.5 224.5C300.5 238 301.5 237.5 300.5 246C299.5 254.5 302 254 304.5 261C306.5 266.6 305.333 272.333 304.5 274.5H282.5V256.5C280.667 246.833 277 226.9 277 224.5C277 221.5 273 199.5 273 188.5Z" fill="#98C0D3"/>
<g clip-path="url(#clip0_96_1721)">
<rect x="214" y="319" width="158" height="42" rx="4" fill="white"/>
<g clip-path="url(#clip1_96_1721)">
<rect x="223" y="331.6" width="100" height="6.3" rx="3" fill="#DAEEFF"/>
<rect x="223" y="342.1" width="67.1233" height="6.3" rx="3" fill="#DAEEFF"/>
</g>
</g>
<rect x="323" y="221" width="195" height="324" rx="8" fill="#ADC2CD"/>
<g opacity="0.5">
<path fill-rule="evenodd" clip-rule="evenodd" d="M423.579 278.581C427.483 280.945 431.319 282.087 433.12 281.621C437.636 280.452 438.051 263.855 434.557 257.312C431.063 250.769 413.101 247.917 412.196 260.881C411.882 265.38 413.762 269.395 416.541 272.672L411.559 296H426.029L423.579 278.581Z" fill="#B28B67"/>
<path fill-rule="evenodd" clip-rule="evenodd" d="M424.302 262.313C425.554 260.44 426.755 259.012 428.319 258.182C434.68 258.283 435.425 257.138 435.425 253.276C434.398 252.537 430.772 251.293 426.712 250.943C424.641 250.348 422.187 250.46 419.824 251.453C416.906 252.285 414.435 254.076 413.344 257.43C409.396 264.275 412.392 271.401 416.431 273.836C417.506 272.556 418.444 271.316 419.281 270.129C418.609 269.469 418.191 268.548 418.191 267.529C418.191 265.521 419.811 263.894 421.809 263.894C421.956 263.894 422.101 263.903 422.243 263.92C422.333 266.43 422.703 274.921 423.675 277.87C424.82 281.347 431.506 282.201 433.838 282.201C435.852 282.201 435.784 280.285 435.734 278.912C435.727 278.714 435.721 278.527 435.721 278.36C435.721 278.009 435.267 278.01 434.753 278.011C434.087 278.012 433.321 278.014 433.321 277.245C433.321 276.408 434.473 275.766 435.503 275.191C436.146 274.833 436.742 274.5 436.982 274.164C437.738 273.101 437.992 271.667 436.852 271.667C436.229 271.667 435.373 272.028 434.345 272.462C432.791 273.118 430.842 273.941 428.698 273.941C425.155 273.941 424.313 262.456 424.302 262.313Z" fill="#191847"/>
</g>
<g clip-path="url(#clip2_96_1721)">
<g clip-path="url(#clip3_96_1721)">
<rect x="337" y="311" width="167" height="54" rx="4" fill="white"/>
<g clip-path="url(#clip4_96_1721)">
<rect x="376" y="327.2" width="109" height="8.1" rx="3" fill="#DAEEFF"/>
<rect x="376" y="340.7" width="73.1644" height="8.1" rx="3" fill="#DAEEFF"/>
</g>
<path fill-rule="evenodd" clip-rule="evenodd" d="M358 350C364.627 350 370 344.627 370 338C370 331.373 364.627 326 358 326C351.373 326 346 331.373 346 338C346 344.627 351.373 350 358 350Z" fill="#C5CFD6"/>
</g>
<g clip-path="url(#clip5_96_1721)">
<rect x="337" y="373" width="167" height="42" rx="4" fill="white"/>
<g clip-path="url(#clip6_96_1721)">
<rect x="376" y="385.6" width="109" height="6.3" rx="3" fill="#DAEEFF"/>
<rect x="376" y="396.1" width="73.1644" height="6.3" rx="3" fill="#DAEEFF"/>
</g>
<path fill-rule="evenodd" clip-rule="evenodd" d="M358 406C364.627 406 370 400.627 370 394C370 387.373 364.627 382 358 382C351.373 382 346 387.373 346 394C346 400.627 351.373 406 358 406Z" fill="#C5CFD6"/>
</g>
<g clip-path="url(#clip7_96_1721)">
<rect x="337" y="423" width="167" height="42" rx="4" fill="white"/>
<g clip-path="url(#clip8_96_1721)">
<rect x="376" y="435.6" width="109" height="6.3" rx="3" fill="#DAEEFF"/>
<rect x="376" y="446.1" width="73.1644" height="6.3" rx="3" fill="#DAEEFF"/>
</g>
<path fill-rule="evenodd" clip-rule="evenodd" d="M358 456C364.627 456 370 450.627 370 444C370 437.373 364.627 432 358 432C351.373 432 346 437.373 346 444C346 450.627 351.373 456 358 456Z" fill="#AFB9C5"/>
</g>
<g clip-path="url(#clip9_96_1721)">
<rect x="337" y="473" width="167" height="42" rx="4" fill="white"/>
<g clip-path="url(#clip10_96_1721)">
<rect x="376" y="485.6" width="109" height="6.3" rx="3" fill="#DAEEFF"/>
<rect x="376" y="496.1" width="73.1644" height="6.3" rx="3" fill="#DAEEFF"/>
</g>
<path fill-rule="evenodd" clip-rule="evenodd" d="M358 506C364.627 506 370 500.627 370 494C370 487.373 364.627 482 358 482C351.373 482 346 487.373 346 494C346 500.627 351.373 506 358 506Z" fill="#C5CFD6"/>
</g>
</g>
<path d="M290.501 168.492L295.962 168.816L301.422 169.387L295.611 224.597L283.31 238.876L290.501 168.492Z" fill="#D9D9D9"/>
<path d="M286.837 235.36L297.337 228.36L297.337 248.764C297.337 249.369 297.448 249.97 297.663 250.537L299.768 256.087C301.009 259.358 298.592 262.86 295.093 262.86L290.309 262.86C287.196 262.86 284.84 260.046 285.387 256.981L286.76 249.296C286.811 249.006 286.837 248.712 286.837 248.417L286.837 235.36Z" fill="#D9D9D9"/>
<path d="M302.835 274.5L284.335 274.5L284.335 269.025C284.335 268.35 284.479 267.682 284.758 267.066V267.066C285.739 264.901 288.171 263.796 290.447 264.481L292.439 265.08C293.35 265.354 294.322 265.362 295.238 265.104L297.121 264.572C300.585 263.593 303.917 266.485 303.435 270.052L302.835 274.5Z" fill="#D9D9D9"/>
<path fill-rule="evenodd" clip-rule="evenodd" d="M283.935 552.992C291.802 555.254 298.986 555.44 301.895 553.799C309.19 549.683 302.242 520.872 293.157 511.215C284.071 501.557 251.588 504.991 256.006 527.765C257.54 535.669 262.658 541.718 268.992 546.076L271.127 588.617L296.235 581.889L283.935 552.992Z" fill="#B28B67"/>
<path fill-rule="evenodd" clip-rule="evenodd" d="M279.947 501.584C276.236 501.459 271.16 502.44 269.13 503.241C269.557 500.07 269.179 496.767 267.965 493.778C266.785 490.873 264.755 488.675 262.792 486.327C261.888 485.245 260.909 484.19 259.687 483.504C258.442 482.805 257.022 482.504 255.631 482.552C254.207 482.601 252.812 483.002 251.545 483.644C250.985 483.927 250.524 484.341 249.982 484.648C249.427 484.962 249.038 484.667 248.505 484.408C247.219 483.785 245.57 483.75 244.208 483.944C242.679 484.162 241.202 484.797 239.92 485.661C238.672 486.503 237.557 487.625 236.863 489.011C236.554 489.628 236.304 490.303 236.211 490.999C236.172 491.284 236.195 491.441 235.964 491.604C235.75 491.755 235.472 491.832 235.25 491.981C233.094 493.418 231.557 495.789 231.083 498.433C230.806 499.975 231.147 502.469 231.955 505.149C232.763 507.83 237.097 514.228 240.073 516.188C242.729 517.937 246.135 518.649 249.208 518.537C247.874 521.244 247.329 524.328 247.13 527.368C246.914 530.671 247.121 533.987 247.745 537.255C248.338 540.36 249.18 543.586 250.693 546.374C252.109 548.982 254.152 550.885 256.929 551.696C258.201 552.067 259.511 552.251 260.817 552.39C262.104 552.527 263.391 552.65 264.681 552.575C267.122 552.433 269.764 551.637 271.054 549.321C271.518 548.487 272.001 547.465 272.253 546.53C272.343 546.194 272.394 545.976 272.113 545.747C271.776 545.471 271.31 545.317 270.924 545.134C268.72 544.096 267.065 542.364 266.139 540.028C265.199 537.658 265.011 534.324 267.107 532.617C269.695 530.511 273.339 531.156 276.331 531.866C276.393 527.654 277.73 523.518 280.825 520.764C284.249 517.718 288.727 516.269 292.336 513.475C293.276 512.747 294.22 511.953 294.758 510.839C294.982 510.374 295.233 509.781 295.23 509.245C295.224 508.543 294.652 508.105 294.187 507.681C291.721 505.431 283.657 501.71 279.947 501.584Z" fill="#081116"/>
<path fill-rule="evenodd" clip-rule="evenodd" d="M276.635 675.28L315.902 812.859L344.552 914.262H365.448L335.003 675.28H276.635Z" fill="#353A3E"/>
<path fill-rule="evenodd" clip-rule="evenodd" d="M266.134 675.28C265.225 746.19 262.128 784.866 261.175 791.308C260.221 797.751 245.802 838.735 217.917 914.262H239.564C275.063 841.807 294.88 800.822 299.014 791.308C303.148 781.794 315.906 743.118 335.122 675.28H266.134Z" fill="#50595F"/>
<path fill-rule="evenodd" clip-rule="evenodd" d="M215.982 933.726L217.065 911.018L239.81 911.018C255.987 922.372 282.05 929.401 282.05 929.401V933.726H240.893L226.813 931.564V933.726H215.982Z" fill="#593C18"/>
<path fill-rule="evenodd" clip-rule="evenodd" d="M341.62 933.726L342.703 911.018L365.448 911.018C381.625 922.372 407.688 929.401 407.688 929.401V933.726H366.531L352.451 931.564V933.726H341.62Z" fill="#593C18"/>
<path fill-rule="evenodd" clip-rule="evenodd" d="M202.078 733.551C205.027 727.015 217.096 660.905 217.096 660.905L236.471 660.313C236.471 660.313 217.672 731.569 216.145 735.759C214.162 741.203 218.117 748.872 220.799 754.072C221.214 754.876 221.599 755.621 221.926 756.29C218.513 757.961 216.783 756.147 214.959 754.235C212.899 752.076 210.719 749.791 205.859 752.259C203.982 753.212 202.212 754.324 200.484 755.41C194.513 759.16 189.027 762.606 181.249 758.182C180.016 757.481 178.596 754.726 181.716 752.426C189.491 746.693 200.636 736.747 202.078 733.551ZM401.979 668.566L364.975 646.99L359.348 666.535L394.851 677.043C405.659 687.316 411.534 691.455 412.476 689.458C413.27 687.775 412.364 686.373 411.529 685.082C410.879 684.076 410.272 683.137 410.546 682.185C411.172 680.01 417.659 679.55 423.834 679.375C430.008 679.201 427.937 676.668 426.319 675.48C419.675 672.401 411.561 670.096 401.979 668.566Z" fill="#B28B67"/>
<path fill-rule="evenodd" clip-rule="evenodd" d="M282.498 570.09L293.523 564.16C316.386 600.966 346.825 635.11 392.101 660.501L385.288 679.08C346.907 664.76 311.187 654.677 292.417 626.342C286.118 616.833 284.304 582.47 282.498 570.09Z" fill="#C5CFD6"/>
<path fill-rule="evenodd" clip-rule="evenodd" d="M261.946 688.644C261.946 688.644 313.185 685.099 341.129 674.682C343.437 673.821 343.11 669.767 341.526 667.256C316.867 628.147 298.568 593.455 293.406 564.181C289.085 567.404 276.935 567.823 276.935 567.823C261.014 601.736 257.354 638.072 261.946 688.644Z" fill="#00606E"/>
<path fill-rule="evenodd" clip-rule="evenodd" d="M270.402 566.368C270.886 565.902 271.143 565.668 271.143 565.668L271.209 566.225L280.061 564.665C280.966 567.198 283.325 576.764 286.764 590.712C299.261 641.398 326.026 749.955 349.178 789.223L240.589 808.37C234.452 760.167 242.024 699.894 251.75 648.134C240.621 663.916 228.825 689.162 222.685 728.808L201.426 727.181C206.43 634.349 259.05 577.65 269.386 567.364C269.455 567.078 269.522 566.794 269.59 566.511L270.402 566.368Z" fill="#DAEEFF"/>
<path fill-rule="evenodd" clip-rule="evenodd" d="M501.781 740.211L533.679 763.635C542.331 765.97 549.559 768.874 555.364 772.349C556.735 773.598 558.392 776.128 552.705 775.691C547.019 775.254 541.018 775.049 540.233 776.989C539.449 778.928 542.89 781.248 541.304 783.865C540.246 785.61 535.251 781.235 526.317 770.741L494.73 757.642L501.781 740.211Z" fill="#B28B67"/>
<path fill-rule="evenodd" clip-rule="evenodd" d="M438.695 653.332L447.342 651.849C479.425 679.564 492.603 732.809 531.93 761.015L522.464 772.748C454.24 764.3 437.33 699.355 438.695 653.332Z" fill="#D8AE6D"/>
<path fill-rule="evenodd" clip-rule="evenodd" d="M967.858 576.763C962.385 582.443 956.482 586.061 953.264 586.092C945.196 586.17 937.106 558.756 940.031 546.311C942.955 533.866 971.707 521.079 978.996 542.231C981.526 549.572 980.173 557.092 976.989 563.785L995.71 600.347L971.523 606.827L967.858 576.763Z" fill="#D4A181"/>
<path fill-rule="evenodd" clip-rule="evenodd" d="M940.839 533.289C935.899 535.273 931.831 536.907 929.678 536.229C930.569 544.804 936.58 550.301 951.121 545.031C954.895 545.986 958.152 548.799 962.173 552.557C962.785 552.104 963.491 551.757 964.272 551.547C967.611 550.653 971.044 552.633 971.938 555.971C972.392 557.666 972.105 559.385 971.275 560.783C973.203 562.382 975.324 564.024 977.691 565.671C983.318 559.853 985.165 546.797 975.731 537.199C967.698 522.501 952.03 528.794 940.839 533.289Z" fill="#0C0C2B"/>
<path fill-rule="evenodd" clip-rule="evenodd" d="M1016.19 693.535L964.985 823.09L930.639 932.618H917.077L969.584 693.535L1016.19 693.535Z" fill="#BA8B72"/>
<path fill-rule="evenodd" clip-rule="evenodd" d="M1026.51 693.535C1027.05 739.061 1035 800.355 1036.27 803.193C1037.54 806.031 1123.99 875.371 1123.99 875.371L1114.65 885.363C1114.65 885.363 1012.65 825.913 1007.93 817.983C1003.21 810.054 987.841 737.089 975.503 693.535H1026.51Z" fill="#D4A181"/>
<path fill-rule="evenodd" clip-rule="evenodd" d="M1122.52 873.411C1122.84 872.286 1124.03 871.617 1125.13 872.017C1127.22 872.778 1130.35 874.035 1131.73 875.188C1133.89 877.002 1137.43 881.2 1137.43 881.2C1135.33 883.707 1099.61 926.26 1099.61 926.26C1099.61 926.26 1092.32 923.144 1095.04 918.971C1097.75 914.799 1099.48 911.982 1099.48 911.982L1107.73 883.162C1107.89 882.621 1108.46 882.314 1109 882.484L1113.43 883.892C1113.43 883.892 1118.01 881.76 1119.85 879.57C1120.99 878.216 1121.95 875.38 1122.52 873.411Z" fill="#192327"/>
<path fill-rule="evenodd" clip-rule="evenodd" d="M933.387 926.357C934.458 925.884 935.731 926.36 936.132 927.46C936.894 929.553 937.943 932.757 937.943 934.552C937.943 937.373 937.003 942.785 937.003 942.785C933.729 942.785 878.157 942.785 878.157 942.785C878.157 942.785 875.863 935.205 880.805 934.601C885.747 933.997 889.016 933.51 889.016 933.51L916.408 921.303C916.923 921.074 917.525 921.315 917.74 921.835L919.515 926.139C919.515 926.139 924.09 928.273 926.95 928.273C928.718 928.273 931.512 927.187 933.387 926.357Z" fill="#192327"/>
<path fill-rule="evenodd" clip-rule="evenodd" d="M981.763 921.336L917.281 914.341L965.07 693.535H1022.82L981.763 921.336Z" fill="#00606F"/>
<path fill-rule="evenodd" clip-rule="evenodd" d="M1110.66 859.25L1068.36 909.294C1068.36 909.294 1001.53 836.34 990.441 814.089C979.348 791.838 970.496 693.535 970.496 693.535H1035.52C1035.52 693.535 1040.35 780.017 1042.04 784.042C1043.72 788.066 1110.66 859.25 1110.66 859.25Z" fill="#00798C"/>
<path fill-rule="evenodd" clip-rule="evenodd" d="M1109.37 707.292C1104.38 702.511 1069.73 647.75 1069.73 647.75L1052.21 654.217C1052.21 654.217 1094.73 711.15 1097.61 714.346C1101.35 718.498 1100.58 726.783 1100.06 732.402C1099.98 733.271 1099.91 734.076 1099.86 734.793C1103.51 735.054 1104.4 732.808 1105.34 730.44C1106.4 727.765 1107.52 724.934 1112.75 725.386C1114.77 725.561 1116.76 725.916 1118.69 726.263C1125.38 727.462 1131.52 728.562 1136.87 721.798C1137.72 720.725 1137.99 717.749 1134.37 716.819C1125.36 714.5 1111.82 709.629 1109.37 707.292ZM894.646 713.76L923.179 683.922L933.581 700.548L903.497 719.725C896.219 732.122 891.878 737.52 890.476 735.92C889.293 734.57 889.76 733.03 890.19 731.611C890.525 730.505 890.837 729.473 890.331 728.663C889.173 726.813 883.045 728.111 877.281 729.59C871.518 731.07 872.762 728.171 873.945 726.639C879.28 722.018 886.18 717.726 894.646 713.76Z" fill="#D4A181"/>
<path fill-rule="evenodd" clip-rule="evenodd" d="M967.341 588.146L979.125 590.713C979.515 593.603 980.246 597.682 981.083 602.355C983.712 617.023 987.389 637.545 984.881 645.5C976.192 673.062 951.529 690.969 924.059 710.914C920.377 713.587 916.645 716.297 912.894 719.072L901.651 703.658C902.489 702.81 903.318 701.96 904.138 701.108C902.758 700.882 901.494 700.046 900.773 698.725C899.531 696.449 900.369 693.599 902.646 692.357C907.271 689.833 911.735 688.326 916.005 687.885C942.227 656.518 957.604 622.498 967.341 588.146Z" fill="#69A1AC"/>
<path fill-rule="evenodd" clip-rule="evenodd" d="M1037.19 694.296C1037.19 694.296 989.675 708.16 960.914 707.746C958.539 707.711 956.894 697.791 957.482 694.899C966.653 649.858 972.133 617.104 966.976 587.852C971.964 589.432 983.09 585.748 983.09 585.748C1008.87 612.285 1024.37 645.214 1037.19 694.296Z" fill="#CFDADF"/>
<path fill-rule="evenodd" clip-rule="evenodd" d="M1098.73 683.97C1055.8 607.431 990.9 581.83 990.9 581.83L989.301 582.112L985.35 582.809L979.215 583.891C983.623 601.154 981.894 627.711 979.887 658.519L979.887 658.52C976.678 707.791 972.761 767.934 992.113 818.317C1005.09 818.903 1019.42 814.414 1034.93 809.555L1034.94 809.555C1057.33 802.541 1082.19 794.756 1108.98 800.338C1104.33 779.608 1088.05 758.625 1071.83 737.736C1061.57 724.52 1051.34 711.341 1044.11 698.288C1045.03 697.106 1045.34 695.492 1044.79 693.982L1043.59 690.679C1042.87 688.721 1040.94 687.558 1038.96 687.734C1038.35 686.269 1037.79 684.806 1037.28 683.345C1034.66 675.803 1034.11 667.99 1033.56 660.264L1033.56 660.264C1033.26 656.023 1032.96 651.808 1032.33 647.679C1048.25 657.506 1068.67 675.935 1089.26 710.49L1107.66 701.36C1106.43 698.735 1105.17 696.162 1103.89 693.639C1105.92 692.006 1107.53 685.663 1105.47 685.017C1103.29 684.334 1101.04 683.988 1098.73 683.97Z" fill="#82B9C1"/>
<path fill-rule="evenodd" clip-rule="evenodd" d="M986.837 583.606L995.012 598.966L986.491 613.063L997.831 620.961L981.534 665.023L1003.05 620.124L991.865 612.116L999.437 599.65L986.837 583.606Z" fill="black" fill-opacity="0.1"/>
<path fill-rule="evenodd" clip-rule="evenodd" d="M991.096 679.222C988.826 679.622 986.662 678.107 986.262 675.838C985.862 673.569 987.378 671.406 989.647 671.005C991.917 670.605 994.082 672.12 994.482 674.389C994.882 676.658 993.366 678.822 991.096 679.222ZM990.124 703.75C987.854 704.15 985.69 702.635 985.29 700.366C984.89 698.097 986.405 695.934 988.675 695.533C990.945 695.133 993.109 696.648 993.509 698.917C993.91 701.186 992.394 703.349 990.124 703.75ZM988.427 724.169C988.827 726.438 990.992 727.953 993.262 727.553C995.532 727.153 997.047 724.989 996.647 722.72C996.247 720.451 994.083 718.936 991.813 719.337C989.543 719.737 988.027 721.901 988.427 724.169Z" fill="black" fill-opacity="0.4"/>
<path fill-rule="evenodd" clip-rule="evenodd" d="M1199.43 277.571C1203.33 273.666 1209.67 273.666 1213.57 277.571L1267.43 331.429C1271.33 335.334 1271.33 341.666 1267.43 345.571L1213.57 399.429C1209.67 403.334 1203.33 403.334 1199.43 399.429L1145.57 345.571C1141.67 341.666 1141.67 335.334 1145.57 331.429L1199.43 277.571Z" fill="#AFC5CF" fill-opacity="0.31"/>
<path fill-rule="evenodd" clip-rule="evenodd" d="M464.177 639.65C471.462 644.041 478.62 646.162 481.98 645.296C490.406 643.125 491.18 612.302 484.661 600.151C478.142 587.999 444.628 582.703 442.939 606.779C442.353 615.134 445.861 622.592 451.045 628.676L441.75 672H468.75L464.177 639.65Z" fill="#997659"/>
<path fill-rule="evenodd" clip-rule="evenodd" d="M465.527 609.438C467.863 605.96 470.105 603.308 473.021 601.767C484.891 601.955 486.281 599.827 486.281 592.655C484.364 591.283 477.599 588.973 470.024 588.323C466.159 587.217 461.581 587.425 457.171 589.27C451.727 590.815 447.117 594.141 445.081 600.369C437.714 613.083 443.305 626.317 450.84 630.838C452.846 628.461 454.597 626.158 456.158 623.954C454.904 622.728 454.125 621.018 454.125 619.125C454.125 615.397 457.147 612.375 460.875 612.375C461.149 612.375 461.419 612.391 461.685 612.423C461.853 617.084 462.543 632.853 464.356 638.33C466.494 644.788 478.969 646.374 483.32 646.374C487.078 646.374 486.95 642.815 486.858 640.265C486.845 639.897 486.833 639.551 486.833 639.239C486.833 638.588 485.985 638.589 485.028 638.591C483.784 638.594 482.356 638.597 482.356 637.17C482.356 635.615 484.504 634.422 486.427 633.355C487.627 632.689 488.739 632.072 489.186 631.447C490.596 629.472 491.071 626.81 488.943 626.81C487.78 626.81 486.185 627.48 484.265 628.287C481.367 629.505 477.73 631.033 473.729 631.033C467.119 631.033 465.547 609.704 465.527 609.438Z" fill="#081116"/>
<path fill-rule="evenodd" clip-rule="evenodd" d="M576.573 845.275C574.483 868.141 576.572 917.291 577.696 931.469C578.403 940.38 590.539 938.047 591.672 930.915C591.863 929.707 592.645 925.463 593.812 919.13C599.533 888.076 614.507 806.801 614.533 787.039C614.545 777.977 594.385 770.73 586.319 781.677C579.688 777.016 570.276 775.766 564.473 785.18C560.08 792.306 549.642 812.538 538.51 836.164C528.758 856.861 513.519 907.102 513.519 907.102L526.456 913.017C526.456 913.017 558.413 861.602 578.534 825.553C577.866 831.756 577.202 838.397 576.573 845.275Z" fill="#997659"/>
<path fill-rule="evenodd" clip-rule="evenodd" d="M514.444 888.502L558.847 783.241C569.484 766.118 599.308 786.725 595.68 796.657C587.445 819.204 545.56 892.199 543.107 898.916L514.444 888.502Z" fill="#4A0E16"/>
<path fill-rule="evenodd" clip-rule="evenodd" d="M615.657 795.257C615.657 825.093 602.588 895.225 602.579 901.794L570.921 900.726C570.921 900.726 579.222 809.263 577.922 808.643C575.973 807.713 498.001 819.442 474.616 820.328C440.895 821.605 426.945 800.903 425.813 761.617H491.133C491.133 761.617 574.913 771.624 601.261 775.538C612.54 777.213 615.657 787.038 615.657 795.257Z" fill="#5F0D18"/>
<path fill-rule="evenodd" clip-rule="evenodd" d="M514.882 903.172C513.96 902.449 512.609 902.604 511.952 903.574C510.607 905.557 508.596 908.736 508.118 910.658C507.383 913.608 506.955 919.513 506.955 919.513C510.375 920.367 568.431 934.852 568.431 934.852C568.431 934.852 572.802 927.522 567.797 925.602C562.791 923.681 559.503 922.32 559.503 922.32L534.006 902.366C533.562 902.018 532.919 902.106 532.585 902.56L529.562 906.662C529.562 906.662 524.227 907.701 521.239 906.956C519.344 906.483 516.622 904.535 514.882 903.172Z" fill="#E4E4E4"/>
<path fill-rule="evenodd" clip-rule="evenodd" d="M578.847 913.302C577.778 912.825 576.504 913.302 576.101 914.402C575.276 916.652 574.093 920.223 574.093 922.203C574.093 925.244 575.106 931.077 575.106 931.077C578.631 931.077 638.464 931.077 638.464 931.077C638.464 931.077 640.933 922.907 635.612 922.256C630.292 921.604 626.772 921.079 626.772 921.079L597.208 907.89C596.694 907.661 596.091 907.901 595.876 908.423L593.935 913.135C593.935 913.135 589.009 915.435 585.93 915.435C583.977 915.435 580.865 914.204 578.847 913.302Z" fill="#E4E4E4"/>
<rect x="575.217" y="931.077" width="59.5367" height="7.86885" rx="3.93443" fill="#50595F"/>
<path d="M411.21 778.08C411.21 772.557 415.687 768.08 421.21 768.08H543.873C549.396 768.08 553.873 772.557 553.873 778.08V834.403H415.21C413.001 834.403 411.21 832.612 411.21 830.403V778.08Z" fill="#50595F"/>
<path fill-rule="evenodd" clip-rule="evenodd" d="M542.64 768.08H546.151C551.049 768.08 555.226 771.627 556.019 776.461L580.833 927.705H568.83" fill="#50595F"/>
<path fill-rule="evenodd" clip-rule="evenodd" d="M575.217 950.187C586.384 950.187 595.437 941.128 595.437 929.953C595.437 918.778 586.384 909.719 575.217 909.719C564.05 909.719 554.997 918.778 554.997 929.953C554.997 941.128 564.05 950.187 575.217 950.187Z" fill="#081116"/>
<path fill-rule="evenodd" clip-rule="evenodd" d="M511.187 862.506C511.187 909.689 472.964 947.939 425.813 947.939C378.663 947.939 340.44 909.689 340.44 862.506C340.44 815.322 378.663 777.073 425.813 777.073C472.964 777.073 511.187 815.322 511.187 862.506ZM495.46 862.506C495.46 900.998 464.278 932.201 425.813 932.201C387.349 932.201 356.167 900.998 356.167 862.506C356.167 824.014 387.349 792.81 425.813 792.81C464.278 792.81 495.46 824.014 495.46 862.506Z" fill="#081116"/>
<rect x="421.32" y="788.314" width="8.98667" height="148.384" fill="#081116"/>
<rect width="8.98982" height="148.332" rx="2" transform="matrix(0.706859 0.707355 -0.706859 0.707355 475.061 806.865)" fill="#081116"/>
<rect x="499.953" y="858.009" width="8.99297" height="148.28" rx="2" transform="rotate(90 499.953 858.009)" fill="#081116"/>
<rect width="8.98982" height="148.332" rx="2" transform="matrix(-0.706859 0.707355 -0.706859 -0.707355 481.416 911.788)" fill="#081116"/>
<path fill-rule="evenodd" clip-rule="evenodd" d="M397.308 741.02C397.308 741.02 387.328 798.963 384.398 804.908C382.965 807.815 372.362 816.645 365.005 821.69C362.051 823.715 363.274 826.306 364.389 826.994C373.462 832.592 379.435 825.973 387.288 822.32C395.891 818.317 395.165 829.619 401.985 826.567C399.891 821.874 394.994 813.14 397.308 807.406C398.851 803.583 418.205 741.102 418.205 741.102L397.308 741.02Z" fill="#997659"/>
<path fill-rule="evenodd" clip-rule="evenodd" d="M419 762C419 762 471.008 762 495.511 762C499.008 762 498.349 756.952 497.843 754.404C492.011 725.004 469.241 693.312 469.241 651.461L447.172 648C428.917 677.358 422.605 713.505 419 762Z" fill="#DAEEFF"/>
<path fill-rule="evenodd" clip-rule="evenodd" d="M410.397 783C406.958 791.259 403.586 798.465 400.409 804H384C382.235 746.919 403.845 702.996 421.932 676.513C417.916 676.226 414.291 674.545 412 670.411C403.934 655.856 406.847 647.842 415.467 645.208C420.207 643.76 424.666 644.748 430.002 645.932C434.369 646.9 439.325 647.999 445.504 648C445.506 648 445.508 648 445.51 648C446.109 648 446.654 648.04 447.149 648.117L454.472 648.535C454.472 648.535 484.205 749.305 470.872 783H410.397Z" fill="#FCC876"/>
<path fill-rule="evenodd" clip-rule="evenodd" d="M410.397 783C414.909 772.164 419.535 759.516 423.987 746.454C425.645 760.839 428.405 775.286 433 783H410.397Z" fill="black" fill-opacity="0.1"/>
<path fill-rule="evenodd" clip-rule="evenodd" d="M159 426.5L183 450.5L159 474.5L135 450.5L159 426.5Z" fill="#FEDAA1"/>
<path fill-rule="evenodd" clip-rule="evenodd" d="M1148 628L1160 640L1148 652L1136 640L1148 628Z" fill="#30638E" fill-opacity="0.31"/>
<path d="M337 136.101H352.087C360.851 136.101 368.494 130.648 370.632 122.876L386.308 65.7796C386.605 64.6969 388.31 64.7592 388.508 65.859L407.122 168C407.122 168 406.031 140.325 413.122 135.075C416.407 132.644 430 135.761 430 135.761" stroke="#9DD1D9" stroke-width="13.1807" stroke-miterlimit="10" stroke-linecap="round" stroke-linejoin="round"/>
<defs>
<clipPath id="clip0_96_1721">
<rect width="158" height="42" fill="white" transform="translate(214 319)"/>
</clipPath>
<clipPath id="clip1_96_1721">
<rect width="100" height="16.8" fill="white" transform="translate(223 331.6)"/>
</clipPath>
<clipPath id="clip2_96_1721">
<rect width="167" height="204" fill="white" transform="translate(337 311)"/>
</clipPath>
<clipPath id="clip3_96_1721">
<rect width="167" height="54" fill="white" transform="translate(337 311)"/>
</clipPath>
<clipPath id="clip4_96_1721">
<rect width="109" height="21.6" fill="white" transform="translate(376 327.2)"/>
</clipPath>
<clipPath id="clip5_96_1721">
<rect width="167" height="42" fill="white" transform="translate(337 373)"/>
</clipPath>
<clipPath id="clip6_96_1721">
<rect width="109" height="16.8" fill="white" transform="translate(376 385.6)"/>
</clipPath>
<clipPath id="clip7_96_1721">
<rect width="167" height="42" fill="white" transform="translate(337 423)"/>
</clipPath>
<clipPath id="clip8_96_1721">
<rect width="109" height="16.8" fill="white" transform="translate(376 435.6)"/>
</clipPath>
<clipPath id="clip9_96_1721">
<rect width="167" height="42" fill="white" transform="translate(337 473)"/>
</clipPath>
<clipPath id="clip10_96_1721">
<rect width="109" height="16.8" fill="white" transform="translate(376 485.6)"/>
</clipPath>
</defs>
</svg>
