<svg width="3087" height="2069" viewBox="0 0 3087 2069" fill="none" xmlns="http://www.w3.org/2000/svg">
<path fill-rule="evenodd" clip-rule="evenodd" d="M896.354 936.176C1071.5 1234 2312.13 1897.66 2611.5 1712.5C3072.5 1660 3230.78 591.29 2656 433.109C2081.22 274.928 791.5 481.5 896.354 936.176Z" fill="#FBF2E2"/>
<path fill-rule="evenodd" clip-rule="evenodd" d="M907 518C1006.41 518 1087 437.411 1087 338C1087 238.589 1006.41 158 907 158C807.589 158 727 238.589 727 338C727 437.411 807.589 518 907 518Z" fill="#D3DCE0"/>
<path fill-rule="evenodd" clip-rule="evenodd" d="M907 205.547C912.627 205.547 917.189 200.986 917.189 195.358C917.189 189.731 912.627 185.17 907 185.17C901.373 185.17 896.811 189.731 896.811 195.358C896.811 200.986 901.373 205.547 907 205.547Z" fill="#63868B"/>
<path fill-rule="evenodd" clip-rule="evenodd" d="M764.359 348.189C769.986 348.189 774.547 343.627 774.547 338C774.547 332.373 769.986 327.811 764.359 327.811C758.731 327.811 754.17 332.373 754.17 338C754.17 343.627 758.731 348.189 764.359 348.189Z" fill="#63868B"/>
<path fill-rule="evenodd" clip-rule="evenodd" d="M1049.64 348.189C1055.27 348.189 1059.83 343.627 1059.83 338C1059.83 332.373 1055.27 327.811 1049.64 327.811C1044.01 327.811 1039.45 332.373 1039.45 338C1039.45 343.627 1044.01 348.189 1049.64 348.189Z" fill="#63868B"/>
<path fill-rule="evenodd" clip-rule="evenodd" d="M907 490.83C912.627 490.83 917.189 486.269 917.189 480.641C917.189 475.014 912.627 470.453 907 470.453C901.373 470.453 896.811 475.014 896.811 480.641C896.811 486.269 901.373 490.83 907 490.83Z" fill="#63868B"/>
<path fill-rule="evenodd" clip-rule="evenodd" d="M847.164 229.325L908.967 331.09L896.972 337.468L847.164 229.325Z" fill="#63868B"/>
<path fill-rule="evenodd" clip-rule="evenodd" d="M900.012 255.768L915.287 336.121L901.776 337.541L900.012 255.768Z" fill="#63868B"/>
<path fill-rule="evenodd" clip-rule="evenodd" d="M907 351.585C914.503 351.585 920.585 345.503 920.585 338C920.585 330.497 914.503 324.415 907 324.415C899.497 324.415 893.415 330.497 893.415 338C893.415 345.503 899.497 351.585 907 351.585Z" fill="#63868B"/>
<path fill-rule="evenodd" clip-rule="evenodd" d="M2670.92 1348.02C2707.01 1666.27 1831.72 1873.85 1078.34 1728.98C324.954 1584.12 -20.6619 1018.4 338.84 716.969C698.342 415.534 2634.83 1029.78 2670.92 1348.02Z" fill="#F9E6C7" fill-opacity="0.5"/>
<path fill-rule="evenodd" clip-rule="evenodd" d="M1411.74 1368C1453.72 1368 1487.74 1402.03 1487.74 1444V1970C1487.74 2011.97 1453.72 2046 1411.74 2046H537.276C495.302 2046 461.276 2011.97 461.276 1970V1444C461.276 1402.03 495.302 1368 537.276 1368H1411.74ZM1344 1464C1368.85 1464 1389 1484.15 1389 1509V1904C1389 1928.85 1368.85 1949 1344 1949H606C581.147 1949 561 1928.85 561 1904V1509C561 1484.15 581.147 1464 606 1464H1344Z" fill="#C5CFD6"/>
<path d="M421.362 644.674L336.686 559.954C333.561 556.828 328.494 556.828 325.369 559.954L112.821 772.613C109.822 775.614 108.137 779.682 108.137 783.924V2023.62" stroke="#C2CFD6" stroke-width="8"/>
<rect width="220.003" height="26.1049" rx="3" transform="matrix(-1 0 0 1 220.003 2019.9)" fill="#CADCE6"/>
<path d="M491.832 542.102C477.969 528.239 455.491 528.239 441.628 542.102L317.8 665.93C303.937 679.793 303.937 702.271 317.8 716.134L453.546 851.88L627.578 677.848L491.832 542.102Z" fill="#CCD2D5"/>
<path fill-rule="evenodd" clip-rule="evenodd" d="M554.75 780.014C506.695 828.074 460.066 859.36 450.6 849.894C441.135 840.428 472.418 793.793 520.473 745.733C568.528 697.673 615.158 666.386 624.623 675.853C634.088 685.319 602.805 731.954 554.75 780.014Z" fill="#FCC876"/>
<path fill-rule="evenodd" clip-rule="evenodd" d="M548.038 1215.41C548.038 1305.2 555.124 1378 650.24 1378C745.357 1378 752.443 1305.2 752.443 1215.41" fill="#B5CED2"/>
<path fill-rule="evenodd" clip-rule="evenodd" d="M678.537 1159.38C675.05 1165.41 671.942 1171.56 669.196 1177.8C669.099 1164.94 669.809 1152 671.75 1138.87C675.068 1116.39 680.135 1094.02 684.896 1071.7C688.318 1055.65 688.102 1026.83 701.088 1014.04C704.649 1011.28 705.507 1016.7 705.507 1019.05C705.552 1019.55 705.497 1009.45 702.04 1011.21C681.494 1021.82 674.837 1055.18 668.259 1071.89C658.662 1096.27 650.496 1121.2 647.134 1146.57C646.284 1152.98 645.821 1159.39 645.715 1165.78C645.016 1164.07 644.36 1162.35 643.635 1160.64C631.776 1132.83 615.773 1105.69 595.813 1080.66C590.9 1074.5 529.125 1013.74 524.289 1023.04C524.766 1024.39 525.765 1025.51 527.288 1026.4C527.378 1026.5 527.38 1026.45 527.328 1026.3C530.956 1032.16 541.271 1041.21 544.485 1046.35C552.571 1059.27 558.855 1072.98 565.242 1086.43C578.736 1114.86 591.253 1143.58 603.387 1172.35C606.213 1179.06 609.157 1185.72 612.162 1192.37C581.191 1147.69 539.875 1107.14 483 1083.92C502.425 1093.81 515.161 1112.4 528.28 1126.64C544.102 1143.81 560.766 1160.52 576.618 1177.67C595.316 1197.9 617.316 1219.21 635.3 1241.6C652.72 1278.17 669.648 1314.79 680.097 1353.23C675.816 1339.95 679.762 1321.59 679.029 1307.65C678.447 1296.56 677.15 1285.55 675.373 1274.57C677.57 1279.52 679.464 1284.48 680.321 1289.09C679.538 1281.36 678.636 1273.67 677.667 1266.02C680.155 1258.87 682.597 1252.19 684.247 1246.68C692.704 1218.46 702.773 1190.71 716.486 1163.68C729.174 1138.66 743.729 1113.97 759.588 1090.03C766.986 1078.87 774.486 1067.75 781.939 1056.61C786.817 1049.32 791.461 1037.64 798.253 1030.65C754.353 1070.79 706.389 1111.22 678.537 1159.38" fill="#B5CED2"/>
<path fill-rule="evenodd" clip-rule="evenodd" d="M1982.9 781.994C1961.29 798.879 1939.19 808.468 1928.09 807.024C1900.26 803.403 1885.69 705.291 1901.81 663.928C1917.92 622.566 2023.18 592.476 2038.03 668.685C2043.18 695.134 2034.87 720.324 2020.65 741.792L2067.41 876.468L1980.93 887.085L1982.9 781.994Z" fill="#D4A181"/>
<path fill-rule="evenodd" clip-rule="evenodd" d="M1910.91 619.564C1892.93 624.003 1878.12 627.657 1871.04 624.29C1869.94 654.191 1887.98 675.978 1940.64 664.873C1953.17 669.976 1963.03 681.213 1975.06 696.064C1977.39 694.804 1979.99 693.949 1982.78 693.607C1994.72 692.141 2005.58 700.602 2007.04 712.505C2007.79 718.548 2005.96 724.316 2002.42 728.723C2008.29 735.148 2014.8 741.813 2022.15 748.612C2044.37 731.33 2057.06 687.35 2029.22 649.817C2008.68 595.433 1951.65 609.51 1910.91 619.564Z" fill="#0D2029"/>
<path fill-rule="evenodd" clip-rule="evenodd" d="M3022.32 1188.96C3015.54 1182.5 3003.63 1184.77 2995.78 1187.24C2992.75 1188.19 2984.93 1191.45 2978.95 1195.43C2980.04 1192.32 2981.05 1189.18 2981.98 1186C2985.82 1172.92 2988.96 1159.51 2991.27 1146.08C2992.08 1141.4 2992.15 1135.87 2992.47 1130.51C2992.81 1130.22 2993.06 1129.81 2993.21 1129.22C2993.23 1130.44 2993.06 1130.47 2993.75 1129.67C3000.2 1122.11 3005.89 1113.43 3007.69 1103.37C3009.21 1094.84 3003.95 1077.77 2992.56 1087.88C2987.47 1092.39 2984.6 1127.82 2991.14 1130.76C2987.99 1142.25 2984.37 1153.66 2980.2 1164.87C2979.78 1164.74 2979.34 1164.69 2978.9 1164.7C2979.27 1161.84 2979.63 1158.71 2979.64 1157.62C2979.68 1148.24 2974.02 1128.55 2961.17 1130.79C2951.3 1132.51 2955.83 1144.73 2958.51 1150.15C2962.81 1158.89 2968.32 1163.08 2975.34 1168.17C2975.29 1169.93 2976.31 1171.08 2977.62 1171.56C2970.46 1189.61 2961.79 1207.02 2951.2 1223.19C2950.67 1217.65 2950.06 1210.63 2949.34 1209.16C2945.88 1202.01 2937.45 1192.8 2928.36 1195.77C2909.27 1202.01 2926.23 1228.11 2941.37 1232.46C2941.91 1233.41 2942.51 1234.19 2943.19 1234.68C2939.59 1239.52 2935.81 1244.22 2931.81 1248.77C2925.81 1255.62 2919.44 1262.39 2912.8 1269.1C2913.28 1263.32 2912.45 1250.22 2911.96 1248.77C2908.96 1239.95 2898.53 1230.04 2888.59 1234.94C2877.41 1240.46 2885.4 1254.21 2890.69 1260.62C2892.85 1263.25 2903.9 1273.23 2908.15 1273.75C2892.15 1289.52 2874.74 1304.83 2857.14 1319.49C2859.28 1312.28 2863.3 1292.19 2863.37 1289.92C2863.73 1278.2 2858.15 1258.75 2842.46 1261.55C2827.23 1264.27 2831.54 1284.31 2835.52 1294.08C2837.94 1299.99 2841.51 1306.13 2846.16 1310.59C2848 1312.36 2851.29 1313.66 2852.82 1315.52C2854.35 1317.38 2853.37 1319.47 2855.03 1321.25C2845.53 1329.13 2835.98 1336.82 2826.58 1344.29C2822.15 1347.82 2817.65 1351.26 2813.12 1354.64C2810.99 1353.47 2807.66 1354.32 2807.47 1357.48C2807.44 1357.94 2807.5 1358.34 2807.6 1358.72C2804.17 1361.23 2800.73 1363.71 2797.26 1366.16C2797.43 1365.35 2797.54 1364.2 2797.58 1362.59C2800.15 1367.25 2800.04 1357.07 2800.62 1354.88C2802.48 1347.85 2805.28 1341.16 2806.05 1333.87C2807.15 1323.32 2802.44 1304.89 2787.56 1309.56C2773.87 1313.84 2776.82 1329.99 2780.62 1340.34C2783.02 1346.89 2786.64 1352.9 2790.49 1358.7C2792.19 1361.28 2794.19 1365.98 2795.64 1367.31C2776.34 1380.88 2756.53 1393.73 2736.94 1406.9C2736.82 1405.84 2736.74 1404.8 2736.68 1403.82C2736.98 1404.25 2737.43 1404.48 2738.03 1404.51C2741.35 1394.31 2762.38 1340.22 2730.83 1346.61C2709.47 1350.96 2719.33 1393.48 2733.06 1409.52C2722.82 1416.44 2712.66 1423.48 2702.69 1430.78C2695.47 1436.06 2688.43 1441.58 2681.6 1447.32C2685.7 1439.34 2689.91 1428.89 2688.94 1420.08C2687.54 1407.26 2675.58 1393.95 2661.78 1399.59C2635.79 1410.27 2674.31 1435.79 2677.51 1450.82C2655.73 1469.74 2636.51 1491.32 2622.4 1516.8C2607.06 1544.5 2591.43 1582.28 2593.88 1615.5C2594.45 1599.11 2603.31 1578.88 2608.02 1566.77C2615.4 1547.8 2624.88 1529.6 2636.54 1512.89C2655.22 1486.11 2678.35 1464.21 2704.37 1444.9C2712.67 1448.86 2721.69 1457.06 2726.36 1459.72C2734.91 1464.58 2751.55 1472.06 2758.67 1460.59C2765.67 1449.31 2752.05 1441.01 2743.44 1437.33C2735.13 1433.78 2727.32 1433.21 2719.05 1434.41C2735.26 1423.13 2751.85 1412.38 2768.36 1401.54C2780.62 1414.07 2796.44 1447.7 2815.09 1433.27C2836.48 1416.72 2801.84 1393.49 2785.98 1393.2C2784.04 1393.16 2782.13 1393.35 2780.25 1393.7C2797.79 1382.04 2815.11 1370.09 2831.69 1357.06C2840.19 1359.62 2861.25 1400.1 2880.35 1385.56C2889.9 1378.3 2888.42 1365.13 2880.95 1356.85C2873.45 1348.53 2861.34 1347.17 2850.78 1348.49C2846.21 1349.05 2841.88 1350.62 2837.77 1352.67C2837.6 1352.66 2837.45 1352.66 2837.29 1352.65C2853.62 1339.68 2870.08 1326.4 2886.05 1312.54C2886.29 1312.65 2886.54 1312.76 2886.78 1312.87C2887.52 1314.01 2888.92 1314.55 2890.26 1314.47C2901.33 1319.69 2916.33 1327.26 2928.56 1326.34C2936.99 1325.7 2945.24 1319.9 2939.19 1310.91C2934.28 1303.61 2918.76 1302.82 2911.06 1303.54C2905.73 1304.05 2899.4 1307.43 2893.45 1309.62C2893.12 1308.7 2892.43 1308.06 2891.6 1307.7C2907.41 1293.75 2922.63 1279.18 2936.69 1263.78C2948.98 1267.12 2964.55 1283.01 2977.07 1271.27C2990.12 1259.01 2969.4 1248.65 2958.97 1248.77C2955.45 1248.81 2951.91 1249.4 2948.46 1250.31C2958.88 1237.5 2967.31 1223.5 2973.83 1208.53C2973.94 1208.6 2974.02 1208.67 2974.15 1208.75C2974.04 1208.67 2973.94 1208.58 2973.84 1208.5C2974.49 1207 2975.12 1205.5 2975.73 1203.98C2976.58 1203.63 2977.37 1203.39 2977.75 1203.29C2972.71 1205.96 2992.24 1209.76 2995.9 1210.47C3003.98 1212.04 3014.88 1213.52 3021.63 1207.57C3027.29 1202.57 3027.94 1194.31 3022.32 1188.96" fill="#DCE9F0"/>
<path fill-rule="evenodd" clip-rule="evenodd" d="M2298.75 1600.89C2303.77 1597.56 2311.06 1600.33 2315.76 1602.77C2317.57 1603.71 2322.16 1606.65 2325.51 1609.84C2325.16 1607.75 2324.88 1605.64 2324.64 1603.52C2323.67 1594.81 2323.18 1585.96 2323.21 1577.2C2323.23 1574.14 2323.8 1570.63 2324.19 1567.2C2324.01 1566.98 2323.9 1566.69 2323.87 1566.3C2323.72 1567.07 2323.83 1567.1 2323.48 1566.52C2320.23 1561.02 2317.6 1554.87 2317.59 1548.3C2317.57 1542.73 2322.81 1532.51 2328.9 1540.18C2331.62 1543.61 2329.48 1566.37 2325.01 1567.5C2325.72 1575.13 2326.74 1582.77 2328.13 1590.33C2328.41 1590.3 2328.69 1590.32 2328.97 1590.37C2329.06 1588.52 2329.18 1586.5 2329.29 1585.81C2330.31 1579.86 2336.1 1568.02 2343.99 1570.87C2350.05 1573.07 2345.82 1580.3 2343.52 1583.44C2339.82 1588.49 2335.85 1590.53 2330.84 1592.97C2330.68 1594.09 2329.9 1594.7 2329.02 1594.86C2331.53 1607.1 2335.08 1619.09 2339.99 1630.52C2340.94 1627.07 2342.11 1622.69 2342.73 1621.84C2345.72 1617.7 2352.09 1612.81 2357.52 1615.7C2368.92 1621.79 2355.26 1636.43 2345.18 1637.49C2344.73 1638.03 2344.26 1638.46 2343.78 1638.7C2345.52 1642.16 2347.39 1645.57 2349.41 1648.89C2352.45 1653.9 2355.73 1658.91 2359.19 1663.9C2359.53 1660.18 2361.51 1651.98 2361.99 1651.11C2364.88 1645.86 2372.59 1640.74 2378.34 1644.96C2384.8 1649.71 2378.21 1657.52 2374.14 1660.99C2372.48 1662.42 2364.36 1667.51 2361.61 1667.36C2369.98 1679.14 2379.31 1690.78 2388.82 1702.04C2388.27 1697.23 2387.96 1684.06 2388.17 1682.61C2389.26 1675.14 2394.96 1663.44 2404.59 1666.97C2413.93 1670.39 2408.97 1682.61 2405.35 1688.35C2403.16 1691.83 2400.21 1695.32 2396.77 1697.63C2395.4 1698.54 2393.18 1699 2392 1700.01C2390.82 1701.01 2391.21 1702.45 2389.96 1703.39C2395.1 1709.44 2400.29 1715.38 2405.41 1721.16C2407.82 1723.89 2410.29 1726.57 2412.78 1729.23C2414.26 1728.72 2416.27 1729.63 2416.04 1731.65C2416.01 1731.95 2415.93 1732.2 2415.82 1732.42C2417.71 1734.4 2419.62 1736.35 2421.54 1738.29C2421.52 1737.76 2421.58 1737.02 2421.74 1735.99C2419.59 1738.66 2420.79 1732.22 2420.67 1730.77C2420.28 1726.11 2419.25 1721.56 2419.58 1716.85C2420.06 1710.05 2425.1 1698.9 2434.01 1703.52C2442.2 1707.76 2438.53 1717.66 2434.97 1723.8C2432.71 1727.68 2429.75 1731.08 2426.66 1734.33C2425.3 1735.77 2423.5 1738.52 2422.44 1739.2C2433.15 1749.96 2444.27 1760.31 2455.2 1770.84C2455.4 1770.19 2455.57 1769.53 2455.71 1768.92C2455.48 1769.16 2455.16 1769.25 2454.78 1769.21C2453.81 1762.37 2446.54 1725.76 2465.81 1733.33C2478.86 1738.47 2467.86 1764.31 2457.37 1772.93C2463.08 1778.46 2468.73 1784.06 2474.23 1789.8C2478.22 1793.95 2482.06 1798.23 2485.75 1802.63C2484.04 1797.12 2482.54 1790.03 2484.14 1784.55C2486.46 1776.59 2495.52 1769.49 2503.63 1774.6C2518.91 1784.27 2491.66 1796.14 2487.95 1805.3C2499.63 1819.72 2509.4 1835.55 2515.49 1853.26C2522.12 1872.52 2527.79 1898.21 2522.53 1918.97C2524.01 1908.53 2520.65 1894.72 2519.02 1886.52C2516.46 1873.68 2512.49 1861.09 2506.97 1849.2C2498.13 1830.15 2485.92 1813.7 2471.59 1798.55C2465.89 1800.14 2459.26 1804.32 2456.01 1805.48C2450.04 1807.61 2438.67 1810.49 2435.44 1802.43C2432.27 1794.5 2441.82 1790.76 2447.68 1789.39C2453.35 1788.07 2458.36 1788.58 2463.47 1790.27C2454.45 1781.31 2445.15 1772.65 2435.9 1763.94C2426.73 1770.5 2412.95 1790.04 2402.75 1778.82C2391.04 1765.94 2415.58 1755.1 2425.66 1756.68C2426.9 1756.88 2428.09 1757.21 2429.24 1757.64C2419.43 1748.3 2409.79 1738.79 2400.74 1728.69C2395.07 1729.35 2377.21 1752.65 2366.73 1741.3C2361.5 1735.63 2363.9 1727.46 2369.56 1723.05C2375.24 1718.62 2383.06 1719.11 2389.61 1721.12C2392.44 1721.99 2395.01 1723.47 2397.38 1725.23C2397.49 1725.24 2397.59 1725.25 2397.69 1725.26C2388.79 1715.22 2379.85 1704.97 2371.28 1694.41C2371.11 1694.45 2370.95 1694.49 2370.78 1694.53C2370.18 1695.17 2369.24 1695.36 2368.4 1695.16C2360.8 1697.23 2350.45 1700.35 2342.81 1698.4C2337.54 1697.05 2332.96 1692.46 2337.79 1687.44C2341.72 1683.36 2351.64 1684.59 2356.44 1685.91C2359.76 1686.83 2363.39 1689.68 2366.92 1691.73C2367.23 1691.19 2367.74 1690.86 2368.3 1690.72C2359.85 1680.11 2351.83 1669.19 2344.65 1657.86C2336.48 1658.6 2324.84 1666.93 2318.23 1658.09C2311.33 1648.87 2325.61 1644.62 2332.21 1645.86C2334.43 1646.28 2336.61 1647.05 2338.69 1648.01C2333.53 1638.73 2329.74 1628.92 2327.29 1618.71C2327.21 1618.74 2327.15 1618.78 2327.06 1618.81C2327.14 1618.77 2327.21 1618.73 2327.29 1618.69C2327.04 1617.67 2326.81 1616.64 2326.59 1615.61C2326.09 1615.3 2325.62 1615.05 2325.39 1614.95C2328.28 1617.2 2315.49 1617.43 2313.09 1617.47C2307.79 1617.56 2300.72 1617.28 2297.11 1612.76C2294.08 1608.96 2294.59 1603.66 2298.75 1600.89" fill="#63868B"/>
<path fill-rule="evenodd" clip-rule="evenodd" d="M2496.48 1020.91C2511.25 1020.54 2522.61 1035.87 2529.06 1047.09C2531.54 1051.42 2537.11 1063.54 2539.77 1074.56C2541.84 1069.76 2544.04 1065.01 2546.36 1060.3C2555.93 1040.92 2566.66 1021.88 2578.37 1003.71C2581.42 998.968 2585.45 994.121 2589.53 989.211C2590.91 987.547 2592.3 985.876 2593.66 984.2C2593.58 983.51 2593.73 982.754 2594.18 981.905C2593.91 982.195 2593.7 982.435 2593.54 982.618C2593.28 982.915 2593.15 983.064 2593.09 983.039C2593.03 983.015 2593.04 982.816 2593.06 982.419C2593.07 982.264 2593.08 982.079 2593.09 981.863C2593.7 966.166 2596.42 949.951 2605.12 936.27C2612.49 924.668 2636.87 910.287 2639.23 934.215C2640.29 944.908 2605.65 989.422 2594.94 985.909C2586.28 1002.71 2578.24 1019.91 2571.07 1037.46C2571.69 1037.76 2572.25 1038.16 2572.75 1038.63C2575.39 1034.89 2578.32 1030.85 2579.48 1029.57C2589.48 1018.55 2617.12 1001.5 2629.6 1017.78C2639.19 1030.29 2620.85 1039.77 2611.95 1043.28C2597.61 1048.93 2586.73 1047.98 2573.16 1046.48C2571.33 1048.6 2568.92 1048.86 2566.88 1048.04C2555.83 1076.76 2547.23 1106.35 2542.17 1136.53C2542.6 1136.14 2543.04 1135.74 2543.49 1135.34C2549.78 1129.63 2557.11 1122.98 2559.34 1122.08C2571.02 1117.39 2590.65 1115.57 2597.99 1128.7C2613.4 1156.29 2565.81 1168.82 2543.62 1157.82C2541.97 1158.36 2540.44 1158.64 2539.14 1158.49C2538.12 1167.97 2537.46 1177.5 2537.21 1187.07C2536.82 1201.45 2536.95 1216.16 2537.45 1231.06C2543.09 1223.79 2558.07 1209.34 2560.2 1208.16C2573.13 1201.02 2595.82 1200.5 2602.08 1216.79C2609.11 1235.14 2585.13 1242.73 2572.14 1244.62C2566.82 1245.4 2543.32 1245.34 2537.85 1241.45C2539.48 1276.9 2543.24 1313.31 2547.92 1349.17C2553.16 1338.45 2570.02 1310.67 2572.38 1307.94C2584.53 1293.84 2611.82 1277 2626.99 1296.95C2641.71 1316.31 2615.26 1335.19 2600.17 1342.39C2591.04 1346.75 2580.33 1350.13 2570.17 1350.42C2568.34 1350.47 2566.27 1350.09 2564.21 1349.72L2564.21 1349.72C2561.72 1349.27 2559.23 1348.81 2557.17 1349.11C2555.34 1349.38 2554.14 1350.34 2552.95 1351.3C2551.69 1352.3 2550.44 1353.3 2548.47 1353.46C2551.04 1372.79 2553.85 1391.94 2556.73 1410.66C2558.09 1419.5 2559.61 1428.3 2561.23 1437.08C2564.96 1437.97 2567.91 1442.5 2564.74 1446.41C2564.28 1446.97 2563.78 1447.38 2563.26 1447.71C2564.54 1454.29 2565.87 1460.86 2567.25 1467.41C2567.93 1466.28 2569.04 1464.81 2570.72 1462.89C2564.83 1464.91 2569.31 1458.99 2572.73 1454.48L2572.73 1454.48C2573.94 1452.88 2575.01 1451.47 2575.45 1450.64C2577.16 1447.38 2578.73 1444.07 2580.29 1440.76L2580.29 1440.76C2583.63 1433.69 2586.96 1426.65 2591.68 1420.28C2601.7 1406.75 2626.89 1390.19 2639.13 1411.47C2650.39 1431.02 2629.67 1446.79 2614.19 1454.87C2604.39 1459.98 2593.75 1463.17 2583.09 1465.88C2581.19 1466.37 2578.86 1467.2 2576.56 1468.03C2573.13 1469.26 2569.76 1470.47 2567.91 1470.48C2573.29 1495.61 2579.34 1520.59 2585.39 1545.58L2585.39 1545.58C2588.1 1556.78 2590.81 1567.97 2593.46 1579.18C2594.73 1578.07 2595.95 1576.93 2597.07 1575.85C2596.26 1576.03 2595.49 1575.83 2594.75 1575.22C2595.29 1574.05 2595.98 1572.48 2596.81 1570.58C2606.91 1547.5 2637.68 1477.21 2665.12 1515.1C2685.2 1542.88 2628.23 1582.17 2595.15 1586.36C2599.59 1605.34 2603.82 1624.37 2607.54 1643.51C2610.24 1657.36 2612.49 1671.3 2614.24 1685.28C2618.04 1671.58 2624.37 1654.88 2634.92 1645.59C2650.29 1632.08 2678.38 1629.2 2688.32 1650.46C2700.68 1677.01 2673.33 1681.15 2647.68 1685.02C2634.58 1687 2621.93 1688.92 2615.23 1693.71C2620.19 1739 2619.32 1784.69 2608.37 1829.49C2596.46 1878.21 2574.07 1939.04 2535.65 1975.32C2550.53 1957.9 2561.15 1930.18 2568.61 1910.71C2569.62 1908.06 2570.58 1905.56 2571.48 1903.26C2583.26 1873.22 2591.78 1841.85 2596.18 1809.89C2603.23 1758.71 2599.91 1708.5 2590.47 1658.25C2581.88 1655.66 2571.23 1654.68 2562.4 1653.87C2556.99 1653.37 2552.27 1652.94 2549.13 1652.24C2534.01 1648.85 2506.74 1639.92 2510.79 1618.93C2514.77 1598.3 2539.42 1603.05 2553.33 1607.89C2566.77 1612.56 2576.42 1620.18 2584.71 1630.38C2579.06 1604.68 2572.7 1579.14 2566.33 1553.61L2566.33 1553.61C2565.16 1548.92 2563.99 1544.22 2562.83 1539.53C2556.21 1539.92 2548.06 1541.51 2539.4 1543.2C2511.93 1548.57 2479.39 1554.93 2474.72 1527.03C2467.68 1484.92 2532.67 1494.53 2551.35 1511.04C2553.64 1513.06 2555.65 1515.31 2557.46 1517.71C2549.63 1485.44 2542.38 1453.04 2537.13 1420.19C2533.26 1418.33 2524.15 1419.41 2513.22 1420.71L2513.21 1420.71C2488.63 1423.64 2454.79 1427.67 2450.26 1401.85C2446.99 1383.21 2462.81 1369.36 2480.33 1367.61C2497.92 1365.84 2513.39 1377.11 2524.22 1389.87C2528.91 1395.38 2532.24 1401.83 2534.8 1408.59C2535 1408.76 2535.19 1408.91 2535.38 1409.07C2530.36 1376.54 2525.54 1343.51 2521.88 1310.32C2521.49 1310.19 2521.09 1310.06 2520.69 1309.93C2518.61 1310.48 2516.41 1309.63 2514.94 1308.11C2514.35 1307.93 2513.75 1307.75 2513.15 1307.56C2512.56 1307.39 2511.98 1307.21 2511.38 1307.03C2493.37 1301.54 2470.22 1294.5 2457.88 1281.31C2448.8 1271.61 2445.46 1256.06 2462.09 1251.96C2475.61 1248.64 2494.43 1264.2 2502.56 1273.22C2506.53 1277.63 2509.54 1284.22 2512.56 1290.84L2512.56 1290.84L2512.56 1290.84C2513.83 1293.62 2515.1 1296.41 2516.45 1299.04C2517.81 1298.32 2519.3 1298.31 2520.65 1298.76C2517.29 1265.64 2515.26 1232.42 2515.48 1199.46C2510.25 1196.77 2503.54 1195.05 2496.61 1193.28C2479.94 1189.01 2462.05 1184.43 2460.71 1165.32C2458.72 1137.11 2493.82 1146.99 2505.76 1158.21C2509.8 1162 2513.26 1166.45 2516.28 1171.18C2517.95 1145.12 2523.18 1119.77 2531.67 1095.33C2531.59 1095.32 2531.52 1095.31 2531.44 1095.3C2531.32 1095.29 2531.2 1095.27 2531.06 1095.24C2531.19 1095.26 2531.31 1095.26 2531.42 1095.27L2531.42 1095.27C2531.51 1095.28 2531.6 1095.28 2531.69 1095.29C2532.54 1092.85 2533.42 1090.41 2534.34 1087.99C2533.73 1086.67 2533.07 1085.55 2532.74 1085.04C2535.72 1093.51 2509.03 1077.21 2504.04 1074.16C2492.99 1067.41 2478.78 1057.56 2477.34 1043.43C2476.14 1031.56 2484.24 1021.2 2496.48 1020.91ZM2536.73 1976.19C2531.86 1981.96 2526.71 1986.73 2521.32 1989.84C2526.66 1985.72 2531.8 1981.14 2536.73 1976.19Z" fill="#CDDFE9"/>
<path fill-rule="evenodd" clip-rule="evenodd" d="M2385.18 1334.16C2426.8 1332.34 2478.28 1352.79 2482.72 1390.88C2485.95 1418.56 2484.95 1446.15 2489.94 1473.79C2493.94 1495.87 2502.38 1517.07 2513.89 1537.19C2524.97 1556.54 2547.94 1573.01 2553.91 1593.67C2557.72 1606.84 2555.59 1625.36 2550.34 1638.25C2543.95 1653.91 2547.34 1652.67 2560.07 1665.81C2585 1691.56 2607.45 1717.97 2623.33 1748.73C2646.2 1793.03 2661.19 1844.81 2652.7 1893.3C2651.62 1899.46 2650.34 1921.56 2640.27 1923.11C2629.02 1924.83 2634.28 1912.19 2634.88 1908.11C2638.71 1882.06 2642.11 1859.29 2637.49 1832.84C2619.68 1730.76 2532.68 1663.5 2476.04 1576.86C2472.93 1572.4 2466.35 1561.76 2461.78 1554.74C2454.57 1543.66 2447.31 1522.57 2437.54 1514.36C2419.15 1498.88 2436.06 1530 2439.64 1535.94C2444.18 1543.45 2449.16 1551.44 2453.81 1558.02C2475.06 1588.54 2498.78 1621.86 2520.73 1653.33C2425.8 1671.53 2358.95 1575.46 2333.48 1512.3C2312.49 1460.27 2287.38 1338.61 2385.18 1334.16" fill="#63868B"/>
<path fill-rule="evenodd" clip-rule="evenodd" d="M2943.1 1237.52C2873.51 1242.17 2828.84 1280.82 2808.04 1334.89C2796.84 1364.02 2795.55 1393.95 2789.32 1423.9C2779.95 1468.94 2759.79 1503.08 2720.39 1535.17C2708.19 1545.11 2699.2 1555.32 2692.81 1566.24C2680.12 1577.14 2669.07 1589.47 2660.95 1604.56C2650.59 1623.82 2647.65 1646.93 2659.62 1666.13C2662.84 1671.29 2670.87 1681.65 2679.19 1686.36C2648.04 1742.21 2630.91 1803.38 2632.84 1864.47C2634.01 1901.35 2636.14 1938.24 2638.64 1975.08C2639.31 1984.97 2643.14 2001.3 2648.88 1984.71C2654.14 1969.54 2647.55 1945.72 2646.94 1929.87C2643.97 1852.67 2641.43 1782.47 2679.18 1710.33C2683.14 1702.77 2687.34 1695.27 2691.71 1687.83C2691.97 1687.71 2692.21 1687.55 2692.45 1687.41C2692.62 1687.52 2692.77 1687.63 2692.93 1687.74C2693.21 1687.32 2693.6 1686.82 2694.04 1686.26C2695.3 1685.17 2696.39 1683.8 2697.43 1682.26C2700.78 1678.35 2704.57 1673.76 2704.59 1671.25C2704.59 1671.23 2704.58 1671.2 2704.58 1671.18C2727.95 1639.07 2754.72 1608.72 2782.07 1578.96C2781.86 1579.18 2811.73 1544.95 2807.11 1563.88C2804.88 1573 2782.91 1590.38 2774.04 1600.04C2754.42 1621.54 2731.37 1648.77 2712.22 1675.11C2709.64 1676.36 2706 1682.48 2703.36 1687.04C2701.91 1689.35 2700.55 1691.68 2699.22 1693.71C2767.08 1712.58 2819.87 1674.56 2855.87 1630.34C2855.91 1630.29 2855.95 1630.24 2855.99 1630.19C2866.95 1617.97 2878.17 1605.84 2892.19 1596.18C2915.57 1580.06 2940.62 1577.22 2968.2 1569.28C3043.4 1547.65 3075.37 1465.61 3085.53 1404.74C3096.98 1336.06 3040.94 1230.75 2943.1 1237.52" fill="#96B4B9"/>
<path fill-rule="evenodd" clip-rule="evenodd" d="M2805.64 1045.2C2734.22 1107.77 2699.72 1194.56 2672.4 1276.15C2641.88 1367.28 2621.72 1459.81 2620.95 1554.56C2620.44 1616.81 2618.43 1679.45 2622.75 1741.62C2624.28 1763.71 2626.89 1785.83 2631.05 1807.67C2631.39 1809.47 2640.7 1858.24 2649.6 1846.88C2654.66 1840.41 2640.06 1796.28 2638.96 1788.93C2632.75 1747.53 2631.31 1705.82 2631.62 1664.12C2632.11 1595.46 2629.71 1527.15 2637.97 1458.74C2639.21 1448.53 2640.18 1437.8 2643.06 1427.81C2646.12 1417.18 2642.23 1421.82 2652.19 1417.62C2661.88 1413.53 2673.85 1414.11 2683.9 1408.98C2723.75 1388.64 2744.14 1336.37 2760.01 1302.08C2778.17 1262.87 2789.2 1221.06 2798.01 1179.79C2804.48 1149.47 2809.1 1119.33 2811.72 1088.62C2812.55 1078.95 2812.59 1068.82 2814.85 1059.31C2815.46 1056.74 2818.52 1052.2 2818.41 1049.93C2818.17 1045.11 2814.72 1042.28 2814.44 1038.24C2811.45 1040.51 2808.51 1042.83 2805.64 1045.2" fill="#96B4B9"/>
<path fill-rule="evenodd" clip-rule="evenodd" d="M2416.21 1878.88C2416.21 1982.36 2515.86 2066.25 2638.79 2066.25C2761.72 2066.25 2861.37 1982.36 2861.37 1878.88" fill="#96B4B9"/>
<path fill-rule="evenodd" clip-rule="evenodd" d="M2791.33 1714.83C2846.41 1711.42 2907.93 1748.83 2934.5 1787.76C2955.93 1819.15 2952.32 1860.37 2939.09 1893.71C2930.23 1916.04 2910.89 1947.87 2878.64 1948.18C2838.3 1948.57 2836.35 1906.6 2835.57 1882.06C2834.54 1849.43 2829.64 1821.01 2799.1 1798.78C2795.33 1796.03 2791.37 1793.46 2787.42 1790.89C2783.91 1788.61 2780.4 1786.33 2777.01 1783.93C2776.47 1783.55 2775.93 1783.16 2775.39 1782.78C2764.59 1775.14 2753.25 1767.11 2751.87 1754.52C2749.86 1736.27 2762.1 1732.98 2780.79 1736.37C2781.39 1736.48 2783.03 1737.01 2785.26 1737.72C2794.8 1740.76 2815.16 1747.26 2811.31 1739.49C2809.86 1736.57 2804.56 1734.25 2797.87 1732.51C2780.57 1730.93 2759.94 1729.09 2754 1730.19C2689.99 1742.01 2665.06 1816.66 2658.44 1864.08C2657.73 1869.2 2657.15 1874.34 2656.65 1879.48H2644.89C2645.7 1867.06 2646.78 1854.66 2649.25 1842.38C2658.68 1795.4 2688.18 1726.4 2752.89 1718.78C2755.27 1718.49 2764.05 1718.44 2774.69 1718.97C2779.73 1716.6 2785.38 1715.16 2791.33 1714.83Z" fill="#63868B"/>
<path fill-rule="evenodd" clip-rule="evenodd" d="M2371.59 1600H2083.22L2045.43 2063H2474.7L2371.59 1600Z" fill="#FCC876"/>
<path fill-rule="evenodd" clip-rule="evenodd" d="M2371.59 1600H2282.9L2229.82 2063H2474.7L2371.59 1600Z" fill="black" fill-opacity="0.1"/>
<path fill-rule="evenodd" clip-rule="evenodd" d="M2079 1236.5L1997 1652L1928.41 2010.79H1881.23L1960.5 1236.5H2079Z" fill="#B28B67"/>
<path fill-rule="evenodd" clip-rule="evenodd" d="M1968 1351.64L2130.85 1770.51L2206.21 1974.56L2247 1967L2100.28 1327.12L1968 1351.64Z" fill="#B28B67"/>
<path fill-rule="evenodd" clip-rule="evenodd" d="M1935.31 2000.74C1936.35 2000.21 1937.63 2000.66 1938.07 2001.74C1940.38 2007.33 1946.66 2023.25 1946.79 2031.24C1946.97 2041.03 1944.02 2059.86 1944.02 2059.86C1932.63 2060.06 1739.31 2063.43 1739.31 2063.43C1739.31 2063.43 1730.88 2037.27 1748.03 2034.88C1765.19 2032.48 1776.53 2030.59 1776.53 2030.59L1873.39 1985.5C1873.9 1985.26 1874.5 1985.49 1874.73 1986.01L1882.18 2003.17C1882.18 2003.17 1898.22 2010.29 1908.17 2010.12C1916.21 2009.98 1930.21 2003.3 1935.31 2000.74Z" fill="#0D2029"/>
<path fill-rule="evenodd" clip-rule="evenodd" d="M2065.4 1963.62L1839.74 1964.9L1918.2 1184.75L2117.85 1162L2065.4 1963.62Z" fill="#00606E"/>
<path fill-rule="evenodd" clip-rule="evenodd" d="M2282 1893L2072.5 1949.5C2072.5 1949.5 1992.91 1723.49 1978 1630C1965 1548.5 1947.59 1181.12 1947.59 1181.12H2173.81C2173.81 1181.12 2180.14 1575.03 2186 1589C2191.86 1602.97 2282 1893 2282 1893Z" fill="#00798C"/>
<path fill-rule="evenodd" clip-rule="evenodd" d="M2250.68 1939.11C2251.49 1938.26 2252.84 1938.25 2253.63 1939.12C2257.72 1943.6 2269.09 1956.44 2271.97 1963.9C2275.49 1973.05 2279.21 1991.77 2279.21 1991.77C2268.59 1995.83 2088.3 2064.73 2088.3 2064.73C2088.3 2064.73 2071.38 2042.99 2086.66 2034.9C2101.93 2026.81 2111.93 2021.18 2111.93 2021.18L2187.33 1945.83C2187.72 1945.43 2188.37 1945.44 2188.76 1945.85L2201.66 1959.46C2201.66 1959.46 2219.17 1960.71 2228.45 1957.16C2235.94 1954.3 2246.78 1943.27 2250.68 1939.11Z" fill="#0D2029"/>
<path fill-rule="evenodd" clip-rule="evenodd" d="M1651.72 1072.28L1789.29 1113.41L1754.14 1171.77L1647.19 1109.04C1597.25 1106.09 1573.66 1101.19 1576.41 1094.33C1578.73 1088.55 1584.24 1087.56 1589.32 1086.65C1593.28 1085.95 1596.97 1085.29 1598.69 1082.44C1602.6 1075.95 1588.9 1059.05 1575.22 1043.57C1561.54 1028.09 1572.49 1027.37 1579.11 1028.61C1601.86 1037.81 1626.06 1052.37 1651.72 1072.28ZM2246.99 1088.02L2319.02 1064.35C2385.25 1189.78 2423.96 1258.22 2435.14 1269.66C2443.34 1278.06 2489.82 1296.56 2520.87 1305.68C2533.33 1309.34 2532.02 1319.63 2528.94 1323.24C2509.51 1346.05 2488.29 1341.5 2465.2 1336.54C2458.51 1335.11 2451.67 1333.64 2444.66 1332.79C2426.53 1330.59 2422.29 1340.27 2418.28 1349.42C2414.72 1357.51 2411.35 1365.19 2398.69 1363.85C2398.96 1361.37 2399.31 1358.59 2399.7 1355.58C2402.19 1336.17 2405.85 1307.54 2393.37 1292.7C2386.97 1285.09 2338.17 1216.86 2246.99 1088.02Z" fill="#D4A181"/>
<path fill-rule="evenodd" clip-rule="evenodd" d="M2010.71 822.654L1978.9 821.151C1919.1 895.111 1910.77 1056.18 1868.11 1082.6C1827.78 1107.59 1764.82 1095.93 1689.61 1079L1673.58 1130.85C1747.71 1193.42 1894.49 1235.95 1946.84 1194.96C2030.52 1129.42 2027.51 932.391 2010.71 822.654Z" fill="#122A36"/>
<path fill-rule="evenodd" clip-rule="evenodd" d="M2194.45 1196.33C2194.45 1196.33 2007.07 1219.33 1918.79 1230.17C1906.19 1231.72 1906.34 1213.29 1907.03 1203.92C1915.08 1095.73 1983.14 971.814 1964.68 821.482L2042.67 799.287C2121.39 896.671 2160.08 1023.72 2194.45 1196.33Z" fill="#F5FCFF"/>
<path fill-rule="evenodd" clip-rule="evenodd" d="M2046.89 798.769L2047.8 798.658C2239.61 886.334 2368.25 1042.96 2433.73 1268.53L2377.33 1286.9C2333.6 1247.15 2277.43 1180.19 2208.82 1086.02C2233.54 1144.79 2253.79 1205.68 2264.97 1264.24L2016.82 1294.71C1953.92 1179.57 2016.32 802.523 2016.32 802.523L2033.45 800.42L2046.89 798.769Z" fill="#162F3A"/>
<rect x="925" y="1206.17" width="35" height="150" fill="#616466"/>
<rect x="943" y="1206.17" width="35" height="150" fill="#B1BABE"/>
<path d="M1101 1385.17C1009.67 1385.17 1095.83 1385.17 936.105 1385.17C776.385 1385.17 871.839 1385.17 799.116 1385.17C799.116 1385.17 776.385 1356.17 936.105 1356.17C1095.83 1356.17 1101 1371.22 1101 1385.17Z" fill="#6F7577"/>
<path d="M1124 1385.17C1036.29 1385.17 1119.03 1385.17 965.636 1385.17C812.241 1385.17 940.843 1385.17 871 1385.17C871 1385.17 810 1382.67 810 1369.17C838.5 1356.17 910.508 1356.17 965.636 1356.17C1119.03 1356.17 1124 1371.22 1124 1385.17Z" fill="#9CA5A7"/>
<path d="M636.109 808.938C633.84 788.63 648.564 771.987 668.998 771.764L1267.46 765.233C1287.89 765.01 1306.3 781.292 1308.56 801.601L1349.89 1171.4C1352.16 1191.7 1337.44 1208.35 1317 1208.57L718.542 1215.1C698.109 1215.32 679.705 1199.04 677.435 1178.73L636.109 808.938Z" fill="#9CA5A7"/>
<rect x="1405.31" y="971.875" width="119.735" height="155.864" rx="4" transform="rotate(13 1405.31 971.875)" fill="#D9D9D9"/>
<line x1="1476.37" y1="1025.54" x2="1503.84" y2="1032.61" stroke="black" stroke-opacity="0.58"/>
<line x1="1418.68" y1="1036.31" x2="1484.95" y2="1051.9" stroke="black" stroke-opacity="0.58"/>
<line x1="1403.65" y1="1046.35" x2="1492.75" y2="1067.09" stroke="black" stroke-opacity="0.58"/>
<line x1="1396.27" y1="1069.34" x2="1485.37" y2="1090.08" stroke="black" stroke-opacity="0.58"/>
<line x1="1399.96" y1="1057.85" x2="1489.06" y2="1078.59" stroke="black" stroke-opacity="0.58"/>
<line x1="1406.57" y1="1023.68" x2="1434.04" y2="1030.75" stroke="black" stroke-opacity="0.58"/>
<line x1="1450.69" y1="1108.24" x2="1478.16" y2="1115.31" stroke="black" stroke-opacity="0.58"/>
<line x1="1480.07" y1="1014.04" x2="1507.53" y2="1021.11" stroke="black" stroke-opacity="0.58"/>
<rect width="630.623" height="407.604" rx="36.45" transform="matrix(0.99994 -0.0109114 0.111062 0.993814 654.638 789.085)" fill="#9DD1D9"/>
<mask id="mask0_96_1394" style="mask-type:alpha" maskUnits="userSpaceOnUse" x="658" y="782" width="669" height="412">
<rect width="630.623" height="407.604" rx="36.45" transform="matrix(0.99994 -0.0109114 0.111062 0.993814 654.638 789.085)" fill="#639CA4"/>
</mask>
<g mask="url(#mask0_96_1394)">
<path fill-rule="evenodd" clip-rule="evenodd" d="M884.071 1173.95C884.071 1173.95 958.961 1211.5 1016.42 1222.67C1073.88 1233.84 1129.79 1209.3 1129.79 1209.3C1129.79 1209.3 1056.71 1171.5 1006.56 1161.76C956.414 1152.01 884.071 1173.95 884.071 1173.95Z" fill="#163045"/>
<path fill-rule="evenodd" clip-rule="evenodd" d="M1057.99 1252.84C1057.63 1251.97 1057.36 1251.06 1057.19 1250.09C1053.77 1230.05 979.862 1006.74 975.756 967.741L1103.02 992.479C1106.14 1022.13 1110.54 1205.26 1109.15 1241.35C1115.52 1299.95 1115.96 1485.82 1118.05 1499.09C1120.24 1513.06 1090.98 1521.47 1087 1504.06C1080.67 1476.34 1067.5 1400.5 1063.91 1355.06C1060.54 1312.45 1058.46 1274.31 1057.99 1252.84Z" fill="#C99778"/>
<path fill-rule="evenodd" clip-rule="evenodd" d="M949.089 1257.18C894.87 1260.2 701.246 1247.07 687.553 1248.25C673.468 1249.46 667.114 1219.68 684.767 1216.93C712.855 1212.55 789.432 1204.7 835.016 1204.29C871.682 1203.95 905.005 1204.34 927.279 1205.11C937.246 1144.06 957.19 996.779 968.789 966.387L1081.4 988.276C1070.27 1017.42 983.031 1228.89 970.485 1249.31C966.334 1256.67 957.834 1258.63 949.089 1257.18V1257.18Z" fill="#D4A181"/>
<path fill-rule="evenodd" clip-rule="evenodd" d="M969.153 966.458C969.153 966.458 1047.73 959.631 1110.01 993.837C1111.75 1067.12 1143.76 1102.3 1129.4 1211.34C1047.34 1233.98 967.287 1152.31 883.209 1173.6C871.059 1118.6 925.613 1002.45 969.153 966.458Z" fill="#162F3A"/>
</g>
<path fill-rule="evenodd" clip-rule="evenodd" d="M1210.79 792.15C1218.99 806.988 1229.23 817.782 1235.89 819.636C1252.6 824.283 1284.65 771.857 1285.51 744.389C1286.36 716.921 1233.8 674.384 1206.89 714.253C1197.55 728.091 1196.18 744.457 1199.06 760.125L1139.85 825.636L1186.45 852.541L1210.79 792.15Z" fill="#B28B67"/>
<path fill-rule="evenodd" clip-rule="evenodd" d="M1302.41 727.915C1296.43 738.285 1283.41 742.063 1272.86 736.7C1265.96 735.127 1257.67 732.11 1249.01 727.853C1248.06 731.367 1246.5 735.081 1244.24 738.991C1242.25 742.444 1239.75 745.885 1236.9 749.198C1236.34 746.003 1234.73 743.203 1232.27 741.785C1225.4 737.819 1217.36 740.709 1213.9 746.709C1209.5 754.323 1210.72 762.369 1216.88 766.515C1204.7 774.271 1191.88 778.009 1183.9 773.4C1168.73 764.644 1169.65 738.142 1182.24 716.341C1182.68 715.575 1183.14 714.823 1183.6 714.085C1176.43 714.644 1169.01 716.515 1161.53 718.4C1145.65 722.405 1129.52 726.471 1115.08 718.138C1086.21 701.464 1108.37 636.592 1148.72 659.888C1176.16 675.73 1187.34 687.524 1195.56 700.156C1201.59 695.013 1208.23 691.595 1214.7 690.267C1216.39 689.703 1218.61 689.505 1221.24 689.653C1222.88 689.69 1224.49 689.879 1226.05 690.226C1234.55 691.698 1245.77 695.747 1257.35 701.903C1259.51 703.053 1261.6 704.233 1263.62 705.433C1269.82 694.757 1283.5 691.108 1294.21 697.288C1304.93 703.479 1308.61 717.191 1302.41 727.915Z" fill="#0D2029"/>
<path fill-rule="evenodd" clip-rule="evenodd" d="M1369.61 1003.82L1286.94 971.606L1281.78 1013.45L1357.79 1023.48C1383.23 1041.03 1396.58 1047.6 1397.86 1043.21C1398.94 1039.51 1396.74 1037.12 1394.71 1034.91C1393.12 1033.19 1391.64 1031.58 1391.89 1029.54L1394.46 1018.12L1397.71 1005.53C1391.63 1003.85 1389.92 1003.85 1373.3 1003.83C1372.14 1003.83 1370.92 1003.83 1369.61 1003.82ZM832.94 932.463C846.835 927.195 961.389 847.924 961.389 847.924L990.61 875.425C990.61 875.425 858.665 952.388 850.29 956.298C839.41 961.377 833.959 978.414 830.262 989.966C829.69 991.753 829.16 993.409 828.659 994.869C821.216 992.322 821.342 987.129 821.475 981.654C821.625 975.471 821.784 968.928 811.055 965.432C806.91 964.081 802.692 963.12 798.571 962.181C784.335 958.939 771.258 955.96 766.359 938.083C765.583 935.249 767.541 929.131 775.48 930.326C795.259 933.304 826.146 935.038 832.94 932.463Z" fill="#B28B67"/>
<path fill-rule="evenodd" clip-rule="evenodd" d="M1114.9 802.845L1137.62 790.359C1171.61 916.445 1172.77 924.275 1343.48 988.363L1329.72 1027C1250 997.984 1175.25 1013.97 1135.87 955.555C1122.65 935.95 1105.7 826.762 1114.9 802.845Z" fill="#E6EAEC"/>
<path fill-rule="evenodd" clip-rule="evenodd" d="M977.543 955.849C977.543 955.849 1057.72 1025.68 1113.88 1051.32C1118.52 1053.43 1123.99 1047.01 1125.35 1041.01C1146.58 947.552 1170.65 869.886 1206 819.401C1194.95 817.8 1176.55 800.624 1176.55 800.624C1103.55 827.042 1044.94 874.966 977.543 955.849Z" fill="#CFDADF"/>
<path fill-rule="evenodd" clip-rule="evenodd" d="M1169.13 788.925C1170.52 788.95 1171.24 788.982 1171.24 788.982L1170.52 789.897L1185.76 800.57C1183.37 805.61 1172.8 823.091 1157.39 848.58C1101.39 941.205 981.462 1139.58 957.79 1231.07L770.817 1100.15C832.482 1020.47 931.9 943.177 1021.99 881.517C982.577 888.364 928.314 908.112 861.223 957.259L832.496 923.746C975.875 794.943 1135.98 788.846 1166.18 788.897C1166.7 788.578 1167.22 788.261 1167.73 787.945L1169.13 788.925Z" fill="#F5FCFF"/>
<path fill-rule="evenodd" clip-rule="evenodd" d="M2439 451C2512.02 451 2571.22 421.964 2571.22 386.146C2571.22 350.327 2512.02 321.291 2439 321.291C2365.98 321.291 2306.78 350.327 2306.78 386.146C2306.78 421.964 2365.98 451 2439 451Z" fill="#FCC876"/>
<path fill-rule="evenodd" clip-rule="evenodd" d="M2593 430.823C2593 351.227 2524.05 286.702 2439 286.702C2353.95 286.702 2285 351.227 2285 430.823" fill="#D3DCE0"/>
<rect x="2425" width="14" height="317" fill="#D3DCE0"/>
<path fill-rule="evenodd" clip-rule="evenodd" d="M2145 388.869C2190.99 388.869 2228.28 370.396 2228.28 347.607C2228.28 324.819 2190.99 306.345 2145 306.345C2099 306.345 2061.72 324.819 2061.72 347.607C2061.72 370.396 2099 388.869 2145 388.869Z" fill="#FCC876"/>
<path fill-rule="evenodd" clip-rule="evenodd" d="M2242 376.032C2242 325.391 2198.57 284.338 2145 284.338C2091.43 284.338 2048 325.391 2048 376.032" fill="#D3DCE0"/>
<rect x="2138" width="13" height="304" fill="#D3DCE0"/>
<path d="M2025 909.044L2029.87 909.044C2032.69 909.044 2035.16 907.123 2035.85 904.385L2040.91 884.275C2041 883.893 2041.55 883.915 2041.62 884.303L2047.62 920.279C2047.62 920.279 2047.27 910.531 2049.56 908.682C2050.62 907.826 2055 908.924 2055 908.924" stroke="#F5FCFF" stroke-width="5" stroke-miterlimit="10" stroke-linecap="round" stroke-linejoin="round"/>
</svg>
