<svg width="1137" height="727" viewBox="0 0 1137 727" fill="none" xmlns="http://www.w3.org/2000/svg">
<path fill-rule="evenodd" clip-rule="evenodd" d="M413.5 473C481.915 413.804 577.558 379.71 668.084 361.421C743.418 346.201 1009.15 321.382 1075.5 396.004C1139.33 467.793 1040.88 594.913 902.001 629.004C763.123 663.094 249.489 614.91 413.5 473Z" fill="#CCDCD7"/>
<path fill-rule="evenodd" clip-rule="evenodd" d="M721.038 316.846C714.529 320.692 708.15 322.522 705.17 321.726C697.698 319.731 697.248 292.328 703.137 281.578C709.026 270.827 738.856 266.38 740.171 287.793C740.627 295.224 737.451 301.825 732.796 307.194L740.722 345.774L716.723 345.565L721.038 316.846Z" fill="#D4A181"/>
<path fill-rule="evenodd" clip-rule="evenodd" d="M712.72 269.897C716.008 268.925 720.771 268.628 722.772 268.875C721.656 266.135 721.231 263.091 721.625 260.133C722.008 257.259 723.315 254.821 724.527 252.264C725.085 251.086 725.716 249.915 726.65 249.018C727.601 248.104 728.801 247.506 730.055 247.227C731.339 246.94 732.679 246.977 733.96 247.258C734.526 247.382 735.034 247.646 735.589 247.795C736.158 247.948 736.438 247.594 736.855 247.239C737.859 246.383 739.325 245.969 740.588 245.828C742.005 245.669 743.472 245.895 744.818 246.372C746.128 246.837 747.384 247.583 748.325 248.663C748.744 249.144 749.123 249.69 749.367 250.292C749.468 250.539 749.483 250.685 749.728 250.777C749.954 250.863 750.22 250.867 750.454 250.949C752.713 251.736 754.634 253.504 755.67 255.76C756.274 257.077 756.545 259.389 756.443 261.976C756.34 264.563 753.945 271.295 751.738 273.738C749.768 275.92 746.888 277.345 744.115 277.956C745.933 280.072 747.133 282.706 748.014 285.382C748.971 288.289 749.552 291.306 749.75 294.376C749.938 297.293 749.931 300.376 749.222 303.223C748.56 305.886 747.173 308.063 744.879 309.431C743.827 310.058 742.698 310.526 741.563 310.953C740.444 311.374 739.322 311.782 738.152 312.014C735.938 312.451 733.391 312.351 731.704 310.576C731.096 309.937 730.428 309.134 729.987 308.355C729.828 308.075 729.733 307.892 729.931 307.621C730.168 307.297 730.549 307.05 730.852 306.798C732.581 305.357 733.661 303.424 733.949 301.118C734.241 298.778 733.638 295.75 731.37 294.707C728.57 293.421 725.462 294.842 722.951 296.171C721.922 292.414 719.771 289.02 716.368 287.272C712.603 285.337 708.266 285.076 704.394 283.411C703.385 282.977 702.357 282.485 701.619 281.612C701.311 281.247 700.95 280.774 700.829 280.294C700.671 279.664 701.082 279.14 701.399 278.652C703.084 276.066 709.432 270.868 712.72 269.897Z" fill="#0F182E"/>
<path fill-rule="evenodd" clip-rule="evenodd" d="M747.875 442.84L710.144 568.742L692.088 663.361L674.796 663.211L693.986 442.37L747.875 442.84Z" fill="#997659"/>
<path fill-rule="evenodd" clip-rule="evenodd" d="M764.336 442.984C761.208 508.533 761.904 544.307 762.424 550.269C762.944 556.231 765.844 596.159 787.364 666.193L769.378 666.036C740.656 598.78 730.773 558.791 727.489 549.964C724.204 541.137 714.589 505.286 700.643 442.428L764.336 442.984Z" fill="#B28B67"/>
<path fill-rule="evenodd" clip-rule="evenodd" d="M748.661 442.847C738.754 486.197 721.67 555.384 697.409 650.407L672.116 650.187C671.101 552.428 679.61 488.166 693.772 442.368L748.661 442.847Z" fill="#0E9C99"/>
<path fill-rule="evenodd" clip-rule="evenodd" d="M748.661 442.847C738.754 486.197 721.67 555.384 697.409 650.407L672.116 650.187C671.101 552.428 679.61 488.166 693.772 442.368L748.661 442.847Z" fill="black" fill-opacity="0.2"/>
<path fill-rule="evenodd" clip-rule="evenodd" d="M764.464 442.985C761.389 508.535 767.312 573.192 786.719 652.208L759.734 651.972C730.949 585.716 710.466 521.25 696.771 442.394L764.464 442.985Z" fill="#0E9C99"/>
<path fill-rule="evenodd" clip-rule="evenodd" d="M789.814 679.215L789.027 664.457C788.993 663.817 788.374 663.373 787.746 663.501C779.063 665.266 767.146 661.017 767.146 661.017C755.041 669.433 737.663 673.193 731.546 674.31C730.363 674.527 729.594 675.712 729.912 676.872L731.237 681.704L766.963 682.016L787.803 682.198L789.814 679.215Z" fill="#020E2C"/>
<path fill-rule="evenodd" clip-rule="evenodd" d="M695.817 678.395L695.031 663.637C694.997 662.996 694.378 662.553 693.749 662.68C685.066 664.446 673.149 660.196 673.149 660.196C661.044 668.613 643.667 672.373 637.55 673.49C636.366 673.706 635.597 674.892 635.916 676.052L637.24 680.884L672.966 681.196L693.806 681.377L695.817 678.395Z" fill="#020E2C"/>
<path fill-rule="evenodd" clip-rule="evenodd" d="M658.079 390.709L624.811 369.277C616.033 367.475 608.641 365.017 602.635 361.903C601.19 360.74 599.382 358.316 605.084 358.405C610.787 358.494 616.789 358.332 617.454 356.348C618.119 354.364 614.542 352.259 615.966 349.55C616.915 347.744 622.168 351.806 631.725 361.735L664.054 372.881L658.079 390.709Z" fill="#D4A181"/>
<path fill-rule="evenodd" clip-rule="evenodd" d="M717.391 344.934L734.535 345.532C734.171 357.097 715.87 394.007 711.084 403.405C697.867 408.909 662.807 395.485 640.878 382.562C637.633 382.512 634.171 381.659 630.52 380.041C628.819 379.288 628.069 377.381 628.845 375.782C629.002 375.459 629.21 375.173 629.455 374.929C629.401 374.887 629.348 374.845 629.295 374.803L636.197 357.033C637.341 357.587 638.474 358.137 639.598 358.682C682.985 379.737 711.317 393.485 717.391 344.934Z" fill="#ECF9FF"/>
<path fill-rule="evenodd" clip-rule="evenodd" d="M717.391 344.934L734.535 345.532C734.171 357.097 715.87 394.007 711.084 403.405C697.867 408.909 662.807 395.485 640.878 382.562C637.633 382.512 634.171 381.659 630.52 380.041C628.819 379.288 628.069 377.381 628.845 375.782C629.002 375.459 629.21 375.173 629.455 374.929C629.401 374.887 629.348 374.845 629.295 374.803L636.197 357.033C637.341 357.587 638.474 358.137 639.598 358.682C682.985 379.737 711.317 393.485 717.391 344.934Z" fill="white" fill-opacity="0.26"/>
<path fill-rule="evenodd" clip-rule="evenodd" d="M763.814 449.889C763.814 449.889 716.613 454.658 689.58 449.241C687.348 448.794 687.53 439.153 688.59 436.529C705.099 395.667 715.986 365.743 716.235 337.262C720.66 339.623 731.788 338.094 731.788 338.094C751.445 367.618 760.304 401.373 763.814 449.889Z" fill="#0E9C99"/>
<path fill-rule="evenodd" clip-rule="evenodd" d="M763.814 449.889C763.814 449.889 716.613 454.658 689.58 449.241C687.348 448.794 687.53 439.153 688.59 436.529C705.099 395.667 715.986 365.743 716.235 337.262C720.66 339.623 731.788 338.094 731.788 338.094C751.445 367.618 760.304 401.373 763.814 449.889Z" fill="black" fill-opacity="0.2"/>
<path fill-rule="evenodd" clip-rule="evenodd" d="M741.556 558.163C763.884 555.463 788.671 552.467 812.951 562.412C812.189 542.055 800.505 519.426 788.873 496.899C781.5 482.619 774.148 468.381 769.613 454.788C770.689 453.793 771.259 452.292 770.999 450.738L770.504 447.779C770.168 445.774 768.555 444.302 766.637 444.057C766.315 442.554 766.038 441.061 765.812 439.58C764.657 432.011 765.502 424.548 766.337 417.169C767.414 407.655 768.475 398.281 765.214 388.997C761.085 377.245 754.376 365.501 748.448 355.125C744.284 347.835 740.505 341.221 738.277 335.752L728.461 335.666C729.601 352.713 723.332 377.449 716.059 406.145C704.429 452.038 690.232 508.058 699.669 558.942C711.794 561.761 726.085 560.033 741.556 558.163Z" fill="#ECF9FF"/>
<path fill-rule="evenodd" clip-rule="evenodd" d="M741.556 558.163C763.884 555.463 788.671 552.467 812.951 562.412C812.189 542.055 800.505 519.426 788.873 496.899C781.5 482.619 774.148 468.381 769.613 454.788C770.689 453.793 771.259 452.292 770.999 450.738L770.504 447.779C770.168 445.774 768.555 444.302 766.637 444.057C766.315 442.554 766.038 441.061 765.812 439.58C764.657 432.011 765.502 424.548 766.337 417.169C767.414 407.655 768.475 398.281 765.214 388.997C761.085 377.245 754.376 365.501 748.448 355.125C744.284 347.835 740.505 341.221 738.277 335.752L728.461 335.666C729.601 352.713 723.332 377.449 716.059 406.145C704.429 452.038 690.232 508.058 699.669 558.942C711.794 561.761 726.085 560.033 741.556 558.163Z" fill="white" fill-opacity="0.35"/>
<path fill-rule="evenodd" clip-rule="evenodd" d="M641.576 414.203C642.43 411.869 650.882 414.963 650.027 417.297C647.607 423.906 642.146 429.009 633.958 432.634C631.686 433.64 629.028 432.613 628.022 430.34C627.016 428.068 628.042 425.41 630.315 424.404C636.431 421.696 640.08 418.286 641.576 414.203Z" fill="#D9F0F3"/>
<path fill-rule="evenodd" clip-rule="evenodd" d="M641.132 412.647L625.959 404.139C625.959 404.139 622.857 391.901 618.395 391.785C616.119 390.702 620.009 401.022 615.684 400.093C611.359 399.163 600.853 391.206 599.017 392.787C596.301 395.126 598.641 402.401 601.442 406.034C606.676 412.824 611.038 415.169 621.844 418.284C630.318 420.726 640.13 427.939 640.13 427.939L641.132 412.647Z" fill="#D4A181"/>
<path fill-rule="evenodd" clip-rule="evenodd" d="M732.217 403.476C732.217 403.476 725.043 407.666 706.138 413.974C687.234 420.283 639.053 402.663 639.053 402.663C639.053 402.663 626.531 416.722 627.297 426.688C720.74 458.103 748.896 440.348 749.372 385.851L732.217 403.476Z" fill="#ECF9FF"/>
<path fill-rule="evenodd" clip-rule="evenodd" d="M732.217 403.476C732.217 403.476 725.043 407.666 706.138 413.974C687.234 420.283 639.053 402.663 639.053 402.663C639.053 402.663 626.531 416.722 627.297 426.688C720.74 458.103 748.896 440.348 749.372 385.851L732.217 403.476Z" fill="white" fill-opacity="0.35"/>
<path fill-rule="evenodd" clip-rule="evenodd" d="M458.242 380.723C561.313 185.414 222.742 49.7981 159.242 67.7231C56.0175 96.8547 102.445 259.887 176.742 374.223C246.742 468.723 387.813 501.914 458.242 380.723Z" fill="#FCC876" fill-opacity="0.5"/>
<path fill-rule="evenodd" clip-rule="evenodd" d="M383.618 192.945C386.804 199.802 391.024 204.923 393.93 205.955C401.219 208.543 417.11 186.214 418.346 174.019C419.582 161.824 397.517 141.263 384.306 158.165C379.72 164.031 378.599 171.27 379.395 178.331L351.01 205.637L370.907 219.058L383.618 192.945Z" fill="#B28B67"/>
<path fill-rule="evenodd" clip-rule="evenodd" d="M413.967 156.049C411.634 153.85 404.773 148.792 403.471 147.914C402.639 147.353 401.609 146.935 401.631 145.838C401.65 144.94 402.511 143.982 402.881 143.174C403.31 142.237 403.673 141.27 404.032 140.304C405.054 137.555 405.706 134.724 405.92 131.797C406.321 126.305 405.088 120.96 402.107 116.323C398.815 111.203 393.876 107.207 388.616 104.248C382.988 101.081 376.968 99.5838 370.811 97.843C364.944 96.1841 359.495 93.4136 354.994 89.2547C350.458 85.0645 348.484 79.7432 345.972 74.2615C343.4 68.6496 339.583 63.5389 334.147 60.4556C329.074 57.5775 323.287 56.571 317.506 56.5412C312.098 56.5134 307.001 57.4309 302.421 60.4722C297.494 63.7435 294.141 68.7196 294.513 74.7986C295.052 83.61 302.312 90.691 309.294 95.1837C313.333 97.7825 317.733 99.6928 322.382 100.906C328.583 102.524 334.93 102.457 341.254 103.196C344.222 103.542 347.127 104.142 349.965 105.077C352.719 105.984 355.2 107.222 356.352 110.032C357.57 113.005 358.576 115.797 360.487 118.432C362.32 120.961 364.561 123.195 367.165 124.922C372.233 128.284 378.262 130.065 383.867 132.315C388.439 134.15 393.287 136.177 396.801 139.747C398.268 141.237 400.27 143.621 399.692 145.8C388.105 140.707 375.437 150.741 372.025 162.078C370.183 168.197 375.637 180.482 381.103 180.298C384.566 180.182 384.646 177.018 384.717 174.941C384.853 170.963 386.677 166.967 391.229 167.205C395.156 167.41 395.403 173.379 395.462 173.412C396.27 173.869 405.436 174.592 413.7 172.2C418.029 175.509 420.719 172.997 421.282 169.839C421.846 166.681 417.189 159.088 413.967 156.049Z" fill="#0F182E"/>
<mask id="mask0_325_1086" style="mask-type:alpha" maskUnits="userSpaceOnUse" x="71" y="113" width="357" height="393">
<path fill-rule="evenodd" clip-rule="evenodd" d="M351.461 433.308C426.358 405.395 227.395 137.994 153.759 149.851C80.1231 161.709 87.185 237.956 153.759 341.487C220.333 445.019 274.835 461.865 351.461 433.308Z" fill="#F9E9D0"/>
</mask>
<g mask="url(#mask0_325_1086)">
<path fill-rule="evenodd" clip-rule="evenodd" d="M175.875 433.577L221.726 470.707L281.487 378.521L341.247 286.335L298.227 251.499L175.875 433.577Z" fill="#81ACD1"/>
<path fill-rule="evenodd" clip-rule="evenodd" d="M175.875 433.577L221.726 470.707L281.487 378.521L341.247 286.335L298.227 251.499L175.875 433.577Z" fill="black" fill-opacity="0.1"/>
<path fill-rule="evenodd" clip-rule="evenodd" d="M129.756 413.548L177.12 451.902C177.12 451.902 229.538 412.523 246.787 391.222C271.645 360.525 329.858 288.639 329.858 288.639L286.45 253.488C286.45 253.488 211.337 348.542 207.785 350.631C204.232 352.72 129.756 413.548 129.756 413.548Z" fill="#8FBFE8"/>
</g>
<rect x="467.449" y="281.516" width="53.4043" height="69.5185" rx="4" transform="rotate(17 467.449 281.516)" fill="#EEF1FF"/>
<rect x="467.449" y="281.516" width="53.4043" height="69.5185" rx="4" transform="rotate(17 467.449 281.516)" fill="black" fill-opacity="0.2"/>
<rect x="466.449" y="279.516" width="53.4043" height="69.5185" rx="4" transform="rotate(17 466.449 279.516)" fill="#EEF1FF"/>
<line x1="498.117" y1="300.779" x2="510.117" y2="304.779" stroke="black"/>
<line x1="482.117" y1="341.778" x2="494.117" y2="345.778" stroke="black"/>
<line x1="465.117" y1="302.778" x2="477.117" y2="306.778" stroke="black"/>
<line x1="461.106" y1="317.775" x2="500.106" y2="329.775" stroke="black"/>
<line x1="459.106" y1="322.775" x2="498.106" y2="334.775" stroke="black"/>
<line x1="463.106" y1="312.775" x2="502.106" y2="324.775" stroke="black"/>
<line x1="470.107" y1="308.775" x2="499.107" y2="317.775" stroke="black"/>
<line x1="496.117" y1="305.778" x2="508.117" y2="309.778" stroke="black"/>
<path fill-rule="evenodd" clip-rule="evenodd" d="M449.571 292.621L413.789 275.714L410.193 294.17L443.7 301.001C454.472 309.598 460.21 312.939 460.915 311.024C461.509 309.411 460.606 308.28 459.771 307.234C459.119 306.418 458.509 305.654 458.685 304.754L460.185 299.754L462.019 294.254C459.369 293.319 458.606 293.265 451.211 292.738C450.697 292.701 450.151 292.662 449.571 292.621ZM213.008 244.173C219.354 242.261 272.789 210.555 272.789 210.555L284.935 223.7C284.935 223.7 223.834 253.839 219.986 255.318C214.987 257.239 212.031 264.65 210.027 269.674C209.717 270.452 209.43 271.172 209.161 271.806C205.929 270.441 206.147 268.135 206.376 265.703C206.635 262.956 206.91 260.05 202.245 258.161C200.443 257.431 198.596 256.872 196.791 256.326C190.558 254.441 184.832 252.708 183.209 244.602C182.951 243.317 184.013 240.655 187.508 241.434C196.216 243.375 209.905 245.107 213.008 244.173Z" fill="#B28B67"/>
<path fill-rule="evenodd" clip-rule="evenodd" d="M350.125 198.431L360.619 193.582C371.822 250.74 372.092 254.26 446.053 288.086L438.73 304.849C404.163 289.458 370.405 294.244 354.7 267.029C349.429 257.895 345.286 208.786 350.125 198.431Z" fill="#ECF9FF"/>
<path fill-rule="evenodd" clip-rule="evenodd" d="M350.125 198.431L360.619 193.582C371.822 250.74 372.092 254.26 446.053 288.086L438.73 304.849C404.163 289.458 370.405 294.244 354.7 267.029C349.429 257.895 345.286 208.786 350.125 198.431Z" fill="white" fill-opacity="0.31"/>
<path fill-rule="evenodd" clip-rule="evenodd" d="M272.176 264.043C272.176 264.043 305.678 297.606 329.869 310.761C331.867 311.848 334.498 309.16 335.291 306.532C347.645 265.61 360.769 231.803 378.069 210.44C373.203 209.384 365.553 201.17 365.553 201.17C332.25 210.653 304.681 230.152 272.176 264.043Z" fill="#6CA1CF"/>
<path fill-rule="evenodd" clip-rule="evenodd" d="M272.176 264.043C272.176 264.043 305.678 297.606 329.869 310.761C331.867 311.848 334.498 309.16 335.291 306.532C347.645 265.61 360.769 231.803 378.069 210.44C373.203 209.384 365.553 201.17 365.553 201.17C332.25 210.653 304.681 230.152 272.176 264.043Z" fill="#30638E" fill-opacity="0.2"/>
<path fill-rule="evenodd" clip-rule="evenodd" d="M362.613 195.732C363.23 195.786 363.549 195.823 363.549 195.823L363.2 196.208L369.65 201.431C368.43 203.599 363.184 211.048 355.535 221.91C327.738 261.38 268.203 345.914 254.825 385.88L175.707 321.812C205.623 288.282 252.262 256.983 294.267 232.352C276.516 234.172 251.758 241.27 220.378 261.05L208.639 245.245C276.44 192.397 347.866 194.666 361.302 195.628C361.543 195.502 361.783 195.377 362.021 195.253L362.613 195.732Z" fill="#ECF9FF"/>
<path fill-rule="evenodd" clip-rule="evenodd" d="M362.613 195.732C363.23 195.786 363.549 195.823 363.549 195.823L363.2 196.208L369.65 201.431C368.43 203.599 363.184 211.048 355.535 221.91C327.738 261.38 268.203 345.914 254.825 385.88L175.707 321.812C205.623 288.282 252.262 256.983 294.267 232.352C276.516 234.172 251.758 241.27 220.378 261.05L208.639 245.245C276.44 192.397 347.866 194.666 361.302 195.628C361.543 195.502 361.783 195.377 362.021 195.253L362.613 195.732Z" fill="white" fill-opacity="0.61"/>
<path fill-rule="evenodd" clip-rule="evenodd" d="M873.623 401.427C882.456 422.416 897.471 437 905.424 458.824C910.139 471.767 912.105 485.839 912.224 500.251C912.289 508.079 912.153 515.913 912.116 523.741C912.081 531.375 911.873 538.961 911.225 546.546C910.574 554.171 909.845 561.706 909.523 569.378C909.273 575.357 909.159 582.31 907.132 587.763C905.521 592.1 901.425 592.735 900.338 587.476C899.735 584.552 899.811 581.288 899.877 578.283C899.963 574.427 900.187 570.578 900.301 566.723C900.761 551.255 900.165 535.785 900.476 520.311C900.781 505.192 902.724 490.09 900.574 475.073C898.798 462.671 894.287 452.022 889.103 441.812C884.116 431.99 878.687 422.406 875.317 411.234C874.349 408.025 873.601 404.7 873.242 401.249C873.399 401.177 873.526 401.236 873.623 401.427Z" fill="#C1DEE2"/>
<path fill-rule="evenodd" clip-rule="evenodd" d="M871.215 442.836C872.964 444.099 873.942 445.947 875.124 447.77C876.594 450.036 878.322 452.082 879.792 454.35C882.857 459.079 885.55 464.098 888.343 469.018C893.647 478.357 897.674 488.31 899.669 499.114C901.736 510.311 902.294 521.868 903.161 533.231C904.081 545.275 905.007 557.407 905.129 569.498C905.183 574.915 905.476 580.665 904.826 586.044C904.421 589.392 902.91 592.246 899.503 592.219C892.267 592.162 888.869 584.147 887.45 577.573C885.361 567.894 884.944 557.612 885.274 547.713C885.674 535.777 887.746 524.021 888.642 512.131C889.592 499.544 889.055 487.179 884.728 475.328C882.542 469.339 880.004 463.494 877.726 457.544C876.756 455.011 875.961 452.409 874.651 450.051C873.193 447.427 871.383 445.045 870.242 442.219C870.566 442.425 870.891 442.631 871.215 442.836Z" fill="#89C5CC"/>
<path fill-rule="evenodd" clip-rule="evenodd" d="M954.576 417.737C954.798 417.564 955.02 417.392 955.242 417.219C954.603 419.912 953.448 422.099 952.566 424.561C951.773 426.773 951.371 429.277 950.836 431.696C949.582 437.377 948.132 442.93 946.947 448.659C944.602 459.996 945.045 472.209 946.584 484.787C948.036 496.669 950.334 508.532 951.429 520.411C952.337 530.262 952.727 540.421 951.861 549.82C951.273 556.204 949.344 563.825 944.09 563.181C941.616 562.878 940.326 559.9 939.806 556.539C938.971 551.141 938.796 545.465 938.47 540.097C937.744 528.115 937.599 516.17 937.456 504.312C937.32 493.123 936.946 481.713 937.694 470.807C938.415 460.282 940.67 450.799 943.895 442.049C945.593 437.439 947.211 432.721 949.12 428.328C950.035 426.22 951.153 424.358 952.068 422.252C952.804 420.558 953.39 418.82 954.576 417.737Z" fill="#C1DEE2"/>
<path fill-rule="evenodd" clip-rule="evenodd" d="M873.451 477.521C874.407 475.915 876.514 481.213 876.834 481.879C876.699 481.548 876.563 481.217 876.425 480.886C878.325 484.044 880.062 487.332 881.143 490.953C882.212 494.538 883.13 498.196 884.133 501.806C886.015 508.58 888.443 515.162 890.149 521.997C891.81 528.657 892.229 535.205 891.827 542.094C891.409 549.255 891.153 556.525 891.641 563.681C891.874 567.099 892.984 570.283 893.746 573.574C894.508 576.867 895.108 580.205 896.009 583.458C896.216 583.034 896.242 584.451 896.242 584.558C896.236 585.371 896.123 586.053 895.861 586.823C895.189 588.805 893.932 590.488 892.02 591.035C888.563 592.022 885.354 588.878 884.239 585.558C882.64 580.795 881.759 575.53 880.997 570.523C880.298 565.932 880.133 561.313 880.341 556.659C880.75 547.48 882.411 538.421 882.86 529.245C883.349 519.255 881.37 509.869 879.713 500.144C878.914 495.458 878.151 490.817 876.598 486.353C875.969 484.545 875.149 482.95 874.289 481.281C873.8 480.331 872.811 478.637 873.451 477.521Z" fill="#C1DEE2"/>
<path fill-rule="evenodd" clip-rule="evenodd" d="M901.494 461.916C901.097 473.361 900.414 484.719 898.888 496.043C897.331 507.6 895.542 519.116 894.044 530.683C892.585 541.942 891.056 553.388 891.26 564.804C891.41 573.213 890.016 587.438 899.355 591.588C908.814 595.791 910.843 577.843 911.464 571.918C912.654 560.552 912.269 549.066 911.691 537.638C911.098 525.909 910.108 514.239 908.881 502.553C907.519 489.572 906.449 476.533 905.591 463.515C905.167 457.076 905.062 450.648 905.179 444.207C905.29 438.13 905.059 431.99 902.898 426.219C902.785 426.301 902.673 426.383 902.559 426.465" fill="#69A1AC"/>
<path fill-rule="evenodd" clip-rule="evenodd" d="M950.324 498.174C948.623 500.653 946.909 503.106 945.302 505.731C942.428 510.428 939.829 515.651 939.047 522.366C937.41 536.42 938.723 551.598 939.04 566.082C939.105 569.042 938.73 571.912 939.897 574.729C940.955 577.283 942.932 579.23 944.817 579.219C948.853 579.196 948.237 569.315 948.243 564.965C948.256 557.342 947.401 549.641 947.474 542.025C947.548 534.48 948.007 526.913 949.101 519.747C950.208 512.494 951.83 505.529 953.971 499.029C954.268 498.127 956.4 491.157 954.386 492.358" fill="#89C5CC"/>
<path fill-rule="evenodd" clip-rule="evenodd" d="M932.504 423.219C929.851 423.219 929.867 436.445 929.787 438.144C929.499 444.275 929.567 450.407 929.384 456.539C928.985 469.92 928.495 483.419 926.485 496.646C925.403 503.766 924.148 510.855 922.799 517.921C921.445 525.008 919.629 532.086 918.738 539.263C917.883 546.162 918.366 553.196 918.484 560.13C918.601 567.104 918.812 574.093 919.725 581.007C919.951 582.714 920.215 584.414 920.498 586.11C920.734 587.524 920.597 589.277 920.995 590.62C921.635 592.772 924.375 593.476 926.22 593.139C931.212 592.228 934.401 585.959 936.107 581.379C938.285 575.53 939.44 569.187 940.581 563.023C941.873 556.041 942.63 548.951 942.985 541.842C943.707 527.394 942.781 512.931 941.746 498.529C941.17 490.52 940.505 482.546 939.488 474.586C938.474 466.66 937.174 458.77 936.328 450.821C935.713 445.044 935.107 439.259 934.708 433.461C934.613 432.078 934.533 423.219 932.504 423.219Z" fill="#69A1AC"/>
<path fill-rule="evenodd" clip-rule="evenodd" d="M929.182 519.358C928.75 505.472 923.168 444.478 921.898 427.686C921.581 423.483 918.523 405.984 918.127 401.219C917.051 402.566 917.143 423.529 917.155 428.345C917.167 433.11 916.577 437.796 916.273 442.535C915.963 447.37 908.814 509.82 907.886 514.466C906.041 523.71 904.806 533.196 903.853 542.647C902.925 551.859 901.482 561.577 902.724 570.837C903.009 572.969 903.461 575.067 904.196 577.025C904.991 579.141 905.536 581.098 906.173 583.312C907.2 586.879 909.057 590.009 911.91 591.481C917.759 594.5 920.9 587.666 922.492 581.716C925.035 572.214 926.667 562.557 927.432 552.578C928.279 541.538 929.529 530.474 929.182 519.358Z" fill="#89C5CC"/>
<rect x="867.242" y="560.219" width="91" height="91" rx="2" fill="#A7A49E"/>
<rect x="857.242" y="570.219" width="10" height="113" rx="2" fill="#C5CFD6"/>
<rect x="907.242" y="570.219" width="10" height="113" rx="2" fill="#C5CFD6"/>
<rect x="958.242" y="570.219" width="10" height="113" rx="2" fill="#C5CFD6"/>
<g clip-path="url(#clip0_325_1086)">
<path fill-rule="evenodd" clip-rule="evenodd" d="M835.912 337.893C859.384 337.893 878.412 327.819 878.412 315.393C878.412 302.966 859.384 292.893 835.912 292.893C812.44 292.893 793.412 302.966 793.412 315.393C793.412 327.819 812.44 337.893 835.912 337.893Z" fill="#FCC876"/>
<path fill-rule="evenodd" clip-rule="evenodd" d="M885.412 330.893C885.412 303.278 863.25 280.893 835.912 280.893C808.574 280.893 786.412 303.278 786.412 330.893" fill="#CFDADF"/>
<rect x="833.412" y="128.219" width="5" height="160" fill="#CFDADF"/>
</g>
<g opacity="0.7" clip-path="url(#clip1_325_1086)">
<path fill-rule="evenodd" clip-rule="evenodd" d="M913.412 287.219C930.957 287.219 945.179 279.09 945.179 269.061C945.179 259.033 930.957 250.903 913.412 250.903C895.867 250.903 881.644 259.033 881.644 269.061C881.644 279.09 895.867 287.219 913.412 287.219Z" fill="#FCC876"/>
<path fill-rule="evenodd" clip-rule="evenodd" d="M950.412 281.57C950.412 259.285 933.846 241.219 913.412 241.219C892.977 241.219 876.412 259.285 876.412 281.57" fill="#C3CDD1"/>
<rect x="911.412" y="128.219" width="5" height="136" fill="#C3CDD1"/>
</g>
<path d="M109 414C109 424.493 100.493 433 90 433C79.5066 433 71 424.493 71 414C71 403.507 79.5066 395 90 395C100.493 395 109 403.507 109 414Z" fill="#FCC876"/>
<path d="M372 686.179C372.997 684.856 374.878 684.592 376.201 685.589L393.998 699C395.322 699.997 395.586 701.878 394.589 703.201L381.178 720.998C380.181 722.321 378.3 722.586 376.976 721.589L359.179 708.178C357.856 707.181 357.592 705.3 358.589 703.976L372 686.179Z" fill="#8E3030"/>
<rect x="1093.14" y="23" width="48" height="24" rx="12" transform="rotate(25 1093.14 23)" fill="#30638E"/>
<path d="M724.697 369.526L726.59 369.542C727.69 369.552 728.655 368.86 728.932 367.864L730.963 360.551C731.001 360.412 731.215 360.422 731.239 360.563L733.46 373.698C733.46 373.698 733.354 370.144 734.25 369.477C734.665 369.169 736.367 369.584 736.367 369.584" stroke="#30638E" stroke-width="2" stroke-miterlimit="10" stroke-linecap="round" stroke-linejoin="round"/>
<defs>
<clipPath id="clip0_325_1086">
<rect width="99" height="210" fill="white" transform="translate(786.412 128.219)"/>
</clipPath>
<clipPath id="clip1_325_1086">
<rect width="74" height="159" fill="white" transform="translate(876.412 128.219)"/>
</clipPath>
</defs>
</svg>
