<svg width="1040" height="672" viewBox="0 0 1040 672" fill="none" xmlns="http://www.w3.org/2000/svg">
<path fill-rule="evenodd" clip-rule="evenodd" d="M331.729 359.846C400.144 300.65 535.867 377.652 626.393 359.363C701.728 344.144 894.493 217.892 960.84 292.514C1024.67 364.304 865.865 501.683 726.988 535.774C588.11 569.865 167.718 501.756 331.729 359.846Z" fill="#DFDFDF" fill-opacity="0.58"/>
<path fill-rule="evenodd" clip-rule="evenodd" d="M673.795 260.624C667.286 264.47 660.907 266.301 657.927 265.505C650.455 263.509 650.006 236.106 655.894 225.356C661.783 214.606 691.613 210.158 692.928 231.571C693.384 239.003 690.208 245.604 685.553 250.972L693.479 289.553L669.48 289.343L673.795 260.624Z" fill="#D4A181"/>
<path fill-rule="evenodd" clip-rule="evenodd" d="M665.477 213.675C668.765 212.704 673.528 212.406 675.528 212.653C674.413 209.914 673.988 206.869 674.382 203.912C674.765 201.038 676.072 198.6 677.284 196.043C677.842 194.865 678.473 193.693 679.407 192.796C680.358 191.883 681.558 191.284 682.812 191.005C684.096 190.719 685.436 190.755 686.717 191.036C687.283 191.161 687.79 191.425 688.346 191.574C688.915 191.727 689.195 191.372 689.611 191.017C690.616 190.162 692.082 189.748 693.345 189.606C694.762 189.447 696.229 189.674 697.575 190.151C698.885 190.615 700.141 191.362 701.082 192.442C701.501 192.923 701.88 193.469 702.124 194.071C702.225 194.318 702.24 194.463 702.485 194.556C702.711 194.641 702.977 194.646 703.21 194.727C705.469 195.515 707.391 197.282 708.427 199.539C709.031 200.856 709.302 203.167 709.199 205.754C709.097 208.341 706.701 215.073 704.495 217.517C702.525 219.698 699.645 221.124 696.872 221.735C698.69 223.85 699.89 226.484 700.771 229.161C701.728 232.067 702.309 235.084 702.507 238.154C702.695 241.072 702.687 244.155 701.979 247.002C701.316 249.664 699.93 251.841 697.635 253.21C696.584 253.837 695.455 254.305 694.32 254.732C693.201 255.152 692.079 255.561 690.909 255.792C688.695 256.23 686.148 256.129 684.461 254.355C683.853 253.715 683.185 252.912 682.744 252.133C682.585 251.853 682.49 251.67 682.688 251.399C682.925 251.075 683.306 250.829 683.609 250.576C685.338 249.136 686.418 247.203 686.706 244.897C686.998 242.557 686.395 239.528 684.127 238.486C681.327 237.2 678.219 238.621 675.708 239.949C674.679 236.192 672.528 232.799 669.125 231.05C665.36 229.115 661.023 228.855 657.151 227.189C656.142 226.755 655.114 226.264 654.376 225.391C654.068 225.026 653.706 224.553 653.586 224.073C653.428 223.442 653.839 222.919 654.156 222.431C655.841 219.845 662.188 214.647 665.477 213.675Z" fill="#191847"/>
<path fill-rule="evenodd" clip-rule="evenodd" d="M700.632 386.619L662.901 512.521L644.846 607.14L627.553 606.989L646.743 386.148L700.632 386.619Z" fill="#997659"/>
<path fill-rule="evenodd" clip-rule="evenodd" d="M717.094 386.762C713.966 452.312 714.662 488.085 715.182 494.048C715.702 500.01 718.601 539.938 740.121 609.972L722.135 609.815C693.413 542.558 683.531 502.57 680.246 493.743C676.962 484.915 667.347 449.064 653.401 386.206L717.094 386.762Z" fill="#B28B67"/>
<path fill-rule="evenodd" clip-rule="evenodd" d="M701.419 386.626C691.512 429.976 674.428 499.163 650.166 594.186L624.874 593.965C623.859 496.207 632.367 431.945 646.53 386.146L701.419 386.626Z" fill="#30638E"/>
<path fill-rule="evenodd" clip-rule="evenodd" d="M701.419 386.626C691.512 429.976 674.428 499.163 650.166 594.186L624.874 593.965C623.859 496.207 632.367 431.945 646.53 386.146L701.419 386.626Z" fill="black" fill-opacity="0.18"/>
<path fill-rule="evenodd" clip-rule="evenodd" d="M717.222 386.763C714.146 452.313 720.07 516.97 739.476 595.987L712.491 595.751C683.706 529.494 663.224 465.029 649.529 386.173L717.222 386.763Z" fill="#30638E"/>
<path fill-rule="evenodd" clip-rule="evenodd" d="M742.571 622.994L741.785 608.235C741.751 607.595 741.132 607.152 740.504 607.279C731.821 609.045 719.903 604.795 719.903 604.795C707.799 613.212 690.421 616.971 684.304 618.089C683.12 618.305 682.352 619.491 682.67 620.651L683.994 625.483L719.72 625.794L740.56 625.976L742.571 622.994Z" fill="#CFDADF"/>
<path fill-rule="evenodd" clip-rule="evenodd" d="M648.575 622.173L647.789 607.415C647.754 606.775 647.136 606.331 646.507 606.459C637.824 608.225 625.907 603.975 625.907 603.975C613.802 612.392 596.425 616.151 590.307 617.269C589.124 617.485 588.355 618.67 588.673 619.831L589.998 624.662L625.724 624.974L646.564 625.156L648.575 622.173Z" fill="#CFDADF"/>
<path fill-rule="evenodd" clip-rule="evenodd" d="M610.837 334.488L577.568 313.056C568.79 311.254 561.398 308.796 555.392 305.682C553.948 304.519 552.139 302.094 557.842 302.184C563.544 302.273 569.546 302.111 570.211 300.127C570.876 298.143 567.3 296.038 568.723 293.329C569.672 291.523 574.925 295.584 584.483 305.513L616.811 316.659L610.837 334.488Z" fill="#D4A181"/>
<path fill-rule="evenodd" clip-rule="evenodd" d="M670.149 288.712L687.293 289.311C686.929 300.875 668.628 337.786 663.842 347.183C650.625 352.688 615.565 339.264 593.636 326.34C590.391 326.29 586.929 325.437 583.278 323.82C581.577 323.066 580.827 321.16 581.603 319.561C581.76 319.238 581.968 318.951 582.213 318.707C582.159 318.665 582.106 318.623 582.053 318.581L588.955 300.811C590.099 301.365 591.232 301.915 592.355 302.46C635.743 323.515 664.075 337.264 670.149 288.712Z" fill="#90B0C0"/>
<path fill-rule="evenodd" clip-rule="evenodd" d="M670.149 288.712L687.293 289.311C686.929 300.875 668.628 337.786 663.842 347.183C650.625 352.688 615.565 339.264 593.636 326.34C590.391 326.29 586.929 325.437 583.278 323.82C581.577 323.066 580.827 321.16 581.603 319.561C581.76 319.238 581.968 318.951 582.213 318.707C582.159 318.665 582.106 318.623 582.053 318.581L588.955 300.811C590.099 301.365 591.232 301.915 592.355 302.46C635.743 323.515 664.075 337.264 670.149 288.712Z" fill="black" fill-opacity="0.08"/>
<path fill-rule="evenodd" clip-rule="evenodd" d="M716.571 393.668C716.571 393.668 669.371 398.437 642.338 393.02C640.105 392.573 640.288 382.932 641.348 380.308C657.857 339.445 668.744 309.521 668.992 281.041C673.417 283.402 684.546 281.873 684.546 281.873C704.203 311.397 713.062 345.152 716.571 393.668Z" fill="#30638E"/>
<path fill-rule="evenodd" clip-rule="evenodd" d="M694.313 501.941C716.642 499.242 741.428 496.246 765.709 506.191C764.947 485.834 753.262 463.205 741.631 440.677C734.258 426.398 726.906 412.159 722.37 398.567C723.447 397.571 724.016 396.07 723.756 394.517L723.261 391.558C722.926 389.553 721.312 388.08 719.395 387.836C719.072 386.333 718.796 384.84 718.57 383.358C717.415 375.789 718.259 368.327 719.095 360.948C720.171 351.434 721.233 342.059 717.971 332.776C713.842 321.024 707.133 309.28 701.206 298.904C697.041 291.614 693.263 284.999 691.035 279.531L681.218 279.445C682.358 296.491 676.089 321.228 668.817 349.924C657.186 395.817 642.99 451.837 652.427 502.721C664.552 505.539 678.842 503.812 694.313 501.941Z" fill="#90B0C0"/>
<path fill-rule="evenodd" clip-rule="evenodd" d="M594.333 357.981C595.188 355.648 603.639 358.742 602.784 361.076C600.364 367.685 594.904 372.787 586.715 376.412C584.443 377.418 581.785 376.392 580.779 374.119C579.773 371.847 580.8 369.189 583.072 368.183C589.189 365.475 592.838 362.065 594.333 357.981Z" fill="#D9F0F3"/>
<path fill-rule="evenodd" clip-rule="evenodd" d="M593.889 356.426L578.716 347.918C578.716 347.918 575.614 335.68 571.152 335.564C568.876 334.481 572.766 344.801 568.441 343.871C564.117 342.942 553.611 334.985 551.775 336.566C549.058 338.904 551.399 346.179 554.199 349.813C559.433 356.603 563.796 358.948 574.601 362.062C583.075 364.505 592.888 371.718 592.888 371.718L593.889 356.426Z" fill="#D4A181"/>
<path fill-rule="evenodd" clip-rule="evenodd" d="M684.975 347.255C684.975 347.255 677.801 351.445 658.896 357.753C639.992 364.062 591.811 346.442 591.811 346.442C591.811 346.442 579.289 360.501 580.055 370.467C673.498 401.882 701.654 384.127 702.13 329.63L684.975 347.255Z" fill="#90B0C0"/>
<path fill-rule="evenodd" clip-rule="evenodd" d="M335.375 136.724C338.561 143.581 342.781 148.703 345.688 149.735C352.976 152.322 368.868 129.993 370.104 117.798C371.339 105.603 349.275 85.042 336.063 101.944C331.478 107.81 330.356 115.05 331.152 122.11L302.768 149.416L322.665 162.837L335.375 136.724Z" fill="#B28B67"/>
<path fill-rule="evenodd" clip-rule="evenodd" d="M365.724 99.8286C363.392 97.6298 356.53 92.5715 355.228 91.6934C354.396 91.1321 353.366 90.714 353.389 89.6175C353.407 88.7196 354.269 87.7611 354.638 86.9538C355.067 86.016 355.43 85.0494 355.789 84.0834C356.811 81.3345 357.463 78.5029 357.677 75.576C358.078 70.0846 356.845 64.7393 353.864 60.1023C350.572 54.9819 345.633 50.9868 340.374 48.0272C334.745 44.86 328.726 43.3632 322.569 41.6224C316.701 39.9635 311.253 37.1931 306.751 33.0341C302.215 28.8439 300.242 23.5226 297.729 18.0409C295.158 12.4291 291.34 7.31828 285.905 4.23498C280.831 1.35694 275.044 0.350375 269.264 0.320609C263.855 0.292776 258.758 1.21036 254.178 4.2516C249.252 7.52297 245.898 12.499 246.27 18.578C246.81 27.3895 254.069 34.4704 261.052 38.9631C265.09 41.562 269.49 43.4723 274.14 44.6854C280.341 46.3031 286.687 46.2366 293.011 46.975C295.979 47.3216 298.884 47.9215 301.722 48.8566C304.476 49.7637 306.957 51.001 308.109 53.8115C309.328 56.7846 310.334 59.5763 312.244 62.2117C314.077 64.74 316.318 66.9741 318.923 68.7017C323.99 72.0631 330.019 73.8442 335.625 76.0946C340.196 77.9299 345.045 79.9564 348.559 83.5265C350.025 85.0163 352.027 87.4002 351.45 89.5792C339.862 84.4861 327.194 94.5202 323.782 105.858C321.94 111.977 327.395 124.261 332.861 124.078C336.323 123.962 336.403 120.797 336.474 118.72C336.61 114.743 338.435 110.747 342.987 110.984C346.913 111.189 347.16 117.158 347.219 117.191C348.028 117.649 357.193 118.372 365.457 115.979C369.786 119.288 372.476 116.776 373.039 113.619C373.603 110.461 368.946 102.867 365.724 99.8286Z" fill="#191847"/>
<path fill-rule="evenodd" clip-rule="evenodd" d="M403.88 439.292C504.88 407.525 236.575 103.196 137.276 116.691C37.9766 130.187 47.4996 216.963 137.276 334.792C227.052 452.621 300.548 471.793 403.88 439.292Z" fill="#F4E3C4"/>
<mask id="mask0_110_1132" style="mask-type:alpha" maskUnits="userSpaceOnUse" x="24" y="72" width="481" height="447">
<path fill-rule="evenodd" clip-rule="evenodd" d="M401.88 436.292C502.88 404.525 234.575 100.196 135.276 113.691C35.9766 127.187 45.4996 213.963 135.276 331.792C225.052 449.621 298.548 468.793 401.88 436.292Z" fill="#F9E9D0"/>
</mask>
<g mask="url(#mask0_110_1132)">
<path fill-rule="evenodd" clip-rule="evenodd" d="M128.633 377.358L174.485 414.487L234.245 322.302L294.005 230.116L250.985 195.279L128.633 377.358Z" fill="#69A1AC"/>
<path fill-rule="evenodd" clip-rule="evenodd" d="M82.5147 357.328L129.878 395.683C129.878 395.683 182.297 356.304 199.546 335.003C224.404 304.306 282.616 232.42 282.616 232.42L239.208 197.269C239.208 197.269 164.095 292.323 160.543 294.412C156.991 296.501 82.5147 357.328 82.5147 357.328Z" fill="#89C5CC"/>
</g>
<rect x="414.764" y="228.262" width="53.4043" height="69.5185" rx="4" transform="rotate(17 414.764 228.262)" fill="#D9D9D9"/>
<path fill-rule="evenodd" clip-rule="evenodd" d="M397.886 241.366L362.104 224.46L358.508 242.916L392.015 249.747C402.787 258.343 408.525 261.684 409.23 259.77C409.824 258.157 408.921 257.026 408.086 255.98C407.435 255.164 406.825 254.4 407 253.5L408.5 248.5L410.334 243C407.684 242.065 406.921 242.011 399.526 241.484C399.012 241.447 398.467 241.408 397.886 241.366ZM161.323 192.918C167.669 191.007 221.104 159.301 221.104 159.301L233.25 172.446C233.25 172.446 172.149 202.584 168.301 204.063C163.302 205.985 160.347 213.395 158.342 218.42C158.032 219.197 157.745 219.918 157.477 220.552C154.244 219.187 154.462 216.88 154.691 214.449C154.95 211.702 155.225 208.796 150.56 206.906C148.758 206.176 146.911 205.618 145.106 205.072C138.873 203.186 133.147 201.454 131.524 193.348C131.267 192.062 132.328 189.401 135.823 190.18C144.531 192.12 158.22 193.853 161.323 192.918Z" fill="#B28B67"/>
<path fill-rule="evenodd" clip-rule="evenodd" d="M290.812 144.019L301.305 139.171C312.508 196.328 312.779 199.848 386.74 233.674L379.417 250.438C344.85 235.047 311.092 239.833 295.387 212.618C290.116 203.484 285.972 154.375 290.812 144.019Z" fill="#B2D4D9"/>
<path fill-rule="evenodd" clip-rule="evenodd" d="M224.934 207.823C224.934 207.823 258.436 241.386 282.627 254.541C284.625 255.628 287.255 252.94 288.049 250.312C300.403 209.39 313.527 175.583 330.826 154.22C325.961 153.164 318.311 144.95 318.311 144.95C285.008 154.433 257.439 173.932 224.934 207.823Z" fill="#00798C"/>
<path fill-rule="evenodd" clip-rule="evenodd" d="M315.37 139.513C315.988 139.567 316.307 139.604 316.307 139.604L315.958 139.989L322.408 145.212C321.188 147.38 315.942 154.829 308.293 165.691C280.495 205.161 220.961 289.695 207.583 329.661L128.465 265.593C158.381 232.063 205.02 200.764 247.025 176.133C229.274 177.953 204.516 185.051 173.136 204.831L161.397 189.026C229.198 136.178 300.624 138.447 314.06 139.409C314.301 139.283 314.54 139.158 314.778 139.034L315.37 139.513Z" fill="#D9F0F3"/>
<line x1="444.432" y1="254.526" x2="456.432" y2="258.526" stroke="black" stroke-opacity="0.34"/>
<line x1="418.422" y1="257.522" x2="447.422" y2="266.522" stroke="black" stroke-opacity="0.34"/>
<line x1="411.421" y1="261.522" x2="450.421" y2="273.522" stroke="black" stroke-opacity="0.34"/>
<line x1="407.421" y1="271.522" x2="446.421" y2="283.522" stroke="black" stroke-opacity="0.34"/>
<line x1="409.421" y1="266.522" x2="448.421" y2="278.522" stroke="black" stroke-opacity="0.34"/>
<line x1="413.432" y1="251.526" x2="425.432" y2="255.526" stroke="black" stroke-opacity="0.34"/>
<line x1="430.432" y1="290.526" x2="442.432" y2="294.526" stroke="black" stroke-opacity="0.34"/>
<line x1="446.432" y1="249.526" x2="458.432" y2="253.526" stroke="black" stroke-opacity="0.34"/>
<path fill-rule="evenodd" clip-rule="evenodd" d="M826.381 345.208C835.214 366.197 850.229 380.781 858.182 402.605C862.898 415.547 864.864 429.62 864.983 444.032C865.048 451.86 864.911 459.694 864.875 467.522C864.839 475.156 864.632 482.741 863.984 490.327C863.332 497.952 862.603 505.487 862.282 513.159C862.031 519.137 861.917 526.091 859.891 531.544C858.279 535.881 854.183 536.516 853.097 531.256C852.493 528.333 852.569 525.068 852.636 522.063C852.721 518.208 852.945 514.359 853.06 510.504C853.519 495.036 852.923 479.566 853.235 464.092C853.539 448.973 855.482 433.871 853.332 418.853C851.556 406.452 847.046 395.802 841.862 385.593C836.874 375.771 831.445 366.187 828.075 355.014C827.107 351.806 826.359 348.481 826 345.03C826.157 344.957 826.284 345.016 826.381 345.208Z" fill="#C1DEE2"/>
<path fill-rule="evenodd" clip-rule="evenodd" d="M823.974 386.617C825.723 387.88 826.7 389.728 827.882 391.551C829.352 393.817 831.081 395.863 832.551 398.131C835.615 402.86 838.308 407.879 841.102 412.799C846.406 422.137 850.433 432.091 852.427 442.895C854.495 454.092 855.052 465.648 855.919 477.012C856.839 489.056 857.765 501.188 857.887 513.279C857.942 518.696 858.235 524.446 857.584 529.825C857.179 533.173 855.668 536.027 852.261 536C845.025 535.942 841.627 527.927 840.208 521.354C838.119 511.674 837.702 501.393 838.033 491.494C838.432 479.558 840.504 467.802 841.4 455.912C842.35 443.325 841.814 430.96 837.486 419.109C835.3 413.12 832.763 407.274 830.484 401.325C829.514 398.792 828.719 396.19 827.409 393.831C825.951 391.208 824.142 388.826 823 386C823.324 386.206 823.649 386.411 823.974 386.617Z" fill="#89C5CC"/>
<path fill-rule="evenodd" clip-rule="evenodd" d="M907.334 361.518C907.556 361.345 907.778 361.173 908 361C907.361 363.693 906.207 365.88 905.324 368.341C904.531 370.554 904.129 373.058 903.595 375.477C902.34 381.158 900.89 386.711 899.706 392.44C897.36 403.777 897.804 415.99 899.342 428.568C900.795 440.45 903.092 452.313 904.187 464.192C905.095 474.043 905.485 484.202 904.619 493.601C904.031 499.984 902.103 507.606 896.848 506.962C894.374 506.659 893.084 503.681 892.564 500.32C891.729 494.922 891.554 489.246 891.229 483.878C890.502 471.896 890.358 459.951 890.214 448.092C890.078 436.904 889.705 425.494 890.452 414.587C891.173 404.063 893.428 394.58 896.653 385.83C898.351 381.22 899.97 376.502 901.878 372.108C902.793 370.001 903.911 368.139 904.827 366.033C905.563 364.339 906.148 362.601 907.334 361.518Z" fill="#C1DEE2"/>
<path fill-rule="evenodd" clip-rule="evenodd" d="M826.209 421.302C827.166 419.695 829.272 424.993 829.593 425.66C829.457 425.328 829.321 424.997 829.184 424.667C831.083 427.825 832.821 431.113 833.901 434.734C834.97 438.319 835.888 441.977 836.891 445.587C838.774 452.361 841.202 458.943 842.907 465.778C844.569 472.438 844.988 478.986 844.585 485.875C844.167 493.035 843.911 500.306 844.399 507.462C844.632 510.88 845.743 514.064 846.504 517.354C847.266 520.648 847.866 523.986 848.767 527.239C848.974 526.815 849 528.232 849 528.339C848.994 529.152 848.881 529.833 848.619 530.604C847.948 532.586 846.691 534.269 844.778 534.816C841.322 535.803 838.112 532.659 836.998 529.339C835.399 524.575 834.517 519.311 833.755 514.304C833.057 509.713 832.891 505.094 833.099 500.44C833.508 491.261 835.169 482.202 835.618 473.026C836.107 463.036 834.128 453.649 832.471 443.925C831.673 439.239 830.91 434.598 829.356 430.134C828.727 428.326 827.907 426.731 827.048 425.061C826.558 424.112 825.569 422.418 826.209 421.302Z" fill="#C1DEE2"/>
<path fill-rule="evenodd" clip-rule="evenodd" d="M854.252 405.697C853.856 417.142 853.172 428.5 851.646 439.824C850.089 451.38 848.3 462.897 846.802 474.463C845.343 485.722 843.815 497.168 844.018 508.585C844.168 516.993 842.774 531.219 852.113 535.369C861.572 539.572 863.601 521.623 864.222 515.699C865.412 504.333 865.027 492.847 864.449 481.419C863.856 469.689 862.866 458.02 861.64 446.334C860.277 433.353 859.208 420.314 858.349 407.296C857.925 400.857 857.82 394.429 857.937 387.988C858.048 381.911 857.817 375.77 855.656 370C855.543 370.082 855.431 370.164 855.318 370.246" fill="#69A1AC"/>
<path fill-rule="evenodd" clip-rule="evenodd" d="M903.083 441.955C901.382 444.433 899.667 446.887 898.061 449.512C895.186 454.209 892.587 459.432 891.805 466.147C890.169 480.2 891.481 495.379 891.798 509.863C891.863 512.822 891.489 515.693 892.655 518.51C893.713 521.064 895.691 523.01 897.576 523C901.611 522.977 900.995 513.095 901.002 508.746C901.014 501.123 900.159 493.422 900.233 485.806C900.306 478.26 900.765 470.694 901.859 463.528C902.967 456.275 904.589 449.309 906.729 442.81C907.026 441.908 909.158 434.937 907.144 436.139" fill="#89C5CC"/>
<path fill-rule="evenodd" clip-rule="evenodd" d="M885.262 367C882.609 367 882.625 380.226 882.546 381.925C882.257 388.055 882.325 394.188 882.143 400.319C881.744 413.701 881.254 427.2 879.243 440.426C878.161 447.547 876.907 454.636 875.557 461.702C874.204 468.789 872.387 475.867 871.497 483.044C870.642 489.943 871.125 496.977 871.242 503.91C871.359 510.885 871.57 517.874 872.484 524.788C872.709 526.494 872.974 528.195 873.257 529.891C873.492 531.305 873.355 533.058 873.754 534.401C874.393 536.552 877.133 537.256 878.978 536.92C883.97 536.009 887.159 529.74 888.865 525.16C891.043 519.311 892.199 512.967 893.339 506.804C894.631 499.821 895.388 492.732 895.743 485.623C896.466 471.175 895.539 456.712 894.504 442.31C893.928 434.301 893.263 426.327 892.246 418.367C891.232 410.441 889.932 402.55 889.086 394.601C888.471 388.825 887.865 383.04 887.467 377.241C887.371 375.859 887.291 367 885.262 367Z" fill="#69A1AC"/>
<path fill-rule="evenodd" clip-rule="evenodd" d="M881.941 463.139C881.508 449.253 875.927 388.259 874.657 371.467C874.339 367.264 871.282 349.765 870.885 345C869.81 346.347 869.901 367.309 869.913 372.126C869.926 376.891 869.335 381.576 869.031 386.315C868.721 391.151 861.572 453.601 860.645 458.247C858.799 467.491 857.564 476.976 856.611 486.428C855.683 495.639 854.24 505.358 855.482 514.618C855.767 516.75 856.219 518.848 856.955 520.806C857.749 522.922 858.294 524.879 858.932 527.093C859.958 530.659 861.815 533.789 864.668 535.262C870.517 538.281 873.658 531.447 875.251 525.497C877.793 515.995 879.426 506.338 880.191 496.359C881.037 485.318 882.287 474.255 881.941 463.139Z" fill="#89C5CC"/>
<rect x="820" y="504" width="91" height="91" rx="2" fill="#A7A49E"/>
<rect x="810" y="514" width="10" height="113" rx="2" fill="#C5CFD6"/>
<rect x="860" y="514" width="10" height="113" rx="2" fill="#C5CFD6"/>
<rect x="911" y="514" width="10" height="113" rx="2" fill="#C5CFD6"/>
<g clip-path="url(#clip0_110_1132)">
<path fill-rule="evenodd" clip-rule="evenodd" d="M788.67 281.673C812.142 281.673 831.17 271.6 831.17 259.173C831.17 246.747 812.142 236.673 788.67 236.673C765.198 236.673 746.17 246.747 746.17 259.173C746.17 271.6 765.198 281.673 788.67 281.673Z" fill="#FCC876"/>
<path fill-rule="evenodd" clip-rule="evenodd" d="M838.17 274.673C838.17 247.059 816.008 224.673 788.67 224.673C761.332 224.673 739.17 247.059 739.17 274.673" fill="#CFDADF"/>
<rect x="786.17" y="72" width="5" height="160" fill="#CFDADF"/>
</g>
<g opacity="0.7" clip-path="url(#clip1_110_1132)">
<path fill-rule="evenodd" clip-rule="evenodd" d="M866.17 231C883.715 231 897.938 222.87 897.938 212.842C897.938 202.814 883.715 194.684 866.17 194.684C848.625 194.684 834.402 202.814 834.402 212.842C834.402 222.87 848.625 231 866.17 231Z" fill="#FCC876"/>
<path fill-rule="evenodd" clip-rule="evenodd" d="M903.17 225.351C903.17 203.066 886.605 185 866.17 185C845.735 185 829.17 203.066 829.17 225.351" fill="#C3CDD1"/>
<rect x="864.17" y="72" width="5" height="136" fill="#C3CDD1"/>
</g>
<path d="M954.332 398L972 415.668L954.668 433L937 415.332L954.332 398Z" fill="#9DD1D9" fill-opacity="0.5"/>
<path d="M122 458C122 465.732 115.956 472 108.5 472C101.044 472 95 465.732 95 458C95 450.268 101.044 444 108.5 444C115.956 444 122 450.268 122 458Z" fill="#BC3244" fill-opacity="0.32"/>
<path fill-rule="evenodd" clip-rule="evenodd" d="M999 234C1013.91 234 1026 222.136 1026 207.5C1026 192.864 1013.91 181 999 181C984.088 181 972 192.864 972 207.5C972 222.136 984.088 234 999 234Z" fill="#EDAE49" fill-opacity="0.42"/>
<path d="M340 539.101H355.087C363.851 539.101 371.494 533.648 373.632 525.876L389.308 468.78C389.605 467.697 391.31 467.759 391.508 468.859L410.122 571C410.122 571 409.031 543.325 416.122 538.075C419.407 535.644 433 538.761 433 538.761" stroke="#9DD1D9" stroke-width="13.1807" stroke-miterlimit="10" stroke-linecap="round" stroke-linejoin="round"/>
<path fill-rule="evenodd" clip-rule="evenodd" d="M80.9645 119.536C82.9171 117.583 86.0829 117.583 88.0355 119.536L106.464 137.964C108.417 139.917 108.417 143.083 106.464 145.036L88.0355 163.464C86.0829 165.417 82.9171 165.417 80.9645 163.464L62.5355 145.036C60.5829 143.083 60.5829 139.917 62.5355 137.964L80.9645 119.536Z" fill="#9DD1D9" fill-opacity="0.5"/>
<defs>
<clipPath id="clip0_110_1132">
<rect width="99" height="210" fill="white" transform="translate(739.17 72)"/>
</clipPath>
<clipPath id="clip1_110_1132">
<rect width="74" height="159" fill="white" transform="translate(829.17 72)"/>
</clipPath>
</defs>
</svg>
