<svg width="974" height="664" viewBox="0 0 974 664" fill="none" xmlns="http://www.w3.org/2000/svg">
<path fill-rule="evenodd" clip-rule="evenodd" d="M809.5 574.499C539 689.499 147.501 556.979 85.5001 501C-53.499 375.5 -12.8087 166.122 232.5 192.499C604.5 232.499 1066 368.499 809.5 574.499Z" fill="#D8CBB8" fill-opacity="0.54"/>
<path d="M855.548 605.329C790.675 643 479.548 637.522 398.548 643C88.0479 664 70.5 605.329 70.5 605.329C70.5 569.623 165.548 569.623 281.55 569.623C470.55 569.623 892.048 584.133 855.548 605.329Z" fill="#C5C5D0"/>
<path fill-rule="evenodd" clip-rule="evenodd" d="M683.211 315.248C692.044 336.237 707.059 350.821 715.012 372.645C719.727 385.587 721.693 399.66 721.812 414.072C721.877 421.9 721.741 429.734 721.704 437.562C721.669 445.196 721.461 452.781 720.813 460.367C720.162 467.992 719.433 475.527 719.111 483.199C718.861 489.178 718.747 496.131 716.72 501.584C715.109 505.921 711.013 506.556 709.926 501.297C709.323 498.373 709.399 495.108 709.465 492.104C709.551 488.248 709.775 484.399 709.889 480.544C710.349 465.076 709.753 449.606 710.064 434.132C710.369 419.013 712.312 403.911 710.162 388.894C708.386 376.492 703.875 365.843 698.691 355.633C693.704 345.811 688.275 336.227 684.905 325.055C683.937 321.846 683.189 318.521 682.83 315.07C682.987 314.997 683.114 315.057 683.211 315.248Z" fill="#02724F" fill-opacity="0.49"/>
<path fill-rule="evenodd" clip-rule="evenodd" d="M212.757 472.984H284.383L293.769 587.984H187.147L212.757 472.984Z" fill="#DAE0FF"/>
<path fill-rule="evenodd" clip-rule="evenodd" d="M212.61 473H234.639L247.824 588H187L212.61 473Z" fill="#DAE0FF"/>
<path fill-rule="evenodd" clip-rule="evenodd" d="M212.61 473H234.639L247.824 588H187L212.61 473Z" fill="black" fill-opacity="0.2"/>
<path d="M721.483 194.931C719.52 271.908 642.944 329.887 579.209 342.275C515.474 354.664 532.151 301.033 530.651 160.534C529.151 20.0339 604.819 2.0338 663.151 0.0336959C721.483 -1.96636 724.277 85.3214 721.483 194.931Z" fill="#102044"/>
<path d="M721.483 194.931C719.52 271.908 642.944 329.887 579.209 342.275C515.474 354.664 532.151 301.033 530.651 160.534C529.151 20.0339 604.819 2.0338 663.151 0.0336959C721.483 -1.96636 724.277 85.3214 721.483 194.931Z" fill="#DAE0FF"/>
<path fill-rule="evenodd" clip-rule="evenodd" d="M506.289 236.319L512.52 232.533L516.148 244.435H512.52C502.133 253.493 496.546 257.081 495.758 255.2C495.094 253.613 495.987 252.354 496.809 251.194C497.45 250.291 498.048 249.448 497.833 248.557C497.344 246.523 491.379 245.838 485.69 245.43C480.001 245.022 482.014 242.764 483.555 241.731C489.81 239.153 497.387 237.349 506.289 236.319ZM708.54 206.916C702.786 203.626 702.648 203.533 702.648 203.533L692.648 212.033C692.648 212.033 695.817 213.899 699.234 216.205C703.672 219.202 704.885 227.087 705.707 232.434C705.835 233.261 705.953 234.028 706.072 234.706C709.528 234.103 709.835 231.807 710.158 229.386C710.524 226.652 710.91 223.758 715.88 222.966C717.801 222.661 719.726 222.532 721.607 222.406C728.104 221.97 734.073 221.571 737.479 214.037C738.018 212.843 737.583 210.011 734.002 209.984C725.081 209.915 711.353 208.524 708.54 206.916Z" fill="#D4A181"/>
<path fill-rule="evenodd" clip-rule="evenodd" d="M559.275 128.201L547.82 129.75C550.742 169.703 577.793 194.936 512.148 230.291L515.648 241.791L518.648 251.291C567.544 236.344 583.808 207.069 582.431 175.678C581.969 165.142 564.653 138.445 559.275 128.201Z" fill="white"/>
<path fill-rule="evenodd" clip-rule="evenodd" d="M559.275 128.201L547.82 129.75C550.742 169.703 577.793 194.936 512.148 230.291L515.648 241.791L518.648 251.291C567.544 236.344 583.808 207.069 582.431 175.678C581.969 165.142 564.653 138.445 559.275 128.201Z" fill="black" fill-opacity="0.03"/>
<path fill-rule="evenodd" clip-rule="evenodd" d="M543.942 117.347C539.845 123.646 534.985 128.09 531.978 128.704C524.4 130.252 511.771 105.929 512.244 93.6811C512.718 81.4324 537.429 64.1419 548.16 82.7182C551.998 89.3621 551.99 96.9371 550.05 103.998L563.648 123.533L555.648 127.533L548.148 130.533L543.942 117.347Z" fill="#D4A181"/>
<path fill-rule="evenodd" clip-rule="evenodd" d="M510.747 80.8764C506.462 83.6471 502.933 85.9284 500.784 85.684C503.192 93.5925 509.853 97.6675 522.57 90.0485C526.296 90.2585 529.876 92.3105 534.347 95.1125C534.84 94.5745 535.441 94.1175 536.137 93.7785C539.115 92.3255 542.707 93.5625 544.16 96.5415C544.897 98.0535 544.942 99.7235 544.417 101.191C546.524 102.343 548.82 103.501 551.348 104.618C555.578 98.1145 554.926 85.4884 544.293 78.1787C534.043 65.8138 520.453 74.6005 510.747 80.8764Z" fill="#020E2C"/>
<mask id="mask0_39_91" style="mask-type:alpha" maskUnits="userSpaceOnUse" x="529" y="0" width="194" height="345">
<path d="M721.483 194.931C719.52 271.908 642.944 329.887 579.209 342.275C515.474 354.664 532.151 301.033 530.651 160.534C529.151 20.0339 604.819 2.0338 663.151 0.0336959C721.483 -1.96636 724.277 85.3214 721.483 194.931Z" fill="#F5F5F5"/>
</mask>
<g mask="url(#mask0_39_91)">
<path fill-rule="evenodd" clip-rule="evenodd" d="M618.104 197.047L630.661 332.476L641.478 431.532L624.206 439.956L568.964 221.015L618.104 197.047Z" fill="#3C52AB"/>
<path fill-rule="evenodd" clip-rule="evenodd" d="M618.104 197.047L630.661 332.476L641.478 431.532L624.206 439.956L568.964 221.015L618.104 197.047Z" fill="black" fill-opacity="0.19"/>
<path fill-rule="evenodd" clip-rule="evenodd" d="M628.785 191.838C648.391 230.845 673.816 283.836 676.104 285.748C678.391 287.66 771.374 308.272 771.374 308.272L769.854 327.752C769.854 327.752 665.302 315.254 657.903 310.404C650.504 305.553 599.404 252.634 570.468 220.281L628.785 191.838Z" fill="#3C52AB"/>
<path fill-rule="evenodd" clip-rule="evenodd" d="M637.573 206.854C637.573 206.854 597.38 232.02 570.849 239.397C568.658 240.006 566.7 236.795 566.518 234.056C563.686 191.405 558.503 155.511 546.452 130.804C551.431 130.87 560.732 124.587 560.732 124.587C591.049 141.319 613.525 166.52 637.573 206.854Z" fill="#3C52AB"/>
<path fill-rule="evenodd" clip-rule="evenodd" d="M637.573 206.854C637.573 206.854 597.38 232.02 570.849 239.397C568.658 240.006 566.7 236.795 566.518 234.056C563.686 191.405 558.503 155.511 546.452 130.804C551.431 130.87 560.732 124.587 560.732 124.587C591.049 141.319 613.525 166.52 637.573 206.854Z" fill="#3C52AB"/>
<path fill-rule="evenodd" clip-rule="evenodd" d="M564.821 119.951C564.207 119.865 563.887 119.829 563.887 119.829L564.141 120.283L556.682 123.921C557.382 126.308 560.818 134.746 565.828 147.05C584.034 191.761 623.027 287.521 627.072 329.473L718.574 284.844C696.967 245.444 658.564 204.456 623.177 171.007C640.064 176.773 662.59 189.259 688.717 215.591L703.71 202.832C649.535 136.086 579.429 122.229 566.121 120.145C565.915 119.968 565.709 119.792 565.505 119.617L564.821 119.951Z" fill="white"/>
<path d="M582.428 159.852L584.233 159.283C585.282 158.952 585.986 157.996 585.942 156.963L585.613 149.38C585.607 149.236 585.813 149.179 585.879 149.307L592.051 161.112C592.051 161.112 590.852 157.764 591.498 156.854C591.797 156.432 593.544 156.301 593.544 156.301" stroke="#3C52AB" stroke-width="2" stroke-miterlimit="10" stroke-linecap="round" stroke-linejoin="round"/>
</g>
<mask id="mask1_39_91" style="mask-type:luminance" maskUnits="userSpaceOnUse" x="33" y="54" width="74" height="160">
<path d="M107 54.5337H33V213.534H107V54.5337Z" fill="white"/>
</mask>
<g mask="url(#mask1_39_91)">
<path fill-rule="evenodd" clip-rule="evenodd" d="M68.0004 213.534C85.5454 213.534 99.7684 205.404 99.7684 195.376C99.7684 185.348 85.5454 177.218 68.0004 177.218C50.4554 177.218 36.2324 185.348 36.2324 195.376C36.2324 205.404 50.4554 213.534 68.0004 213.534Z" fill="#FCC876"/>
<path fill-rule="evenodd" clip-rule="evenodd" d="M107 206.126C107 183.841 90.434 165.775 70 165.775C49.565 165.775 33 183.841 33 206.126" fill="#9DA0A7"/>
<path d="M67 35.7754H72V171.775H67V35.7754Z" fill="#9DA0A7"/>
</g>
<path fill-rule="evenodd" clip-rule="evenodd" d="M306.471 489.254C297.79 507.666 284.225 552.36 284.225 552.36L295.741 557.621C295.741 557.621 324.962 510.64 342.82 478.524C341.988 485.754 341.141 493.894 340.355 502.45C338.495 522.721 340.354 566.514 341.355 579.165C341.985 587.115 352.788 585.45 353.796 579.144C353.967 578.076 354.663 574.327 355.702 568.732C360.795 541.3 374.124 469.505 374.148 451.926C374.157 444.852 360.338 438.498 352.101 443.444C346.443 437.407 335.736 433.927 329.584 443.9C325.673 450.239 316.381 468.237 306.471 489.254Z" fill="#CFA294"/>
<path fill-rule="evenodd" clip-rule="evenodd" d="M285.047 535.813L324.574 442.175C334.044 426.942 360.593 445.275 357.364 454.109C350.032 474.167 312.747 539.102 310.562 545.078L285.047 535.813Z" fill="#A62F5D"/>
<path fill-rule="evenodd" clip-rule="evenodd" d="M285.047 535.813L324.574 442.175C334.044 426.942 360.593 445.275 357.364 454.109C350.032 474.167 312.747 539.102 310.562 545.078L285.047 535.813Z" fill="black" fill-opacity="0.38"/>
<path fill-rule="evenodd" clip-rule="evenodd" d="M376.918 459.121C376.918 485.688 364.301 547.658 364.293 553.508L337.147 553.529C337.147 553.529 343.107 470.585 341.374 469.692C339.641 468.798 270.323 476.613 249.534 476.613C219.555 476.613 207.154 457.708 206.147 422.688H265.534C277.625 423.982 340.696 436.703 364.119 441.076C374.147 442.948 376.918 451.802 376.918 459.121Z" fill="#A62F5D"/>
<path fill-rule="evenodd" clip-rule="evenodd" d="M341.596 572.972C340.525 572.501 339.251 572.978 338.852 574.079C338.124 576.086 337.147 579.097 337.147 580.794C337.147 583.499 338.048 588.688 338.048 588.688C341.186 588.688 394.45 588.688 394.45 588.688C394.45 588.688 396.648 581.42 391.912 580.84C387.175 580.261 384.042 579.794 384.042 579.794L357.827 568.107C357.312 567.877 356.71 568.118 356.495 568.639L354.81 572.727C354.81 572.727 350.425 574.773 347.683 574.773C346.014 574.773 343.392 573.762 341.596 572.972Z" fill="#F6F8F9"/>
<path fill-rule="evenodd" clip-rule="evenodd" d="M256.083 294.932C262.558 298.835 268.921 300.721 271.908 299.951C279.397 298.02 280.085 270.622 274.291 259.821C268.496 249.02 238.706 244.312 237.204 265.713C236.683 273.14 239.802 279.769 244.409 285.177L236.147 323.687H260.147L256.083 294.932Z" fill="#CFA294"/>
<path fill-rule="evenodd" clip-rule="evenodd" d="M277.147 249.687C277.147 255.028 272.96 259.391 267.689 259.673C264.674 260.603 260.8 261.286 256.503 261.574C256.921 263.143 257.147 264.925 257.147 266.939C257.147 268.717 256.951 270.603 256.59 272.518C255.658 271.41 254.412 270.687 253.147 270.687C249.61 270.687 247.147 273.597 247.147 276.687C247.147 280.609 249.411 283.446 252.716 283.673C249.74 289.385 245.624 293.687 241.512 293.687C233.701 293.687 228.147 283.245 228.147 272.017C228.147 271.622 228.155 271.23 228.17 270.842C225.526 272.656 223.076 275.034 220.608 277.43C215.365 282.52 210.042 287.687 202.608 287.687C187.734 287.687 181.828 257.687 202.608 257.687C216.74 257.687 223.692 259.748 229.683 262.795C230.864 259.464 232.666 256.663 234.869 254.707C235.399 254.111 236.212 253.54 237.26 253.01C237.901 252.66 238.564 252.374 239.246 252.159C242.859 250.832 248.092 249.895 253.938 249.691C255.029 249.653 256.101 249.642 257.147 249.656C257.164 244.147 261.635 239.687 267.147 239.687C272.67 239.687 277.147 244.164 277.147 249.687Z" fill="#020E2C"/>
<path fill-rule="evenodd" clip-rule="evenodd" d="M313.922 395.212L351.041 408.935C360.001 408.795 367.749 409.595 374.287 411.334C375.949 412.158 378.24 414.133 372.653 415.28C367.066 416.427 361.241 417.885 361.022 419.966C360.802 422.046 364.749 423.327 363.946 426.28C363.411 428.249 357.403 425.42 345.923 417.795L311.948 413.911L313.922 395.212Z" fill="#CFA294"/>
<path fill-rule="evenodd" clip-rule="evenodd" d="M253.568 358.573C281.311 382.68 313.612 396.967 356.821 408.158L349.454 427.589C306.079 427.908 282.781 427.009 262.06 402.146C256.86 395.906 246.435 373.676 240.376 362.197L253.568 358.573Z" fill="#A62F5D"/>
<path fill-rule="evenodd" clip-rule="evenodd" d="M253.568 358.573C281.311 382.68 313.612 396.967 356.821 408.158L349.454 427.589C306.079 427.908 282.781 427.009 262.06 402.146C256.86 395.906 246.435 373.676 240.376 362.197L253.568 358.573Z" fill="black" fill-opacity="0.18"/>
<path fill-rule="evenodd" clip-rule="evenodd" d="M214.146 426.687H291.146C291.146 426.687 264.984 346.895 264.417 317.159C264.397 316.148 262.531 314.367 261.705 314.6C252.646 317.159 242.318 312.687 242.318 312.687C224.064 342.046 217.751 378.192 214.146 426.687Z" fill="#A62F5D"/>
<path fill-rule="evenodd" clip-rule="evenodd" d="M214.146 426.687H291.146C291.146 426.687 264.984 346.895 264.417 317.159C264.397 316.148 262.531 314.367 261.705 314.6C252.646 317.159 242.318 312.687 242.318 312.687C224.064 342.046 217.751 378.192 214.146 426.687Z" fill="black" fill-opacity="0.2"/>
<path fill-rule="evenodd" clip-rule="evenodd" d="M311.145 393.808L346.146 407.187C355.094 407.672 357.246 404.996 363.646 407.187C365.247 408.124 374.146 411.687 372.146 413.187C372.896 414.687 373.146 415.187 372.146 413.187C371.646 416.187 361.646 414.951 356.646 417.687C351.646 420.424 351.146 420.687 341.493 418.569L307.872 412.324L311.145 393.808Z" fill="#CFA294"/>
<path fill-rule="evenodd" clip-rule="evenodd" d="M246.624 451.293H205.568C199.047 407.471 216.185 346.711 232.073 316.064C232.679 314.894 233.971 312.687 237.014 312.687H248.944C252.991 324.873 256.593 337.051 259.597 348.848C275.155 364.04 296.516 384.101 327.769 398.477L317.011 416.252C300.013 413.33 283.612 409.631 269.025 404.466C270.51 432.407 264.38 451.293 246.624 451.293Z" fill="white"/>
<mask id="mask2_39_91" style="mask-type:luminance" maskUnits="userSpaceOnUse" x="219" y="378" width="53" height="29">
<path d="M271.151 378.226H219.151V406.226H271.151V378.226Z" fill="white"/>
</mask>
<g mask="url(#mask2_39_91)">
<path d="M269.975 405.375C273.744 406.399 250.241 404.67 236.895 396.921C223.548 389.172 219.834 378.226 219.834 378.226C219.834 378.226 228.192 385.801 240.154 393.295C252.116 400.789 268.007 404.84 269.975 405.375Z" fill="black" fill-opacity="0.2"/>
</g>
<path fill-rule="evenodd" clip-rule="evenodd" d="M298.147 419.688C287.101 419.688 278.147 428.642 278.147 439.688V570.688C278.147 581.733 287.101 590.688 298.147 590.688H464.147C475.193 590.688 484.147 581.733 484.147 570.688V439.688C484.147 428.642 475.193 419.688 464.147 419.688H298.147ZM320.147 443.688C309.101 443.688 300.147 452.642 300.147 463.688V548.688C300.147 559.733 309.101 568.688 320.147 568.688H442.147C453.193 568.688 462.147 559.733 462.147 548.688V463.688C462.147 452.642 453.193 443.688 442.147 443.688H320.147Z" fill="#767B85"/>
<path fill-rule="evenodd" clip-rule="evenodd" d="M298 420C286.954 420 278 428.954 278 440V571C278 582.045 286.954 591 298 591H464C475.046 591 484 582.045 484 571V440C484 428.954 475.046 420 464 420H298ZM320 444C308.954 444 300 452.954 300 464V549C300 560.045 308.954 569 320 569H442C453.046 569 462 560.045 462 549V464C462 452.954 453.046 444 442 444H320Z" fill="#9DA0A7"/>
<path d="M446.048 318.984L416.823 418.967" stroke="#BFC6D6" stroke-width="8"/>
<path d="M446.048 318.984L416.823 418.967" stroke="black" stroke-opacity="0.6" stroke-width="8"/>
<path d="M359.147 417.485L421.159 417.666" stroke="#BFC6D6" stroke-width="6"/>
<path d="M359.147 417.485L421.159 417.666" stroke="black" stroke-opacity="0.6" stroke-width="6"/>
<path d="M450.147 254.187C450.147 273.241 421.045 288.687 385.147 288.687C349.248 288.687 320.147 273.241 320.147 254.187C320.147 235.133 349.248 219.687 385.147 219.687C421.045 219.687 450.147 235.133 450.147 254.187Z" fill="white"/>
<path d="M435.826 270.11L427.425 303.496L402.925 280.247L435.826 270.11Z" fill="white"/>
<path d="M369.146 251.984C369.146 254.194 367.356 255.984 365.146 255.984C362.937 255.984 361.146 254.194 361.146 251.984C361.146 249.775 362.937 247.984 365.146 247.984C367.356 247.984 369.146 249.775 369.146 251.984Z" fill="#102044"/>
<path d="M409.146 251.984C409.146 254.194 407.356 255.984 405.146 255.984C402.937 255.984 401.146 254.194 401.146 251.984C401.146 249.775 402.937 247.984 405.146 247.984C407.356 247.984 409.146 249.775 409.146 251.984Z" fill="#102044"/>
<path d="M389.146 251.984C389.146 254.194 387.356 255.984 385.146 255.984C382.937 255.984 381.146 254.194 381.146 251.984C381.146 249.775 382.937 247.984 385.146 247.984C387.356 247.984 389.146 249.775 389.146 251.984Z" fill="#102044"/>
<path fill-rule="evenodd" clip-rule="evenodd" d="M680.803 354.673C682.552 355.936 683.53 357.784 684.712 359.607C686.182 361.873 687.91 363.919 689.38 366.187C692.445 370.916 695.138 375.935 697.931 380.855C703.235 390.194 707.262 400.147 709.257 410.951C711.324 422.148 711.882 433.705 712.749 445.068C713.669 457.112 714.595 469.244 714.717 481.335C714.771 486.752 715.064 492.502 714.414 497.881C714.009 501.229 712.498 504.083 709.091 504.056C701.855 503.998 698.457 495.983 697.038 489.41C694.949 479.73 694.532 469.449 694.862 459.55C695.262 447.614 697.334 435.858 698.23 423.968C699.18 411.381 698.643 399.016 694.316 387.165C692.13 381.176 689.592 375.33 687.314 369.381C686.344 366.848 685.549 364.246 684.239 361.887C682.781 359.264 680.971 356.882 679.83 354.056C680.154 354.262 680.479 354.468 680.803 354.673Z" fill="#02724F" fill-opacity="0.33"/>
<path fill-rule="evenodd" clip-rule="evenodd" d="M680.803 356.657C682.552 357.92 683.53 359.768 684.712 361.591C686.182 363.857 687.91 365.903 689.38 368.171C692.445 372.9 695.138 377.919 697.931 382.839C703.235 392.178 707.262 402.131 709.257 412.935C711.324 424.132 711.882 435.689 712.749 447.052C713.669 459.096 714.595 471.228 714.717 483.319C714.771 488.736 715.064 494.486 714.414 499.865C714.009 503.213 712.498 506.067 709.091 506.04C701.855 505.982 698.457 497.967 697.038 491.394C694.949 481.714 694.532 471.433 694.862 461.534C695.262 449.598 697.334 437.842 698.23 425.952C699.18 413.365 698.643 401 694.316 389.149C692.13 383.16 689.592 377.314 687.314 371.365C686.344 368.832 685.549 366.23 684.239 363.871C682.781 361.248 680.971 358.866 679.83 356.04C680.154 356.246 680.479 356.452 680.803 356.657Z" fill="black" fill-opacity="0.04"/>
<path fill-rule="evenodd" clip-rule="evenodd" d="M764.164 331.558C764.386 331.385 764.608 331.213 764.83 331.04C764.191 333.733 763.036 335.92 762.154 338.381C761.361 340.594 760.959 343.098 760.424 345.517C759.17 351.198 757.72 356.751 756.535 362.48C754.19 373.817 754.633 386.03 756.172 398.608C757.624 410.49 759.922 422.353 761.017 434.232C761.925 444.083 762.315 454.242 761.449 463.641C760.861 470.025 758.932 477.646 753.678 477.002C751.204 476.699 749.914 473.721 749.394 470.36C748.559 464.962 748.384 459.286 748.059 453.918C747.332 441.936 747.187 429.991 747.044 418.133C746.908 406.944 746.534 395.534 747.282 384.627C748.003 374.103 750.258 364.62 753.483 355.87C755.181 351.26 756.799 346.542 758.708 342.149C759.623 340.041 760.741 338.179 761.656 336.073C762.392 334.379 762.978 332.641 764.164 331.558Z" fill="#02724F" fill-opacity="0.49"/>
<path fill-rule="evenodd" clip-rule="evenodd" d="M683.039 391.342C683.995 389.735 686.102 395.034 686.422 395.7C686.287 395.368 686.151 395.037 686.013 394.707C687.913 397.865 689.65 401.153 690.731 404.774C691.8 408.359 692.718 412.017 693.721 415.627C695.603 422.401 698.031 428.983 699.737 435.818C701.398 442.478 701.817 449.026 701.415 455.915C700.997 463.076 700.741 470.346 701.229 477.502C701.462 480.92 702.572 484.104 703.334 487.394C704.096 490.688 704.696 494.026 705.597 497.279C705.804 496.855 705.83 498.272 705.83 498.379C705.824 499.192 705.711 499.874 705.449 500.644C704.777 502.626 703.52 504.309 701.608 504.856C698.151 505.843 694.942 502.699 693.827 499.379C692.228 494.615 691.347 489.351 690.585 484.344C689.886 479.753 689.721 475.134 689.929 470.48C690.338 461.301 691.999 452.242 692.448 443.066C692.937 433.076 690.958 423.689 689.301 413.965C688.502 409.279 687.739 404.638 686.186 400.174C685.557 398.366 684.737 396.771 683.877 395.102C683.388 394.152 682.399 392.458 683.039 391.342Z" fill="#02724F" fill-opacity="0.49"/>
<path fill-rule="evenodd" clip-rule="evenodd" d="M711.082 373.753C710.685 385.198 710.002 396.556 708.476 407.88C706.919 419.436 705.13 430.953 703.632 442.52C702.173 453.779 700.644 465.225 700.848 476.641C700.998 485.05 699.604 499.275 708.943 503.425C718.402 507.628 720.431 489.68 721.052 483.755C722.242 472.389 721.857 460.903 721.279 449.475C720.686 437.746 719.696 426.076 718.469 414.39C717.107 401.409 716.037 388.37 715.179 375.352C714.755 368.913 714.65 362.485 714.767 356.044C714.878 349.967 714.647 343.826 712.486 338.056C712.373 338.138 712.261 338.22 712.147 338.302" fill="#02724F" fill-opacity="0.33"/>
<path fill-rule="evenodd" clip-rule="evenodd" d="M711.082 373.753C710.685 385.198 710.002 396.556 708.476 407.88C706.919 419.436 705.13 430.953 703.632 442.52C702.173 453.779 700.644 465.225 700.848 476.641C700.998 485.05 699.604 499.275 708.943 503.425C718.402 507.628 720.431 489.68 721.052 483.755C722.242 472.389 721.857 460.903 721.279 449.475C720.686 437.746 719.696 426.076 718.469 414.39C717.107 401.409 716.037 388.37 715.179 375.352C714.755 368.913 714.65 362.485 714.767 356.044C714.878 349.967 714.647 343.826 712.486 338.056C712.373 338.138 712.261 338.22 712.147 338.302" fill="#02724F" fill-opacity="0.33"/>
<path fill-rule="evenodd" clip-rule="evenodd" d="M759.912 411.995C758.211 414.473 756.497 416.927 754.89 419.552C752.016 424.249 749.417 429.472 748.635 436.187C746.998 450.24 748.311 465.419 748.628 479.903C748.693 482.863 748.318 485.733 749.485 488.55C750.543 491.104 752.52 493.051 754.405 493.04C758.441 493.017 757.825 483.135 757.831 478.786C757.844 471.163 756.989 463.462 757.062 455.846C757.136 448.301 757.595 440.734 758.689 433.568C759.796 426.315 761.418 419.35 763.559 412.85C763.856 411.948 765.988 404.978 763.974 406.179" fill="#02724F" fill-opacity="0.49"/>
<path fill-rule="evenodd" clip-rule="evenodd" d="M759.912 411.995C758.211 414.473 756.497 416.927 754.89 419.552C752.016 424.249 749.417 429.472 748.635 436.187C746.998 450.24 748.311 465.419 748.628 479.903C748.693 482.863 748.318 485.733 749.485 488.55C750.543 491.104 752.52 493.051 754.405 493.04C758.441 493.017 757.825 483.135 757.831 478.786C757.844 471.163 756.989 463.462 757.062 455.846C757.136 448.301 757.595 440.734 758.689 433.568C759.796 426.315 761.418 419.35 763.559 412.85C763.856 411.948 765.988 404.978 763.974 406.179" fill="black" fill-opacity="0.04"/>
<path fill-rule="evenodd" clip-rule="evenodd" d="M742.093 335.056C739.44 335.056 739.456 348.282 739.376 349.981C739.088 356.112 739.156 362.244 738.973 368.376C738.574 381.757 738.084 395.256 736.074 408.482C734.992 415.603 733.737 422.692 732.388 429.758C731.034 436.845 729.218 443.923 728.327 451.1C727.472 457.999 727.955 465.033 728.073 471.966C728.19 478.941 728.401 485.93 729.314 492.844C729.54 494.55 729.804 496.251 730.087 497.947C730.323 499.361 730.186 501.114 730.584 502.457C731.224 504.608 733.964 505.313 735.809 504.976C740.801 504.065 743.99 497.796 745.696 493.216C747.874 487.367 749.029 481.024 750.17 474.86C751.462 467.877 752.219 460.788 752.574 453.679C753.296 439.231 752.37 424.768 751.335 410.366C750.759 402.357 750.094 394.383 749.077 386.423C748.063 378.497 746.763 370.607 745.917 362.657C745.302 356.881 744.696 351.096 744.297 345.297C744.202 343.915 744.122 335.056 742.093 335.056Z" fill="#02724F" fill-opacity="0.33"/>
<path fill-rule="evenodd" clip-rule="evenodd" d="M738.77 433.179C738.338 419.293 732.756 358.299 731.486 341.507C731.169 337.304 728.111 319.805 727.715 315.04C726.639 316.387 726.731 337.35 726.743 342.166C726.755 346.931 726.165 351.617 725.861 356.356C725.551 361.191 718.402 423.641 717.474 428.287C715.629 437.531 714.394 447.017 713.441 456.468C712.513 465.68 711.07 475.398 712.312 484.658C712.597 486.79 713.049 488.888 713.784 490.846C714.579 492.962 715.124 494.919 715.761 497.133C716.788 500.7 718.645 503.83 721.498 505.302C727.347 508.321 730.488 501.487 732.08 495.537C734.623 486.035 736.255 476.378 737.02 466.399C737.867 455.358 739.117 444.295 738.77 433.179Z" fill="#02724F" fill-opacity="0.49"/>
<path d="M765.83 474.04H678.83C677.726 474.04 676.83 474.935 676.83 476.04V563.04C676.83 564.145 677.726 565.04 678.83 565.04H765.83C766.935 565.04 767.83 564.145 767.83 563.04V476.04C767.83 474.935 766.935 474.04 765.83 474.04Z" fill="#89B1F2"/>
<path d="M766 474H679C677.895 474 677 474.895 677 476V563C677 564.105 677.895 565 679 565H766C767.105 565 768 564.105 768 563V476C768 474.895 767.105 474 766 474Z" fill="#E1E1EC"/>
<path d="M674.83 484.04H668.83C667.726 484.04 666.83 484.935 666.83 486.04V595.04C666.83 596.145 667.726 597.04 668.83 597.04H674.83C675.935 597.04 676.83 596.145 676.83 595.04V486.04C676.83 484.935 675.935 484.04 674.83 484.04Z" fill="#89B1F2"/>
<path d="M674.83 484.04H668.83C667.726 484.04 666.83 484.935 666.83 486.04V595.04C666.83 596.145 667.726 597.04 668.83 597.04H674.83C675.935 597.04 676.83 596.145 676.83 595.04V486.04C676.83 484.935 675.935 484.04 674.83 484.04Z" fill="#9DA0A7"/>
<path d="M724.83 484.04H718.83C717.726 484.04 716.83 484.935 716.83 486.04V595.04C716.83 596.145 717.726 597.04 718.83 597.04H724.83C725.935 597.04 726.83 596.145 726.83 595.04V486.04C726.83 484.935 725.935 484.04 724.83 484.04Z" fill="#89B1F2"/>
<path d="M724.83 484.04H718.83C717.726 484.04 716.83 484.935 716.83 486.04V595.04C716.83 596.145 717.726 597.04 718.83 597.04H724.83C725.935 597.04 726.83 596.145 726.83 595.04V486.04C726.83 484.935 725.935 484.04 724.83 484.04Z" fill="#9DA0A7"/>
<path d="M775.83 484.04H769.83C768.726 484.04 767.83 484.935 767.83 486.04V595.04C767.83 596.145 768.726 597.04 769.83 597.04H775.83C776.935 597.04 777.83 596.145 777.83 595.04V486.04C777.83 484.935 776.935 484.04 775.83 484.04Z" fill="#89B1F2"/>
<path d="M775.83 484.04H769.83C768.726 484.04 767.83 484.935 767.83 486.04V595.04C767.83 596.145 768.726 597.04 769.83 597.04H775.83C776.935 597.04 777.83 596.145 777.83 595.04V486.04C777.83 484.935 776.935 484.04 775.83 484.04Z" fill="#9DA0A7"/>
<path d="M134.387 0.495564C135.048 -0.165188 136.12 -0.165188 136.781 0.495564L145.672 9.38722C146.333 10.048 146.333 11.1201 145.672 11.7808L136.781 20.6725C136.12 21.3332 135.048 21.3332 134.387 20.6725L125.496 11.7808C124.835 11.1201 124.835 10.048 125.496 9.38722L134.387 0.495564Z" fill="#F4C882"/>
<path d="M967.504 365.277L954.624 361.092C951.068 359.937 947.248 361.883 946.092 365.44C944.937 368.996 946.883 372.816 950.44 373.972L963.319 378.157C966.876 379.312 970.696 377.366 971.851 373.809C973.007 370.253 971.06 366.433 967.504 365.277Z" fill="#89B1F2"/>
<path d="M22.7939 639.316C23.6107 639.074 24.3911 639.789 24.2208 640.624L19.7318 662.618C19.556 663.477 18.5101 663.817 17.8636 663.224L0.833464 647.619C0.186972 647.027 0.43409 645.955 1.27468 645.705L22.7939 639.316Z" fill="#02724F"/>
</svg>
