<svg width="974" height="685" viewBox="0 0 974 685" fill="none" xmlns="http://www.w3.org/2000/svg">
<path fill-rule="evenodd" clip-rule="evenodd" d="M772.151 455.727C653.193 593.226 319.151 686.727 149.651 572.726C-7.84893 409.227 340.386 186.278 562.65 169.226C659.65 161.784 1057.65 125.726 772.151 455.727Z" fill="#30638E" fill-opacity="0.12"/>
<path fill-rule="evenodd" clip-rule="evenodd" d="M274.757 477.984H346.383L355.769 592.984H249.147L274.757 477.984Z" fill="#FCC876"/>
<path fill-rule="evenodd" clip-rule="evenodd" d="M274.757 477.984H296.786L309.971 592.984H249.147L274.757 477.984Z" fill="black" fill-opacity="0.1"/>
<path d="M799.483 205.624C797.52 282.601 720.944 340.58 657.209 352.968C593.474 365.357 610.151 311.726 608.651 171.227C607.151 30.7266 682.819 12.7265 741.151 10.7264C799.483 8.72634 802.277 96.0141 799.483 205.624Z" fill="#6270B9"/>
<path d="M799.483 205.624C797.52 282.601 720.944 340.58 657.209 352.968C593.474 365.357 610.151 311.726 608.651 171.227C607.151 30.7266 682.819 12.7265 741.151 10.7264C799.483 8.72634 802.277 96.0141 799.483 205.624Z" fill="white" fill-opacity="0.43"/>
<path fill-rule="evenodd" clip-rule="evenodd" d="M584.289 247.012L590.52 243.226L594.148 255.128L590.52 255.128C580.133 264.186 574.546 267.774 573.758 265.893C573.094 264.306 573.987 263.047 574.809 261.887C575.45 260.984 576.048 260.141 575.833 259.25C575.344 257.216 569.379 256.531 563.69 256.123C558.001 255.715 560.014 253.457 561.555 252.424C567.81 249.846 575.387 248.042 584.289 247.012ZM786.54 217.609C780.786 214.319 780.648 214.226 780.648 214.226L770.648 222.726C770.648 222.726 773.817 224.592 777.234 226.898C781.672 229.895 782.885 237.78 783.707 243.127C783.835 243.954 783.953 244.721 784.072 245.399C787.528 244.796 787.835 242.5 788.158 240.079C788.524 237.345 788.91 234.451 793.88 233.659C795.801 233.354 797.726 233.225 799.607 233.099C806.104 232.663 812.073 232.264 815.479 224.73C816.018 223.536 815.583 220.704 812.002 220.677C803.081 220.608 789.353 219.217 786.54 217.609Z" fill="#D4A181"/>
<path fill-rule="evenodd" clip-rule="evenodd" d="M637.275 138.894L625.82 140.443C628.742 180.396 655.793 205.629 590.148 240.984L593.648 252.484L596.648 261.984C645.544 247.037 661.808 217.762 660.431 186.371C659.969 175.835 642.653 149.138 637.275 138.894Z" fill="#F4F4F4"/>
<path fill-rule="evenodd" clip-rule="evenodd" d="M637.275 138.894L625.82 140.443C628.742 180.396 655.793 205.629 590.148 240.984L593.648 252.484L596.648 261.984C645.544 247.037 661.808 217.762 660.431 186.371C659.969 175.835 642.653 149.138 637.275 138.894Z" fill="black" fill-opacity="0.03"/>
<path fill-rule="evenodd" clip-rule="evenodd" d="M621.942 128.04C617.845 134.339 612.985 138.783 609.978 139.397C602.4 140.945 589.771 116.622 590.244 104.374C590.718 92.1253 615.429 74.8348 626.16 93.4111C629.998 100.055 629.99 107.63 628.05 114.691L641.648 134.226L633.648 138.226L626.148 141.226L621.942 128.04Z" fill="#D4A181"/>
<path fill-rule="evenodd" clip-rule="evenodd" d="M588.747 91.5689C584.462 94.3396 580.933 96.6209 578.784 96.3765C581.192 104.285 587.853 108.36 600.57 100.741C604.296 100.951 607.876 103.003 612.347 105.805C612.84 105.267 613.441 104.81 614.137 104.471C617.115 103.018 620.707 104.255 622.16 107.234C622.897 108.746 622.942 110.416 622.417 111.884C624.524 113.036 626.82 114.194 629.348 115.311C633.578 108.807 632.926 96.1809 622.293 88.8712C612.043 76.5063 598.453 85.293 588.747 91.5689Z" fill="#020E2C"/>
<mask id="mask0_353_347" style="mask-type:alpha" maskUnits="userSpaceOnUse" x="607" y="10" width="194" height="345">
<path d="M799.483 205.624C797.52 282.601 720.944 340.58 657.209 352.968C593.474 365.357 610.151 311.726 608.651 171.227C607.151 30.7266 682.819 12.7265 741.151 10.7264C799.483 8.72634 802.277 96.0141 799.483 205.624Z" fill="#6270B9"/>
<path d="M799.483 205.624C797.52 282.601 720.944 340.58 657.209 352.968C593.474 365.357 610.151 311.726 608.651 171.227C607.151 30.7266 682.819 12.7265 741.151 10.7264C799.483 8.72634 802.277 96.0141 799.483 205.624Z" fill="white" fill-opacity="0.43"/>
</mask>
<g mask="url(#mask0_353_347)">
<path fill-rule="evenodd" clip-rule="evenodd" d="M696.104 207.74L708.661 343.169L719.478 442.225L702.206 450.649L646.964 231.708L696.104 207.74Z" fill="#8FBFE8"/>
<path fill-rule="evenodd" clip-rule="evenodd" d="M696.104 207.74L708.661 343.169L719.478 442.225L702.206 450.649L646.964 231.708L696.104 207.74Z" fill="black" fill-opacity="0.1"/>
<path fill-rule="evenodd" clip-rule="evenodd" d="M706.785 202.531C726.391 241.538 751.816 294.529 754.104 296.441C756.391 298.353 849.374 318.965 849.374 318.965L847.854 338.445C847.854 338.445 743.302 325.947 735.903 321.097C728.504 316.246 677.404 263.327 648.468 230.974L706.785 202.531Z" fill="#A2C8DB"/>
<path fill-rule="evenodd" clip-rule="evenodd" d="M715.573 217.547C715.573 217.547 675.38 242.713 648.849 250.09C646.658 250.699 644.7 247.488 644.518 244.749C641.686 202.098 636.503 166.204 624.452 141.497C629.431 141.563 638.732 135.28 638.732 135.28C669.049 152.012 691.525 177.213 715.573 217.547Z" fill="#6CA1CF"/>
<path fill-rule="evenodd" clip-rule="evenodd" d="M715.573 217.547C715.573 217.547 675.38 242.713 648.849 250.09C646.658 250.699 644.7 247.488 644.518 244.749C641.686 202.098 636.503 166.204 624.452 141.497C629.431 141.563 638.732 135.28 638.732 135.28C669.049 152.012 691.525 177.213 715.573 217.547Z" fill="#30638E" fill-opacity="0.2"/>
<path fill-rule="evenodd" clip-rule="evenodd" d="M642.821 130.644C642.207 130.558 641.887 130.522 641.887 130.522L642.141 130.976L634.682 134.614C635.382 137.001 638.818 145.439 643.828 157.743C662.034 202.454 701.027 298.214 705.072 340.166L796.574 295.537C774.967 256.137 736.564 215.149 701.177 181.7C718.064 187.466 740.59 199.952 766.717 226.284L781.71 213.525C727.535 146.779 657.429 132.922 644.121 130.838C643.915 130.661 643.709 130.485 643.505 130.31L642.821 130.644Z" fill="#F4F4F4"/>
<path d="M660.428 170.545L662.233 169.976C663.282 169.645 663.986 168.689 663.942 167.656L663.613 160.073C663.607 159.929 663.813 159.872 663.879 160L670.051 171.805C670.051 171.805 668.852 168.457 669.498 167.547C669.797 167.125 671.544 166.994 671.544 166.994" stroke="#30638E" stroke-width="2" stroke-miterlimit="10" stroke-linecap="round" stroke-linejoin="round"/>
</g>
<g clip-path="url(#clip0_353_347)">
<path fill-rule="evenodd" clip-rule="evenodd" d="M146 224.227C163.545 224.227 177.768 216.097 177.768 206.069C177.768 196.041 163.545 187.911 146 187.911C128.455 187.911 114.232 196.041 114.232 206.069C114.232 216.097 128.455 224.227 146 224.227Z" fill="#F39B10"/>
<path fill-rule="evenodd" clip-rule="evenodd" d="M185 216.819C185 194.534 168.434 176.468 148 176.468C127.565 176.468 111 194.534 111 216.819" fill="#767B85"/>
<path d="M145 46.4681L150 46.4681L150 182.468L145 182.468L145 46.4681Z" fill="#767B85"/>
</g>
<path fill-rule="evenodd" clip-rule="evenodd" d="M368.47 494.254C359.789 512.666 346.224 557.36 346.224 557.36L357.74 562.621C357.74 562.621 386.961 515.64 404.819 483.524C403.987 490.754 403.14 498.894 402.354 507.45C400.494 527.721 402.353 571.514 403.354 584.165C403.984 592.115 414.787 590.45 415.795 584.144C415.966 583.076 416.662 579.327 417.701 573.732C422.794 546.3 436.123 474.505 436.147 456.926C436.156 449.852 422.337 443.498 414.1 448.444C408.442 442.407 397.735 438.927 391.583 448.9C387.672 455.239 378.38 473.237 368.47 494.254Z" fill="#B28B67"/>
<path fill-rule="evenodd" clip-rule="evenodd" d="M347.047 540.813L386.574 447.175C396.044 431.942 422.593 450.275 419.364 459.109C412.032 479.167 374.747 544.102 372.562 550.078L347.047 540.813Z" fill="#8E3030"/>
<path fill-rule="evenodd" clip-rule="evenodd" d="M347.047 540.813L386.574 447.175C396.044 431.942 422.593 450.275 419.364 459.109C412.032 479.167 374.747 544.102 372.562 550.078L347.047 540.813Z" fill="black" fill-opacity="0.1"/>
<path fill-rule="evenodd" clip-rule="evenodd" d="M438.918 464.121C438.918 490.688 426.301 552.658 426.293 558.508L399.147 558.529C399.147 558.529 405.107 475.585 403.374 474.692C401.641 473.798 332.323 481.613 311.534 481.613C281.555 481.613 269.154 462.708 268.147 427.688H327.534C339.625 428.982 402.696 441.703 426.119 446.076C436.147 447.948 438.918 456.802 438.918 464.121Z" fill="#8E3030"/>
<path fill-rule="evenodd" clip-rule="evenodd" d="M347.811 551.873C347.118 550.929 345.777 550.706 344.88 551.459C343.246 552.834 340.895 554.952 340.046 556.422C338.694 558.765 336.88 563.709 336.88 563.709C339.597 565.278 385.725 591.91 385.725 591.91C385.725 591.91 391.263 586.715 387.451 583.845C383.638 580.975 381.159 579.004 381.159 579.004L364.299 555.775C363.968 555.319 363.326 555.226 362.88 555.57L359.377 558.268C359.377 558.268 354.556 557.847 352.182 556.476C350.736 555.642 348.971 553.456 347.811 551.873Z" fill="#F6F8F9"/>
<path fill-rule="evenodd" clip-rule="evenodd" d="M403.596 577.972C402.525 577.501 401.251 577.978 400.852 579.079C400.124 581.086 399.147 584.097 399.147 585.794C399.147 588.499 400.048 593.688 400.048 593.688C403.186 593.688 456.45 593.688 456.45 593.688C456.45 593.688 458.648 586.42 453.912 585.84C449.175 585.261 446.042 584.794 446.042 584.794L419.827 573.107C419.312 572.877 418.71 573.118 418.495 573.639L416.81 577.727C416.81 577.727 412.425 579.773 409.683 579.773C408.014 579.773 405.392 578.762 403.596 577.972Z" fill="#F6F8F9"/>
<path fill-rule="evenodd" clip-rule="evenodd" d="M318.083 299.932C324.558 303.835 330.921 305.721 333.908 304.951C341.397 303.02 342.085 275.622 336.291 264.821C330.496 254.02 300.706 249.312 299.204 270.713C298.683 278.14 301.802 284.769 306.409 290.177L298.147 328.687H322.147L318.083 299.932Z" fill="#B28B67"/>
<path fill-rule="evenodd" clip-rule="evenodd" d="M339.147 254.687C339.147 260.028 334.96 264.391 329.689 264.673C326.674 265.603 322.8 266.286 318.503 266.574C318.921 268.143 319.147 269.925 319.147 271.939C319.147 273.717 318.951 275.603 318.59 277.518C317.658 276.41 316.412 275.687 315.147 275.687C311.61 275.687 309.147 278.597 309.147 281.687C309.147 285.609 311.411 288.446 314.716 288.673C311.74 294.385 307.624 298.687 303.512 298.687C295.701 298.687 290.147 288.245 290.147 277.017C290.147 276.622 290.155 276.23 290.17 275.842C287.526 277.656 285.076 280.034 282.608 282.43L282.608 282.43C277.365 287.52 272.042 292.687 264.608 292.687C249.734 292.687 243.828 262.687 264.608 262.687C278.74 262.687 285.692 264.748 291.683 267.795C292.864 264.464 294.666 261.663 296.869 259.707C297.399 259.111 298.212 258.54 299.26 258.01C299.901 257.66 300.564 257.374 301.246 257.159C304.859 255.832 310.092 254.895 315.938 254.691C317.029 254.653 318.101 254.642 319.147 254.656C319.164 249.147 323.635 244.687 329.147 244.687C334.67 244.687 339.147 249.164 339.147 254.687Z" fill="#020E2C"/>
<path fill-rule="evenodd" clip-rule="evenodd" d="M375.922 400.212L413.041 413.935C422.001 413.795 429.749 414.595 436.287 416.334C437.949 417.158 440.24 419.133 434.653 420.28C429.066 421.427 423.241 422.885 423.022 424.966C422.802 427.046 426.749 428.327 425.946 431.28C425.411 433.249 419.403 430.42 407.923 422.795L373.948 418.911L375.922 400.212Z" fill="#B28B67"/>
<path fill-rule="evenodd" clip-rule="evenodd" d="M315.568 363.573C343.311 387.68 375.612 401.967 418.821 413.158L411.454 432.589C368.079 432.908 344.781 432.009 324.06 407.146C318.86 400.906 308.435 378.676 302.376 367.197L315.568 363.573Z" fill="#8E3030"/>
<path fill-rule="evenodd" clip-rule="evenodd" d="M315.568 363.573C343.311 387.68 375.612 401.967 418.821 413.158L411.454 432.589C368.079 432.908 344.781 432.009 324.06 407.146C318.86 400.906 308.435 378.676 302.376 367.197L315.568 363.573Z" fill="black" fill-opacity="0.18"/>
<path fill-rule="evenodd" clip-rule="evenodd" d="M276.146 431.687H353.146C353.146 431.687 326.984 351.895 326.417 322.159C326.397 321.148 324.531 319.367 323.705 319.6C314.646 322.159 304.318 317.687 304.318 317.687C286.064 347.046 279.751 383.192 276.146 431.687Z" fill="#8E3030"/>
<path fill-rule="evenodd" clip-rule="evenodd" d="M276.146 431.687H353.146C353.146 431.687 326.984 351.895 326.417 322.159C326.397 321.148 324.531 319.367 323.705 319.6C314.646 322.159 304.318 317.687 304.318 317.687C286.064 347.046 279.751 383.192 276.146 431.687Z" fill="black" fill-opacity="0.2"/>
<path fill-rule="evenodd" clip-rule="evenodd" d="M373.145 398.808L408.146 412.187C417.094 412.672 419.246 409.996 425.646 412.187C427.247 413.124 436.146 416.687 434.146 418.187C434.896 419.687 435.146 420.187 434.146 418.187C433.646 421.187 423.646 419.951 418.646 422.687C413.646 425.424 413.146 425.687 403.493 423.569L369.872 417.324L373.145 398.808Z" fill="#B28B67"/>
<path fill-rule="evenodd" clip-rule="evenodd" d="M308.624 456.293H267.568C261.047 412.471 278.185 351.711 294.073 321.064C294.679 319.894 295.971 317.687 299.014 317.687H310.944C314.991 329.873 318.593 342.051 321.597 353.848C337.155 369.04 358.516 389.101 389.769 403.477L379.011 421.252C362.013 418.33 345.612 414.631 331.025 409.466C332.51 437.407 326.38 456.293 308.624 456.293Z" fill="#ECF9FF"/>
<g clip-path="url(#clip1_353_347)">
<path d="M331.975 410.375C335.744 411.399 312.241 409.67 298.895 401.921C285.548 394.172 281.834 383.226 281.834 383.226C281.834 383.226 290.192 390.801 302.154 398.295C314.116 405.789 330.007 409.84 331.975 410.375Z" fill="black" fill-opacity="0.2"/>
</g>
<path fill-rule="evenodd" clip-rule="evenodd" d="M484.239 327.868C491.925 340.762 500.877 353.248 506.253 367.346C506.036 365.685 505.807 364.024 505.549 362.367C504.185 353.579 502.49 344.856 500.709 336.144C499.801 331.708 498.842 327.288 497.858 322.868C497.328 320.494 496.806 318.119 496.265 315.748C496.135 315.173 496.022 314.17 495.858 313.153C501.083 330.297 506.121 347.455 509.806 365.011C510.29 367.316 510.702 369.616 511.039 371.912C511.154 371.388 511.268 370.864 511.392 370.342C512.883 364.08 515.12 357.868 517.783 352.013C519.056 349.213 520.519 346.474 522.241 343.922C523.314 342.332 525.847 340.441 526.826 338.812C521.469 348.637 519.535 360.931 516.442 371.612C515.687 374.219 514.927 376.822 514.183 379.429C518.847 370.074 526.085 362.388 536.147 359.057C523.967 367.105 516.661 381.199 511.738 395.613C511.722 395.784 511.703 395.955 511.686 396.126C513.135 393.376 514.959 390.89 517.433 389.148C522.726 385.419 528.598 386.506 533.733 389.704C529.703 387.142 522.42 389.475 519.029 392.079C516.601 393.942 514.527 396.443 512.725 398.882C512.294 399.467 511.705 400.149 511.083 400.877C510.211 406.539 508.789 412.162 506.777 417.741C507.109 416.14 506.869 413.579 506.961 412.385C506.971 412.256 506.979 412.127 506.989 411.998C506.683 413.219 506.387 414.427 506.103 415.615C506.668 413.348 506.976 410.981 507.216 408.59C507.278 407.562 507.338 406.535 507.402 405.507C507.381 403.557 507.301 401.599 507.165 399.638C506.684 397.732 506.144 395.935 505.699 394.44C504.094 389.045 501.741 383.877 498.845 379.056C496.203 374.656 493.04 370.671 489.389 367.067C487.42 365.125 485.36 363.275 483.329 361.399C482.595 360.721 481.282 359.054 480.147 358.185C488.415 362.743 496.926 367.675 502.958 375.019C502.25 372.304 501.482 369.627 500.67 367.003C496.548 353.693 491.343 339.898 484.239 327.868Z" fill="#A8BCBC"/>
<path fill-rule="evenodd" clip-rule="evenodd" d="M492.5 400.859C492.5 415.64 493.67 427.623 509.382 427.623C525.094 427.623 526.264 415.64 526.264 400.859" fill="#A8BCBC"/>
<path fill-rule="evenodd" clip-rule="evenodd" d="M360.147 424.688C349.101 424.688 340.147 433.642 340.147 444.688V575.688C340.147 586.733 349.101 595.688 360.147 595.688H526.147C537.193 595.688 546.147 586.733 546.147 575.688V444.688C546.147 433.642 537.193 424.688 526.147 424.688H360.147ZM382.147 448.688C371.101 448.688 362.147 457.642 362.147 468.688V553.688C362.147 564.733 371.101 573.688 382.147 573.688H504.147C515.193 573.688 524.147 564.733 524.147 553.688V468.688C524.147 457.642 515.193 448.688 504.147 448.688H382.147Z" fill="#767B85"/>
<path fill-rule="evenodd" clip-rule="evenodd" d="M360.147 424.688C349.101 424.688 340.147 433.642 340.147 444.688V575.688C340.147 586.733 349.101 595.688 360.147 595.688H526.147C537.193 595.688 546.147 586.733 546.147 575.688V444.688C546.147 433.642 537.193 424.688 526.147 424.688H360.147ZM382.147 448.688C371.101 448.688 362.147 457.642 362.147 468.688V553.688C362.147 564.733 371.101 573.688 382.147 573.688H504.147C515.193 573.688 524.147 564.733 524.147 553.688V468.688C524.147 457.642 515.193 448.688 504.147 448.688H382.147Z" fill="white" fill-opacity="0.42"/>
<path d="M508.048 323.984L478.823 423.967" stroke="#BFC6D6" stroke-width="8"/>
<path d="M508.048 323.984L478.823 423.967" stroke="black" stroke-opacity="0.6" stroke-width="8"/>
<path d="M421.147 422.485L483.159 422.666" stroke="#BFC6D6" stroke-width="6"/>
<path d="M421.147 422.485L483.159 422.666" stroke="black" stroke-opacity="0.6" stroke-width="6"/>
<path d="M512.147 259.187C512.147 278.241 483.045 293.687 447.147 293.687C411.248 293.687 382.147 278.241 382.147 259.187C382.147 240.133 411.248 224.687 447.147 224.687C483.045 224.687 512.147 240.133 512.147 259.187Z" fill="white"/>
<path d="M497.826 275.11L489.425 308.496L464.925 285.247L497.826 275.11Z" fill="white"/>
<path d="M431.146 256.984C431.146 259.194 429.356 260.984 427.146 260.984C424.937 260.984 423.146 259.194 423.146 256.984C423.146 254.775 424.937 252.984 427.146 252.984C429.356 252.984 431.146 254.775 431.146 256.984Z" fill="#30638E"/>
<path d="M471.146 256.984C471.146 259.194 469.356 260.984 467.146 260.984C464.937 260.984 463.146 259.194 463.146 256.984C463.146 254.775 464.937 252.984 467.146 252.984C469.356 252.984 471.146 254.775 471.146 256.984Z" fill="#30638E"/>
<path d="M451.146 256.984C451.146 259.194 449.356 260.984 447.146 260.984C444.937 260.984 443.146 259.194 443.146 256.984C443.146 254.775 444.937 252.984 447.146 252.984C449.356 252.984 451.146 254.775 451.146 256.984Z" fill="#30638E"/>
<path fill-rule="evenodd" clip-rule="evenodd" d="M119.529 312.192C128.362 333.181 143.377 347.765 151.33 369.589C156.045 382.531 158.011 396.604 158.13 411.016C158.195 418.844 158.059 426.678 158.022 434.506C157.987 442.14 157.779 449.725 157.131 457.311C156.48 464.936 155.751 472.471 155.429 480.143C155.179 486.122 155.065 493.075 153.038 498.528C151.427 502.865 147.331 503.5 146.244 498.241C145.641 495.317 145.717 492.052 145.783 489.048C145.869 485.192 146.093 481.343 146.207 477.488C146.667 462.02 146.071 446.55 146.382 431.076C146.687 415.957 148.63 400.855 146.48 385.838C144.704 373.436 140.193 362.787 135.009 352.577C130.022 342.755 124.593 333.171 121.223 321.999C120.255 318.79 119.507 315.465 119.148 312.014C119.305 311.941 119.432 312.001 119.529 312.192Z" fill="#A8BCBC"/>
<path fill-rule="evenodd" clip-rule="evenodd" d="M117.121 353.601C118.87 354.864 119.848 356.712 121.03 358.535C122.5 360.801 124.228 362.847 125.698 365.115C128.763 369.844 131.456 374.863 134.249 379.783C139.553 389.122 143.58 399.075 145.575 409.879C147.642 421.076 148.2 432.633 149.067 443.996C149.987 456.04 150.913 468.172 151.035 480.263C151.089 485.68 151.382 491.43 150.732 496.809C150.327 500.157 148.816 503.011 145.409 502.984C138.173 502.926 134.775 494.911 133.356 488.338C131.267 478.658 130.85 468.377 131.18 458.478C131.58 446.542 133.652 434.786 134.548 422.896C135.498 410.309 134.961 397.944 130.634 386.093C128.448 380.104 125.91 374.258 123.632 368.309C122.662 365.776 121.867 363.174 120.557 360.815C119.099 358.192 117.289 355.81 116.148 352.984C116.472 353.19 116.797 353.396 117.121 353.601Z" fill="#97A7A7"/>
<path fill-rule="evenodd" clip-rule="evenodd" d="M117.121 353.601C118.87 354.864 119.848 356.712 121.03 358.535C122.5 360.801 124.228 362.847 125.698 365.115C128.763 369.844 131.456 374.863 134.249 379.783C139.553 389.122 143.58 399.075 145.575 409.879C147.642 421.076 148.2 432.633 149.067 443.996C149.987 456.04 150.913 468.172 151.035 480.263C151.089 485.68 151.382 491.43 150.732 496.809C150.327 500.157 148.816 503.011 145.409 502.984C138.173 502.926 134.775 494.911 133.356 488.338C131.267 478.658 130.85 468.377 131.18 458.478C131.58 446.542 133.652 434.786 134.548 422.896C135.498 410.309 134.961 397.944 130.634 386.093C128.448 380.104 125.91 374.258 123.632 368.309C122.662 365.776 121.867 363.174 120.557 360.815C119.099 358.192 117.289 355.81 116.148 352.984C116.472 353.19 116.797 353.396 117.121 353.601Z" fill="black" fill-opacity="0.04"/>
<path fill-rule="evenodd" clip-rule="evenodd" d="M200.482 328.502C200.704 328.329 200.926 328.157 201.148 327.984C200.509 330.677 199.354 332.864 198.472 335.325C197.679 337.538 197.277 340.042 196.742 342.461C195.488 348.142 194.038 353.695 192.853 359.424C190.508 370.761 190.951 382.974 192.49 395.552C193.942 407.434 196.24 419.297 197.335 431.176C198.243 441.027 198.633 451.186 197.767 460.585C197.179 466.969 195.25 474.59 189.996 473.946C187.522 473.643 186.232 470.665 185.712 467.304C184.877 461.906 184.702 456.23 184.377 450.862C183.65 438.88 183.505 426.935 183.362 415.077C183.226 403.888 182.852 392.478 183.6 381.571C184.321 371.047 186.576 361.564 189.801 352.814C191.499 348.204 193.117 343.486 195.026 339.093C195.941 336.985 197.059 335.123 197.974 333.017C198.71 331.323 199.296 329.585 200.482 328.502Z" fill="#A8BCBC"/>
<path fill-rule="evenodd" clip-rule="evenodd" d="M119.357 388.286C120.313 386.679 122.42 391.978 122.74 392.644C122.605 392.312 122.469 391.981 122.331 391.651C124.231 394.809 125.968 398.097 127.049 401.718C128.118 405.303 129.036 408.961 130.039 412.571C131.921 419.345 134.349 425.927 136.055 432.762C137.716 439.422 138.135 445.97 137.733 452.859C137.315 460.02 137.059 467.29 137.547 474.446C137.78 477.864 138.89 481.048 139.652 484.338C140.414 487.632 141.014 490.97 141.915 494.223C142.122 493.799 142.148 495.216 142.148 495.323C142.142 496.136 142.029 496.818 141.767 497.588C141.095 499.57 139.838 501.253 137.926 501.8C134.469 502.787 131.26 499.643 130.145 496.323C128.546 491.559 127.665 486.295 126.903 481.288C126.204 476.697 126.039 472.078 126.247 467.424C126.656 458.245 128.317 449.186 128.766 440.01C129.255 430.02 127.276 420.633 125.619 410.909C124.82 406.223 124.057 401.582 122.504 397.118C121.875 395.31 121.055 393.715 120.195 392.046C119.706 391.096 118.717 389.402 119.357 388.286Z" fill="#A8BCBC"/>
<path fill-rule="evenodd" clip-rule="evenodd" d="M147.4 372.681C147.003 384.126 146.32 395.484 144.794 406.808C143.237 418.364 141.448 429.881 139.95 441.448C138.491 452.707 136.962 464.153 137.166 475.569C137.316 483.978 135.922 498.203 145.261 502.353C154.72 506.556 156.749 488.608 157.37 482.683C158.56 471.317 158.175 459.831 157.597 448.403C157.004 436.674 156.014 425.004 154.787 413.318C153.425 400.337 152.355 387.298 151.497 374.28C151.073 367.841 150.968 361.413 151.085 354.972C151.196 348.895 150.965 342.754 148.804 336.984C148.691 337.066 148.579 337.148 148.465 337.23" fill="#97A7A7"/>
<path fill-rule="evenodd" clip-rule="evenodd" d="M147.4 372.681C147.003 384.126 146.32 395.484 144.794 406.808C143.237 418.364 141.448 429.881 139.95 441.448C138.491 452.707 136.962 464.153 137.166 475.569C137.316 483.978 135.922 498.203 145.261 502.353C154.72 506.556 156.749 488.608 157.37 482.683C158.56 471.317 158.175 459.831 157.597 448.403C157.004 436.674 156.014 425.004 154.787 413.318C153.425 400.337 152.355 387.298 151.497 374.28C151.073 367.841 150.968 361.413 151.085 354.972C151.196 348.895 150.965 342.754 148.804 336.984C148.691 337.066 148.579 337.148 148.465 337.23" fill="#97A7A7"/>
<path fill-rule="evenodd" clip-rule="evenodd" d="M196.23 408.939C194.529 411.417 192.815 413.871 191.208 416.496C188.334 421.193 185.735 426.416 184.953 433.131C183.316 447.184 184.629 462.363 184.946 476.847C185.011 479.807 184.636 482.677 185.803 485.494C186.861 488.048 188.838 489.995 190.723 489.984C194.759 489.961 194.143 480.079 194.149 475.73C194.162 468.107 193.307 460.406 193.38 452.79C193.454 445.245 193.913 437.678 195.007 430.512C196.114 423.259 197.736 416.294 199.877 409.794C200.174 408.892 202.306 401.922 200.292 403.123" fill="#A8BCBC"/>
<path fill-rule="evenodd" clip-rule="evenodd" d="M196.23 408.939C194.529 411.417 192.815 413.871 191.208 416.496C188.334 421.193 185.735 426.416 184.953 433.131C183.316 447.184 184.629 462.363 184.946 476.847C185.011 479.807 184.636 482.677 185.803 485.494C186.861 488.048 188.838 489.995 190.723 489.984C194.759 489.961 194.143 480.079 194.149 475.73C194.162 468.107 193.307 460.406 193.38 452.79C193.454 445.245 193.913 437.678 195.007 430.512C196.114 423.259 197.736 416.294 199.877 409.794C200.174 408.892 202.306 401.922 200.292 403.123" fill="black" fill-opacity="0.04"/>
<path fill-rule="evenodd" clip-rule="evenodd" d="M178.41 333.984C175.757 333.984 175.773 347.21 175.693 348.909C175.405 355.04 175.473 361.172 175.29 367.304C174.891 380.685 174.401 394.184 172.391 407.41C171.309 414.531 170.054 421.62 168.705 428.686C167.351 435.773 165.535 442.851 164.644 450.028C163.789 456.927 164.272 463.961 164.39 470.894C164.507 477.869 164.718 484.858 165.631 491.772C165.857 493.478 166.121 495.179 166.404 496.875C166.64 498.289 166.503 500.042 166.901 501.385C167.541 503.536 170.281 504.241 172.126 503.904C177.118 502.993 180.307 496.724 182.013 492.144C184.191 486.295 185.346 479.952 186.487 473.788C187.779 466.805 188.536 459.716 188.891 452.607C189.613 438.159 188.687 423.696 187.652 409.294C187.076 401.285 186.411 393.311 185.394 385.351C184.38 377.425 183.08 369.535 182.234 361.585C181.619 355.809 181.013 350.024 180.614 344.225C180.519 342.843 180.439 333.984 178.41 333.984Z" fill="#97A7A7"/>
<path fill-rule="evenodd" clip-rule="evenodd" d="M175.088 430.123C174.656 416.237 169.074 355.243 167.804 338.451C167.487 334.248 164.429 316.749 164.033 311.984C162.957 313.331 163.049 334.294 163.061 339.11C163.073 343.875 162.483 348.561 162.179 353.3C161.869 358.135 154.72 420.585 153.792 425.231C151.947 434.475 150.712 443.961 149.759 453.412C148.831 462.624 147.388 472.342 148.63 481.602C148.915 483.734 149.367 485.832 150.102 487.79C150.897 489.906 151.442 491.863 152.079 494.077C153.106 497.644 154.963 500.774 157.816 502.246C163.665 505.265 166.806 498.431 168.398 492.481C170.941 482.979 172.573 473.322 173.338 463.343C174.185 452.302 175.435 441.239 175.088 430.123Z" fill="#A8BCBC"/>
<path fill-rule="evenodd" clip-rule="evenodd" d="M175.088 430.123C174.656 416.237 169.074 355.243 167.804 338.451C167.487 334.248 164.429 316.749 164.033 311.984C162.957 313.331 163.049 334.294 163.061 339.11C163.073 343.875 162.483 348.561 162.179 353.3C161.869 358.135 154.72 420.585 153.792 425.231C151.947 434.475 150.712 443.961 149.759 453.412C148.831 462.624 147.388 472.342 148.63 481.602C148.915 483.734 149.367 485.832 150.102 487.79C150.897 489.906 151.442 491.863 152.079 494.077C153.106 497.644 154.963 500.774 157.816 502.246C163.665 505.265 166.806 498.431 168.398 492.481C170.941 482.979 172.573 473.322 173.338 463.343C174.185 452.302 175.435 441.239 175.088 430.123Z" fill="black" fill-opacity="0.04"/>
<rect x="113.148" y="470.984" width="91" height="91" rx="2" fill="#30638E"/>
<rect x="113.148" y="470.984" width="91" height="91" rx="2" fill="white" fill-opacity="0.4"/>
<rect x="103.148" y="480.984" width="10" height="113" rx="2" fill="#30638E"/>
<rect x="103.148" y="480.984" width="10" height="113" rx="2" fill="white" fill-opacity="0.59"/>
<rect x="153.148" y="480.984" width="10" height="113" rx="2" fill="#30638E"/>
<rect x="153.148" y="480.984" width="10" height="113" rx="2" fill="white" fill-opacity="0.59"/>
<rect x="204.148" y="480.984" width="10" height="113" rx="2" fill="#30638E"/>
<rect x="204.148" y="480.984" width="10" height="113" rx="2" fill="white" fill-opacity="0.59"/>
<path d="M663.039 656.932C664.001 655.583 665.874 655.27 667.223 656.232L678.457 664.245C679.806 665.207 680.12 667.081 679.157 668.43L671.144 679.664C670.182 681.012 668.309 681.326 666.96 680.364L655.726 672.351C654.377 671.389 654.064 669.515 655.026 668.166L663.039 656.932Z" fill="#30638E"/>
<path d="M954.99 321.326C956.085 320.286 957.893 320.787 958.295 322.242L965.171 347.096C965.586 348.595 964.207 349.972 962.709 349.557L937.139 342.466C935.641 342.05 935.169 340.159 936.296 339.089L954.99 321.326Z" fill="#8E3030"/>
<rect x="3.80627" y="81.2263" width="24" height="12" rx="6" transform="rotate(14 3.80627 81.2263)" fill="#148F47"/>
<defs>
<clipPath id="clip0_353_347">
<rect width="74" height="159" fill="white" transform="translate(111 65.2263)"/>
</clipPath>
<clipPath id="clip1_353_347">
<rect width="52" height="28" fill="white" transform="translate(281.151 383.226)"/>
</clipPath>
</defs>
</svg>
