<svg width="1232" height="820" viewBox="0 0 1232 820" fill="none" xmlns="http://www.w3.org/2000/svg">
<path d="M97.001 130.002C97.001 118.956 105.955 110.002 117.001 110.002H1092C1103.05 110.002 1112 118.956 1112 130.002V648.002C1112 659.048 1103.05 668.002 1092 668.002H117.001C105.955 668.002 97.001 659.048 97.001 648.002V130.002Z" fill="#E5DED3"/>
<path d="M648 690.155C648 726.743 573.57 749 404.863 749C298.456 749 68 743.759 68 690.155C68 636.549 283.018 653.566 371.783 653.566C435.738 653.566 648 653.566 648 690.155Z" fill="#C5C5D0"/>
<path d="M1039 656C1111 676.001 940.5 686.633 911.5 691C882.5 695.368 782 694.641 782 671.141C797 636 830.339 636 890.42 636C890.42 636 967 636 1039 656Z" fill="#C5C5D0"/>
<path fill-rule="evenodd" clip-rule="evenodd" d="M489.781 489.49L521.679 512.569C530.331 514.869 537.559 517.731 543.363 521.154C544.734 522.385 546.392 524.878 540.705 524.447C535.019 524.017 529.018 523.815 528.233 525.726C527.449 527.637 530.89 529.923 529.304 532.501C528.246 534.22 523.251 529.91 514.317 519.57L482.73 506.664L489.781 489.49Z" fill="#B28B67"/>
<path fill-rule="evenodd" clip-rule="evenodd" d="M426.696 403.888L435.343 402.427C467.426 429.734 480.604 482.196 519.93 509.987L510.465 521.547C442.241 513.225 425.331 449.234 426.696 403.888Z" fill="#46001C"/>
<path fill-rule="evenodd" clip-rule="evenodd" d="M426.696 403.888L435.343 402.427C467.426 429.734 480.604 482.196 519.93 509.987L510.465 521.547C442.241 513.225 425.331 449.234 426.696 403.888Z" fill="black" fill-opacity="0.2"/>
<path fill-rule="evenodd" clip-rule="evenodd" d="M868.729 275.798C863.773 281.934 858.208 286.052 855.005 286.364C846.974 287.144 836.526 260.54 838.355 247.887C840.183 235.234 867.711 219.99 876.816 240.427C879.976 247.52 879.283 255.128 876.695 262.073L898.531 296.864L875.001 305.429L868.729 275.798Z" fill="#D4A181"/>
<path fill-rule="evenodd" clip-rule="evenodd" d="M838.025 234.844C833.276 237.251 829.366 239.234 827.163 238.746C828.798 247.211 835.264 252.163 849.291 245.645C853.134 246.268 856.624 248.787 860.956 252.179C861.527 251.675 862.2 251.267 862.96 250.991C866.208 249.809 869.8 251.483 870.982 254.73C871.582 256.379 871.446 258.116 870.741 259.581C872.801 261.006 875.057 262.457 877.558 263.891C882.657 257.605 883.359 244.438 873.125 235.698C863.841 221.757 848.781 229.391 838.025 234.844Z" fill="#020E2C"/>
<path fill-rule="evenodd" clip-rule="evenodd" d="M927.059 387.913L887.336 521.438L862.667 633.542L849.157 634.724L880.626 391.975L927.059 387.913Z" fill="#BA8B72"/>
<path fill-rule="evenodd" clip-rule="evenodd" d="M937.331 387.014C941.842 432.32 955.106 492.687 956.619 495.404C958.133 498.12 1050.3 559.661 1050.3 559.661L1041.86 570.429C1041.86 570.429 935.066 520.096 929.672 512.608C924.279 505.12 902.611 433.772 886.523 391.459L937.331 387.014Z" fill="#D4A181"/>
<path fill-rule="evenodd" clip-rule="evenodd" d="M1048.66 557.837C1048.88 556.689 1050 555.919 1051.13 556.221C1053.29 556.797 1056.51 557.776 1057.99 558.806C1060.3 560.424 1064.19 564.298 1064.19 564.298C1062.31 566.978 1030.44 612.482 1030.44 612.482C1030.44 612.482 1022.91 610.013 1025.25 605.62C1027.59 601.226 1029.07 598.27 1029.07 598.27L1034.78 568.841C1034.88 568.288 1035.43 567.932 1035.98 568.055L1040.52 569.07C1040.52 569.07 1044.89 566.548 1046.53 564.206C1047.55 562.758 1048.26 559.849 1048.66 557.837Z" fill="#F4F4F4"/>
<path fill-rule="evenodd" clip-rule="evenodd" d="M864.859 627.066C865.885 626.501 867.194 626.864 867.689 627.925C868.632 629.944 869.956 633.045 870.112 634.833C870.358 637.643 869.893 643.117 869.893 643.117C866.632 643.402 811.271 648.245 811.271 648.245C811.271 648.245 808.326 640.894 813.196 639.861C818.067 638.828 821.281 638.058 821.281 638.058L847.504 623.511C847.997 623.238 848.618 623.425 848.877 623.925L851.021 628.058C851.021 628.058 855.764 629.785 858.614 629.536C860.375 629.382 863.063 628.056 864.859 627.066Z" fill="#F4F4F4"/>
<path fill-rule="evenodd" clip-rule="evenodd" d="M912.615 617.848L847.768 616.499L876.131 392.368L933.666 387.335L912.615 617.848Z" fill="#3C52AB"/>
<path fill-rule="evenodd" clip-rule="evenodd" d="M912.847 617.513L848 616.164L876.363 392.033L933.898 387L912.847 617.513Z" fill="black" fill-opacity="0.22"/>
<path fill-rule="evenodd" clip-rule="evenodd" d="M1035.61 544.765L997.83 598.304C997.83 598.304 924.902 531.452 911.911 510.252C898.921 489.053 881.536 391.895 881.536 391.895L946.31 386.228C946.31 386.228 958.664 471.96 960.69 475.823C962.72 479.685 1035.61 544.765 1035.61 544.765Z" fill="#3C52AB"/>
<path fill-rule="evenodd" clip-rule="evenodd" d="M1021.08 393.496C1015.69 389.169 976.4 337.636 976.4 337.636L959.52 345.605C959.52 345.605 1006.83 398.615 1009.98 401.549C1014.06 405.359 1014.02 413.68 1014 419.322C1013.99 420.195 1013.99 421.004 1014 421.722C1017.66 421.664 1018.35 419.349 1019.08 416.907C1019.91 414.15 1020.78 411.233 1026.03 411.227C1028.06 411.225 1030.06 411.406 1032.02 411.583C1038.78 412.194 1045 412.756 1049.74 405.55C1050.49 404.408 1050.5 401.42 1046.82 400.808C1037.64 399.283 1023.72 395.612 1021.08 393.496ZM807.737 418.655L833.561 386.443L845.371 402.099L817.074 423.825C810.904 436.809 807.05 442.565 805.514 441.093C804.218 439.852 804.549 438.277 804.853 436.826C805.091 435.695 805.312 434.64 804.737 433.877C803.422 432.135 797.43 433.962 791.817 435.938C786.205 437.914 787.192 434.918 788.237 433.289C793.148 428.221 799.649 423.343 807.737 418.655Z" fill="#D4A181"/>
<path fill-rule="evenodd" clip-rule="evenodd" d="M869.207 287.183L881.169 288.713C881.81 291.558 882.894 295.558 884.135 300.14C888.032 314.523 893.484 334.646 891.679 342.79C885.425 371.004 862.416 390.993 836.79 413.256C833.355 416.24 829.873 419.265 826.378 422.356L814.988 409.303C814.519 409.097 814.075 408.81 813.679 408.442C811.779 406.679 811.67 403.709 813.434 401.809C817.216 397.738 821.186 394.795 825.327 393.049C849.646 358.908 862.365 322.961 869.207 287.183Z" fill="white"/>
<path fill-rule="evenodd" clip-rule="evenodd" d="M869.207 287.183L881.169 288.713C881.81 291.558 882.894 295.558 884.135 300.14C888.032 314.523 893.484 334.646 891.679 342.79C885.425 371.004 862.416 390.993 836.79 413.256C833.355 416.24 829.873 419.265 826.378 422.356L814.988 409.303C814.519 409.097 814.075 408.81 813.679 408.442C811.779 406.679 811.67 403.709 813.434 401.809C817.216 397.738 821.186 394.795 825.327 393.049C849.646 358.908 862.365 322.961 869.207 287.183Z" fill="black" fill-opacity="0.04"/>
<path fill-rule="evenodd" clip-rule="evenodd" d="M948.042 386.841C948.042 386.841 901.916 404.794 873.228 406.887C870.859 407.06 868.355 397.321 868.69 394.389C873.9 348.72 876.505 315.613 868.817 286.922C873.924 288.061 884.686 283.421 884.686 283.421C912.678 307.611 930.993 339.063 948.042 386.841Z" fill="#3C52AB"/>
<path fill-rule="evenodd" clip-rule="evenodd" d="M1012.64 377.53C962.88 299.834 892.126 278.838 892.126 278.838L890.558 279.258L886.682 280.297L880.665 281.909C886.561 298.722 887.153 325.329 887.839 356.195C888.936 405.558 890.276 465.814 913.945 514.319C926.921 513.771 940.808 508.051 955.841 501.858C977.54 492.919 1001.62 482.997 1028.8 486.222C1022.37 465.976 1004.31 446.493 986.34 427.097C974.97 414.824 963.63 402.587 955.283 390.215C956.096 388.957 956.264 387.323 955.584 385.866L954.099 382.68C953.218 380.791 951.192 379.801 949.233 380.15C948.498 378.744 947.812 377.335 947.178 375.924C943.907 368.639 942.677 360.904 941.46 353.255C940.792 349.056 940.128 344.883 939.133 340.825C955.851 349.228 977.8 365.806 1001.32 398.435L1018.86 387.736C1018.72 387.504 1018.59 387.272 1018.45 387.04C1020.63 386.038 1022.07 378.461 1019.77 377.957C1017.43 377.444 1015.05 377.305 1012.64 377.53Z" fill="white"/>
<path fill-rule="evenodd" clip-rule="evenodd" d="M1012.64 377.53C962.88 299.834 892.126 278.838 892.126 278.838L890.558 279.258L886.682 280.297L880.665 281.909C886.561 298.722 887.153 325.329 887.839 356.195C888.936 405.558 890.276 465.814 913.945 514.319C926.921 513.771 940.808 508.051 955.841 501.858C977.54 492.919 1001.62 482.997 1028.8 486.222C1022.37 465.976 1004.31 446.493 986.34 427.097C974.97 414.824 963.63 402.587 955.283 390.215C956.096 388.957 956.264 387.323 955.584 385.866L954.099 382.68C953.218 380.791 951.192 379.801 949.233 380.15C948.498 378.744 947.812 377.335 947.178 375.924C943.907 368.639 942.677 360.904 941.46 353.255C940.792 349.056 940.128 344.883 939.133 340.825C955.851 349.228 977.8 365.806 1001.32 398.435L1018.86 387.736C1018.72 387.504 1018.59 387.272 1018.45 387.04C1020.63 386.038 1022.07 378.461 1019.77 377.957C1017.43 377.444 1015.05 377.305 1012.64 377.53Z" fill="white" fill-opacity="0.38"/>
<path fill-rule="evenodd" clip-rule="evenodd" d="M888.234 280.961L897.715 295.549L890.455 310.336L902.441 317.216L890.047 362.53L907.564 315.927L895.726 308.924L902.183 295.846L888.234 280.961Z" fill="black" fill-opacity="0.1"/>
<path fill-rule="evenodd" clip-rule="evenodd" d="M900.809 375.842C898.583 376.438 896.295 375.118 895.699 372.892C895.102 370.667 896.424 368.379 898.65 367.783C900.876 367.186 903.165 368.507 903.761 370.732C904.357 372.957 903.036 375.245 900.809 375.842ZM901.979 400.361C899.752 400.957 897.464 399.637 896.868 397.412C896.272 395.186 897.593 392.899 899.819 392.302C902.046 391.706 904.334 393.026 904.93 395.251C905.526 397.477 904.205 399.764 901.979 400.361ZM902.068 420.851C902.664 423.076 904.953 424.397 907.179 423.8C909.405 423.204 910.727 420.916 910.13 418.691C909.534 416.465 907.246 415.145 905.02 415.741C902.793 416.338 901.472 418.625 902.068 420.851Z" fill="black" fill-opacity="0.4"/>
<path d="M608 35H451C446.582 35 443 38.5817 443 43V355.591C443 360.009 446.582 363.591 451 363.591H608C612.418 363.591 616 360.009 616 355.591V43C616 38.5817 612.418 35 608 35Z" fill="#757680"/>
<path d="M608 35H451C446.582 35 443 38.5817 443 43V355.591C443 360.009 446.582 363.591 451 363.591H608C612.418 363.591 616 360.009 616 355.591V43C616 38.5817 612.418 35 608 35Z" fill="white" fill-opacity="0.22"/>
<path d="M598 81H461V218H598V81Z" fill="#DAE0FF"/>
<path d="M510 113.5C510 104.7 512.667 96.167 514 93C526.833 93 552.9 94.4 554.5 100C556.5 107 556.5 113.5 552.5 123C548.5 132.5 545.5 136 541.5 149.5C537.5 163 538.5 162.5 537.5 171C536.5 179.5 539 179 541.5 186C543.5 191.6 542.333 197.333 541.5 199.5H519.5V181.5C517.667 171.833 514 151.9 514 149.5C514 146.5 510 124.5 510 113.5Z" fill="#261A00"/>
<mask id="mask0_37_80" style="mask-type:luminance" maskUnits="userSpaceOnUse" x="451" y="244" width="158" height="42">
<path d="M609 244H451V286H609V244Z" fill="white"/>
</mask>
<g mask="url(#mask0_37_80)">
<path d="M605 244H455C452.791 244 451 245.791 451 248V282C451 284.209 452.791 286 455 286H605C607.209 286 609 284.209 609 282V248C609 245.791 607.209 244 605 244Z" fill="#DAE0FF"/>
<mask id="mask1_37_80" style="mask-type:luminance" maskUnits="userSpaceOnUse" x="460" y="256" width="100" height="18">
<path d="M560 256.6H460V273.4H560V256.6Z" fill="white"/>
</mask>
<g mask="url(#mask1_37_80)">
<path d="M557 256.6H463C461.343 256.6 460 257.943 460 259.6V259.9C460 261.557 461.343 262.9 463 262.9H557C558.657 262.9 560 261.557 560 259.9V259.6C560 257.943 558.657 256.6 557 256.6Z" fill="#A8A9AA"/>
<path d="M524.123 267.1H463C461.343 267.1 460 268.443 460 270.1V270.4C460 272.057 461.343 273.4 463 273.4H524.123C525.78 273.4 527.123 272.057 527.123 270.4V270.1C527.123 268.443 525.78 267.1 524.123 267.1Z" fill="#A8A9AA"/>
</g>
</g>
<path d="M560 154C560 149.582 563.582 146 568 146H747C751.418 146 755 149.582 755 154V462C755 466.418 751.418 470 747 470H568C563.582 470 560 466.418 560 462V154Z" fill="#FFFAFF"/>
<mask id="mask2_37_80" style="mask-type:luminance" maskUnits="userSpaceOnUse" x="574" y="236" width="167" height="204">
<path d="M741 236H574V440H741V236Z" fill="white"/>
</mask>
<g mask="url(#mask2_37_80)">
<mask id="mask3_37_80" style="mask-type:luminance" maskUnits="userSpaceOnUse" x="574" y="236" width="167" height="54">
<path d="M741 236H574V290H741V236Z" fill="white"/>
</mask>
<g mask="url(#mask3_37_80)">
<path d="M737 236H578C575.791 236 574 237.791 574 240V286C574 288.209 575.791 290 578 290H737C739.209 290 741 288.209 741 286V240C741 237.791 739.209 236 737 236Z" fill="#DAE0FF"/>
<mask id="mask4_37_80" style="mask-type:luminance" maskUnits="userSpaceOnUse" x="613" y="252" width="109" height="22">
<path d="M722 252.2H613V273.8H722V252.2Z" fill="white"/>
</mask>
<g mask="url(#mask4_37_80)">
<path d="M719 252.2H616C614.343 252.2 613 253.543 613 255.2V257.3C613 258.957 614.343 260.3 616 260.3H719C720.657 260.3 722 258.957 722 257.3V255.2C722 253.543 720.657 252.2 719 252.2Z" fill="#A8A9AA"/>
<path d="M683.164 265.7H616C614.343 265.7 613 267.043 613 268.7V270.8C613 272.457 614.343 273.8 616 273.8H683.164C684.821 273.8 686.164 272.457 686.164 270.8V268.7C686.164 267.043 684.821 265.7 683.164 265.7Z" fill="#A8A9AA"/>
</g>
<path fill-rule="evenodd" clip-rule="evenodd" d="M595 275C601.627 275 607 269.627 607 263C607 256.373 601.627 251 595 251C588.373 251 583 256.373 583 263C583 269.627 588.373 275 595 275Z" fill="#3C52AB"/>
</g>
<mask id="mask5_37_80" style="mask-type:luminance" maskUnits="userSpaceOnUse" x="574" y="298" width="167" height="42">
<path d="M741 298H574V340H741V298Z" fill="white"/>
</mask>
<g mask="url(#mask5_37_80)">
<path d="M737 298H578C575.791 298 574 299.791 574 302V336C574 338.209 575.791 340 578 340H737C739.209 340 741 338.209 741 336V302C741 299.791 739.209 298 737 298Z" fill="#DAE0FF"/>
<mask id="mask6_37_80" style="mask-type:luminance" maskUnits="userSpaceOnUse" x="613" y="310" width="109" height="18">
<path d="M722 310.6H613V327.4H722V310.6Z" fill="white"/>
</mask>
<g mask="url(#mask6_37_80)">
<path d="M719 310.6H616C614.343 310.6 613 311.943 613 313.6V313.9C613 315.557 614.343 316.9 616 316.9H719C720.657 316.9 722 315.557 722 313.9V313.6C722 311.943 720.657 310.6 719 310.6Z" fill="#A8A9AA"/>
<path d="M683.164 321.1H616C614.343 321.1 613 322.443 613 324.1V324.4C613 326.057 614.343 327.4 616 327.4H683.164C684.821 327.4 686.164 326.057 686.164 324.4V324.1C686.164 322.443 684.821 321.1 683.164 321.1Z" fill="#A8A9AA"/>
</g>
<path fill-rule="evenodd" clip-rule="evenodd" d="M595 331C601.627 331 607 325.627 607 319C607 312.373 601.627 307 595 307C588.373 307 583 312.373 583 319C583 325.627 588.373 331 595 331Z" fill="#3C52AB"/>
</g>
<mask id="mask7_37_80" style="mask-type:luminance" maskUnits="userSpaceOnUse" x="574" y="348" width="167" height="42">
<path d="M741 348H574V390H741V348Z" fill="white"/>
</mask>
<g mask="url(#mask7_37_80)">
<path d="M737 348H578C575.791 348 574 349.791 574 352V386C574 388.209 575.791 390 578 390H737C739.209 390 741 388.209 741 386V352C741 349.791 739.209 348 737 348Z" fill="#DAE0FF"/>
<mask id="mask8_37_80" style="mask-type:luminance" maskUnits="userSpaceOnUse" x="613" y="360" width="109" height="18">
<path d="M722 360.6H613V377.4H722V360.6Z" fill="white"/>
</mask>
<g mask="url(#mask8_37_80)">
<path d="M719 360.6H616C614.343 360.6 613 361.943 613 363.6V363.9C613 365.557 614.343 366.9 616 366.9H719C720.657 366.9 722 365.557 722 363.9V363.6C722 361.943 720.657 360.6 719 360.6Z" fill="#A8A9AA"/>
<path d="M683.164 371.1H616C614.343 371.1 613 372.443 613 374.1V374.4C613 376.057 614.343 377.4 616 377.4H683.164C684.821 377.4 686.164 376.057 686.164 374.4V374.1C686.164 372.443 684.821 371.1 683.164 371.1Z" fill="#A8A9AA"/>
</g>
<path fill-rule="evenodd" clip-rule="evenodd" d="M595 381C601.627 381 607 375.627 607 369C607 362.373 601.627 357 595 357C588.373 357 583 362.373 583 369C583 375.627 588.373 381 595 381Z" fill="#3C52AB"/>
</g>
<mask id="mask9_37_80" style="mask-type:luminance" maskUnits="userSpaceOnUse" x="574" y="398" width="167" height="42">
<path d="M741 398H574V440H741V398Z" fill="white"/>
</mask>
<g mask="url(#mask9_37_80)">
<path d="M737 398H578C575.791 398 574 399.791 574 402V436C574 438.209 575.791 440 578 440H737C739.209 440 741 438.209 741 436V402C741 399.791 739.209 398 737 398Z" fill="#DAE0FF"/>
<mask id="mask10_37_80" style="mask-type:luminance" maskUnits="userSpaceOnUse" x="613" y="410" width="109" height="18">
<path d="M722 410.6H613V427.4H722V410.6Z" fill="white"/>
</mask>
<g mask="url(#mask10_37_80)">
<path d="M719 410.6H616C614.343 410.6 613 411.943 613 413.6V413.9C613 415.557 614.343 416.9 616 416.9H719C720.657 416.9 722 415.557 722 413.9V413.6C722 411.943 720.657 410.6 719 410.6Z" fill="#A8A9AA"/>
<path d="M683.164 421.1H616C614.343 421.1 613 422.443 613 424.1V424.4C613 426.057 614.343 427.4 616 427.4H683.164C684.821 427.4 686.164 426.057 686.164 424.4V424.1C686.164 422.443 684.821 421.1 683.164 421.1Z" fill="#A8A9AA"/>
</g>
<path fill-rule="evenodd" clip-rule="evenodd" d="M595 431C601.627 431 607 425.627 607 419C607 412.373 601.627 407 595 407C588.373 407 583 412.373 583 419C583 425.627 588.373 431 595 431Z" fill="#3C52AB"/>
</g>
</g>
<path d="M527.502 93.4922L532.963 93.8162L538.423 94.3872L532.612 149.597L520.311 163.876L527.502 93.4922Z" fill="#D9D9D9"/>
<path d="M523.837 160.36L534.337 153.36V173.764C534.337 174.369 534.448 174.97 534.663 175.537L536.768 181.087C538.009 184.358 535.592 187.86 532.093 187.86H527.309C524.196 187.86 521.84 185.046 522.387 181.981L523.76 174.296C523.811 174.006 523.837 173.712 523.837 173.417V160.36Z" fill="#D9D9D9"/>
<path d="M539.835 199.5H521.335V194.025C521.335 193.35 521.479 192.682 521.758 192.066C522.739 189.901 525.171 188.796 527.447 189.481L529.439 190.08C530.35 190.354 531.322 190.362 532.238 190.104L534.121 189.572C537.585 188.593 540.917 191.485 540.435 195.052L539.835 199.5Z" fill="#D9D9D9"/>
<g opacity="0.5">
<path fill-rule="evenodd" clip-rule="evenodd" d="M660.58 203.581C664.484 205.945 668.32 207.087 670.121 206.621C674.637 205.452 675.052 188.855 671.558 182.312C668.064 175.769 650.102 172.917 649.197 185.881C648.883 190.38 650.763 194.395 653.542 197.672L648.56 221H663.03L660.58 203.581Z" fill="#B28B67"/>
<path fill-rule="evenodd" clip-rule="evenodd" d="M661.302 187.313C662.554 185.44 663.755 184.012 665.319 183.182C671.68 183.283 672.425 182.138 672.425 178.276C671.398 177.537 667.772 176.293 663.712 175.943C661.641 175.348 659.187 175.46 656.824 176.453C653.906 177.285 651.435 179.076 650.344 182.43C646.396 189.275 649.392 196.401 653.431 198.836C654.506 197.556 655.444 196.316 656.281 195.129C655.609 194.469 655.191 193.548 655.191 192.529C655.191 190.521 656.811 188.894 658.809 188.894C658.956 188.894 659.101 188.903 659.243 188.92C659.333 191.43 659.703 199.921 660.675 202.87C661.82 206.347 668.506 207.201 670.838 207.201C672.852 207.201 672.784 205.285 672.734 203.912C672.727 203.714 672.721 203.527 672.721 203.36C672.721 203.009 672.267 203.01 671.753 203.011C671.087 203.012 670.321 203.014 670.321 202.245C670.321 201.408 671.473 200.766 672.503 200.191C673.146 199.833 673.742 199.5 673.982 199.164C674.738 198.101 674.992 196.667 673.852 196.667C673.229 196.667 672.373 197.028 671.345 197.462C669.791 198.118 667.842 198.941 665.698 198.941C662.155 198.941 661.313 187.456 661.302 187.313Z" fill="#020E2C"/>
</g>
<path fill-rule="evenodd" clip-rule="evenodd" d="M443.566 391.652C450.851 396.043 458.009 398.164 461.369 397.298C469.795 395.127 470.569 364.304 464.05 352.153C457.531 340.001 424.017 334.705 422.328 358.781C421.742 367.136 425.25 374.593 430.434 380.678L421.139 424.002H448.139L443.566 391.652Z" fill="#CFA294"/>
<path fill-rule="evenodd" clip-rule="evenodd" d="M444.916 361.439C447.252 357.962 449.494 355.31 452.41 353.769C464.28 353.957 465.67 351.829 465.67 344.657C463.753 343.285 456.988 340.975 449.412 340.325C445.548 339.219 440.97 339.427 436.56 341.272C431.115 342.817 426.506 346.143 424.469 352.371C417.103 365.085 422.694 378.319 430.229 382.84C432.235 380.463 433.986 378.16 435.547 375.956C434.293 374.73 433.514 373.019 433.514 371.127C433.514 367.399 436.536 364.377 440.264 364.377C440.538 364.377 440.808 364.393 441.074 364.425C441.242 369.086 441.932 384.855 443.745 390.332C445.883 396.79 458.358 398.376 462.709 398.376C466.467 398.376 466.339 394.817 466.247 392.267C466.234 391.899 466.221 391.553 466.221 391.241C466.221 390.59 465.374 390.591 464.417 390.593C463.173 390.596 461.745 390.598 461.745 389.172C461.745 387.617 463.893 386.424 465.816 385.357C467.016 384.691 468.127 384.074 468.575 383.448C469.985 381.474 470.46 378.812 468.332 378.812C467.169 378.812 465.574 379.482 463.654 380.289C460.756 381.507 457.119 383.035 453.118 383.035C446.508 383.035 444.936 361.706 444.916 361.439Z" fill="#020E2C"/>
<path fill-rule="evenodd" clip-rule="evenodd" d="M555.962 597.277C553.872 620.143 555.961 669.293 557.085 683.471C557.792 692.382 569.928 690.049 571.06 682.917C571.252 681.709 572.034 677.465 573.201 671.132C578.922 640.078 593.896 558.803 593.922 539.041C593.934 529.979 573.774 522.732 565.708 533.679C559.077 529.018 549.665 527.768 543.862 537.182C539.469 544.308 529.031 564.54 517.899 588.166C508.147 608.863 492.908 659.104 492.908 659.104L505.845 665.019C505.845 665.019 537.802 613.604 557.923 577.555C557.255 583.758 556.591 590.399 555.962 597.277Z" fill="#CFA294"/>
<path fill-rule="evenodd" clip-rule="evenodd" d="M493.833 640.504L538.236 535.243C548.873 518.12 578.697 538.727 575.069 548.659C566.834 571.206 524.949 644.201 522.496 650.918L493.833 640.504Z" fill="#A62F5D"/>
<path fill-rule="evenodd" clip-rule="evenodd" d="M493.833 640.504L538.236 535.243C548.873 518.12 578.697 538.727 575.069 548.659C566.834 571.206 524.949 644.201 522.496 650.918L493.833 640.504Z" fill="black" fill-opacity="0.2"/>
<path fill-rule="evenodd" clip-rule="evenodd" d="M595.046 547.259C595.046 577.095 581.977 647.227 581.968 653.796L550.31 652.728C550.31 652.728 558.611 561.265 557.311 560.645C555.362 559.715 477.39 571.444 454.005 572.33C420.284 573.607 406.334 552.905 405.202 513.619H470.521C470.521 513.619 554.302 523.626 580.65 527.54C591.929 529.215 595.046 539.04 595.046 547.259Z" fill="#A62F5D"/>
<path fill-rule="evenodd" clip-rule="evenodd" d="M494.271 655.174C493.349 654.451 491.998 654.606 491.341 655.576C489.996 657.559 487.985 660.738 487.507 662.66C486.771 665.61 486.344 671.515 486.344 671.515C489.764 672.369 547.82 686.854 547.82 686.854C547.82 686.854 552.191 679.524 547.186 677.604C542.18 675.683 538.892 674.322 538.892 674.322L513.395 654.368C512.951 654.02 512.308 654.108 511.974 654.562L508.951 658.664C508.951 658.664 503.616 659.703 500.627 658.958C498.733 658.485 496.011 656.537 494.271 655.174Z" fill="#F4F4F4"/>
<path fill-rule="evenodd" clip-rule="evenodd" d="M558.236 665.305C557.167 664.827 555.893 665.304 555.49 666.404C554.665 668.654 553.482 672.225 553.482 674.205C553.482 677.246 554.495 683.079 554.495 683.079C558.02 683.079 617.853 683.079 617.853 683.079C617.853 683.079 620.322 674.909 615.001 674.258C609.68 673.606 606.161 673.081 606.161 673.081L576.597 659.892C576.083 659.663 575.48 659.903 575.265 660.425L573.324 665.137C573.324 665.137 568.398 667.437 565.318 667.437C563.366 667.437 560.254 666.206 558.236 665.305Z" fill="#F4F4F4"/>
<path d="M610.208 683.079H558.54C556.367 683.079 554.605 684.841 554.605 687.014C554.605 689.186 556.367 690.948 558.54 690.948H610.208C612.381 690.948 614.142 689.186 614.142 687.014C614.142 684.841 612.381 683.079 610.208 683.079Z" fill="#50595F"/>
<path d="M390.6 530.082C390.6 524.559 395.077 520.082 400.6 520.082H523.263C528.786 520.082 533.263 524.559 533.263 530.082V586.405H394.6C392.391 586.405 390.6 584.614 390.6 582.405V530.082Z" fill="#50595F"/>
<path fill-rule="evenodd" clip-rule="evenodd" d="M522.029 520.082H525.54C530.438 520.082 534.615 523.629 535.408 528.463L560.222 679.707H548.219" fill="#50595F"/>
<path fill-rule="evenodd" clip-rule="evenodd" d="M554.606 702.189C565.773 702.189 574.826 693.13 574.826 681.955C574.826 670.78 565.773 661.721 554.606 661.721C543.438 661.721 534.386 670.78 534.386 681.955C534.386 693.13 543.438 702.189 554.606 702.189Z" fill="#020E2C"/>
<path fill-rule="evenodd" clip-rule="evenodd" d="M490.576 614.508C490.576 661.691 452.353 699.941 405.202 699.941C358.052 699.941 319.829 661.691 319.829 614.508C319.829 567.324 358.052 529.075 405.202 529.075C452.353 529.075 490.576 567.324 490.576 614.508ZM474.849 614.508C474.849 653 443.667 684.203 405.202 684.203C366.737 684.203 335.556 653 335.556 614.508C335.556 576.016 366.737 544.812 405.202 544.812C443.667 544.812 474.849 576.016 474.849 614.508Z" fill="#020E2C"/>
<path d="M409.696 540.316H400.709V688.7H409.696V540.316Z" fill="#020E2C"/>
<path d="M459.391 563.811L455.864 560.282C455.083 559.501 453.817 559.501 453.036 560.282L351.014 662.376C350.233 663.157 350.233 664.424 351.014 665.205L354.541 668.735C355.322 669.516 356.588 669.516 357.369 668.735L459.391 566.641C460.172 565.86 460.172 564.593 459.391 563.811Z" fill="#020E2C"/>
<path d="M479.342 617.004V612.011C479.342 610.906 478.446 610.011 477.342 610.011H333.062C331.957 610.011 331.062 610.906 331.062 612.011V617.004C331.062 618.108 331.957 619.004 333.062 619.004H477.342C478.446 619.004 479.342 618.108 479.342 617.004Z" fill="#020E2C"/>
<path d="M455.863 668.734L459.39 665.205C460.171 664.423 460.171 663.157 459.39 662.375L357.368 560.281C356.587 559.5 355.321 559.5 354.54 560.281L351.013 563.811C350.232 564.592 350.232 565.859 351.013 566.64L453.035 668.734C453.816 669.516 455.082 669.516 455.863 668.734Z" fill="#020E2C"/>
<path fill-rule="evenodd" clip-rule="evenodd" d="M376.697 493.022C376.697 493.022 366.717 550.965 363.787 556.91C362.354 559.817 351.751 568.647 344.394 573.692C341.44 575.717 342.663 578.308 343.778 578.996C352.851 584.594 358.824 577.975 366.677 574.321C375.28 570.319 374.553 581.621 381.374 578.569C379.28 573.876 374.383 565.142 376.697 559.408C378.239 555.585 397.594 493.104 397.594 493.104L376.697 493.022Z" fill="#CFA294"/>
<path fill-rule="evenodd" clip-rule="evenodd" d="M398.389 514.002C398.389 514.002 450.397 514.002 474.9 514.002C478.397 514.002 477.738 508.954 477.232 506.406C471.4 477.006 448.63 445.313 448.63 403.463L426.561 400.002C408.306 429.36 401.994 465.507 398.389 514.002Z" fill="#F4F4F4"/>
<path fill-rule="evenodd" clip-rule="evenodd" d="M389.786 535.002C386.347 543.261 382.975 550.467 379.798 556.002H363.389C361.624 498.921 383.234 454.998 401.32 428.515C397.305 428.228 393.68 426.547 391.389 422.413C383.322 407.858 386.236 399.844 394.856 397.21C399.596 395.762 404.055 396.75 409.391 397.934C413.758 398.902 418.714 400.001 424.893 400.002C424.895 400.002 424.897 400.002 424.899 400.002C425.498 400.002 426.043 400.042 426.537 400.119L433.86 400.537C433.86 400.537 463.594 501.307 450.261 535.002H389.786Z" fill="#46001C"/>
<path fill-rule="evenodd" clip-rule="evenodd" d="M389.786 535.002C394.297 524.166 398.924 511.518 403.376 498.456C405.034 512.841 407.794 527.288 412.389 535.002H389.786Z" fill="black" fill-opacity="0.1"/>
<path fill-rule="evenodd" clip-rule="evenodd" d="M240.22 324.994C248.281 327.256 255.642 327.442 258.622 325.801C266.097 321.685 258.978 292.874 249.669 283.217C240.36 273.559 207.077 276.993 211.604 299.767C213.175 307.671 218.419 313.72 224.91 318.078L227.097 360.618L252.823 353.891L240.22 324.994Z" fill="#94776A"/>
<path fill-rule="evenodd" clip-rule="evenodd" d="M236.135 273.586C232.333 273.461 227.132 274.441 225.051 275.242C225.49 272.072 225.102 268.769 223.858 265.78C222.649 262.875 220.569 260.677 218.558 258.329C217.631 257.247 216.628 256.191 215.376 255.506C214.1 254.807 212.646 254.506 211.22 254.554C209.762 254.603 208.332 255.004 207.034 255.645C206.46 255.929 205.988 256.343 205.433 256.65C204.864 256.964 204.465 256.669 203.919 256.41C202.602 255.787 200.912 255.752 199.516 255.946C197.949 256.164 196.436 256.799 195.122 257.663C193.843 258.505 192.701 259.627 191.99 261.013C191.673 261.63 191.417 262.305 191.322 263.001C191.283 263.286 191.306 263.443 191.069 263.606C190.85 263.757 190.566 263.834 190.337 263.983C188.128 265.419 186.554 267.791 186.068 270.435C185.784 271.977 186.134 274.47 186.961 277.151C187.789 279.832 192.23 286.23 195.279 288.19C198.001 289.939 201.491 290.651 204.639 290.539C203.272 293.246 202.714 296.33 202.51 299.37C202.288 302.673 202.501 305.989 203.14 309.257C203.747 312.362 204.61 315.588 206.161 318.376C207.612 320.984 209.705 322.887 212.55 323.697C213.853 324.069 215.196 324.253 216.534 324.392C217.853 324.529 219.172 324.652 220.493 324.577C222.994 324.434 225.702 323.639 227.023 321.323C227.499 320.489 227.994 319.467 228.251 318.532C228.344 318.196 228.396 317.978 228.108 317.748C227.763 317.473 227.285 317.319 226.889 317.136C224.632 316.098 222.936 314.366 221.987 312.03C221.024 309.66 220.831 306.325 222.979 304.619C225.631 302.513 229.365 303.158 232.43 303.868C232.494 299.656 233.863 295.52 237.034 292.766C240.543 289.719 245.131 288.27 248.829 285.477C249.793 284.749 250.76 283.955 251.311 282.841C251.541 282.376 251.798 281.783 251.794 281.247C251.789 280.544 251.203 280.107 250.726 279.683C248.199 277.433 239.937 273.712 236.135 273.586Z" fill="#020E2C"/>
<path fill-rule="evenodd" clip-rule="evenodd" d="M227.456 451.002L268.545 588.875L298.523 690.496H320.389L288.532 451.002H227.456Z" fill="#02724F"/>
<path fill-rule="evenodd" clip-rule="evenodd" d="M227.456 451.002L268.545 588.875L298.523 690.496H320.389L288.532 451.002H227.456Z" fill="black" fill-opacity="0.2"/>
<path fill-rule="evenodd" clip-rule="evenodd" d="M216.467 451.002C215.517 522.064 212.276 560.822 211.278 567.279C210.28 573.735 195.192 614.807 166.013 690.496H188.665C225.811 617.886 246.547 576.813 250.873 567.279C255.199 557.744 268.549 518.985 288.656 451.002H216.467Z" fill="#02724F"/>
<path fill-rule="evenodd" clip-rule="evenodd" d="M163.989 710.002L165.122 687.245H188.922C205.85 698.623 233.122 705.667 233.122 705.667V710.002H190.056L175.322 707.835V710.002H163.989Z" fill="#50595F"/>
<path fill-rule="evenodd" clip-rule="evenodd" d="M295.456 710.002L296.589 687.245H320.389C337.317 698.623 364.589 705.667 364.589 705.667V710.002H321.522L306.789 707.835V710.002H295.456Z" fill="#ECF9FF"/>
<path fill-rule="evenodd" clip-rule="evenodd" d="M295.456 710.002L296.589 687.245H320.389C337.317 698.623 364.589 705.667 364.589 705.667V710.002H321.522L306.789 707.835V710.002H295.456Z" fill="#50595F"/>
<path fill-rule="evenodd" clip-rule="evenodd" d="M155.045 509.553C158.066 503.017 170.433 436.907 170.433 436.907L190.285 436.315C190.285 436.315 171.022 507.571 169.458 511.761C167.427 517.205 171.479 524.874 174.227 530.074C174.652 530.878 175.046 531.623 175.381 532.292C171.884 533.963 170.112 532.149 168.243 530.237C166.132 528.078 163.898 525.793 158.919 528.261C156.995 529.214 155.182 530.326 153.411 531.412C147.293 535.162 141.673 538.608 133.703 534.184C132.439 533.483 130.984 530.728 134.182 528.428C142.148 522.695 153.568 512.749 155.045 509.553ZM359.867 444.568L321.953 422.992L316.187 442.537L352.564 453.045C363.638 463.318 369.657 467.457 370.623 465.461C371.436 463.777 370.508 462.375 369.653 461.084C368.986 460.078 368.365 459.139 368.646 458.187C369.287 456.012 375.934 455.552 382.26 455.377C388.587 455.203 386.465 452.67 384.807 451.482C377.999 448.403 369.686 446.098 359.867 444.568Z" fill="#94776A"/>
<path fill-rule="evenodd" clip-rule="evenodd" d="M237.445 346.092L248.741 340.162C272.167 376.968 303.356 411.112 349.746 436.503L342.766 455.082C303.439 440.762 266.84 430.679 247.608 402.345C241.154 392.835 239.295 358.472 237.445 346.092Z" fill="white"/>
<path fill-rule="evenodd" clip-rule="evenodd" d="M237.445 346.092L248.741 340.162C272.167 376.968 303.356 411.112 349.746 436.503L342.766 455.082C303.439 440.762 266.84 430.679 247.608 402.345C241.154 392.835 239.295 358.472 237.445 346.092Z" fill="black" fill-opacity="0.04"/>
<path fill-rule="evenodd" clip-rule="evenodd" d="M216.387 464.646C216.387 464.646 268.887 461.101 297.519 450.684C299.884 449.823 299.549 445.769 297.926 443.258C272.659 404.149 253.91 369.457 248.621 340.183C244.194 343.406 231.745 343.825 231.745 343.825C215.432 377.738 211.681 414.074 216.387 464.646Z" fill="#02724F"/>
<path fill-rule="evenodd" clip-rule="evenodd" d="M216.387 464.646C216.387 464.646 268.887 461.101 297.519 450.684C299.884 449.823 299.549 445.769 297.926 443.258C272.659 404.149 253.91 369.457 248.621 340.183C244.194 343.406 231.745 343.825 231.745 343.825C215.432 377.738 211.681 414.074 216.387 464.646Z" fill="black" fill-opacity="0.2"/>
<path fill-rule="evenodd" clip-rule="evenodd" d="M225.051 342.37C225.546 341.904 225.81 341.67 225.81 341.67L225.878 342.227L234.948 340.667C235.875 343.2 238.292 352.766 241.816 366.714C254.62 417.4 265.5 503.183 282.5 570L194.504 584.372C188.216 536.169 195.974 475.896 205.94 424.136C194.537 439.918 182.45 465.164 176.159 504.81L154.376 503.183C159.503 410.351 213.419 353.652 224.01 343.366C224.08 343.08 224.15 342.796 224.219 342.513L225.051 342.37Z" fill="white"/>
<path fill-rule="evenodd" clip-rule="evenodd" d="M225.051 342.37C225.546 341.904 225.81 341.67 225.81 341.67L225.878 342.227L234.948 340.667C235.875 343.2 238.292 352.766 241.816 366.714C254.62 417.4 261.5 523.5 276 570L194.504 584.372C188.216 536.169 195.974 475.896 205.94 424.136C194.537 439.918 182.45 465.164 176.159 504.81L154.376 503.183C159.503 410.351 213.419 353.652 224.01 343.366C224.08 343.08 224.15 342.796 224.219 342.513L225.051 342.37Z" fill="white" fill-opacity="0.5"/>
<path d="M1217.71 700.548C1218.15 699.817 1219.21 699.817 1219.65 700.548L1231.2 719.796C1231.65 720.549 1231.11 721.506 1230.23 721.506H1207.13C1206.25 721.506 1205.71 720.549 1206.16 719.796L1217.71 700.548Z" fill="#02724F"/>
<path d="M10.721 21.442C16.642 21.442 21.442 16.642 21.442 10.721C21.442 4.79996 16.642 0 10.721 0C4.79996 0 0 4.79996 0 10.721C0 16.642 4.79996 21.442 10.721 21.442Z" fill="#F39B10"/>
<path d="M122.387 798.496C123.048 797.835 124.12 797.835 124.781 798.496L133.672 807.387C134.333 808.048 134.333 809.12 133.672 809.781L124.781 818.672C124.12 819.333 123.048 819.333 122.387 818.672L113.496 809.781C112.835 809.12 112.835 808.048 113.496 807.387L122.387 798.496Z" fill="#89B1F2"/>
</svg>
