<svg width="1117" height="802" viewBox="0 0 1117 802" fill="none" xmlns="http://www.w3.org/2000/svg">
<path fill-rule="evenodd" clip-rule="evenodd" d="M32.341 539.294C46.9273 394.338 829.545 114.555 974.835 251.856C1120.12 389.156 1083.34 677.952 778.875 743.936C474.4 809.92 17.7547 684.251 32.341 539.294Z" fill="#E5DED3"/>
<path d="M980.5 761.58C997.826 804.192 677.501 780.474 490.5 780.474C226.501 780.474 57.9993 820.934 208.999 733.08C263.999 701.08 430.999 677.08 549.999 677.08C717 677.08 962 716.08 980.5 761.58Z" fill="#C5C5D0"/>
<mask id="mask0_37_84" style="mask-type:luminance" maskUnits="userSpaceOnUse" x="252" y="12" width="336" height="347">
<path d="M587.003 12.9756H252.003V358.976H587.003V12.9756Z" fill="white"/>
</mask>
<g mask="url(#mask0_37_84)">
<path d="M579.003 12.9756H260.003C255.585 12.9756 252.003 16.5573 252.003 20.9756V350.976C252.003 355.394 255.585 358.976 260.003 358.976H579.003C583.421 358.976 587.003 355.394 587.003 350.976V20.9756C587.003 16.5573 583.421 12.9756 579.003 12.9756Z" fill="#E1E1EC"/>
<path d="M563.003 55.9756H509.003C504.585 55.9756 501.003 59.5573 501.003 63.9756V128.976C501.003 133.394 504.585 136.976 509.003 136.976H563.003C567.421 136.976 571.003 133.394 571.003 128.976V63.9756C571.003 59.5573 567.421 55.9756 563.003 55.9756Z" fill="white"/>
<path fill-rule="evenodd" clip-rule="evenodd" d="M536.003 102.976C544.839 102.976 552.003 95.8126 552.003 86.9756C552.003 78.1386 544.839 70.9756 536.003 70.9756C527.166 70.9756 520.003 78.1386 520.003 86.9756C520.003 95.8126 527.166 102.976 536.003 102.976Z" fill="#DAE0FF"/>
<path d="M558.003 106.976H514.003C512.346 106.976 511.003 108.319 511.003 109.976C511.003 111.632 512.346 112.976 514.003 112.976H558.003C559.66 112.976 561.003 111.632 561.003 109.976C561.003 108.319 559.66 106.976 558.003 106.976Z" fill="#E1E1EC"/>
<path d="M550.003 116.976H522.003C520.346 116.976 519.003 118.319 519.003 119.976C519.003 121.632 520.346 122.976 522.003 122.976H550.003C551.66 122.976 553.003 121.632 553.003 119.976C553.003 118.319 551.66 116.976 550.003 116.976Z" fill="#E1E1EC"/>
<path d="M252.003 20.9756C252.003 16.5573 255.585 12.9756 260.003 12.9756H579.003C583.421 12.9756 587.003 16.5573 587.003 20.9756V39.9756H252.003V20.9756Z" fill="#3C52AB"/>
<path fill-rule="evenodd" clip-rule="evenodd" d="M265.003 30.9756C267.212 30.9756 269.003 29.1847 269.003 26.9756C269.003 24.7665 267.212 22.9756 265.003 22.9756C262.794 22.9756 261.003 24.7665 261.003 26.9756C261.003 29.1847 262.794 30.9756 265.003 30.9756Z" fill="#00714D"/>
<path fill-rule="evenodd" clip-rule="evenodd" d="M277.003 30.9756C279.212 30.9756 281.003 29.1847 281.003 26.9756C281.003 24.7665 279.212 22.9756 277.003 22.9756C274.794 22.9756 273.003 24.7665 273.003 26.9756C273.003 29.1847 274.794 30.9756 277.003 30.9756Z" fill="#FFE197"/>
<path fill-rule="evenodd" clip-rule="evenodd" d="M289.003 30.9756C291.212 30.9756 293.003 29.1847 293.003 26.9756C293.003 24.7665 291.212 22.9756 289.003 22.9756C286.794 22.9756 285.003 24.7665 285.003 26.9756C285.003 29.1847 286.794 30.9756 289.003 30.9756Z" fill="#A62F5D"/>
<mask id="mask1_37_84" style="mask-type:luminance" maskUnits="userSpaceOnUse" x="501" y="144" width="71" height="195">
<path d="M571.003 144.976H501.003V338.976H571.003V144.976Z" fill="white"/>
</mask>
<g mask="url(#mask1_37_84)">
<path d="M563.003 144.976H509.003C504.585 144.976 501.003 148.557 501.003 152.976V330.976C501.003 335.394 504.585 338.976 509.003 338.976H563.003C567.421 338.976 571.003 335.394 571.003 330.976V152.976C571.003 148.557 567.421 144.976 563.003 144.976Z" fill="white"/>
<mask id="mask2_37_84" style="mask-type:luminance" maskUnits="userSpaceOnUse" x="519" y="162" width="35" height="159">
<path d="M553.003 162.976H519.003V320.976H553.003V162.976Z" fill="white"/>
</mask>
<g mask="url(#mask2_37_84)">
<path d="M549.003 162.976H523.003C520.794 162.976 519.003 164.766 519.003 166.976V184.976C519.003 187.185 520.794 188.976 523.003 188.976H549.003C551.212 188.976 553.003 187.185 553.003 184.976V166.976C553.003 164.766 551.212 162.976 549.003 162.976Z" fill="#FFD5E1"/>
<path d="M519.003 200.976C519.003 198.767 520.794 196.976 523.003 196.976H549.003C551.212 196.976 553.003 198.767 553.003 200.976V217.976C553.003 220.185 551.212 221.976 549.003 221.976H523.003C520.794 221.976 519.003 220.185 519.003 217.976V200.976Z" fill="#DAE0FF"/>
<path d="M549.003 229.976H523.003C520.794 229.976 519.003 231.766 519.003 233.976V250.976C519.003 253.185 520.794 254.976 523.003 254.976H549.003C551.212 254.976 553.003 253.185 553.003 250.976V233.976C553.003 231.766 551.212 229.976 549.003 229.976Z" fill="#E1E1EC"/>
<path d="M549.003 295.976H523.003C520.794 295.976 519.003 297.766 519.003 299.976V316.976C519.003 319.185 520.794 320.976 523.003 320.976H549.003C551.212 320.976 553.003 319.185 553.003 316.976V299.976C553.003 297.766 551.212 295.976 549.003 295.976Z" fill="#E1E1EC"/>
<path d="M549.003 262.976H523.003C520.794 262.976 519.003 264.766 519.003 266.976V283.976C519.003 286.185 520.794 287.976 523.003 287.976H549.003C551.212 287.976 553.003 286.185 553.003 283.976V266.976C553.003 264.766 551.212 262.976 549.003 262.976Z" fill="#E1E1EC"/>
</g>
</g>
<mask id="mask3_37_84" style="mask-type:luminance" maskUnits="userSpaceOnUse" x="268" y="56" width="226" height="283">
<path d="M493.003 56.9756H268.003V338.976H493.003V56.9756Z" fill="white"/>
</mask>
<g mask="url(#mask3_37_84)">
<mask id="mask4_37_84" style="mask-type:luminance" maskUnits="userSpaceOnUse" x="268" y="56" width="226" height="48">
<path d="M493.003 56.9756H268.003V103.976H493.003V56.9756Z" fill="white"/>
</mask>
<g mask="url(#mask4_37_84)">
<path d="M489.003 56.9756H272.003C269.794 56.9756 268.003 58.7664 268.003 60.9756V99.9756C268.003 102.185 269.794 103.976 272.003 103.976H489.003C491.212 103.976 493.003 102.185 493.003 99.9756V60.9756C493.003 58.7664 491.212 56.9756 489.003 56.9756Z" fill="white"/>
<mask id="mask5_37_84" style="mask-type:luminance" maskUnits="userSpaceOnUse" x="277" y="71" width="168" height="19">
<path d="M444.003 71.0752H277.003V89.8752H444.003V71.0752Z" fill="white"/>
</mask>
<g mask="url(#mask5_37_84)">
<path d="M441.003 71.0752H280.003C278.346 71.0752 277.003 72.4183 277.003 74.0752V75.1252C277.003 76.7821 278.346 78.1252 280.003 78.1252H441.003C442.66 78.1252 444.003 76.7821 444.003 75.1252V74.0752C444.003 72.4183 442.66 71.0752 441.003 71.0752Z" fill="#E1E1EC"/>
<path d="M386.099 82.8252H280.003C278.346 82.8252 277.003 84.1683 277.003 85.8252V86.8752C277.003 88.5321 278.346 89.8752 280.003 89.8752H386.099C387.756 89.8752 389.099 88.5321 389.099 86.8752V85.8252C389.099 84.1683 387.756 82.8252 386.099 82.8252Z" fill="#E1E1EC"/>
</g>
<path fill-rule="evenodd" clip-rule="evenodd" d="M468.957 87.4756C472.823 87.4756 475.957 84.3416 475.957 80.4756C475.957 76.6096 472.823 73.4756 468.957 73.4756C465.091 73.4756 461.957 76.6096 461.957 80.4756C461.957 84.3416 465.091 87.4756 468.957 87.4756Z" fill="#E1E1EC"/>
<path fill-rule="evenodd" clip-rule="evenodd" d="M468.957 83.4756C470.614 83.4756 471.957 82.1326 471.957 80.4756C471.957 78.8186 470.614 77.4756 468.957 77.4756C467.3 77.4756 465.957 78.8186 465.957 80.4756C465.957 82.1326 467.3 83.4756 468.957 83.4756Z" fill="#E1E1EC"/>
</g>
<mask id="mask6_37_84" style="mask-type:luminance" maskUnits="userSpaceOnUse" x="268" y="111" width="226" height="40">
<path d="M493.003 111.976H268.003V150.976H493.003V111.976Z" fill="white"/>
</mask>
<g mask="url(#mask6_37_84)">
<path d="M489.003 111.976H272.003C269.794 111.976 268.003 113.766 268.003 115.976V146.976C268.003 149.185 269.794 150.976 272.003 150.976H489.003C491.212 150.976 493.003 149.185 493.003 146.976V115.976C493.003 113.766 491.212 111.976 489.003 111.976Z" fill="white"/>
<mask id="mask7_37_84" style="mask-type:luminance" maskUnits="userSpaceOnUse" x="277" y="123" width="168" height="17">
<path d="M444.003 123.676H277.003V139.276H444.003V123.676Z" fill="white"/>
</mask>
<g mask="url(#mask7_37_84)">
<path d="M441.078 123.676H279.928C278.313 123.676 277.003 124.985 277.003 126.601C277.003 128.216 278.313 129.526 279.928 129.526H441.078C442.693 129.526 444.003 128.216 444.003 126.601C444.003 124.985 442.693 123.676 441.078 123.676Z" fill="#E1E1EC"/>
<path d="M386.174 133.426H279.928C278.313 133.426 277.003 134.735 277.003 136.351C277.003 137.966 278.313 139.276 279.928 139.276H386.174C387.789 139.276 389.099 137.966 389.099 136.351C389.099 134.735 387.789 133.426 386.174 133.426Z" fill="#E1E1EC"/>
</g>
<path fill-rule="evenodd" clip-rule="evenodd" d="M468.957 138.476C472.823 138.476 475.957 135.342 475.957 131.476C475.957 127.61 472.823 124.476 468.957 124.476C465.091 124.476 461.957 127.61 461.957 131.476C461.957 135.342 465.091 138.476 468.957 138.476Z" fill="#E1E1EC"/>
<path fill-rule="evenodd" clip-rule="evenodd" d="M468.957 134.476C470.614 134.476 471.957 133.133 471.957 131.476C471.957 129.819 470.614 128.476 468.957 128.476C467.3 128.476 465.957 129.819 465.957 131.476C465.957 133.133 467.3 134.476 468.957 134.476Z" fill="#E1E1EC"/>
</g>
<mask id="mask8_37_84" style="mask-type:luminance" maskUnits="userSpaceOnUse" x="268" y="158" width="226" height="40">
<path d="M493.003 158.976H268.003V197.976H493.003V158.976Z" fill="white"/>
</mask>
<g mask="url(#mask8_37_84)">
<path d="M489.003 158.976H272.003C269.794 158.976 268.003 160.766 268.003 162.976V193.976C268.003 196.185 269.794 197.976 272.003 197.976H489.003C491.212 197.976 493.003 196.185 493.003 193.976V162.976C493.003 160.766 491.212 158.976 489.003 158.976Z" fill="white"/>
<mask id="mask9_37_84" style="mask-type:luminance" maskUnits="userSpaceOnUse" x="277" y="170" width="168" height="17">
<path d="M444.003 170.676H277.003V186.276H444.003V170.676Z" fill="white"/>
</mask>
<g mask="url(#mask9_37_84)">
<path d="M441.078 170.676H279.928C278.313 170.676 277.003 171.985 277.003 173.601C277.003 175.216 278.313 176.526 279.928 176.526H441.078C442.693 176.526 444.003 175.216 444.003 173.601C444.003 171.985 442.693 170.676 441.078 170.676Z" fill="#C5C5D0"/>
<path d="M386.174 180.426H279.928C278.313 180.426 277.003 181.735 277.003 183.351C277.003 184.966 278.313 186.276 279.928 186.276H386.174C387.789 186.276 389.099 184.966 389.099 183.351C389.099 181.735 387.789 180.426 386.174 180.426Z" fill="#C5C5D0"/>
</g>
<path fill-rule="evenodd" clip-rule="evenodd" d="M468.957 185.476C472.823 185.476 475.957 182.342 475.957 178.476C475.957 174.61 472.823 171.476 468.957 171.476C465.091 171.476 461.957 174.61 461.957 178.476C461.957 182.342 465.091 185.476 468.957 185.476Z" fill="#C5C5D0"/>
<path fill-rule="evenodd" clip-rule="evenodd" d="M468.957 181.476C470.614 181.476 471.957 180.133 471.957 178.476C471.957 176.819 470.614 175.476 468.957 175.476C467.3 175.476 465.957 176.819 465.957 178.476C465.957 180.133 467.3 181.476 468.957 181.476Z" fill="white"/>
</g>
<mask id="mask10_37_84" style="mask-type:luminance" maskUnits="userSpaceOnUse" x="268" y="299" width="226" height="40">
<path d="M493.003 299.976H268.003V338.976H493.003V299.976Z" fill="white"/>
</mask>
<g mask="url(#mask10_37_84)">
<path d="M489.003 299.976H272.003C269.794 299.976 268.003 301.766 268.003 303.976V334.976C268.003 337.185 269.794 338.976 272.003 338.976H489.003C491.212 338.976 493.003 337.185 493.003 334.976V303.976C493.003 301.766 491.212 299.976 489.003 299.976Z" fill="white"/>
<mask id="mask11_37_84" style="mask-type:luminance" maskUnits="userSpaceOnUse" x="277" y="311" width="168" height="17">
<path d="M444.003 311.676H277.003V327.276H444.003V311.676Z" fill="white"/>
</mask>
<g mask="url(#mask11_37_84)">
<path d="M441.078 311.676H279.928C278.313 311.676 277.003 312.985 277.003 314.601C277.003 316.216 278.313 317.526 279.928 317.526H441.078C442.693 317.526 444.003 316.216 444.003 314.601C444.003 312.985 442.693 311.676 441.078 311.676Z" fill="#E1E1EC"/>
<path d="M386.174 321.426H279.928C278.313 321.426 277.003 322.735 277.003 324.351C277.003 325.966 278.313 327.276 279.928 327.276H386.174C387.789 327.276 389.099 325.966 389.099 324.351C389.099 322.735 387.789 321.426 386.174 321.426Z" fill="#E1E1EC"/>
</g>
<path fill-rule="evenodd" clip-rule="evenodd" d="M468.957 326.476C472.823 326.476 475.957 323.342 475.957 319.476C475.957 315.61 472.823 312.476 468.957 312.476C465.091 312.476 461.957 315.61 461.957 319.476C461.957 323.342 465.091 326.476 468.957 326.476Z" fill="#E1E1EC"/>
<path fill-rule="evenodd" clip-rule="evenodd" d="M468.957 322.476C470.614 322.476 471.957 321.133 471.957 319.476C471.957 317.819 470.614 316.476 468.957 316.476C467.3 316.476 465.957 317.819 465.957 319.476C465.957 321.133 467.3 322.476 468.957 322.476Z" fill="#E1E1EC"/>
</g>
<mask id="mask12_37_84" style="mask-type:luminance" maskUnits="userSpaceOnUse" x="268" y="252" width="226" height="40">
<path d="M493.003 252.976H268.003V291.976H493.003V252.976Z" fill="white"/>
</mask>
<g mask="url(#mask12_37_84)">
<path d="M489.003 252.976H272.003C269.794 252.976 268.003 254.766 268.003 256.976V287.976C268.003 290.185 269.794 291.976 272.003 291.976H489.003C491.212 291.976 493.003 290.185 493.003 287.976V256.976C493.003 254.766 491.212 252.976 489.003 252.976Z" fill="white"/>
<mask id="mask13_37_84" style="mask-type:luminance" maskUnits="userSpaceOnUse" x="277" y="264" width="168" height="17">
<path d="M444.003 264.676H277.003V280.276H444.003V264.676Z" fill="white"/>
</mask>
<g mask="url(#mask13_37_84)">
<path d="M441.078 264.676H279.928C278.313 264.676 277.003 265.985 277.003 267.601C277.003 269.216 278.313 270.526 279.928 270.526H441.078C442.693 270.526 444.003 269.216 444.003 267.601C444.003 265.985 442.693 264.676 441.078 264.676Z" fill="#E1E1EC"/>
<path d="M386.174 274.426H279.928C278.313 274.426 277.003 275.735 277.003 277.351C277.003 278.966 278.313 280.276 279.928 280.276H386.174C387.789 280.276 389.099 278.966 389.099 277.351C389.099 275.735 387.789 274.426 386.174 274.426Z" fill="#E1E1EC"/>
</g>
<path fill-rule="evenodd" clip-rule="evenodd" d="M468.957 279.476C472.823 279.476 475.957 276.342 475.957 272.476C475.957 268.61 472.823 265.476 468.957 265.476C465.091 265.476 461.957 268.61 461.957 272.476C461.957 276.342 465.091 279.476 468.957 279.476Z" fill="#E1E1EC"/>
<path fill-rule="evenodd" clip-rule="evenodd" d="M468.957 275.476C470.614 275.476 471.957 274.133 471.957 272.476C471.957 270.819 470.614 269.476 468.957 269.476C467.3 269.476 465.957 270.819 465.957 272.476C465.957 274.133 467.3 275.476 468.957 275.476Z" fill="#E1E1EC"/>
</g>
<mask id="mask14_37_84" style="mask-type:luminance" maskUnits="userSpaceOnUse" x="268" y="205" width="226" height="40">
<path d="M493.003 205.976H268.003V244.976H493.003V205.976Z" fill="white"/>
</mask>
<g mask="url(#mask14_37_84)">
<path d="M489.003 205.976H272.003C269.794 205.976 268.003 207.766 268.003 209.976V240.976C268.003 243.185 269.794 244.976 272.003 244.976H489.003C491.212 244.976 493.003 243.185 493.003 240.976V209.976C493.003 207.766 491.212 205.976 489.003 205.976Z" fill="white"/>
<mask id="mask15_37_84" style="mask-type:luminance" maskUnits="userSpaceOnUse" x="277" y="217" width="168" height="17">
<path d="M444.003 217.676H277.003V233.276H444.003V217.676Z" fill="white"/>
</mask>
<g mask="url(#mask15_37_84)">
<path d="M441.078 217.676H279.928C278.313 217.676 277.003 218.985 277.003 220.601C277.003 222.216 278.313 223.526 279.928 223.526H441.078C442.693 223.526 444.003 222.216 444.003 220.601C444.003 218.985 442.693 217.676 441.078 217.676Z" fill="#E1E1EC"/>
<path d="M386.174 227.426H279.928C278.313 227.426 277.003 228.735 277.003 230.351C277.003 231.966 278.313 233.276 279.928 233.276H386.174C387.789 233.276 389.099 231.966 389.099 230.351C389.099 228.735 387.789 227.426 386.174 227.426Z" fill="#E1E1EC"/>
</g>
<path fill-rule="evenodd" clip-rule="evenodd" d="M468.957 232.476C472.823 232.476 475.957 229.342 475.957 225.476C475.957 221.61 472.823 218.476 468.957 218.476C465.091 218.476 461.957 221.61 461.957 225.476C461.957 229.342 465.091 232.476 468.957 232.476Z" fill="#E1E1EC"/>
<path fill-rule="evenodd" clip-rule="evenodd" d="M468.957 228.476C470.614 228.476 471.957 227.133 471.957 225.476C471.957 223.819 470.614 222.476 468.957 222.476C467.3 222.476 465.957 223.819 465.957 225.476C465.957 227.133 467.3 228.476 468.957 228.476Z" fill="#E1E1EC"/>
</g>
</g>
</g>
<path fill-rule="evenodd" clip-rule="evenodd" d="M522.254 326.937C515.028 331.292 507.929 333.396 504.596 332.537C496.239 330.383 495.471 299.811 501.937 287.759C508.403 275.707 541.644 270.454 543.32 294.333C543.901 302.621 540.421 310.017 535.279 316.052L544.499 359.023H517.719L522.254 326.937Z" fill="#B58C84"/>
<path fill-rule="evenodd" clip-rule="evenodd" d="M498.75 276.451C498.75 282.411 503.422 287.279 509.303 287.593C512.668 288.632 516.991 289.394 521.785 289.715C521.319 291.466 521.066 293.454 521.066 295.701C521.066 297.685 521.285 299.79 521.689 301.926C522.728 300.69 524.119 299.884 525.53 299.884C529.477 299.884 532.225 303.131 532.225 306.579C532.225 310.955 529.699 314.12 526.011 314.373C529.332 320.748 533.925 325.548 538.513 325.548C547.229 325.548 553.426 313.896 553.426 301.367C553.426 300.927 553.417 300.49 553.4 300.056C556.35 302.081 559.084 304.735 561.838 307.408C567.689 313.087 573.628 318.853 581.923 318.853C598.52 318.853 605.111 285.378 581.923 285.378C566.154 285.378 558.397 287.677 551.712 291.077C550.394 287.36 548.383 284.235 545.925 282.053C545.334 281.387 544.427 280.75 543.257 280.159C542.542 279.768 541.802 279.449 541.041 279.21C537.01 277.728 531.17 276.683 524.647 276.455C523.429 276.413 522.233 276.4 521.066 276.416C521.047 270.27 516.059 265.293 509.908 265.293C503.745 265.293 498.75 270.289 498.75 276.451Z" fill="#020E2C"/>
<path fill-rule="evenodd" clip-rule="evenodd" d="M562.924 448.977L522.05 589.826L502.825 695.577H483.529L502.79 448.977H562.924Z" fill="#B58C84"/>
<path fill-rule="evenodd" clip-rule="evenodd" d="M581.293 448.977C578.441 522.147 579.566 562.056 580.204 568.704C580.843 575.352 584.467 619.875 609.16 697.809H589.091C556.388 623.044 544.971 578.522 541.221 568.704C537.47 558.887 526.392 518.978 510.219 448.977H581.293Z" fill="#B58C84"/>
<path fill-rule="evenodd" clip-rule="evenodd" d="M563.802 448.977C553.17 497.444 534.781 574.808 508.635 681.072H480.412C478.328 572.003 487.195 500.217 502.552 448.977H563.802Z" fill="#3C52AB"/>
<path fill-rule="evenodd" clip-rule="evenodd" d="M563.802 448.977C553.17 497.444 534.781 574.808 508.635 681.072H480.412C478.328 572.003 487.195 500.217 502.552 448.977H563.802Z" fill="black" fill-opacity="0.08"/>
<path fill-rule="evenodd" clip-rule="evenodd" d="M581.436 448.977C578.643 522.147 585.882 594.234 608.305 682.211H578.192C545.429 608.562 521.947 536.831 505.898 448.977H581.436Z" fill="#3C52AB"/>
<path fill-rule="evenodd" clip-rule="evenodd" d="M612.021 712.313L610.991 695.709C610.951 695.069 610.329 694.631 609.702 694.769C600.02 696.899 586.551 692.228 586.551 692.228C572.945 701.866 553.25 706.218 546.69 707.459C545.507 707.683 544.761 708.872 545.089 710.03L546.685 715.661H586.551H609.806L612.021 712.313Z" fill="#020E2C"/>
<path fill-rule="evenodd" clip-rule="evenodd" d="M507.133 712.313L506.103 695.709C506.063 695.069 505.441 694.631 504.814 694.769C495.132 696.899 481.663 692.228 481.663 692.228C468.058 701.866 448.362 706.218 441.802 707.459C440.619 707.683 439.873 708.872 440.201 710.03L441.797 715.661H481.663H504.918L507.133 712.313Z" fill="#020E2C"/>
<path fill-rule="evenodd" clip-rule="evenodd" d="M455.91 373.411L494.64 394.624L480.338 409.975L452.195 384.207C437.37 380.121 430.59 377.133 431.856 375.24C432.923 373.645 434.644 373.701 436.23 373.752C437.465 373.791 438.617 373.828 439.314 373.08C440.906 371.372 437.869 365.4 434.746 359.855C431.622 354.311 434.962 354.794 436.872 355.591C443.123 359.823 449.469 365.763 455.91 373.411ZM416.968 403.175L433.981 412.521L433.012 429.594C433.012 429.594 421.994 421.641 412.514 418.998C400.427 415.628 395.537 413.054 389.63 405.529C386.47 401.502 383.788 393.407 386.796 390.771C387.95 389.76 392.249 392.149 396.636 394.586C399.979 396.444 403.373 398.33 405.464 398.761C408.279 399.34 407.949 395.692 407.686 392.776C407.497 390.684 407.342 388.969 408.408 389.465C413.388 389.55 416.968 403.175 416.968 403.175Z" fill="#B58C84"/>
<path fill-rule="evenodd" clip-rule="evenodd" d="M513.502 389.898C499.936 389.755 481.846 386.89 462.544 374.637L454.963 391.542C468.278 404.756 486.999 415.612 503.368 415.152C516.268 414.79 522.861 399.186 513.502 389.898Z" fill="#3C52AB"/>
<path fill-rule="evenodd" clip-rule="evenodd" d="M513.502 389.898C499.936 389.755 481.846 386.89 462.544 374.637L454.963 391.542C468.278 404.756 486.999 415.612 503.368 415.152C516.268 414.79 522.861 399.186 513.502 389.898Z" fill="black" fill-opacity="0.08"/>
<path fill-rule="evenodd" clip-rule="evenodd" d="M550.02 502.871C562.917 501.189 574.767 499.644 581.79 501.027C589.67 475.437 587.83 460.35 581.79 445.477C578.149 436.513 575.008 426.502 575 416.633C574.979 387.895 546.885 344.133 543.49 344.133H542.515H515.609H512.529C511.145 361.917 505.237 381.171 499.291 400.549C497.903 405.075 496.512 409.607 495.176 414.129C472.676 419.236 422.713 401.457 422.713 401.457C422.713 401.457 410.1 427.552 411.051 438.664C440.133 453.855 465.058 460.628 485.593 461.075C484.941 473.259 486.424 484.854 491.406 495.447C498.081 509.642 525.883 506.018 550.02 502.871Z" fill="#3C52AB"/>
<path fill-rule="evenodd" clip-rule="evenodd" d="M550.02 502.871C562.917 501.189 574.767 499.644 581.79 501.027C589.67 475.437 587.83 460.35 581.79 445.477C578.149 436.513 575.008 426.502 575 416.633C574.979 387.895 546.885 344.133 543.49 344.133H542.515H515.609H512.529C511.145 361.917 505.237 381.171 499.291 400.549C497.903 405.075 496.512 409.607 495.176 414.129C472.676 419.236 422.713 401.457 422.713 401.457C422.713 401.457 410.1 427.552 411.051 438.664C440.133 453.855 465.058 460.628 485.593 461.075C484.941 473.259 486.424 484.854 491.406 495.447C498.081 509.642 525.883 506.018 550.02 502.871Z" fill="white" fill-opacity="0.2"/>
<path fill-rule="evenodd" clip-rule="evenodd" d="M359 512.119L376.013 502.773C376.013 502.773 379.593 489.148 384.573 489.063C387.124 487.876 382.682 499.354 387.517 498.358C392.352 497.363 404.152 488.587 406.185 490.369C409.193 493.005 406.511 501.099 403.351 505.126C397.444 512.652 392.554 515.226 380.467 518.596C370.987 521.239 359.969 529.192 359.969 529.192L359 512.119Z" fill="#8E5B4C"/>
<path fill-rule="evenodd" clip-rule="evenodd" d="M796.91 432.053C788.697 434.266 781.231 434.333 778.24 432.574C770.74 428.164 778.491 398.322 788.107 388.438C797.723 378.554 831.398 382.701 826.386 406.31C824.647 414.503 819.218 420.704 812.558 425.125L809.552 469.332L783.597 461.89L796.91 432.053Z" fill="#CFA294"/>
<path fill-rule="evenodd" clip-rule="evenodd" d="M796.088 376.846C790.419 375.936 785.752 375.187 784.139 373.365C780.199 381.789 782.701 390.211 799.068 393.414C802.025 396.394 803.473 400.805 805.101 406.512C805.919 406.434 806.765 406.505 807.602 406.745C811.186 407.773 813.258 411.511 812.23 415.094C811.709 416.913 810.488 418.343 808.944 419.175C809.838 421.725 810.886 424.421 812.159 427.259C820.592 425.005 829.551 413.958 826.164 399.843C826.903 381.79 808.927 378.906 796.088 376.846Z" fill="#020E2C"/>
<path fill-rule="evenodd" clip-rule="evenodd" d="M882.185 609.435C891.022 609.435 898.185 616.598 898.185 625.435V733C898.185 741.836 891.022 749 882.185 749H749.055C740.218 749 733.055 741.836 733.055 733V625.435C733.055 616.598 740.219 609.435 749.055 609.435H882.185ZM862.732 640.95C864.941 640.95 866.732 642.741 866.732 644.95V713.485C866.732 715.694 864.941 717.485 862.732 717.485H768.508C766.299 717.485 764.508 715.694 764.508 713.485V644.95C764.508 642.741 766.299 640.95 768.508 640.95H862.732Z" fill="#041148"/>
<path fill-rule="evenodd" clip-rule="evenodd" d="M645.821 736.644C667.968 709.546 682.954 689.457 690.777 676.377C704.173 653.98 715.137 634.051 718.597 626.438C726.847 608.284 699.603 599.783 693.436 608.251C684.104 621.067 664.172 661.395 633.643 729.235L645.821 736.644Z" fill="#CFA294"/>
<path fill-rule="evenodd" clip-rule="evenodd" d="M691.203 728.766L732.421 624.81C741.237 605.859 698.664 593.401 692.185 602.221C677.476 622.243 642.517 701.229 638.134 707.194L691.203 728.766Z" fill="#A62F5D"/>
<path fill-rule="evenodd" clip-rule="evenodd" d="M691.203 728.766L732.421 624.81C741.237 605.859 698.664 593.401 692.185 602.221C677.476 622.243 642.517 701.229 638.134 707.194L691.203 728.766Z" fill="black" fill-opacity="0.2"/>
<path fill-rule="evenodd" clip-rule="evenodd" d="M800.981 707.918C792.952 696.183 763.747 656.703 747.84 640.368C743.269 635.674 738.809 631.169 734.591 626.97C722.052 614.491 697.083 635.466 709.598 646.833C740.767 675.14 786.245 713.354 790.044 716.761C795.37 721.536 806.027 715.292 800.981 707.918Z" fill="#CFA294"/>
<path fill-rule="evenodd" clip-rule="evenodd" d="M795.937 702.87C796.624 701.92 797.965 701.696 798.863 702.447C800.702 703.984 803.511 706.489 804.501 708.206C806.02 710.843 808.058 716.408 808.058 716.408C805.005 718.174 753.188 748.149 753.188 748.149C753.188 748.149 746.967 742.302 751.25 739.071C755.532 735.841 758.318 733.622 758.318 733.622L777.331 707.375C777.662 706.919 778.304 706.825 778.75 707.17L782.786 710.283C782.786 710.283 788.201 709.81 790.868 708.267C792.559 707.289 794.64 704.662 795.937 702.87Z" fill="#F4F4F4"/>
<path fill-rule="evenodd" clip-rule="evenodd" d="M654.135 725.322C655.205 724.844 656.48 725.322 656.883 726.422C657.708 728.675 658.891 732.251 658.891 734.234C658.891 737.278 657.878 743.119 657.878 743.119C654.353 743.119 594.52 743.119 594.52 743.119C594.52 743.119 592.051 734.938 597.372 734.286C602.692 733.634 606.212 733.108 606.212 733.108L635.775 719.903C636.29 719.673 636.893 719.914 637.108 720.436L639.049 725.154C639.049 725.154 643.975 727.457 647.054 727.457C649.006 727.457 652.118 726.225 654.135 725.322Z" fill="#F4F4F4"/>
<path fill-rule="evenodd" clip-rule="evenodd" d="M741.689 624.661C741.689 624.661 793.076 616.273 810.529 613.19C843.693 607.33 853.364 589.449 847.646 550.435H786.541C774.412 553.945 685.179 593.846 685.179 593.846C674.476 599.169 676.469 614.866 678.426 620.037C678.546 620.354 732.556 712.972 732.556 712.972L782.542 681.067L741.595 628.42C741.595 628.42 739.973 625.147 741.689 624.661Z" fill="#A62F5D"/>
<path fill-rule="evenodd" clip-rule="evenodd" d="M741.689 624.661C741.689 624.661 793.076 616.273 810.529 613.19C843.693 607.33 853.364 589.449 847.646 550.435H786.541C774.412 553.945 685.179 593.846 685.179 593.846C674.476 599.169 676.469 614.866 678.426 620.037C678.546 620.354 732.556 712.972 732.556 712.972L782.542 681.067L741.595 628.42C741.595 628.42 739.973 625.147 741.689 624.661Z" fill="#F4F4F4" fill-opacity="0.11"/>
<path fill-rule="evenodd" clip-rule="evenodd" d="M912.965 600.096C908.77 593.943 884.499 528.507 884.499 528.507L864.574 531.396C864.574 531.396 896.657 600.881 898.974 604.891C901.984 610.1 899.321 618.657 897.516 624.458C897.237 625.356 896.978 626.188 896.764 626.931C900.556 628.024 901.999 625.857 903.52 623.573C905.238 620.993 907.056 618.262 912.472 619.91C914.564 620.547 916.574 621.364 918.538 622.163C925.323 624.923 931.556 627.457 938.714 621.53C939.849 620.59 940.805 617.517 937.198 615.727C928.211 611.266 915.016 603.104 912.965 600.096ZM696.761 569.683L730.721 540.944L740.003 559.918L705.581 577.067C696.379 589.522 691.116 594.815 689.792 592.943C688.676 591.365 689.351 589.768 689.971 588.296C690.455 587.15 690.906 586.081 690.454 585.156C689.421 583.045 682.703 583.744 676.355 584.679C670.008 585.614 671.669 582.65 673.11 581.143C679.352 576.796 687.235 572.976 696.761 569.683Z" fill="#CFA294"/>
<path fill-rule="evenodd" clip-rule="evenodd" d="M801.218 447.425L788.871 443.349C772.123 485.113 747.144 525.523 705.411 559.655L715.731 577.428C752.409 555.861 787.129 539.107 801.218 506.744C805.947 495.883 801.604 460.412 801.218 447.425Z" fill="#F4F4F4"/>
<path fill-rule="evenodd" clip-rule="evenodd" d="M801.218 447.425L788.871 443.349C772.123 485.113 747.144 525.523 705.411 559.655L715.731 577.428C752.409 555.861 787.129 539.107 801.218 506.744C805.947 495.883 801.604 460.412 801.218 447.425Z" fill="black" fill-opacity="0.05"/>
<path fill-rule="evenodd" clip-rule="evenodd" d="M843.625 564.966C843.625 564.966 790.573 570.581 760.109 564.966C757.593 564.503 757.196 560.297 758.363 557.443C776.534 512.999 788.995 474.219 788.995 443.349C793.996 445.866 806.5 444.103 806.5 444.103C828.903 475.916 839.201 512.417 843.625 564.966Z" fill="#A62F5D"/>
<path fill-rule="evenodd" clip-rule="evenodd" d="M843.625 564.966C843.625 564.966 790.573 570.581 760.109 564.966C757.593 564.503 757.196 560.297 758.363 557.443C776.534 512.999 788.995 474.219 788.995 443.349C793.996 445.866 806.5 444.103 806.5 444.103C828.903 475.916 839.201 512.417 843.625 564.966Z" fill="white" fill-opacity="0.19"/>
<path fill-rule="evenodd" clip-rule="evenodd" d="M812.92 441.437C812.342 441.048 812.037 440.855 812.037 440.855L812.07 441.437H802.733C802.264 444.191 801.577 454.4 800.575 469.285C796.933 523.377 794.974 609.602 778.375 653.937H891.031C888.614 603.533 866.033 572.88 846.748 521.698C860.979 535.831 877.599 559.523 891.031 598.962L912.483 593.465C890.621 499.426 826.568 450.928 814.139 442.272C814.018 441.992 813.897 441.714 813.777 441.437H812.92Z" fill="#F4F4F4"/>
<path fill-rule="evenodd" clip-rule="evenodd" d="M283.648 435.603C290.147 437.964 295.944 438.662 298.697 437.552C306.754 434.302 303.501 403.666 295.463 392.478C287.424 381.29 253.555 380.411 255.023 404.482C255.627 414.388 261.765 422.291 269.342 427.937L261.061 466.562H288.021L283.648 435.603Z" fill="#8E5B4C"/>
<path fill-rule="evenodd" clip-rule="evenodd" d="M273.158 382.263C269.371 382.967 264.452 385.098 262.575 386.366C262.294 383.053 261.166 379.787 259.261 377.025C257.411 374.343 254.859 372.567 252.342 370.624C251.181 369.728 249.952 368.877 248.559 368.455C247.141 368.025 245.635 368.038 244.237 368.397C242.806 368.766 241.484 369.485 240.345 370.42C239.841 370.833 239.468 371.356 238.988 371.789C238.497 372.232 238.036 372.02 237.438 371.877C235.995 371.533 234.317 371.866 232.981 372.368C231.481 372.931 230.128 373.906 229.025 375.071C227.95 376.204 227.074 377.592 226.684 379.154C226.51 379.849 226.409 380.59 226.472 381.317C226.498 381.615 226.556 381.769 226.358 381.986C226.176 382.187 225.912 382.328 225.72 382.528C223.861 384.469 222.839 387.219 222.955 390.008C223.022 391.635 223.93 394.088 225.353 396.627C226.776 399.166 232.609 404.687 236.065 406.009C239.15 407.189 242.76 407.149 245.847 406.346C245.107 409.393 245.25 412.643 245.735 415.772C246.26 419.172 247.218 422.49 248.587 425.666C249.888 428.683 251.468 431.768 253.63 434.258C255.652 436.587 258.151 438.06 261.146 438.261C262.518 438.353 263.887 438.246 265.241 438.094C266.576 437.945 267.907 437.782 269.197 437.417C271.636 436.726 274.134 435.327 274.917 432.689C275.199 431.738 275.458 430.593 275.502 429.588C275.518 429.227 275.52 428.995 275.184 428.825C274.781 428.621 274.273 428.568 273.841 428.47C271.375 427.909 269.308 426.524 267.843 424.361C266.357 422.166 265.414 418.825 267.153 416.625C269.299 413.908 273.135 413.747 276.326 413.797C275.438 409.509 275.859 405.014 278.373 401.526C281.154 397.668 285.363 395.196 288.388 391.553C289.176 390.603 289.954 389.587 290.247 388.336C290.296 388.125 290.234 387.731 290.142 387.335C289.96 386.556 289.475 385.892 288.855 385.386C288.557 385.143 288.231 384.936 287.88 384.777C282.236 382.222 276.831 381.58 273.158 382.263Z" fill="#020E2C"/>
<path fill-rule="evenodd" clip-rule="evenodd" d="M270.311 762.358C318.081 762.358 356.807 725.367 356.807 679.735C356.807 634.104 318.081 597.112 270.311 597.112C222.54 597.112 183.814 634.104 183.814 679.735C183.814 725.367 222.54 762.358 270.311 762.358Z" fill="#041148"/>
<path fill-rule="evenodd" clip-rule="evenodd" d="M385.018 667.876C389.196 682.522 399.605 710.28 413.998 742.158L427.675 738.165C415.709 664.811 405.751 616.246 400.047 601.465C396.278 591.7 367.766 592.844 371.046 612.494C371.514 615.294 372.451 619.691 373.765 625.26C367.162 624.27 360.268 626.319 357.64 633.031C355.542 638.391 353.349 644.118 351.132 650.058C343.417 670.73 332.949 717.39 330.415 731.026C328.822 739.596 340.687 741.521 343.541 735.237C344.024 734.172 345.822 730.468 348.505 724.942C355.837 709.841 369.776 681.131 381.549 655.474C382.649 659.487 383.809 663.639 385.018 667.876Z" fill="#8E5B4C"/>
<path fill-rule="evenodd" clip-rule="evenodd" d="M329.549 540.466L362.776 570.206C372.249 573.826 380.054 577.906 386.191 582.446C387.591 583.993 389.167 586.991 382.815 585.826C376.463 584.66 369.73 583.715 368.624 585.767C367.518 587.819 371.126 590.797 369.041 593.503C367.65 595.306 362.527 589.867 353.673 577.186L319.611 558.906L329.549 540.466Z" fill="#8E5B4C"/>
<path fill-rule="evenodd" clip-rule="evenodd" d="M270.659 457.977H288C304.749 499.741 324.732 532.19 366.466 566.322L356.146 584.096C319.468 562.528 284.748 545.774 270.659 513.412C265.93 502.55 270.273 470.964 270.659 457.977Z" fill="#F4F4F4"/>
<path fill-rule="evenodd" clip-rule="evenodd" d="M270.659 457.977H288C304.749 499.741 324.732 532.19 366.466 566.322L356.146 584.096C319.468 562.528 284.748 545.774 270.659 513.412C265.93 502.55 270.273 470.964 270.659 457.977Z" fill="black" fill-opacity="0.05"/>
<path fill-rule="evenodd" clip-rule="evenodd" d="M400.922 593.189C398.642 585.742 294.985 559.31 294.985 559.31H286.49V567.231L357.919 603.619C357.824 604.793 357.883 606.034 358.113 607.343C357.597 634.318 369.134 654.47 380.557 674.422C388.026 687.469 395.447 700.431 399.416 715.16L425.659 711.242C424.894 709.285 423.686 700.464 422.033 688.403C417.866 657.991 410.876 606.982 401.07 593.487C401.036 593.44 401.001 593.393 400.965 593.346C400.953 593.294 400.938 593.241 400.922 593.189Z" fill="#00714D"/>
<path fill-rule="evenodd" clip-rule="evenodd" d="M400.922 593.189C398.642 585.742 294.985 559.31 294.985 559.31H286.49V567.231L357.919 603.619C357.824 604.793 357.883 606.034 358.113 607.343C357.597 634.318 369.134 654.47 380.557 674.422C388.026 687.469 395.447 700.431 399.416 715.16L425.659 711.242C424.894 709.285 423.686 700.464 422.033 688.403C417.866 657.991 410.876 606.982 401.07 593.487C401.036 593.44 401.001 593.393 400.965 593.346C400.953 593.294 400.938 593.241 400.922 593.189Z" fill="black" fill-opacity="0.2"/>
<path fill-rule="evenodd" clip-rule="evenodd" d="M330.751 726.595C330.048 725.659 328.704 725.459 327.818 726.225C326.007 727.792 323.242 730.34 322.283 732.072C320.81 734.73 318.871 740.321 318.871 740.321C321.955 742.032 374.308 771.071 374.308 771.071C374.308 771.071 380.426 765.126 376.085 761.974C371.745 758.822 368.92 756.655 368.92 756.655L349.439 730.776C349.1 730.326 348.457 730.244 348.017 730.595L344.035 733.773C344.035 733.773 338.612 733.394 335.917 731.899C334.208 730.951 332.08 728.363 330.751 726.595Z" fill="#F4F4F4"/>
<path fill-rule="evenodd" clip-rule="evenodd" d="M410.315 734.883C409.245 734.405 407.972 734.882 407.568 735.982C406.744 738.232 405.561 741.803 405.561 743.784C405.561 746.824 406.573 752.658 406.573 752.658C410.098 752.658 469.931 752.658 469.931 752.658C469.931 752.658 472.401 744.487 467.08 743.836C461.759 743.184 458.24 742.66 458.24 742.66L428.676 729.471C428.161 729.241 427.558 729.482 427.344 730.003L425.402 734.715C425.402 734.715 420.477 737.015 417.397 737.015C415.445 737.015 412.332 735.784 410.315 734.883Z" fill="#F4F4F4"/>
<path fill-rule="evenodd" clip-rule="evenodd" d="M350.42 636.591C336.581 634.22 320.868 631.015 306.331 628.049C294.455 625.627 283.364 623.365 274.72 621.847C241.455 616.009 231.754 598.189 237.49 559.31H298.781C308.793 562.188 360.825 584.024 387.822 595.637C396.931 599.556 399.933 608.68 399.345 617.638C399.483 617.842 399.537 618.057 399.499 618.281C392.738 658.309 374.902 684.148 363.449 700.741C358.652 707.69 354.974 713.017 353.699 717.086L333.088 710.669L350.42 636.591Z" fill="#00714D"/>
<path d="M808 492.853H811.407C813.386 492.853 815.112 491.635 815.594 489.9L819.134 477.15C819.201 476.908 819.586 476.922 819.631 477.168L823.834 499.976C823.834 499.976 823.588 493.796 825.189 492.624C825.931 492.081 829 492.777 829 492.777" stroke="#89B1F2" stroke-width="3" stroke-miterlimit="10" stroke-linecap="round" stroke-linejoin="round"/>
<path fill-rule="evenodd" clip-rule="evenodd" d="M234.502 577.398C234.502 577.398 287.947 583.15 318.636 577.398C321.171 576.922 321.06 566.216 319.884 563.292C301.579 517.756 289.537 484.422 289.537 452.794C284.499 455.372 271.902 453.567 271.902 453.567C249.333 486.16 238.959 523.558 234.502 577.398Z" fill="#00714D"/>
<path fill-rule="evenodd" clip-rule="evenodd" d="M234.502 577.398C234.502 577.398 287.947 583.15 318.636 577.398C321.171 576.922 321.06 566.216 319.884 563.292C301.579 517.756 289.537 484.422 289.537 452.794C284.499 455.372 271.902 453.567 271.902 453.567C249.333 486.16 238.959 523.558 234.502 577.398Z" fill="black" fill-opacity="0.1"/>
<path fill-rule="evenodd" clip-rule="evenodd" d="M210.002 681.794C238.623 670.591 252.814 674.418 267.089 678.266C276.13 680.704 285.205 683.151 298.002 681.794C309.213 625.315 295.873 570.181 284.862 524.673C277.998 496.304 272.039 471.676 273.496 452.794H262.371C259.792 458.844 255.444 466.153 250.653 474.208H250.652C243.832 485.672 236.113 498.648 231.318 511.658C227.529 521.935 228.639 532.355 229.766 542.93C230.639 551.132 231.523 559.427 230.139 567.821C229.816 569.776 229.501 571.723 229.193 573.663C226.961 573.564 224.941 575.134 224.535 577.388L223.767 581.654C223.341 584.021 224.853 586.275 227.17 586.802C226.252 592.944 225.378 598.998 224.519 604.954C220.433 633.264 216.673 659.324 210.002 681.794ZM367.056 520.804C365.058 518.836 371.985 511.57 373.982 513.539C379.639 519.114 382.403 527.121 382.444 537.248C382.455 540.059 380.222 542.319 377.457 542.296C374.691 542.273 372.44 539.976 372.429 537.165C372.398 529.6 370.551 524.25 367.056 520.804Z" fill="#F4F4F4"/>
<path fill-rule="evenodd" clip-rule="evenodd" d="M357.312 572.431C356.235 575.021 349.959 565.11 351.036 562.52C354.086 555.187 351.917 563.376 361.293 559.544C363.895 558.481 366.826 559.705 367.841 562.277C368.856 564.85 367.569 567.798 364.967 568.861C357.964 571.724 359.197 567.899 357.312 572.431Z" fill="#E8E8E8"/>
<path fill-rule="evenodd" clip-rule="evenodd" d="M267.954 453.904L262.107 471.522L273.881 484.73L263.24 495.109L288.984 538.301L257.502 495.195L267.954 484.73L257.502 473.058L267.954 453.904Z" fill="black" fill-opacity="0.2"/>
<path fill-rule="evenodd" clip-rule="evenodd" d="M261.759 513.491C261.759 513.491 284 528.804 294.5 526.475C316.5 526.475 369.532 502.975 369.532 502.975C369.532 502.975 383.581 522.196 382.721 535.82C295.759 578.475 258.259 566.82 261.759 513.491Z" fill="#F4F4F4"/>
<path d="M534.999 438.21C537.999 435.711 523.102 453.971 509.1 460.459C495.097 466.948 484 463.712 484 463.712C484 463.712 494.999 461.21 507.999 455.71C520.999 450.21 533.432 439.516 534.999 438.21Z" fill="black" fill-opacity="0.2"/>
<path d="M295.826 563.124C299.594 564.148 276.092 562.418 262.745 554.67C249.398 546.921 245.684 535.975 245.684 535.975C245.684 535.975 254.043 543.549 266.004 551.044C277.966 558.538 293.857 562.589 295.826 563.124Z" fill="black" fill-opacity="0.2"/>
<path d="M9.38712 718.47C10.0482 717.809 11.12 717.809 11.7811 718.47L20.6724 727.362C21.3335 728.023 21.3335 729.095 20.6724 729.755L11.7811 738.647C11.12 739.308 10.0482 739.308 9.38712 738.647L0.495811 729.755C-0.165269 729.095 -0.165269 728.023 0.495805 727.362L9.38712 718.47Z" fill="#F39B10"/>
<path d="M694.936 3.17922L682.979 9.53695C679.677 11.2926 678.423 15.3925 680.179 18.6944C681.935 21.9963 686.034 23.2498 689.336 21.4941L701.293 15.1364C704.595 13.3807 705.849 9.28081 704.093 5.97893C702.338 2.67705 698.238 1.42358 694.936 3.17922Z" fill="#89B1F2"/>
<path d="M1103.83 776.691C1104.55 776.233 1105.5 776.705 1105.56 777.554L1107.31 799.934C1107.38 800.808 1106.47 801.423 1105.68 801.032L1085.01 790.725C1084.23 790.334 1084.17 789.236 1084.91 788.764L1103.83 776.691Z" fill="#02724F"/>
</svg>
