<svg width="601" height="648" viewBox="0 0 601 648" fill="none" xmlns="http://www.w3.org/2000/svg">
<path fill-rule="evenodd" clip-rule="evenodd" d="M284 506C411.025 506 514 403.025 514 276C514 148.975 411.025 46 284 46C156.975 46 54 148.975 54 276C54 403.025 156.975 506 284 506Z" fill="#02724F" fill-opacity="0.22"/>
<path fill-rule="evenodd" clip-rule="evenodd" d="M302.799 490C429.825 490 532.799 387.025 532.799 260C532.799 132.975 429.825 30 302.799 30C175.774 30 72.7988 132.975 72.7988 260C72.7988 387.025 175.774 490 302.799 490Z" fill="white"/>
<path fill-rule="evenodd" clip-rule="evenodd" d="M302.799 490C429.825 490 532.799 387.025 532.799 260C532.799 132.975 429.825 30 302.799 30C175.774 30 72.7988 132.975 72.7988 260C72.7988 387.025 175.774 490 302.799 490Z" fill="#D8CBB8" fill-opacity="0.63"/>
<mask id="mask0_41_92" style="mask-type:luminance" maskUnits="userSpaceOnUse" x="319" y="78" width="231" height="239">
<path d="M542 78H327C322.582 78 319 81.5817 319 86V309C319 313.418 322.582 317 327 317H542C546.418 317 550 313.418 550 309V86C550 81.5817 546.418 78 542 78Z" fill="white"/>
</mask>
<g mask="url(#mask0_41_92)">
<path d="M542 78H327C322.582 78 319 81.5817 319 86V309C319 313.418 322.582 317 327 317H542C546.418 317 550 313.418 550 309V86C550 81.5817 546.418 78 542 78Z" fill="#C5C5D0"/>
<path d="M522 113H489C484.582 113 481 116.582 481 121V156C481 160.418 484.582 164 489 164H522C526.418 164 530 160.418 530 156V121C530 116.582 526.418 113 522 113Z" fill="#FFFAFF"/>
<path fill-rule="evenodd" clip-rule="evenodd" d="M505.033 138.104C511.126 138.104 516.066 133.156 516.066 127.052C516.066 120.948 511.126 116 505.033 116C498.94 116 494 120.948 494 127.052C494 133.156 498.94 138.104 505.033 138.104Z" fill="#00714D"/>
<path d="M520.405 142H490.072C488.928 142 488 142.928 488 144.072C488 145.217 488.928 146.145 490.072 146.145H520.405C521.55 146.145 522.478 145.217 522.478 144.072C522.478 142.928 521.55 142 520.405 142Z" fill="#E1E1EC"/>
<path d="M514.373 150H495.072C493.928 150 493 150.928 493 152.072V152.072C493 153.217 493.928 154.145 495.072 154.145H514.373C515.517 154.145 516.445 153.217 516.445 152.072C516.445 150.928 515.517 150 514.373 150Z" fill="#E1E1EC"/>
<path d="M319 86C319 81.5817 322.582 78 327 78H542C546.418 78 550 81.5817 550 86V105H319V86Z" fill="#3C52AB"/>
<path fill-rule="evenodd" clip-rule="evenodd" d="M332 96C334.209 96 336 94.2091 336 92C336 89.7909 334.209 88 332 88C329.791 88 328 89.7909 328 92C328 94.2091 329.791 96 332 96Z" fill="#00714D"/>
<path fill-rule="evenodd" clip-rule="evenodd" d="M344 96C346.209 96 348 94.2091 348 92C348 89.7909 346.209 88 344 88C341.791 88 340 89.7909 340 92C340 94.2091 341.791 96 344 96Z" fill="#FFE197"/>
<path fill-rule="evenodd" clip-rule="evenodd" d="M356 96C358.209 96 360 94.2091 360 92C360 89.7909 358.209 88 356 88C353.791 88 352 89.7909 352 92C352 94.2091 353.791 96 356 96Z" fill="#A62F5D"/>
<mask id="mask1_41_92" style="mask-type:luminance" maskUnits="userSpaceOnUse" x="481" y="172" width="53" height="75">
<path d="M534 172H481V247H534V172Z" fill="white"/>
</mask>
<g mask="url(#mask1_41_92)">
<path d="M526 172H489C484.582 172 481 175.582 481 180V239C481 243.418 484.582 247 489 247H526C530.418 247 534 243.418 534 239V180C534 175.582 530.418 172 526 172Z" fill="#FFFAFF"/>
<mask id="mask2_41_92" style="mask-type:luminance" maskUnits="userSpaceOnUse" x="499" y="180" width="17" height="158">
<path d="M516 180H499V338H516V180Z" fill="white"/>
</mask>
<g mask="url(#mask2_41_92)">
<path d="M512 180H503C500.791 180 499 181.791 499 184V202C499 204.209 500.791 206 503 206H512C514.209 206 516 204.209 516 202V184C516 181.791 514.209 180 512 180Z" fill="#E1E1EC"/>
<path d="M512 214H503C500.791 214 499 215.791 499 218V235C499 237.209 500.791 239 503 239H512C514.209 239 516 237.209 516 235V218C516 215.791 514.209 214 512 214Z" fill="#E1E1EC"/>
</g>
</g>
<mask id="mask3_41_92" style="mask-type:luminance" maskUnits="userSpaceOnUse" x="339" y="113" width="122" height="282">
<path d="M460.513 113H339.513V395H460.513V113Z" fill="white"/>
</mask>
<g mask="url(#mask3_41_92)">
<mask id="mask4_41_92" style="mask-type:luminance" maskUnits="userSpaceOnUse" x="339" y="113" width="122" height="47">
<path d="M460.513 113H339.513V160H460.513V113Z" fill="white"/>
</mask>
<g mask="url(#mask4_41_92)">
<path d="M456.513 113H343.513C341.304 113 339.513 114.791 339.513 117V156C339.513 158.209 341.304 160 343.513 160H456.513C458.722 160 460.513 158.209 460.513 156V117C460.513 114.791 458.722 113 456.513 113Z" fill="#FFFAFF"/>
<mask id="mask5_41_92" style="mask-type:luminance" maskUnits="userSpaceOnUse" x="348" y="127" width="64" height="19">
<path d="M411.513 127.1H348.513V145.9H411.513V127.1Z" fill="white"/>
</mask>
<g mask="url(#mask5_41_92)">
<path d="M408.513 127.1H351.513C349.856 127.1 348.513 128.443 348.513 130.1V131.15C348.513 132.806 349.856 134.15 351.513 134.15H408.513C410.17 134.15 411.513 132.806 411.513 131.15V130.1C411.513 128.443 410.17 127.1 408.513 127.1Z" fill="#757680"/>
<path d="M387.8 138.85H351.513C349.856 138.85 348.513 140.193 348.513 141.85V142.9C348.513 144.556 349.856 145.9 351.513 145.9H387.8C389.457 145.9 390.8 144.556 390.8 142.9V141.85C390.8 140.193 389.457 138.85 387.8 138.85Z" fill="#757680"/>
</g>
</g>
<mask id="mask6_41_92" style="mask-type:luminance" maskUnits="userSpaceOnUse" x="339" y="168" width="122" height="39">
<path d="M460.513 168H339.513V207H460.513V168Z" fill="white"/>
</mask>
<g mask="url(#mask6_41_92)">
<path d="M456.513 168H343.513C341.304 168 339.513 169.791 339.513 172V203C339.513 205.209 341.304 207 343.513 207H456.513C458.722 207 460.513 205.209 460.513 203V172C460.513 169.791 458.722 168 456.513 168Z" fill="#FFFAFF"/>
<mask id="mask7_41_92" style="mask-type:luminance" maskUnits="userSpaceOnUse" x="348" y="179" width="64" height="17">
<path d="M411.513 179.7H348.513V195.3H411.513V179.7Z" fill="white"/>
</mask>
<g mask="url(#mask7_41_92)">
<path d="M408.588 179.7H351.438C349.822 179.7 348.513 181.01 348.513 182.625C348.513 184.241 349.822 185.55 351.438 185.55H408.588C410.203 185.55 411.513 184.241 411.513 182.625C411.513 181.01 410.203 179.7 408.588 179.7Z" fill="#E1E1EC"/>
<path d="M387.875 189.45H351.438C349.822 189.45 348.513 190.76 348.513 192.375C348.513 193.991 349.822 195.3 351.438 195.3H387.875C389.491 195.3 390.8 193.991 390.8 192.375C390.8 190.76 389.491 189.45 387.875 189.45Z" fill="#E1E1EC"/>
</g>
</g>
<mask id="mask8_41_92" style="mask-type:luminance" maskUnits="userSpaceOnUse" x="339" y="215" width="122" height="39">
<path d="M460.513 215H339.513V254H460.513V215Z" fill="white"/>
</mask>
<g mask="url(#mask8_41_92)">
<path d="M456.513 215H343.513C341.304 215 339.513 216.791 339.513 219V250C339.513 252.209 341.304 254 343.513 254H456.513C458.722 254 460.513 252.209 460.513 250V219C460.513 216.791 458.722 215 456.513 215Z" fill="#FFFAFF"/>
<mask id="mask9_41_92" style="mask-type:luminance" maskUnits="userSpaceOnUse" x="348" y="226" width="64" height="17">
<path d="M411.513 226.7H348.513V242.3H411.513V226.7Z" fill="white"/>
</mask>
<g mask="url(#mask9_41_92)">
<path d="M408.588 226.7H351.438C349.822 226.7 348.513 228.01 348.513 229.625C348.513 231.241 349.822 232.55 351.438 232.55H408.588C410.203 232.55 411.513 231.241 411.513 229.625C411.513 228.01 410.203 226.7 408.588 226.7Z" fill="#E1E1EC"/>
<path d="M387.875 236.45H351.438C349.822 236.45 348.513 237.76 348.513 239.375C348.513 240.991 349.822 242.3 351.438 242.3H387.875C389.491 242.3 390.8 240.991 390.8 239.375C390.8 237.76 389.491 236.45 387.875 236.45Z" fill="#E1E1EC"/>
</g>
</g>
<mask id="mask10_41_92" style="mask-type:luminance" maskUnits="userSpaceOnUse" x="339" y="262" width="122" height="39">
<path d="M460.513 262H339.513V301H460.513V262Z" fill="white"/>
</mask>
<g mask="url(#mask10_41_92)">
<path d="M456.513 262H343.513C341.304 262 339.513 263.791 339.513 266V297C339.513 299.209 341.304 301 343.513 301H456.513C458.722 301 460.513 299.209 460.513 297V266C460.513 263.791 458.722 262 456.513 262Z" fill="#FFFAFF"/>
<mask id="mask11_41_92" style="mask-type:luminance" maskUnits="userSpaceOnUse" x="348" y="273" width="64" height="17">
<path d="M411.513 273.7H348.513V289.3H411.513V273.7Z" fill="white"/>
</mask>
<g mask="url(#mask11_41_92)">
<path d="M408.588 273.7H351.438C349.822 273.7 348.513 275.01 348.513 276.625C348.513 278.241 349.822 279.55 351.438 279.55H408.588C410.203 279.55 411.513 278.241 411.513 276.625C411.513 275.01 410.203 273.7 408.588 273.7Z" fill="#E1E1EC"/>
<path d="M387.875 283.45H351.438C349.822 283.45 348.513 284.76 348.513 286.375C348.513 287.991 349.822 289.3 351.438 289.3H387.875C389.491 289.3 390.8 287.991 390.8 286.375C390.8 284.76 389.491 283.45 387.875 283.45Z" fill="#E1E1EC"/>
</g>
</g>
</g>
</g>
<path fill-rule="evenodd" clip-rule="evenodd" d="M210.566 225.527C218.312 226.977 225.21 226.499 227.844 224.657C234.448 220.038 225.113 193.022 215.513 184.585C205.912 176.148 175.119 182.418 181.47 203.872C183.674 211.318 189.139 216.656 195.611 220.258L201.613 260.894L225.036 252.137L210.566 225.527Z" fill="#B28B67"/>
<path fill-rule="evenodd" clip-rule="evenodd" d="M197.617 177.416C194.34 178.063 185.898 180.823 184.365 181.396C183.385 181.762 182.407 182.383 181.491 181.7C180.74 181.14 180.448 179.828 179.986 179.025C179.45 178.093 178.849 177.199 178.247 176.309C176.532 173.776 174.524 171.508 172.17 169.553C167.752 165.885 162.471 163.694 156.733 163.415C150.397 163.107 144.019 164.878 138.327 167.55C132.235 170.408 127.324 174.611 122.122 178.782C117.166 182.757 111.519 185.704 105.267 187.005C98.9682 188.316 93.2592 186.767 87.0882 185.579C80.7702 184.362 74.1242 184.506 68.2202 187.251C62.7092 189.814 58.3552 194.116 54.8332 199.005C51.5382 203.578 49.2342 208.461 49.0442 214.19C48.8402 220.354 51.0342 226.215 56.4182 229.582C64.2212 234.462 74.6202 232.591 82.6562 229.386C87.3042 227.532 91.5872 224.955 95.4282 221.744C100.552 217.46 104.334 212.033 108.786 207.113C110.875 204.804 113.141 202.701 115.651 200.859C118.087 199.071 120.638 197.715 123.719 198.44C126.979 199.207 129.957 200.044 133.349 200.019C136.603 199.995 139.854 199.446 142.895 198.282C148.813 196.017 153.971 191.979 159.271 188.585C163.593 185.817 168.246 182.929 173.401 182.109C175.552 181.767 178.785 181.512 180.285 183.322C168.955 190.072 169.807 206.903 177.363 216.668C181.442 221.938 195.165 224.751 198.315 220.001C200.311 216.991 197.674 215.006 195.955 213.688C192.662 211.163 190.375 207.193 193.329 203.473C195.878 200.265 201.093 203.671 201.157 203.641C202.034 203.232 208.191 195.891 211.16 187.427C216.586 185.757 216.082 181.952 213.743 179.561C211.404 177.169 202.144 176.521 197.617 177.416Z" fill="#020E2C"/>
<path fill-rule="evenodd" clip-rule="evenodd" d="M195.029 357.502C200.242 382.704 330.101 441.825 331.078 443.835C331.729 445.175 305.392 537.349 305.392 537.349L316.418 540.048C316.418 540.048 362.266 440.065 357.991 430.618C351.871 417.092 252.685 350.187 252.685 350.187L195.029 357.502Z" fill="#B28B67"/>
<path fill-rule="evenodd" clip-rule="evenodd" d="M307.957 516.969L325.794 521.423C357.718 476.704 368.368 441.457 363.971 424.53C359.576 407.603 261.146 341.491 261.146 341.491L199.729 347.946C208.038 406.84 324.212 438.948 325.969 441.311C327.726 443.673 315.634 469.888 307.957 516.969Z" fill="#3C52AB"/>
<path fill-rule="evenodd" clip-rule="evenodd" d="M307.957 516.969L325.794 521.423C357.718 476.704 368.368 441.457 363.971 424.53C359.576 407.603 261.146 341.491 261.146 341.491L199.729 347.946C208.038 406.84 324.212 438.948 325.969 441.311C327.726 443.673 315.634 469.888 307.957 516.969Z" fill="black" fill-opacity="0.1"/>
<path fill-rule="evenodd" clip-rule="evenodd" d="M303.443 527.867C302.777 526.903 301.442 526.643 300.526 527.372C298.784 528.759 296.219 530.943 295.282 532.473C293.808 534.879 291.783 539.985 291.783 539.985C294.57 541.694 341.887 570.71 341.887 570.71C341.887 570.71 347.798 565.443 343.906 562.348C340.014 559.252 337.485 557.13 337.485 557.13L320.537 532.42C320.219 531.956 319.579 531.846 319.124 532.178L315.366 534.921C315.366 534.921 310.356 534.352 307.921 532.858C306.416 531.936 304.606 529.553 303.443 527.867Z" fill="#020E2C"/>
<path fill-rule="evenodd" clip-rule="evenodd" d="M203.774 359.359L207.216 499.649L203.357 621.267L214.779 616.182L242.489 342.122L203.774 359.359Z" fill="#B28B67"/>
<path fill-rule="evenodd" clip-rule="evenodd" d="M201.529 611.602C200.706 610.769 199.346 610.745 198.57 611.622C197.094 613.291 194.946 615.887 194.288 617.557C193.254 620.182 192.145 625.561 192.145 625.561C195.187 626.76 246.823 647.1 246.823 647.1C246.823 647.1 251.732 640.886 247.362 638.515C242.991 636.144 240.133 634.494 240.133 634.494L219.156 613.113C218.761 612.71 218.112 612.713 217.721 613.12L214.495 616.474C214.495 616.474 209.462 616.785 206.805 615.738C205.163 615.091 202.967 613.06 201.529 611.602Z" fill="#020E2C"/>
<path fill-rule="evenodd" clip-rule="evenodd" d="M198.475 598.533L225.975 591.998C232.741 554.384 262.146 399.417 246.608 340.288L190.11 365.443C177.782 418.677 204.11 560.851 198.475 598.533Z" fill="#3C52AB"/>
<path fill-rule="evenodd" clip-rule="evenodd" d="M198.475 598.533L225.975 591.998C232.741 554.384 262.146 399.417 246.608 340.288L190.11 365.443C177.782 418.677 204.11 560.851 198.475 598.533Z" fill="#E1E1EC" fill-opacity="0.07"/>
<path fill-rule="evenodd" clip-rule="evenodd" d="M145.487 326.231C145.487 326.231 133.294 387.157 130.468 393.152C129.086 396.083 118.639 405.096 111.37 410.269C108.453 412.346 109.72 414.915 110.848 415.584C120.017 421.023 125.874 414.3 133.661 410.51C142.194 406.358 141.664 417.671 148.43 414.501C146.254 409.844 141.206 401.198 143.42 395.424C144.895 391.574 163.383 326.001 163.383 326.001L145.487 326.231Z" fill="#B28B67"/>
<path fill-rule="evenodd" clip-rule="evenodd" d="M293.309 204.714L319.424 174.979C322.504 166.564 326.027 159.617 329.994 154.137C331.358 152.88 334.023 151.45 333.092 157.076C332.161 162.703 331.435 168.663 333.298 169.614C335.162 170.565 337.773 167.339 340.242 169.147C341.887 170.352 337.094 174.948 325.861 182.932L310.06 213.258L293.309 204.714Z" fill="#B28B67"/>
<path fill-rule="evenodd" clip-rule="evenodd" d="M216.715 240.049C266.919 226.529 280.028 214.627 310.515 182.162L322.979 195.016C302.467 233.185 254.154 270.442 222.503 276.593C217.208 277.622 220.061 261.17 216.715 240.049Z" fill="white"/>
<path fill-rule="evenodd" clip-rule="evenodd" d="M216.715 240.049C266.919 226.529 280.028 214.627 310.515 182.162L322.979 195.016C302.467 233.185 254.154 270.442 222.503 276.593C217.208 277.622 220.061 261.17 216.715 240.049Z" fill="#3C52AB" fill-opacity="0.03"/>
<path fill-rule="evenodd" clip-rule="evenodd" d="M187.126 353.271C187.126 353.271 234.486 350.833 260.449 341.658C262.593 340.9 262.356 337.147 260.934 334.799C238.79 298.236 222.448 265.861 218.148 238.711C214.107 241.62 202.884 241.808 202.884 241.808C187.647 272.903 183.69 306.438 187.126 353.271Z" fill="#3C52AB"/>
<path fill-rule="evenodd" clip-rule="evenodd" d="M196.116 239.163C196.57 238.74 196.811 238.528 196.811 238.528L196.863 239.045L205.06 237.746C205.855 240.103 207.881 248.986 210.834 261.939C221.566 309.007 244.551 409.814 265.3 446.499L164.748 462.425C159.848 417.757 167.796 362.154 177.598 314.457C167.073 328.866 155.782 352.015 149.483 388.57L129.883 386.718C135.977 300.97 185.456 249.408 195.162 240.067C195.23 239.804 195.297 239.542 195.364 239.282L196.116 239.163Z" fill="white"/>
<path d="M18.6987 422.646L6.23289 427.937C2.79056 429.398 1.18452 433.374 2.6457 436.816C4.10689 440.258 8.08197 441.864 11.5243 440.403L23.9901 435.112C27.4324 433.65 29.0384 429.675 27.5773 426.233C26.1161 422.791 22.141 421.185 18.6987 422.646Z" fill="#F39B10"/>
<path d="M496.365 13.3742C495.762 12.7721 496.018 11.745 496.833 11.4963L518.304 4.94668C519.143 4.69121 519.94 5.44831 519.728 6.29913L514.14 28.7117C513.928 29.5625 512.868 29.8566 512.248 29.2372L496.365 13.3742Z" fill="#02724F"/>
<path d="M600.442 550.721C600.442 556.642 595.642 561.442 589.721 561.442C583.8 561.442 579 556.642 579 550.721C579 544.8 583.8 540 589.721 540C595.642 540 600.442 544.8 600.442 550.721Z" fill="#A62F5D"/>
</svg>
