<svg width="1114" height="820" viewBox="0 0 1114 820" fill="none" xmlns="http://www.w3.org/2000/svg">
<path d="M923.174 5.93195C924.123 4.75798 925.981 5.01912 926.57 6.40931L942.091 43.0386C942.698 44.47 941.511 46.0158 939.971 45.7994L899.434 40.1023C897.895 39.886 897.18 38.0729 898.158 36.8641L923.174 5.93195Z" fill="#148F47"/>
<path fill-rule="evenodd" clip-rule="evenodd" d="M42.4342 572.65C57.0205 427.693 839.638 147.911 984.928 285.211C1130.22 422.511 1093.44 711.307 788.968 777.291C484.494 843.276 27.8479 717.607 42.4342 572.65Z" fill="#CCDCD7"/>
<g clip-path="url(#clip0_301_1102)">
<rect x="350.971" y="59.7913" width="335" height="346" rx="8" fill="#BFC6D6"/>
<rect x="599.971" y="102.791" width="70" height="81" rx="8" fill="white"/>
<path fill-rule="evenodd" clip-rule="evenodd" d="M634.971 149.791C643.808 149.791 650.971 142.628 650.971 133.791C650.971 124.955 643.808 117.791 634.971 117.791C626.135 117.791 618.971 124.955 618.971 133.791C618.971 142.628 626.135 149.791 634.971 149.791Z" fill="#BFC6D6"/>
<rect x="609.971" y="153.791" width="50" height="6" rx="3" fill="#BFC6D6"/>
<rect x="617.971" y="163.791" width="34" height="6" rx="3" fill="#BFC6D6"/>
<path d="M350.971 67.7913C350.971 63.373 354.553 59.7913 358.971 59.7913H677.971C682.389 59.7913 685.971 63.373 685.971 67.7913V86.7913H350.971V67.7913Z" fill="#6270B9"/>
<path fill-rule="evenodd" clip-rule="evenodd" d="M363.971 77.7913C366.18 77.7913 367.971 76.0004 367.971 73.7913C367.971 71.5821 366.18 69.7913 363.971 69.7913C361.762 69.7913 359.971 71.5821 359.971 73.7913C359.971 76.0004 361.762 77.7913 363.971 77.7913Z" fill="#BFC6D6"/>
<path fill-rule="evenodd" clip-rule="evenodd" d="M375.971 77.7913C378.18 77.7913 379.971 76.0004 379.971 73.7913C379.971 71.5821 378.18 69.7913 375.971 69.7913C373.762 69.7913 371.971 71.5821 371.971 73.7913C371.971 76.0004 373.762 77.7913 375.971 77.7913Z" fill="#BFC6D6"/>
<path fill-rule="evenodd" clip-rule="evenodd" d="M387.971 77.7913C390.18 77.7913 391.971 76.0004 391.971 73.7913C391.971 71.5821 390.18 69.7913 387.971 69.7913C385.762 69.7913 383.971 71.5821 383.971 73.7913C383.971 76.0004 385.762 77.7913 387.971 77.7913Z" fill="#BFC6D6"/>
<g clip-path="url(#clip1_301_1102)">
<rect x="599.971" y="191.791" width="70" height="194" rx="8" fill="white"/>
<g clip-path="url(#clip2_301_1102)">
<rect x="617.971" y="209.791" width="34" height="26" rx="4" fill="#8BAFCE"/>
<path d="M617.971 247.791C617.971 245.582 619.762 243.791 621.971 243.791H647.971C650.18 243.791 651.971 245.582 651.971 247.791V264.791C651.971 267 650.18 268.791 647.971 268.791H621.971C619.762 268.791 617.971 267 617.971 264.791V247.791Z" fill="#5989B1"/>
<rect x="617.971" y="276.791" width="34" height="25" rx="4" fill="#BFC6D6"/>
<rect x="617.971" y="342.791" width="34" height="25" rx="4" fill="#BFC6D6"/>
<rect x="617.971" y="309.791" width="34" height="25" rx="4" fill="#BFC6D6"/>
</g>
</g>
<g clip-path="url(#clip3_301_1102)">
<g clip-path="url(#clip4_301_1102)">
<rect x="366.971" y="103.791" width="225" height="47" rx="4" fill="white"/>
<g clip-path="url(#clip5_301_1102)">
<rect x="375.971" y="117.891" width="167" height="7.05" rx="3" fill="#BFC6D6"/>
<rect x="375.971" y="129.641" width="112.096" height="7.05" rx="3" fill="#BFC6D6"/>
</g>
<path fill-rule="evenodd" clip-rule="evenodd" d="M567.925 134.291C571.791 134.291 574.925 131.157 574.925 127.291C574.925 123.425 571.791 120.291 567.925 120.291C564.059 120.291 560.925 123.425 560.925 127.291C560.925 131.157 564.059 134.291 567.925 134.291Z" fill="#BFC6D6"/>
<path fill-rule="evenodd" clip-rule="evenodd" d="M567.925 130.291C569.582 130.291 570.925 128.948 570.925 127.291C570.925 125.634 569.582 124.291 567.925 124.291C566.268 124.291 564.925 125.634 564.925 127.291C564.925 128.948 566.268 130.291 567.925 130.291Z" fill="#BFC6D6"/>
</g>
<g clip-path="url(#clip6_301_1102)">
<rect x="366.971" y="158.791" width="225" height="39" rx="4" fill="white"/>
<g clip-path="url(#clip7_301_1102)">
<rect x="375.971" y="170.491" width="167" height="5.85" rx="2.925" fill="#BFC6D6"/>
<rect x="375.971" y="180.241" width="112.096" height="5.85" rx="2.925" fill="#BFC6D6"/>
</g>
<path fill-rule="evenodd" clip-rule="evenodd" d="M567.925 185.291C571.791 185.291 574.925 182.157 574.925 178.291C574.925 174.425 571.791 171.291 567.925 171.291C564.059 171.291 560.925 174.425 560.925 178.291C560.925 182.157 564.059 185.291 567.925 185.291Z" fill="#BFC6D6"/>
<path fill-rule="evenodd" clip-rule="evenodd" d="M567.925 181.291C569.582 181.291 570.925 179.948 570.925 178.291C570.925 176.634 569.582 175.291 567.925 175.291C566.268 175.291 564.925 176.634 564.925 178.291C564.925 179.948 566.268 181.291 567.925 181.291Z" fill="#BFC6D6"/>
</g>
<g clip-path="url(#clip8_301_1102)">
<rect x="366.971" y="205.791" width="225" height="39" rx="4" fill="white"/>
<g clip-path="url(#clip9_301_1102)">
<rect x="375.971" y="217.491" width="167" height="5.85" rx="2.925" fill="#BFC6D6"/>
<rect x="375.971" y="227.241" width="112.096" height="5.85" rx="2.925" fill="#BFC6D6"/>
</g>
<path fill-rule="evenodd" clip-rule="evenodd" d="M567.925 232.291C571.791 232.291 574.925 229.157 574.925 225.291C574.925 221.425 571.791 218.291 567.925 218.291C564.059 218.291 560.925 221.425 560.925 225.291C560.925 229.157 564.059 232.291 567.925 232.291Z" fill="#5989B1"/>
<path fill-rule="evenodd" clip-rule="evenodd" d="M567.925 228.291C569.582 228.291 570.925 226.948 570.925 225.291C570.925 223.634 569.582 222.291 567.925 222.291C566.268 222.291 564.925 223.634 564.925 225.291C564.925 226.948 566.268 228.291 567.925 228.291Z" fill="white"/>
</g>
<g clip-path="url(#clip10_301_1102)">
<rect x="366.971" y="346.791" width="225" height="39" rx="4" fill="white"/>
<g clip-path="url(#clip11_301_1102)">
<rect x="375.971" y="358.491" width="167" height="5.85" rx="2.925" fill="#BFC6D6"/>
<rect x="375.971" y="368.241" width="112.096" height="5.85" rx="2.925" fill="#BFC6D6"/>
</g>
<path fill-rule="evenodd" clip-rule="evenodd" d="M567.925 373.291C571.791 373.291 574.925 370.157 574.925 366.291C574.925 362.425 571.791 359.291 567.925 359.291C564.059 359.291 560.925 362.425 560.925 366.291C560.925 370.157 564.059 373.291 567.925 373.291Z" fill="#BFC6D6"/>
<path fill-rule="evenodd" clip-rule="evenodd" d="M567.925 369.291C569.582 369.291 570.925 367.948 570.925 366.291C570.925 364.634 569.582 363.291 567.925 363.291C566.268 363.291 564.925 364.634 564.925 366.291C564.925 367.948 566.268 369.291 567.925 369.291Z" fill="#BFC6D6"/>
</g>
<g clip-path="url(#clip12_301_1102)">
<rect x="366.971" y="299.791" width="225" height="39" rx="4" fill="white"/>
<g clip-path="url(#clip13_301_1102)">
<rect x="375.971" y="311.491" width="167" height="5.85" rx="2.925" fill="#BFC6D6"/>
<rect x="375.971" y="321.241" width="112.096" height="5.85" rx="2.925" fill="#BFC6D6"/>
</g>
<path fill-rule="evenodd" clip-rule="evenodd" d="M567.925 326.291C571.791 326.291 574.925 323.157 574.925 319.291C574.925 315.425 571.791 312.291 567.925 312.291C564.059 312.291 560.925 315.425 560.925 319.291C560.925 323.157 564.059 326.291 567.925 326.291Z" fill="#BFC6D6"/>
<path fill-rule="evenodd" clip-rule="evenodd" d="M567.925 322.291C569.582 322.291 570.925 320.948 570.925 319.291C570.925 317.634 569.582 316.291 567.925 316.291C566.268 316.291 564.925 317.634 564.925 319.291C564.925 320.948 566.268 322.291 567.925 322.291Z" fill="#BFC6D6"/>
</g>
<g clip-path="url(#clip14_301_1102)">
<rect x="366.971" y="252.791" width="225" height="39" rx="4" fill="white"/>
<g clip-path="url(#clip15_301_1102)">
<rect x="375.971" y="264.491" width="167" height="5.85" rx="2.925" fill="#BFC6D6"/>
<rect x="375.971" y="274.241" width="112.096" height="5.85" rx="2.925" fill="#BFC6D6"/>
</g>
<path fill-rule="evenodd" clip-rule="evenodd" d="M567.925 279.291C571.791 279.291 574.925 276.157 574.925 272.291C574.925 268.425 571.791 265.291 567.925 265.291C564.059 265.291 560.925 268.425 560.925 272.291C560.925 276.157 564.059 279.291 567.925 279.291Z" fill="#BFC6D6"/>
<path fill-rule="evenodd" clip-rule="evenodd" d="M567.925 275.291C569.582 275.291 570.925 273.948 570.925 272.291C570.925 270.634 569.582 269.291 567.925 269.291C566.268 269.291 564.925 270.634 564.925 272.291C564.925 273.948 566.268 275.291 567.925 275.291Z" fill="#BFC6D6"/>
</g>
</g>
</g>
<path fill-rule="evenodd" clip-rule="evenodd" d="M621.223 373.752C613.997 378.107 606.897 380.211 603.565 379.352C595.208 377.198 594.439 346.627 600.905 334.574C607.372 322.522 640.613 317.269 642.288 341.148C642.87 349.436 639.39 356.832 634.248 362.868L643.467 405.839H616.687L621.223 373.752Z" fill="#B28B67"/>
<path fill-rule="evenodd" clip-rule="evenodd" d="M597.718 323.267C597.718 329.226 602.39 334.095 608.272 334.409C611.636 335.447 615.959 336.209 620.753 336.531C620.287 338.281 620.035 340.269 620.035 342.517C620.035 344.501 620.254 346.605 620.657 348.742C621.697 347.506 623.087 346.699 624.498 346.699C628.445 346.699 631.193 349.946 631.193 353.394C631.193 357.77 628.667 360.936 624.979 361.189C628.3 367.563 632.893 372.363 637.481 372.363C646.197 372.363 652.394 360.711 652.394 348.183C652.394 347.743 652.385 347.305 652.368 346.871C655.318 348.896 658.052 351.55 660.806 354.223C666.657 359.902 672.597 365.668 680.892 365.668C697.488 365.668 704.079 332.193 680.892 332.193C665.122 332.193 657.365 334.492 650.681 337.892C649.362 334.175 647.352 331.05 644.893 328.868C644.302 328.202 643.395 327.565 642.225 326.975C641.51 326.583 640.77 326.265 640.01 326.025C635.978 324.543 630.139 323.498 623.616 323.271C622.398 323.228 621.201 323.216 620.035 323.231C620.016 317.085 615.027 312.108 608.876 312.108C602.714 312.108 597.718 317.104 597.718 323.267Z" fill="#020E2C"/>
<path fill-rule="evenodd" clip-rule="evenodd" d="M661.893 495.791L621.018 636.64L601.793 742.392H582.497L601.759 495.791H661.893Z" fill="#B28B67"/>
<path fill-rule="evenodd" clip-rule="evenodd" d="M680.262 495.791C677.41 568.962 678.535 608.871 679.173 615.518C679.811 622.166 683.435 666.689 708.129 744.623H688.059C655.356 669.859 643.94 625.336 640.189 615.518C636.438 605.701 625.361 565.792 609.188 495.791H680.262Z" fill="#B28B67"/>
<path fill-rule="evenodd" clip-rule="evenodd" d="M662.77 495.791C652.138 544.258 633.749 621.623 607.604 727.886H579.381C577.296 618.817 586.164 547.031 601.521 495.791H662.77Z" fill="#81ACD1"/>
<path fill-rule="evenodd" clip-rule="evenodd" d="M662.77 495.791C652.138 544.258 633.749 621.623 607.604 727.886H579.381C577.296 618.817 586.164 547.031 601.521 495.791H662.77Z" fill="black" fill-opacity="0.2"/>
<path fill-rule="evenodd" clip-rule="evenodd" d="M680.405 495.791C677.611 568.962 684.85 641.048 707.273 729.025H677.161C644.398 655.376 620.916 583.645 604.867 495.791H680.405Z" fill="#8FBFE8"/>
<path fill-rule="evenodd" clip-rule="evenodd" d="M710.99 759.129L709.96 742.525C709.92 741.885 709.297 741.447 708.671 741.585C698.989 743.715 685.52 739.044 685.52 739.044C671.914 748.682 652.219 753.034 645.658 754.275C644.476 754.499 643.729 755.688 644.057 756.846L645.654 762.477H685.52H708.775L710.99 759.129Z" fill="#020E2C"/>
<path fill-rule="evenodd" clip-rule="evenodd" d="M606.101 759.129L605.071 742.525C605.031 741.885 604.408 741.447 603.782 741.585C594.1 743.715 580.631 739.044 580.631 739.044C567.025 748.682 547.33 753.034 540.769 754.275C539.587 754.499 538.84 755.688 539.168 756.846L540.765 762.477H580.631H603.886L606.101 759.129Z" fill="#020E2C"/>
<path fill-rule="evenodd" clip-rule="evenodd" d="M554.878 420.225L593.609 441.438L579.306 456.789L551.164 431.021C536.339 426.936 529.559 423.947 530.825 422.055C531.892 420.459 533.613 420.515 535.198 420.566C536.434 420.606 537.586 420.643 538.283 419.895C539.875 418.187 536.838 412.214 533.714 406.67C530.59 401.125 533.931 401.608 535.841 402.405C542.092 406.637 548.438 412.577 554.878 420.225ZM515.937 449.99L532.95 459.335L531.981 476.408C531.981 476.408 520.962 468.455 511.483 465.812C499.396 462.442 494.506 459.869 488.599 452.343C485.439 448.316 482.757 440.221 485.765 437.585C486.919 436.574 491.218 438.963 495.605 441.401C498.948 443.258 502.342 445.144 504.433 445.575C507.248 446.154 506.918 442.506 506.655 439.59C506.466 437.498 506.311 435.783 507.376 436.279C512.356 436.365 515.937 449.99 515.937 449.99Z" fill="#B28B67"/>
<path fill-rule="evenodd" clip-rule="evenodd" d="M612.471 436.712C598.905 436.569 580.815 433.704 561.513 421.452L553.932 438.356C567.246 451.57 585.968 462.426 602.337 461.966C615.237 461.604 621.83 446 612.471 436.712Z" fill="#6CA1CF"/>
<path fill-rule="evenodd" clip-rule="evenodd" d="M612.471 436.712C598.905 436.569 580.815 433.704 561.513 421.452L553.932 438.356C567.246 451.57 585.968 462.426 602.337 461.966C615.237 461.604 621.83 446 612.471 436.712Z" fill="black" fill-opacity="0.2"/>
<path fill-rule="evenodd" clip-rule="evenodd" d="M649.059 552.529C661.956 550.847 673.806 549.302 680.829 550.685C688.708 525.095 682.165 508.984 676.125 494.11C672.485 485.146 669.028 476.632 669.02 466.763C668.999 438.026 645.924 393.791 642.529 393.791H641.554H614.648H611.568C610.183 411.575 604.276 430.829 598.33 450.208C596.941 454.733 595.551 459.265 594.215 463.787C571.714 468.895 521.751 451.116 521.751 451.116C521.751 451.116 509.138 477.21 510.09 488.322C539.171 503.513 564.097 510.286 584.632 510.733C583.979 522.918 585.462 534.512 590.445 545.106C597.12 559.301 624.922 555.676 649.059 552.529Z" fill="#6CA1CF"/>
<path fill-rule="evenodd" clip-rule="evenodd" d="M457.969 558.934L474.981 549.588C474.981 549.588 478.562 535.963 483.542 535.878C486.092 534.691 481.651 546.169 486.486 545.173C491.32 544.178 503.12 535.402 505.154 537.184C508.162 539.82 505.479 547.915 502.319 551.941C496.413 559.467 491.523 562.041 479.436 565.411C469.956 568.054 458.938 576.007 458.938 576.007L457.969 558.934Z" fill="#B28B67"/>
<path fill-rule="evenodd" clip-rule="evenodd" d="M845.004 465.408C836.791 467.62 829.325 467.687 826.334 465.928C818.834 461.518 826.585 431.676 836.201 421.792C845.817 411.909 879.492 416.055 874.48 439.664C872.741 447.858 867.312 454.059 860.652 458.479L857.646 502.686L831.691 495.244L845.004 465.408Z" fill="#997659"/>
<path fill-rule="evenodd" clip-rule="evenodd" d="M844.182 410.2C838.513 409.29 833.846 408.542 832.233 406.719C828.293 415.144 830.795 423.565 847.162 426.769C850.119 429.749 851.567 434.159 853.195 439.867C854.013 439.789 854.859 439.859 855.696 440.099C859.28 441.127 861.352 444.865 860.324 448.449C859.803 450.268 858.582 451.697 857.038 452.53C857.932 455.079 858.98 457.776 860.253 460.613C868.686 458.359 877.645 447.312 874.258 433.197C874.997 415.144 857.021 412.26 844.182 410.2Z" fill="#020E2C"/>
<path fill-rule="evenodd" clip-rule="evenodd" d="M930.279 642.791C939.115 642.791 946.279 649.955 946.279 658.791V766.356C946.279 775.193 939.115 782.356 930.279 782.356H797.149C788.312 782.356 781.149 775.193 781.149 766.356V658.791C781.149 649.955 788.312 642.791 797.149 642.791H930.279ZM910.825 674.306C913.035 674.306 914.825 676.097 914.825 678.306V746.841C914.825 749.051 913.035 750.841 910.825 750.841H816.602C814.393 750.841 812.602 749.051 812.602 746.841V678.306C812.602 676.097 814.393 674.306 816.602 674.306H910.825Z" fill="#5989B1"/>
<path fill-rule="evenodd" clip-rule="evenodd" d="M693.913 770C716.061 742.903 731.046 722.813 738.87 709.733C752.266 687.336 763.23 667.407 766.69 659.794C774.94 641.64 747.695 633.14 741.529 641.607C732.196 654.423 712.265 694.751 681.735 762.592L693.913 770Z" fill="#997659"/>
<path fill-rule="evenodd" clip-rule="evenodd" d="M739.297 762.122L780.515 658.165C789.331 639.214 746.758 626.758 740.279 635.577C725.57 655.599 690.61 734.585 686.228 740.55L739.297 762.122Z" fill="#8C2A09"/>
<path fill-rule="evenodd" clip-rule="evenodd" d="M739.297 762.122L780.515 658.165C789.331 639.214 746.758 626.758 740.279 635.577C725.57 655.599 690.61 734.585 686.228 740.55L739.297 762.122Z" fill="black" fill-opacity="0.2"/>
<path fill-rule="evenodd" clip-rule="evenodd" d="M849.074 741.274C841.045 729.539 811.841 690.06 795.934 673.725C791.363 669.03 786.903 664.525 782.684 660.327C770.146 647.847 745.177 668.822 757.692 680.189C788.861 708.496 834.338 746.71 838.138 750.117C843.463 754.893 854.12 748.649 849.074 741.274Z" fill="#997659"/>
<path fill-rule="evenodd" clip-rule="evenodd" d="M844.03 736.226C844.718 735.276 846.059 735.052 846.957 735.803C848.795 737.341 851.605 739.845 852.594 741.563C854.114 744.199 856.152 749.765 856.152 749.765C853.099 751.531 801.282 781.506 801.282 781.506C801.282 781.506 795.061 775.658 799.343 772.428C803.626 769.197 806.412 766.979 806.412 766.979L825.425 740.732C825.756 740.275 826.398 740.182 826.844 740.526L830.88 743.64C830.88 743.64 836.295 743.166 838.962 741.624C840.653 740.646 842.734 738.018 844.03 736.226Z" fill="#F4F4F4"/>
<path fill-rule="evenodd" clip-rule="evenodd" d="M700.57 764.585C701.64 764.106 702.914 764.584 703.317 765.685C704.142 767.937 705.325 771.513 705.325 773.496C705.325 776.541 704.313 782.381 704.313 782.381C700.788 782.381 640.955 782.381 640.955 782.381C640.955 782.381 638.485 774.201 643.806 773.548C649.127 772.896 652.646 772.371 652.646 772.371L682.21 759.166C682.724 758.936 683.328 759.177 683.542 759.698L685.484 764.417C685.484 764.417 690.409 766.719 693.489 766.719C695.441 766.719 698.552 765.487 700.57 764.585Z" fill="#F4F4F4"/>
<path fill-rule="evenodd" clip-rule="evenodd" d="M789.783 658.017C789.783 658.017 841.17 649.629 858.622 646.546C891.787 640.687 901.458 622.805 895.74 583.791L834.635 583.791C822.506 587.301 733.273 627.202 733.273 627.202C722.57 632.526 724.563 648.222 726.52 653.393C726.639 653.71 780.65 746.329 780.65 746.329L830.636 714.423L789.689 661.777C789.689 661.777 788.067 658.503 789.783 658.017Z" fill="#8C2A09"/>
<path fill-rule="evenodd" clip-rule="evenodd" d="M961.059 633.452C956.863 627.299 932.593 561.864 932.593 561.864L912.667 564.752C912.667 564.752 944.75 634.237 947.067 638.247C950.077 643.457 947.415 652.013 945.609 657.815C945.33 658.712 945.071 659.544 944.857 660.287C948.65 661.38 950.092 659.213 951.613 656.929C953.331 654.349 955.149 651.619 960.565 653.266C962.658 653.903 964.668 654.721 966.632 655.519C973.416 658.279 979.649 660.814 986.808 654.886C987.942 653.947 988.898 650.874 985.291 649.083C976.304 644.623 963.11 636.461 961.059 633.452ZM744.855 603.039L778.815 574.3L788.096 593.275L753.675 610.423C744.472 622.879 739.21 628.171 737.886 626.299C736.77 624.721 737.444 623.124 738.065 621.653C738.549 620.507 739 619.437 738.548 618.512C737.515 616.401 730.796 617.1 724.449 618.035C718.102 618.971 719.763 616.006 721.204 614.499C727.445 610.152 735.329 606.332 744.855 603.039Z" fill="#997659"/>
<path fill-rule="evenodd" clip-rule="evenodd" d="M849.312 480.779L836.965 476.703C820.217 518.468 795.238 558.877 753.505 593.009L763.825 610.782C800.503 589.215 835.223 572.461 849.312 540.099C854.041 529.237 849.698 493.766 849.312 480.779Z" fill="#F4F4F4"/>
<path fill-rule="evenodd" clip-rule="evenodd" d="M849.312 480.779L836.965 476.703C820.217 518.468 795.238 558.877 753.505 593.009L763.825 610.782C800.503 589.215 835.223 572.461 849.312 540.099C854.041 529.237 849.698 493.766 849.312 480.779Z" fill="black" fill-opacity="0.05"/>
<path fill-rule="evenodd" clip-rule="evenodd" d="M891.719 598.321C891.719 598.321 838.667 603.936 808.203 598.321C805.687 597.857 805.29 593.652 806.457 590.798C824.628 546.353 837.088 507.573 837.088 476.703C842.09 479.22 854.594 477.458 854.594 477.458C876.997 509.27 887.295 545.771 891.719 598.321Z" fill="#702207"/>
<path fill-rule="evenodd" clip-rule="evenodd" d="M861.014 474.791C860.436 474.402 860.13 474.209 860.13 474.209L860.163 474.791L850.827 474.791C850.358 477.545 849.671 487.754 848.669 502.639C845.027 556.731 837.229 672.581 820.629 716.916L935.16 716.916C932.744 666.511 914.127 606.234 894.842 555.052C909.073 569.185 925.692 592.877 939.124 632.317L960.577 626.82C938.715 532.781 874.662 484.282 862.233 475.627C862.112 475.347 861.991 475.068 861.871 474.791L861.014 474.791Z" fill="#F4F4F4"/>
<path fill-rule="evenodd" clip-rule="evenodd" d="M382.617 482.418C389.115 484.778 394.912 485.476 397.665 484.366C405.723 481.117 402.469 450.481 394.431 439.292C386.392 428.104 352.523 427.225 353.991 451.296C354.595 461.202 360.734 469.106 368.311 474.751L360.029 513.376H386.989L382.617 482.418Z" fill="#B28B67"/>
<path fill-rule="evenodd" clip-rule="evenodd" d="M372.126 429.078C368.339 429.782 363.42 431.913 361.543 433.181C361.262 429.868 360.134 426.602 358.23 423.841C356.379 421.158 353.827 419.382 351.31 417.439C350.15 416.544 348.92 415.692 347.528 415.27C346.109 414.84 344.603 414.853 343.205 415.213C341.774 415.581 340.452 416.301 339.313 417.235C338.809 417.649 338.436 418.172 337.957 418.604C337.465 419.048 337.004 418.835 336.406 418.692C334.964 418.348 333.285 418.681 331.949 419.183C330.449 419.747 329.097 420.722 327.993 421.886C326.919 423.019 326.043 424.408 325.652 425.969C325.478 426.664 325.378 427.405 325.44 428.132C325.466 428.43 325.525 428.584 325.327 428.802C325.144 429.003 324.88 429.143 324.688 429.344C322.829 431.284 321.807 434.035 321.923 436.823C321.99 438.45 322.898 440.903 324.321 443.442C325.744 445.981 331.577 451.502 335.034 452.824C338.118 454.005 341.729 453.964 344.816 453.162C344.075 456.208 344.219 459.458 344.703 462.588C345.229 465.987 346.186 469.305 347.555 472.481C348.856 475.499 350.437 478.583 352.599 481.073C354.621 483.402 357.119 484.876 360.114 485.076C361.486 485.168 362.855 485.061 364.209 484.91C365.544 484.76 366.876 484.598 368.165 484.232C370.605 483.541 373.102 482.142 373.885 479.504C374.168 478.553 374.426 477.408 374.47 476.404C374.486 476.042 374.488 475.81 374.152 475.64C373.749 475.436 373.242 475.384 372.809 475.285C370.344 474.725 368.277 473.339 366.811 471.176C365.325 468.981 364.382 465.64 366.121 463.44C368.267 460.724 372.104 460.562 375.294 460.612C374.407 456.324 374.828 451.829 377.341 448.342C380.122 444.484 384.331 442.011 387.356 438.368C388.145 437.419 388.922 436.402 389.215 435.152C389.265 434.941 389.202 434.546 389.11 434.15C388.928 433.371 388.443 432.707 387.824 432.202V432.202C387.525 431.958 387.199 431.751 386.849 431.592C381.204 429.037 375.799 428.396 372.126 429.078Z" fill="#020E2C"/>
<path fill-rule="evenodd" clip-rule="evenodd" d="M369.279 809.175C417.05 809.175 455.776 772.184 455.776 726.552C455.776 680.921 417.05 643.929 369.279 643.929C321.508 643.929 282.782 680.921 282.782 726.552C282.782 772.184 321.508 809.175 369.279 809.175Z" fill="#EDBB80"/>
<path fill-rule="evenodd" clip-rule="evenodd" d="M483.986 714.694C488.164 729.339 498.573 757.097 512.966 788.975L526.643 784.982C514.678 711.628 504.72 663.064 499.015 648.283C495.247 638.517 466.734 639.661 470.014 659.311C470.482 662.111 471.419 666.508 472.733 672.077C466.131 671.087 459.236 673.137 456.608 679.849C454.51 685.208 452.318 690.935 450.101 696.876C442.385 717.547 431.917 764.207 429.383 777.844C427.79 786.414 439.656 788.338 442.509 782.054C442.992 780.99 444.79 777.286 447.474 771.759C454.805 756.658 468.744 727.949 480.517 702.291C481.617 706.304 482.777 710.456 483.986 714.694Z" fill="#B28B67"/>
<path fill-rule="evenodd" clip-rule="evenodd" d="M428.517 587.283L461.745 617.023C471.217 620.644 479.022 624.724 485.159 629.264C486.56 630.81 488.135 633.809 481.783 632.643C475.431 631.477 468.698 630.532 467.592 632.584C466.486 634.636 470.095 637.615 468.009 640.32C466.618 642.123 461.496 636.684 452.641 624.003L418.579 605.724L428.517 587.283Z" fill="#B28B67"/>
<path fill-rule="evenodd" clip-rule="evenodd" d="M369.627 504.791L386.968 504.791C403.717 546.556 423.701 579.005 465.434 613.137L455.114 630.91C418.436 609.343 383.716 592.589 369.627 560.226C364.898 549.365 369.241 517.779 369.627 504.791Z" fill="#F4F4F4"/>
<path fill-rule="evenodd" clip-rule="evenodd" d="M369.627 504.791L386.968 504.791C403.717 546.556 423.701 579.005 465.434 613.137L455.114 630.91C418.436 609.343 383.716 592.589 369.627 560.226C364.898 549.365 369.241 517.779 369.627 504.791Z" fill="black" fill-opacity="0.05"/>
<path fill-rule="evenodd" clip-rule="evenodd" d="M499.89 640.005C497.61 632.558 393.953 606.126 393.953 606.126H385.458V614.048L456.888 650.435C456.793 651.609 456.851 652.85 457.081 654.159C456.565 681.134 468.102 701.286 479.525 721.238C486.994 734.286 494.415 747.248 498.384 761.976L524.627 758.058C523.863 756.102 522.654 747.28 521.001 735.219C516.834 704.807 509.844 653.799 500.038 640.303C500.004 640.256 499.969 640.209 499.934 640.163C499.921 640.11 499.907 640.057 499.89 640.005Z" fill="#0E9C99"/>
<path fill-rule="evenodd" clip-rule="evenodd" d="M499.89 640.005C497.61 632.558 393.953 606.126 393.953 606.126H385.458V614.048L456.888 650.435C456.793 651.609 456.851 652.85 457.081 654.159C456.565 681.134 468.102 701.286 479.525 721.238C486.994 734.286 494.415 747.248 498.384 761.976L524.627 758.058C523.863 756.102 522.654 747.28 521.001 735.219C516.834 704.807 509.844 653.799 500.038 640.303C500.004 640.256 499.969 640.209 499.934 640.163C499.921 640.11 499.907 640.057 499.89 640.005Z" fill="black" fill-opacity="0.2"/>
<path fill-rule="evenodd" clip-rule="evenodd" d="M429.72 773.412C429.016 772.477 427.672 772.277 426.787 773.042C424.975 774.609 422.21 777.157 421.251 778.889C419.778 781.547 417.839 787.139 417.839 787.139C420.923 788.849 473.276 817.888 473.276 817.888C473.276 817.888 479.394 811.944 475.054 808.792C470.714 805.64 467.888 803.473 467.888 803.473L448.407 777.593C448.068 777.143 447.425 777.061 446.985 777.413L443.004 780.591C443.004 780.591 437.58 780.211 434.885 778.716C433.177 777.768 431.048 775.18 429.72 773.412Z" fill="#BFC6D6"/>
<path fill-rule="evenodd" clip-rule="evenodd" d="M509.283 781.7C508.214 781.222 506.94 781.7 506.537 782.8C505.712 785.049 504.529 788.621 504.529 790.601C504.529 793.642 505.542 799.475 505.542 799.475C509.067 799.475 568.9 799.475 568.9 799.475C568.9 799.475 571.369 791.305 566.048 790.653C560.727 790.002 557.208 789.477 557.208 789.477L527.644 776.288C527.13 776.058 526.527 776.299 526.312 776.82L524.371 781.533C524.371 781.533 519.445 783.833 516.365 783.833C514.413 783.833 511.301 782.602 509.283 781.7Z" fill="#BFC6D6"/>
<path fill-rule="evenodd" clip-rule="evenodd" d="M449.388 683.408C435.549 681.036 419.836 677.831 405.299 674.866C393.424 672.443 382.333 670.181 373.689 668.664C340.423 662.825 330.722 645.005 336.458 606.126H397.749C407.762 609.004 459.794 630.84 486.79 642.454C495.9 646.373 498.901 655.496 498.314 664.454C498.451 664.658 498.505 664.873 498.467 665.097C491.707 705.126 473.87 730.965 462.417 747.557C457.62 754.506 453.943 759.834 452.668 763.902L432.056 757.485L449.388 683.408Z" fill="#0E9C99"/>
<path d="M858.969 527.668H862.375C864.355 527.668 866.08 526.451 866.563 524.715L870.103 511.965C870.17 511.724 870.555 511.737 870.6 511.983L874.803 534.791C874.803 534.791 874.556 528.611 876.158 527.439C876.899 526.896 879.969 527.592 879.969 527.592" stroke="#8FBFE8" stroke-width="3" stroke-miterlimit="10" stroke-linecap="round" stroke-linejoin="round"/>
<path fill-rule="evenodd" clip-rule="evenodd" d="M333.47 624.213C333.47 624.213 386.915 629.966 417.605 624.213C420.139 623.738 420.028 613.031 418.853 610.107C400.547 564.571 388.505 531.237 388.505 499.609C383.467 502.188 370.87 500.382 370.87 500.382C348.301 532.976 337.927 570.373 333.47 624.213Z" fill="#0E9C99"/>
<path fill-rule="evenodd" clip-rule="evenodd" d="M333.47 624.213C333.47 624.213 386.915 629.966 417.605 624.213C420.139 623.738 420.028 613.031 418.853 610.107C400.547 564.571 388.505 531.237 388.505 499.609C383.467 502.188 370.87 500.382 370.87 500.382C348.301 532.976 337.927 570.373 333.47 624.213Z" fill="black" fill-opacity="0.1"/>
<path fill-rule="evenodd" clip-rule="evenodd" d="M308.97 728.609C337.591 717.407 351.782 721.233 366.057 725.082C375.098 727.519 384.174 729.966 396.97 728.609C408.182 672.131 394.842 616.997 383.83 571.488C376.966 543.119 371.007 518.491 372.465 499.609H361.339C358.76 505.66 354.412 512.968 349.621 521.023L349.621 521.023C342.801 532.488 335.081 545.464 330.286 558.473C326.498 568.75 327.608 579.171 328.734 589.746C329.607 597.947 330.491 606.242 329.107 614.636C328.785 616.591 328.47 618.538 328.161 620.478C325.93 620.38 323.909 621.949 323.503 624.203L322.736 628.469C322.31 630.836 323.821 633.09 326.138 633.617C325.22 639.759 324.346 645.814 323.487 651.769C319.402 680.079 315.641 706.139 308.97 728.609ZM466.024 567.62C464.026 565.651 470.953 558.385 472.95 560.354C478.607 565.929 481.371 573.936 481.412 584.064C481.423 586.875 479.19 589.135 476.425 589.112C473.659 589.089 471.408 586.791 471.397 583.98C471.366 576.415 469.519 571.065 466.024 567.62Z" fill="#F4F4F4"/>
<path fill-rule="evenodd" clip-rule="evenodd" d="M456.281 619.248C455.203 621.838 448.927 611.927 450.004 609.337C453.055 602.004 450.886 610.193 460.261 606.362C462.863 605.298 465.795 606.522 466.809 609.095C467.824 611.668 466.537 614.615 463.935 615.679C456.932 618.541 458.165 614.717 456.281 619.248Z" fill="#E8E8E8"/>
<path fill-rule="evenodd" clip-rule="evenodd" d="M366.922 500.719L361.075 518.338L372.85 531.545L362.208 541.924L387.953 585.116L356.47 542.011L366.922 531.545L356.47 519.873L366.922 500.719Z" fill="black" fill-opacity="0.2"/>
<path fill-rule="evenodd" clip-rule="evenodd" d="M360.728 560.308C360.728 560.308 382.969 575.621 393.469 573.292C415.469 573.292 468.5 549.792 468.5 549.792C468.5 549.792 482.549 569.013 481.69 582.637C394.728 625.292 357.228 613.637 360.728 560.308Z" fill="#F4F4F4"/>
<path d="M648.469 472.291C651.469 469.792 636.572 488.052 622.569 494.541C608.567 501.029 597.47 497.793 597.47 497.793C597.47 497.793 608.469 495.291 621.469 489.791C634.469 484.291 646.902 473.597 648.469 472.291Z" fill="black" fill-opacity="0.2"/>
<path d="M394.794 609.94C398.562 610.964 375.06 609.235 361.713 601.486C348.367 593.737 344.653 582.791 344.653 582.791C344.653 582.791 353.011 590.366 364.973 597.86C376.934 605.354 392.826 609.405 394.794 609.94Z" fill="black" fill-opacity="0.2"/>
<path d="M1113.97 763.5C1113.97 773.993 1105.46 782.5 1094.97 782.5C1084.48 782.5 1075.97 773.993 1075.97 763.5C1075.97 753.007 1084.48 744.5 1094.97 744.5C1105.46 744.5 1113.97 753.007 1113.97 763.5Z" fill="#8E3030"/>
<rect x="9.56982" y="305.079" width="48" height="24" rx="12" transform="rotate(23.5 9.56982 305.079)" fill="#30638E"/>
<defs>
<clipPath id="clip0_301_1102">
<rect width="335" height="346" fill="white" transform="translate(350.971 59.7913)"/>
</clipPath>
<clipPath id="clip1_301_1102">
<rect width="70" height="194" fill="white" transform="translate(599.971 191.791)"/>
</clipPath>
<clipPath id="clip2_301_1102">
<rect width="34" height="158" fill="white" transform="translate(617.971 209.791)"/>
</clipPath>
<clipPath id="clip3_301_1102">
<rect width="225" height="282" fill="white" transform="translate(366.971 103.791)"/>
</clipPath>
<clipPath id="clip4_301_1102">
<rect width="225" height="47" fill="white" transform="translate(366.971 103.791)"/>
</clipPath>
<clipPath id="clip5_301_1102">
<rect width="167" height="18.8" fill="white" transform="translate(375.971 117.891)"/>
</clipPath>
<clipPath id="clip6_301_1102">
<rect width="225" height="39" fill="white" transform="translate(366.971 158.791)"/>
</clipPath>
<clipPath id="clip7_301_1102">
<rect width="167" height="15.6" fill="white" transform="translate(375.971 170.491)"/>
</clipPath>
<clipPath id="clip8_301_1102">
<rect width="225" height="39" fill="white" transform="translate(366.971 205.791)"/>
</clipPath>
<clipPath id="clip9_301_1102">
<rect width="167" height="15.6" fill="white" transform="translate(375.971 217.491)"/>
</clipPath>
<clipPath id="clip10_301_1102">
<rect width="225" height="39" fill="white" transform="translate(366.971 346.791)"/>
</clipPath>
<clipPath id="clip11_301_1102">
<rect width="167" height="15.6" fill="white" transform="translate(375.971 358.491)"/>
</clipPath>
<clipPath id="clip12_301_1102">
<rect width="225" height="39" fill="white" transform="translate(366.971 299.791)"/>
</clipPath>
<clipPath id="clip13_301_1102">
<rect width="167" height="15.6" fill="white" transform="translate(375.971 311.491)"/>
</clipPath>
<clipPath id="clip14_301_1102">
<rect width="225" height="39" fill="white" transform="translate(366.971 252.791)"/>
</clipPath>
<clipPath id="clip15_301_1102">
<rect width="167" height="15.6" fill="white" transform="translate(375.971 264.491)"/>
</clipPath>
</defs>
</svg>
