<svg width="1160" height="733" viewBox="0 0 1160 733" fill="none" xmlns="http://www.w3.org/2000/svg">
<path d="M1078.42 647.952C1183.9 670.537 885.918 710.5 615.921 710.5C345.924 710.5 -91.3291 684.196 32.6443 647.952C156.618 611.707 333.421 599.5 615.921 599.5C848.107 599.5 972.945 625.367 1078.42 647.952Z" fill="#D9D9D9"/>
<path d="M1147.39 711.496C1148.05 710.835 1149.12 710.835 1149.78 711.496L1158.67 720.387C1159.33 721.048 1159.33 722.12 1158.67 722.781L1149.78 731.672C1149.12 732.333 1148.05 732.333 1147.39 731.672L1138.5 722.781C1137.83 722.12 1137.83 721.048 1138.5 720.387L1147.39 711.496Z" fill="#02724F"/>
<path d="M10.721 234.442C16.642 234.442 21.442 229.642 21.442 223.721C21.442 217.8 16.642 213 10.721 213C4.79996 213 0 217.8 0 223.721C0 229.642 4.79996 234.442 10.721 234.442Z" fill="#89B1F2"/>
<path d="M793.388 24.9085L802.71 15.0852C805.284 12.3726 805.172 8.0868 802.459 5.51262C799.746 2.93845 795.461 3.05067 792.886 5.76329L783.564 15.5865C780.99 18.2992 781.103 22.585 783.815 25.1591C786.528 27.7333 790.814 27.6211 793.388 24.9085Z" fill="#F39B10"/>
<path fill-rule="evenodd" clip-rule="evenodd" d="M296.412 221.239C353.148 317.716 555.421 644.24 836.421 629.24C985.757 612.234 1145.11 344.98 958.913 293.739C931.139 286.098 197.412 91.2389 296.412 221.239Z" fill="#E5DED3"/>
<path fill-rule="evenodd" clip-rule="evenodd" d="M511.437 435.671C522.482 435.671 531.437 444.626 531.437 455.671V635.302C531.437 646.348 522.482 655.302 511.437 655.302H218.924C207.879 655.302 198.924 646.348 198.924 635.302V455.671C198.924 444.626 207.879 435.671 218.924 435.671H511.437ZM479.45 466.77C490.496 466.77 499.45 475.724 499.45 486.77V603.88C499.45 614.926 490.496 623.88 479.45 623.88H251.229C240.183 623.88 231.229 614.926 231.229 603.88V486.77C231.229 475.724 240.183 466.77 251.229 466.77H479.45Z" fill="#9DA0A7"/>
<path fill-rule="evenodd" clip-rule="evenodd" d="M680.836 239.547C673.836 245.017 666.68 248.123 663.084 247.656C654.067 246.483 649.349 214.7 654.569 201.301C659.789 187.903 693.886 178.155 698.696 202.842C700.365 211.41 697.672 219.57 693.067 226.524L708.212 270.151L680.201 273.591L680.836 239.547Z" fill="#D4A181"/>
<path fill-rule="evenodd" clip-rule="evenodd" d="M657.518 186.93C651.693 188.368 646.896 189.552 644.6 188.461C644.247 198.147 650.09 205.205 667.147 201.608C671.208 203.261 674.401 206.901 678.297 211.711C679.052 211.303 679.895 211.027 680.799 210.916C684.666 210.441 688.185 213.182 688.659 217.038C688.899 218.995 688.308 220.864 687.162 222.291C689.063 224.372 691.171 226.531 693.554 228.734C700.749 223.136 704.862 208.889 695.843 196.73C689.188 179.113 670.714 183.673 657.518 186.93Z" fill="#0F182E"/>
<path fill-rule="evenodd" clip-rule="evenodd" d="M995.144 261.958C999.346 255.992 1007.15 240.84 1013.06 238.709C1016.87 237.336 1015.76 251.539 1015.81 254.247C1015.99 264.725 1014.96 275.136 1013.7 285.526C1011.42 304.264 1003.97 320.951 993.743 336.899C988.483 345.105 982.312 353.411 973.766 358.531C969.833 360.889 965.1 361.284 961.215 363.316C956.69 365.681 959.154 363.769 957.115 368.463C954.284 374.98 953.378 383.388 952.068 390.342C946.053 422.264 931.489 591.013 934.014 623.484C934.238 626.362 930.208 627.05 930.006 623.537C928.937 604.907 938.191 475.896 942.861 433.706C947.53 391.515 952.255 354.242 956.992 339.646C962.74 321.937 973.12 300.641 981.761 284.127C985.775 276.455 990.15 269.047 995.144 261.958Z" fill="#C0D3CE"/>
<path fill-rule="evenodd" clip-rule="evenodd" d="M1026.33 468.882C1037.27 460.889 1049.11 475.974 1039.21 483.969C1033.74 488.387 1028.02 486.816 1024.8 483.133C1022.71 485.67 1020.76 488.322 1018.88 490.562C1013.15 497.388 1007.74 504.377 1002.56 511.529C991.819 526.387 982.61 542.084 972.981 557.494C963.479 572.703 954.053 587.99 945.44 603.584C938.144 616.796 928.419 632.339 925.921 646.823C929.711 616.105 944.093 586.578 961.219 559.497C978.206 532.639 997.7 503.306 1024 482.11C1021.32 478.191 1021.25 472.596 1026.33 468.882Z" fill="#C5CFCC"/>
<path fill-rule="evenodd" clip-rule="evenodd" d="M814.834 382.015C820.953 383.138 830.952 396.125 835.996 401.073C841.991 406.953 847.429 413.221 852.556 419.787C863.592 433.922 873.462 448.95 881.855 464.622C895.537 490.17 906.499 516.395 914.454 544.216C919.324 561.245 922.477 578.896 924.345 596.423C924.698 599.729 928.392 625.214 923.069 625.901C918.282 626.52 919.761 606.55 919.53 603.833C916.919 573.187 909.098 543.369 898.22 514.483C895.85 508.19 893.649 500.483 889.859 494.821C887.13 490.742 889.84 492.164 885.044 490.621C880.926 489.295 876.234 489.619 872.017 487.995C862.857 484.471 855.522 477.629 849.092 470.746C836.597 457.371 826.695 442.901 821.534 425.762C818.67 416.26 816.039 406.702 814.579 396.905C814.202 394.373 810.893 381.292 814.834 382.015Z" fill="#C0D3CE"/>
<path fill-rule="evenodd" clip-rule="evenodd" d="M842.982 164.656C866.032 204.456 884.974 248.175 897.204 292.455C904.615 319.284 909.797 346.815 914.946 374.147C922.918 416.467 930.459 458.783 932.604 501.855C934.762 545.176 939.029 595.142 924.782 636.867C931.899 594.505 925.123 549.413 923.923 506.788C923.35 486.439 921.689 466.29 919.509 446.06C917.394 426.436 913.939 406.906 910.722 387.436C909.155 377.954 907.509 368.486 905.833 359.023C905.332 356.2 905.121 347.823 903.322 345.894C901.512 343.953 892.275 343.161 889.375 341.737C883.536 338.868 878.043 334.793 873.182 330.487C863.863 322.232 855.756 311.447 849.357 300.815C834.552 276.214 828.633 246.192 828.932 217.701C828.989 212.17 837.924 152.603 834.336 151.783C834.552 151.531 834.756 151.271 834.949 151C837.666 155.529 840.332 160.088 842.982 164.656Z" fill="#C5CFCC"/>
<path fill-rule="evenodd" clip-rule="evenodd" d="M1091.77 308.197C1092.12 307.686 1094.44 304.134 1093.27 304.361C1095.64 303.899 1090.01 308.279 1095.92 305.592C1093.11 308.232 1094.73 311.661 1094.77 315.214C1094.83 320.983 1093.86 326.705 1092.77 332.35C1091.05 341.274 1088.48 349.95 1084.75 358.249C1076.62 376.336 1062.82 393.749 1046.44 405.056C1038.35 410.64 1030.42 412.54 1021.2 415.111C1015.37 416.734 1014.91 419.735 1011.82 425.364C1005.38 437.089 999.057 448.771 993.378 460.891C986.598 475.364 980.016 489.852 973.807 504.579C952.89 554.188 935.866 605.582 926.926 658.771C926.707 627.427 933.99 595.146 943.176 565.27C949.868 543.503 958.579 522.52 967.871 501.75C970.122 496.718 973.534 490.245 974.491 484.69C975.16 480.798 973.113 477.054 972.176 472.954C968.522 456.987 968.784 439.098 971.992 423.045C975.53 405.344 985.76 397.128 1003.07 394.621C1009.39 393.704 1017.44 394.04 1023.24 391.353C1029.57 388.427 1032.17 378.81 1035.77 372.637C1045.43 356.053 1056.9 340.149 1070.08 326.176C1073.72 322.307 1077.65 318.737 1081.81 315.428C1084.43 313.341 1089.98 310.769 1091.77 308.197Z" fill="#C5CFCC"/>
<path fill-rule="evenodd" clip-rule="evenodd" d="M859.029 610.547C857.988 607.318 860.395 604.011 863.788 604.011H1009.05C1012.45 604.011 1014.85 607.318 1013.81 610.547L1002.73 644.912C1000.06 653.172 992.372 658.771 983.692 658.771H889.15C880.47 658.771 872.781 653.172 870.116 644.912L859.029 610.547Z" fill="#9DA0A7"/>
<path fill-rule="evenodd" clip-rule="evenodd" d="M711.969 386.779L685.406 521.375L663.188 637.602H647.902L673.582 386.779H711.969Z" fill="#B28B67"/>
<path fill-rule="evenodd" clip-rule="evenodd" d="M676.012 424.077L728.765 559.766L753.179 625.865L766.391 623.416L718.863 416.135L676.012 424.077Z" fill="#B28B67"/>
<path fill-rule="evenodd" clip-rule="evenodd" d="M664.101 634.986C665.16 634.49 666.438 634.944 666.863 636.033C667.768 638.358 669.106 642.133 669.142 644.226C669.198 647.396 668.244 653.498 668.244 653.498C664.555 653.562 601.931 654.655 601.931 654.655C601.931 654.655 599.198 646.181 604.755 645.404C610.312 644.627 613.986 644.016 613.986 644.016L644.734 629.702C645.244 629.464 645.85 629.694 646.074 630.21L648.21 635.132C648.21 635.132 653.408 637.44 656.631 637.384C658.706 637.348 662.01 635.966 664.101 634.986Z" fill="#0D2029"/>
<path fill-rule="evenodd" clip-rule="evenodd" d="M707.563 622.321L634.464 622.735L659.88 370.014L724.555 362.645L707.563 622.321Z" fill="#3C52AB"/>
<path fill-rule="evenodd" clip-rule="evenodd" d="M707.563 622.321L634.464 622.735L659.88 370.014L724.555 362.645L707.563 622.321Z" fill="black" fill-opacity="0.2"/>
<path fill-rule="evenodd" clip-rule="evenodd" d="M777.728 599.445L709.862 617.747C709.862 617.747 684.081 544.534 679.25 514.249C675.039 487.848 669.399 368.838 669.399 368.838H742.682C742.682 368.838 744.732 496.443 746.629 500.967C748.527 505.491 777.728 599.445 777.728 599.445Z" fill="#3C52AB"/>
<path fill-rule="evenodd" clip-rule="evenodd" d="M766.561 615.439C767.387 614.61 768.747 614.601 769.52 615.482C771.17 617.362 773.724 620.456 774.478 622.412C775.621 625.376 776.825 631.44 776.825 631.44C773.384 632.755 714.981 655.075 714.981 655.075C714.981 655.075 709.5 648.031 714.449 645.411C719.398 642.791 722.636 640.967 722.636 640.967L746.567 617.049C746.966 616.651 747.616 616.661 748.004 617.07L751.702 620.973C751.702 620.973 757.374 621.378 760.381 620.229C762.313 619.491 764.935 617.072 766.561 615.439Z" fill="#0D2029"/>
<path fill-rule="evenodd" clip-rule="evenodd" d="M575.794 344.917L620.358 358.241L608.972 377.147L574.327 356.825C558.151 355.87 550.508 354.282 551.399 352.061C552.15 350.188 553.937 349.868 555.582 349.574C556.864 349.344 558.06 349.13 558.615 348.209C559.882 346.105 555.446 340.632 551.013 335.618C546.58 330.604 550.129 330.369 552.272 330.77C559.642 333.751 567.482 338.467 575.794 344.917ZM768.624 350.016L791.96 342.348C813.414 382.979 825.952 405.149 829.574 408.857C832.23 411.577 847.289 417.571 857.346 420.526C861.383 421.711 860.956 425.042 859.959 426.213C853.667 433.602 846.794 432.127 839.312 430.521C837.145 430.057 834.928 429.581 832.66 429.306C826.787 428.595 825.412 431.73 824.112 434.692C822.961 437.315 821.869 439.803 817.768 439.367C817.854 438.565 817.969 437.663 818.094 436.691C818.9 430.402 820.088 421.128 816.045 416.32C813.971 413.853 798.164 391.752 768.624 350.016Z" fill="#D4A181"/>
<path fill-rule="evenodd" clip-rule="evenodd" d="M692.087 264.053L681.782 263.567C662.411 287.525 659.711 339.702 645.892 348.262C632.826 356.354 612.433 352.58 588.069 347.093L582.877 363.892C606.89 384.16 654.438 397.937 671.394 384.657C698.505 363.426 697.529 299.602 692.087 264.053Z" fill="#F4F4F4"/>
<path fill-rule="evenodd" clip-rule="evenodd" d="M692.087 264.053L681.782 263.567C662.411 287.525 659.711 339.702 645.892 348.262C632.826 356.354 612.433 352.58 588.069 347.093L582.877 363.892C606.89 384.16 654.438 397.937 671.394 384.657C698.505 363.426 697.529 299.602 692.087 264.053Z" fill="black" fill-opacity="0.03"/>
<path fill-rule="evenodd" clip-rule="evenodd" d="M751.608 385.1C751.608 385.1 690.907 392.553 662.308 396.065C658.228 396.566 658.275 390.597 658.501 387.56C661.108 352.513 683.155 312.372 677.176 263.674L702.439 256.484C727.939 288.03 740.472 329.186 751.608 385.1Z" fill="#3C52AB"/>
<path fill-rule="evenodd" clip-rule="evenodd" d="M703.808 256.316L704.102 256.28C766.235 284.682 807.907 335.418 829.118 408.489L810.848 414.443C796.68 401.563 778.485 379.872 756.261 349.369C764.267 368.405 770.829 388.13 774.449 407.1L694.066 416.97C673.69 379.673 693.902 257.532 693.902 257.532L699.452 256.851L703.808 256.316Z" fill="#F4F4F4"/>
<path d="M360.481 383.248H349.144V431.839H360.481V383.248Z" fill="#616466"/>
<path d="M366.313 383.248H354.975V431.839H366.313V383.248Z" fill="#B1BABE"/>
<path d="M406.156 441.233C376.571 441.233 404.48 441.233 352.74 441.233C301 441.233 331.921 441.233 308.364 441.233C308.364 441.233 301 431.838 352.74 431.838C404.48 431.838 406.156 436.714 406.156 441.233Z" fill="#6F7577"/>
<path d="M413.608 441.233C385.195 441.233 411.998 441.233 362.307 441.233C312.617 441.233 354.276 441.233 331.651 441.233C331.651 441.233 311.891 440.423 311.891 436.05C321.123 431.838 344.449 431.838 362.307 431.838C411.998 431.838 413.608 436.714 413.608 441.233Z" fill="#CCD2D5"/>
<path d="M254.201 259.581C253.097 249.701 260.261 241.605 270.201 241.496L453.922 239.491C463.862 239.383 472.816 247.304 473.92 257.184L486.64 371.009C487.744 380.888 480.581 388.985 470.64 389.094L286.92 391.098C276.979 391.207 268.026 383.286 266.922 373.406L254.201 259.581Z" fill="#CCD2D5"/>
<path d="M527.629 308.882L497.631 301.957C495.478 301.46 493.331 302.802 492.834 304.955L483.275 346.356C482.778 348.508 484.121 350.656 486.273 351.153L516.271 358.079C518.423 358.576 520.571 357.234 521.068 355.081L530.626 313.68C531.123 311.527 529.781 309.379 527.629 308.882Z" fill="#EEF1FF"/>
<path d="M516.839 318.114L525.735 320.404" stroke="black" stroke-opacity="0.58"/>
<path d="M498.144 321.602L519.611 326.653" stroke="black" stroke-opacity="0.58"/>
<path d="M493.273 324.854L522.137 331.573" stroke="black" stroke-opacity="0.58"/>
<path d="M490.882 332.302L519.746 339.02" stroke="black" stroke-opacity="0.58"/>
<path d="M492.077 328.578L520.941 335.297" stroke="black" stroke-opacity="0.58"/>
<path d="M494.227 317.511L503.124 319.801" stroke="black" stroke-opacity="0.58"/>
<path d="M508.519 344.905L517.416 347.196" stroke="black" stroke-opacity="0.58"/>
<path d="M518.035 314.39L526.932 316.68" stroke="black" stroke-opacity="0.58"/>
<path d="M447.834 246.108L279.56 247.944C269.62 248.052 262.457 256.149 263.561 266.029L274.227 361.474C275.331 371.353 284.284 379.274 294.225 379.166L462.499 377.33C472.439 377.221 479.603 369.124 478.499 359.245L467.832 263.8C466.728 253.92 457.775 245.999 447.834 246.108Z" fill="#00714D"/>
<mask id="mask0_50_198" style="mask-type:alpha" maskUnits="userSpaceOnUse" x="265" y="249" width="212" height="131">
<path d="M265.969 287.52C263.733 267.513 278.239 251.117 298.369 250.897L429.688 249.464C449.818 249.245 467.948 265.285 470.184 285.291L476.45 341.358C478.686 361.364 464.18 377.76 444.05 377.98L312.731 379.413C292.601 379.632 274.471 363.592 272.235 343.586L265.969 287.52Z" fill="#1E305D"/>
</mask>
<g mask="url(#mask0_50_198)">
<path fill-rule="evenodd" clip-rule="evenodd" d="M335.885 372.814C335.885 372.814 360.144 384.976 378.758 388.594C397.371 392.212 415.484 384.265 415.484 384.265C415.484 384.265 391.81 372.02 375.565 368.862C359.319 365.705 335.885 372.814 335.885 372.814Z" fill="#163045"/>
<path fill-rule="evenodd" clip-rule="evenodd" d="M392.223 398.367C392.106 398.087 392.019 397.791 391.965 397.477C390.854 390.987 366.914 318.647 365.584 306.014L406.811 314.027C407.822 323.633 409.247 382.954 408.797 394.647C410.86 413.63 411.001 473.838 411.677 478.139C412.389 482.663 402.909 485.389 401.62 479.747C399.571 470.769 395.304 446.201 394.14 431.48C393.048 417.679 392.376 405.323 392.223 398.367Z" fill="#C99778"/>
<path fill-rule="evenodd" clip-rule="evenodd" d="M356.946 399.774C339.383 400.751 276.66 396.498 272.225 396.88C267.662 397.274 265.604 387.627 271.322 386.736C280.421 385.317 305.227 382.775 319.994 382.64C331.871 382.532 342.666 382.658 349.881 382.905C353.11 363.129 359.571 315.42 363.328 305.575L399.806 312.665C396.203 322.106 367.942 390.609 363.877 397.226C362.533 399.609 359.779 400.242 356.946 399.774Z" fill="#D4A181"/>
<path fill-rule="evenodd" clip-rule="evenodd" d="M363.446 305.598C363.446 305.598 388.898 303.386 409.074 314.467C409.638 338.207 420.008 349.601 415.355 384.925C388.774 392.258 362.841 365.803 335.605 372.698C331.669 354.883 349.341 317.257 363.446 305.598Z" fill="#A62F5D"/>
</g>
<path fill-rule="evenodd" clip-rule="evenodd" d="M441.723 249.133C444.379 253.939 447.696 257.436 449.854 258.036C455.266 259.542 465.648 242.559 465.926 233.661C466.203 224.763 449.175 210.984 440.459 223.899C437.434 228.381 436.989 233.683 437.923 238.758L418.742 259.98L433.837 268.695L441.723 249.133Z" fill="#B28B67"/>
<path fill-rule="evenodd" clip-rule="evenodd" d="M471.402 228.324C469.462 231.684 465.244 232.907 461.826 231.17C459.592 230.66 456.907 229.683 454.1 228.304C453.793 229.442 453.289 230.646 452.557 231.912C451.912 233.031 451.103 234.145 450.181 235.219C449.997 234.184 449.476 233.277 448.68 232.817C446.455 231.533 443.849 232.469 442.727 234.412C441.303 236.879 441.697 239.485 443.693 240.828C439.747 243.341 435.596 244.552 433.009 243.059C428.096 240.222 428.396 231.637 432.473 224.575C432.616 224.327 432.763 224.083 432.914 223.844C430.592 224.025 428.187 224.632 425.765 225.242C420.619 226.539 415.394 227.857 410.718 225.157C401.363 219.756 408.542 198.741 421.613 206.288C430.502 211.42 434.126 215.24 436.788 219.332C438.74 217.666 440.891 216.559 442.987 216.129C443.537 215.946 444.255 215.882 445.107 215.93C445.637 215.942 446.158 216.003 446.665 216.115C449.419 216.592 453.051 217.904 456.802 219.898C457.503 220.271 458.181 220.653 458.834 221.041C460.845 217.583 465.276 216.401 468.743 218.403C472.217 220.408 473.407 224.85 471.402 228.324Z" fill="#0F182E"/>
<path fill-rule="evenodd" clip-rule="evenodd" d="M493.169 317.702L466.388 307.266L464.718 320.82L489.34 324.071C497.58 329.754 501.907 331.884 502.321 330.461C502.669 329.262 501.958 328.488 501.3 327.773C500.786 327.215 500.306 326.692 500.387 326.031L501.22 322.333L502.271 318.255C500.303 317.712 499.748 317.711 494.363 317.704C493.989 317.703 493.592 317.703 493.169 317.702ZM319.32 294.586C323.822 292.879 360.93 267.2 360.93 267.2L370.396 276.109C370.396 276.109 327.654 301.04 324.941 302.307C321.417 303.952 319.651 309.471 318.453 313.213C318.268 313.792 318.096 314.328 317.934 314.801C315.523 313.976 315.564 312.294 315.607 310.521C315.655 308.518 315.707 306.398 312.231 305.265C310.889 304.828 309.522 304.517 308.187 304.212C303.576 303.162 299.339 302.197 297.752 296.406C297.501 295.488 298.135 293.506 300.707 293.893C307.114 294.858 317.12 295.42 319.32 294.586Z" fill="#B28B67"/>
<path fill-rule="evenodd" clip-rule="evenodd" d="M410.66 252.597L418.017 248.553C429.03 289.397 429.404 291.933 484.703 312.694L480.247 325.21C454.423 315.81 430.207 320.988 417.45 302.066C413.168 295.715 407.678 260.345 410.66 252.597Z" fill="#ECF9FF"/>
<path fill-rule="evenodd" clip-rule="evenodd" d="M410.66 252.597L418.017 248.553C429.03 289.397 429.404 291.933 484.703 312.694L480.247 325.21C454.423 315.81 430.207 320.988 417.45 302.066C413.168 295.715 407.678 260.345 410.66 252.597Z" fill="black" fill-opacity="0.05"/>
<path fill-rule="evenodd" clip-rule="evenodd" d="M366.163 302.161C366.163 302.161 392.136 324.781 410.329 333.087C411.832 333.773 413.601 331.692 414.043 329.748C420.92 299.474 428.716 274.315 440.168 257.96C436.589 257.442 430.631 251.878 430.631 251.878C406.982 260.436 387.996 275.96 366.163 302.161Z" fill="#A62F5D"/>
<path fill-rule="evenodd" clip-rule="evenodd" d="M428.226 248.088C428.676 248.096 428.909 248.107 428.909 248.107L428.675 248.403L433.613 251.86C432.839 253.493 429.416 259.156 424.424 267.413C406.284 297.418 367.433 361.68 359.765 391.314L299.197 348.904C319.173 323.096 351.378 298.056 380.563 278.082C367.794 280.3 350.217 286.697 328.483 302.618L319.177 291.762C365.623 250.037 417.487 248.062 427.271 248.079C427.439 247.976 427.606 247.873 427.772 247.771L428.226 248.088Z" fill="#ECF9FF"/>
<path d="M694.476 280.703H696.052C696.968 280.703 697.767 280.081 697.99 279.194L699.628 272.68C699.659 272.556 699.837 272.563 699.858 272.689L701.803 284.343C701.803 284.343 701.689 281.185 702.43 280.586C702.773 280.309 704.194 280.665 704.194 280.665" stroke="#F5FCFF" stroke-width="5" stroke-miterlimit="10" stroke-linecap="round" stroke-linejoin="round"/>
<path d="M238.269 105.396L208.479 75.5911C205.354 72.4641 200.287 72.4641 197.162 75.5911L120.039 152.754C117.04 155.755 115.355 159.823 115.355 164.065V646.515" stroke="#9DA0A7" stroke-width="8"/>
<path d="M75.9208 645.051H156.253C157.91 645.051 159.253 646.394 159.253 648.051V652.295C159.253 653.952 157.91 655.295 156.253 655.295H75.9208C74.264 655.295 72.9208 653.952 72.9208 652.295V648.051C72.9208 646.394 74.264 645.051 75.9208 645.051Z" fill="#9DA0A7"/>
<path d="M281.174 80.3973C267.31 66.5343 244.833 66.5343 230.969 80.3973L212.881 98.4853C199.018 112.349 199.018 134.826 212.881 148.69L250.898 186.706L319.19 118.414L281.174 80.3973Z" fill="#CCD2D5"/>
<path fill-rule="evenodd" clip-rule="evenodd" d="M290.611 158.505C271.754 177.364 253.456 189.642 249.741 185.927C246.027 182.212 258.303 163.912 277.16 145.053C296.018 126.193 314.316 113.916 318.03 117.631C321.745 121.345 309.469 139.646 290.611 158.505Z" fill="#FCC876"/>
<path d="M697.105 301.46L698.975 301.163C700.061 300.991 700.899 300.15 701.008 299.122L701.803 291.573C701.819 291.43 702.031 291.405 702.078 291.54L706.436 304.129C706.436 304.129 705.745 300.64 706.518 299.835C706.877 299.462 708.624 299.591 708.624 299.591" stroke="#30638E" stroke-width="2" stroke-miterlimit="10" stroke-linecap="round" stroke-linejoin="round"/>
<path fill-rule="evenodd" clip-rule="evenodd" d="M928.23 144.618C960.433 144.618 986.539 118.512 986.539 86.309C986.539 54.1058 960.433 28 928.23 28C896.027 28 869.921 54.1058 869.921 86.309C869.921 118.512 896.027 144.618 928.23 144.618Z" fill="#9DA0A7"/>
<path fill-rule="evenodd" clip-rule="evenodd" d="M928.23 43.4023C930.053 43.4023 931.531 41.9246 931.531 40.1018C931.531 38.279 930.053 36.8013 928.23 36.8013C926.407 36.8013 924.93 38.279 924.93 40.1018C924.93 41.9246 926.407 43.4023 928.23 43.4023Z" fill="#DAE0FF"/>
<path fill-rule="evenodd" clip-rule="evenodd" d="M882.023 89.61C883.846 89.61 885.324 88.132 885.324 86.309C885.324 84.486 883.846 83.009 882.023 83.009C880.2 83.009 878.723 84.486 878.723 86.309C878.723 88.132 880.2 89.61 882.023 89.61Z" fill="#DAE0FF"/>
<path fill-rule="evenodd" clip-rule="evenodd" d="M974.437 89.61C976.26 89.61 977.738 88.132 977.738 86.309C977.738 84.486 976.26 83.009 974.437 83.009C972.615 83.009 971.137 84.486 971.137 86.309C971.137 88.132 972.615 89.61 974.437 89.61Z" fill="#DAE0FF"/>
<path fill-rule="evenodd" clip-rule="evenodd" d="M856.23 133.817C858.053 133.817 859.531 132.339 859.531 130.516C859.531 128.693 858.053 127.216 856.23 127.216C854.407 127.216 852.93 128.693 852.93 130.516C852.93 132.339 854.407 133.817 856.23 133.817Z" fill="#DAE0FF"/>
<path fill-rule="evenodd" clip-rule="evenodd" d="M908.847 51.105L928.867 84.0711L924.982 86.1371L908.847 51.105Z" fill="#DAE0FF"/>
<path fill-rule="evenodd" clip-rule="evenodd" d="M925.967 59.6709L930.915 85.7L926.538 86.16L925.967 59.6709Z" fill="#DAE0FF"/>
<path fill-rule="evenodd" clip-rule="evenodd" d="M928.23 90.71C930.66 90.71 932.631 88.74 932.631 86.309C932.631 83.879 930.66 81.908 928.23 81.908C925.799 81.908 923.829 83.879 923.829 86.309C923.829 88.74 925.799 90.71 928.23 90.71Z" fill="#DAE0FF"/>
</svg>
