<svg width="1323" height="837" viewBox="0 0 1323 837" fill="none" xmlns="http://www.w3.org/2000/svg">
<path d="M138.001 158.002C138.001 146.956 146.955 138.002 158.001 138.002H1133C1144.05 138.002 1153 146.956 1153 158.002V676.002C1153 687.048 1144.05 696.002 1133 696.002H158.001C146.955 696.002 138.001 687.048 138.001 676.002V158.002Z" fill="#CCDCD7"/>
<path d="M712.001 720.502C712.001 769.931 572.761 810.002 401.001 810.002C229.24 810.002 90.0007 769.931 90.0007 720.502C90.0007 671.072 229.24 631.002 401.001 631.002C572.761 631.002 712.001 671.072 712.001 720.502Z" fill="#C5CFD6"/>
<path d="M1109 682.502C1109 708.735 1045.87 730.002 968.001 730.002C890.129 730.002 827.001 708.735 827.001 682.502C827.001 656.268 890.129 635.002 968.001 635.002C1045.87 635.002 1109 656.268 1109 682.502Z" fill="#C5CFD6"/>
<path fill-rule="evenodd" clip-rule="evenodd" d="M530.782 517.49L562.68 540.569C571.332 542.869 578.56 545.731 584.364 549.154C585.735 550.385 587.393 552.878 581.706 552.447C576.02 552.017 570.019 551.815 569.234 553.726C568.45 555.637 571.891 557.923 570.305 560.501C569.247 562.22 564.252 557.91 555.318 547.57L523.731 534.664L530.782 517.49Z" fill="#B28B67"/>
<path fill-rule="evenodd" clip-rule="evenodd" d="M467.696 431.888L476.343 430.427C508.426 457.734 521.604 510.196 560.93 537.987L551.465 549.547C483.241 541.225 466.331 477.234 467.696 431.888Z" fill="#761111"/>
<path fill-rule="evenodd" clip-rule="evenodd" d="M467.696 431.888L476.343 430.427C508.426 457.734 521.604 510.196 560.93 537.987L551.465 549.547C483.241 541.225 466.331 477.234 467.696 431.888Z" fill="black" fill-opacity="0.2"/>
<path fill-rule="evenodd" clip-rule="evenodd" d="M909.729 303.798C904.773 309.934 899.208 314.052 896.005 314.364C887.974 315.144 877.526 288.54 879.355 275.887C881.183 263.234 908.711 247.99 917.816 268.427C920.976 275.52 920.283 283.128 917.695 290.073L939.531 324.864L916.001 333.429L909.729 303.798Z" fill="#D4A181"/>
<path fill-rule="evenodd" clip-rule="evenodd" d="M879.025 262.844C874.276 265.251 870.366 267.234 868.163 266.746C869.798 275.211 876.264 280.163 890.291 273.645C894.134 274.268 897.624 276.787 901.956 280.179C902.527 279.675 903.2 279.267 903.96 278.991C907.208 277.809 910.8 279.483 911.982 282.73C912.582 284.379 912.446 286.116 911.741 287.581C913.801 289.006 916.057 290.457 918.558 291.891C923.657 285.605 924.359 272.438 914.125 263.698C904.841 249.757 889.781 257.391 879.025 262.844Z" fill="#020E2C"/>
<path fill-rule="evenodd" clip-rule="evenodd" d="M968.059 415.913L928.336 549.438L903.667 661.542L890.157 662.724L921.626 419.975L968.059 415.913Z" fill="#BA8B72"/>
<path fill-rule="evenodd" clip-rule="evenodd" d="M978.331 415.014C982.842 460.32 996.106 520.687 997.619 523.404C999.133 526.12 1091.3 587.661 1091.3 587.661L1082.86 598.429C1082.86 598.429 976.066 548.096 970.672 540.608C965.279 533.12 943.611 461.772 927.523 419.459L978.331 415.014Z" fill="#D4A181"/>
<path fill-rule="evenodd" clip-rule="evenodd" d="M1089.66 585.837C1089.88 584.689 1091 583.919 1092.13 584.221C1094.29 584.797 1097.51 585.776 1098.99 586.806C1101.3 588.424 1105.19 592.298 1105.19 592.298C1103.31 594.978 1071.44 640.482 1071.44 640.482C1071.44 640.482 1063.91 638.013 1066.25 633.62C1068.59 629.226 1070.07 626.27 1070.07 626.27L1075.78 596.841C1075.88 596.288 1076.43 595.932 1076.98 596.055L1081.52 597.07C1081.52 597.07 1085.89 594.548 1087.53 592.206C1088.55 590.758 1089.26 587.849 1089.66 585.837Z" fill="#F4F4F4"/>
<path fill-rule="evenodd" clip-rule="evenodd" d="M905.859 655.066C906.885 654.501 908.194 654.864 908.689 655.925C909.632 657.944 910.956 661.045 911.112 662.833C911.358 665.643 910.893 671.117 910.893 671.117C907.632 671.402 852.271 676.245 852.271 676.245C852.271 676.245 849.326 668.894 854.196 667.861C859.067 666.828 862.281 666.058 862.281 666.058L888.504 651.511C888.997 651.238 889.618 651.425 889.877 651.925L892.021 656.058C892.021 656.058 896.764 657.785 899.614 657.536C901.375 657.382 904.063 656.056 905.859 655.066Z" fill="#F4F4F4"/>
<path fill-rule="evenodd" clip-rule="evenodd" d="M953.614 645.848L888.767 644.499L917.13 420.368L974.665 415.335L953.614 645.848Z" fill="#8FBFE8"/>
<path fill-rule="evenodd" clip-rule="evenodd" d="M953.614 645.848L888.767 644.499L917.13 420.368L974.665 415.335L953.614 645.848Z" fill="black" fill-opacity="0.1"/>
<path fill-rule="evenodd" clip-rule="evenodd" d="M1076.61 572.765L1038.83 626.304C1038.83 626.304 965.902 559.452 952.911 538.252C939.921 517.053 922.536 419.895 922.536 419.895L987.31 414.228C987.31 414.228 999.664 499.96 1001.69 503.823C1003.72 507.685 1076.61 572.765 1076.61 572.765Z" fill="#8FBFE8"/>
<path fill-rule="evenodd" clip-rule="evenodd" d="M1062.08 421.496C1056.69 417.169 1017.4 365.636 1017.4 365.636L1000.52 373.605C1000.52 373.605 1047.83 426.615 1050.98 429.549C1055.06 433.359 1055.02 441.68 1055 447.322C1054.99 448.195 1054.99 449.004 1055 449.722C1058.66 449.664 1059.35 447.349 1060.08 444.907C1060.91 442.15 1061.78 439.233 1067.03 439.227C1069.06 439.225 1071.06 439.406 1073.02 439.583C1079.78 440.194 1086 440.756 1090.74 433.55C1091.49 432.408 1091.5 429.42 1087.82 428.808C1078.64 427.283 1064.72 423.612 1062.08 421.496ZM848.737 446.655L874.561 414.443L886.371 430.099L858.074 451.825C851.904 464.809 848.05 470.565 846.514 469.093C845.218 467.852 845.549 466.277 845.853 464.826C846.091 463.695 846.312 462.64 845.737 461.877C844.422 460.135 838.43 461.962 832.817 463.938C827.205 465.914 828.192 462.918 829.237 461.289C834.148 456.221 840.649 451.343 848.737 446.655Z" fill="#D4A181"/>
<path fill-rule="evenodd" clip-rule="evenodd" d="M910.207 315.183L922.169 316.713C922.81 319.558 923.894 323.558 925.135 328.14C929.032 342.523 934.484 362.646 932.679 370.79C926.425 399.004 903.416 418.993 877.79 441.256C874.355 444.24 870.873 447.265 867.378 450.356L855.988 437.303C855.519 437.097 855.075 436.81 854.679 436.442C852.779 434.679 852.67 431.709 854.434 429.809C858.216 425.738 862.186 422.795 866.327 421.049C890.646 386.908 903.365 350.961 910.207 315.183Z" fill="#F3FBFF"/>
<path fill-rule="evenodd" clip-rule="evenodd" d="M910.207 315.183L922.169 316.713C922.81 319.558 923.894 323.558 925.135 328.14C929.032 342.523 934.484 362.646 932.679 370.79C926.425 399.004 903.416 418.993 877.79 441.256C874.355 444.24 870.873 447.265 867.378 450.356L855.988 437.303C855.519 437.097 855.075 436.81 854.679 436.442C852.779 434.679 852.67 431.709 854.434 429.809C858.216 425.738 862.186 422.795 866.327 421.049C890.646 386.908 903.365 350.961 910.207 315.183Z" fill="black" fill-opacity="0.04"/>
<path fill-rule="evenodd" clip-rule="evenodd" d="M989.042 414.841C989.042 414.841 942.916 432.794 914.228 434.887C911.859 435.06 909.355 425.321 909.69 422.389C914.9 376.72 917.505 343.613 909.817 314.922C914.924 316.061 925.686 311.421 925.686 311.421C953.678 335.611 971.993 367.063 989.042 414.841Z" fill="#6CA1CF"/>
<path fill-rule="evenodd" clip-rule="evenodd" d="M1053.64 405.53C1003.88 327.834 933.126 306.838 933.126 306.838L931.558 307.258L927.682 308.297L921.665 309.909C927.561 326.722 928.153 353.329 928.839 384.195L928.839 384.195C929.936 433.558 931.276 493.814 954.945 542.319C967.921 541.771 981.808 536.051 996.841 529.858L996.841 529.858C1018.54 520.919 1042.62 510.997 1069.8 514.222C1063.37 493.976 1045.31 474.493 1027.34 455.097C1015.97 442.824 1004.63 430.587 996.283 418.215C997.096 416.957 997.264 415.323 996.584 413.866L995.099 410.68C994.218 408.791 992.192 407.801 990.233 408.15C989.498 406.744 988.812 405.335 988.178 403.924C984.907 396.639 983.677 388.904 982.46 381.255L982.46 381.255C981.792 377.056 981.128 372.883 980.133 368.825C996.851 377.228 1018.8 393.806 1042.32 426.435L1059.86 415.736C1059.72 415.504 1059.59 415.272 1059.45 415.04C1061.63 414.038 1063.07 406.461 1060.77 405.957C1058.43 405.444 1056.05 405.305 1053.64 405.53Z" fill="#ECF9FF"/>
<path fill-rule="evenodd" clip-rule="evenodd" d="M1053.64 405.53C1003.88 327.834 933.126 306.838 933.126 306.838L931.558 307.258L927.682 308.297L921.665 309.909C927.561 326.722 928.153 353.329 928.839 384.195L928.839 384.195C929.936 433.558 931.276 493.814 954.945 542.319C967.921 541.771 981.808 536.051 996.841 529.858L996.841 529.858C1018.54 520.919 1042.62 510.997 1069.8 514.222C1063.37 493.976 1045.31 474.493 1027.34 455.097C1015.97 442.824 1004.63 430.587 996.283 418.215C997.096 416.957 997.264 415.323 996.584 413.866L995.099 410.68C994.218 408.791 992.192 407.801 990.233 408.15C989.498 406.744 988.812 405.335 988.178 403.924C984.907 396.639 983.677 388.904 982.46 381.255L982.46 381.255C981.792 377.056 981.128 372.883 980.133 368.825C996.851 377.228 1018.8 393.806 1042.32 426.435L1059.86 415.736C1059.72 415.504 1059.59 415.272 1059.45 415.04C1061.63 414.038 1063.07 406.461 1060.77 405.957C1058.43 405.444 1056.05 405.305 1053.64 405.53Z" fill="white" fill-opacity="0.38"/>
<path fill-rule="evenodd" clip-rule="evenodd" d="M929.234 308.961L938.715 323.549L931.455 338.336L943.441 345.216L931.047 390.53L948.564 343.927L936.726 336.924L943.183 323.846L929.234 308.961Z" fill="black" fill-opacity="0.1"/>
<path fill-rule="evenodd" clip-rule="evenodd" d="M941.809 403.842C939.583 404.438 937.295 403.118 936.699 400.892C936.102 398.667 937.424 396.379 939.65 395.783C941.876 395.186 944.165 396.507 944.761 398.732C945.357 400.957 944.036 403.245 941.809 403.842ZM942.979 428.361C940.752 428.957 938.464 427.637 937.868 425.412C937.272 423.186 938.593 420.899 940.819 420.302C943.046 419.706 945.334 421.026 945.93 423.251C946.526 425.477 945.205 427.764 942.979 428.361ZM943.068 448.851C943.664 451.076 945.953 452.397 948.179 451.8C950.405 451.204 951.727 448.916 951.13 446.691C950.534 444.465 948.246 443.145 946.02 443.741C943.793 444.338 942.472 446.625 943.068 448.851Z" fill="black" fill-opacity="0.4"/>
<path d="M947.684 365.177L949.556 364.897C950.644 364.735 951.489 363.9 951.607 362.874L952.468 355.332C952.485 355.189 952.697 355.165 952.743 355.301L956.991 367.927C956.991 367.927 956.331 364.433 957.111 363.635C957.473 363.265 959.219 363.409 959.219 363.409" stroke="#30638E" stroke-width="2" stroke-miterlimit="10" stroke-linecap="round" stroke-linejoin="round"/>
<path d="M1215.59 535.089C1218.13 528.966 1225.15 526.058 1231.27 528.594L1253.44 537.779C1259.57 540.315 1262.48 547.334 1259.94 553.457V553.457C1257.4 559.58 1250.38 562.488 1244.26 559.952L1222.09 550.767C1215.96 548.231 1213.06 541.211 1215.59 535.089V535.089Z" fill="#8E3030"/>
<rect x="484" y="63" width="173" height="328.591" rx="8" fill="#9EA0A3"/>
<rect x="484" y="63" width="173" height="328.591" rx="8" fill="white" fill-opacity="0.22"/>
<rect x="502" y="109" width="137" height="137" fill="#CFE1F8"/>
<path d="M551 141.5C551 132.7 553.667 124.167 555 121C567.833 121 593.9 122.4 595.5 128C597.5 135 597.5 141.5 593.5 151C589.5 160.5 586.5 164 582.5 177.5C578.5 191 579.5 190.5 578.5 199C577.5 207.5 580 207 582.5 214C584.5 219.6 583.333 225.333 582.5 227.5H560.5V209.5C558.667 199.833 555 179.9 555 177.5C555 174.5 551 152.5 551 141.5Z" fill="#30638E"/>
<g clip-path="url(#clip0_301_1395)">
<rect x="492" y="272" width="158" height="42" rx="4" fill="#CFE1F8"/>
<g clip-path="url(#clip1_301_1395)">
<rect x="501" y="284.6" width="100" height="6.3" rx="3" fill="#A8A9AA"/>
<rect x="501" y="295.1" width="67.1233" height="6.3" rx="3" fill="#A8A9AA"/>
</g>
</g>
<path d="M601 182C601 177.582 604.582 174 609 174H788C792.418 174 796 177.582 796 182V490C796 494.418 792.418 498 788 498H609C604.582 498 601 494.418 601 490V182Z" fill="#F4F4F4"/>
<g clip-path="url(#clip2_301_1395)">
<g clip-path="url(#clip3_301_1395)">
<rect x="615" y="264" width="167" height="54" rx="4" fill="#CFE1F8"/>
<g clip-path="url(#clip4_301_1395)">
<rect x="654" y="280.2" width="109" height="8.1" rx="3" fill="#A8A9AA"/>
<rect x="654" y="293.7" width="73.1644" height="8.1" rx="3" fill="#A8A9AA"/>
</g>
<path fill-rule="evenodd" clip-rule="evenodd" d="M636 303C642.627 303 648 297.627 648 291C648 284.373 642.627 279 636 279C629.373 279 624 284.373 624 291C624 297.627 629.373 303 636 303Z" fill="#A7AFD8"/>
</g>
<g clip-path="url(#clip5_301_1395)">
<rect x="615" y="326" width="167" height="42" rx="4" fill="#CFE1F8"/>
<g clip-path="url(#clip6_301_1395)">
<rect x="654" y="338.6" width="109" height="6.3" rx="3" fill="#A8A9AA"/>
<rect x="654" y="349.1" width="73.1644" height="6.3" rx="3" fill="#A8A9AA"/>
</g>
<path fill-rule="evenodd" clip-rule="evenodd" d="M636 359C642.627 359 648 353.627 648 347C648 340.373 642.627 335 636 335C629.373 335 624 340.373 624 347C624 353.627 629.373 359 636 359Z" fill="#A7AFD8"/>
</g>
<g clip-path="url(#clip7_301_1395)">
<rect x="615" y="376" width="167" height="42" rx="4" fill="#CFE1F8"/>
<g clip-path="url(#clip8_301_1395)">
<rect x="654" y="388.6" width="109" height="6.3" rx="3" fill="#A8A9AA"/>
<rect x="654" y="399.1" width="73.1644" height="6.3" rx="3" fill="#A8A9AA"/>
</g>
<path fill-rule="evenodd" clip-rule="evenodd" d="M636 409C642.627 409 648 403.627 648 397C648 390.373 642.627 385 636 385C629.373 385 624 390.373 624 397C624 403.627 629.373 409 636 409Z" fill="#A7AFD8"/>
</g>
<g clip-path="url(#clip9_301_1395)">
<rect x="615" y="426" width="167" height="42" rx="4" fill="#CFE1F8"/>
<g clip-path="url(#clip10_301_1395)">
<rect x="654" y="438.6" width="109" height="6.3" rx="3" fill="#A8A9AA"/>
<rect x="654" y="449.1" width="73.1644" height="6.3" rx="3" fill="#A8A9AA"/>
</g>
<path fill-rule="evenodd" clip-rule="evenodd" d="M636 459C642.627 459 648 453.627 648 447C648 440.373 642.627 435 636 435C629.373 435 624 440.373 624 447C624 453.627 629.373 459 636 459Z" fill="#A7AFD8"/>
</g>
</g>
<path d="M568.501 121.492L573.962 121.816L579.422 122.387L573.611 177.597L561.31 191.876L568.501 121.492Z" fill="#D9D9D9"/>
<path d="M564.837 188.36L575.337 181.36L575.337 201.764C575.337 202.369 575.448 202.97 575.663 203.537L577.768 209.087C579.009 212.358 576.592 215.86 573.093 215.86L568.309 215.86C565.196 215.86 562.84 213.046 563.387 209.981L564.76 202.296C564.811 202.006 564.837 201.712 564.837 201.417L564.837 188.36Z" fill="#D9D9D9"/>
<path d="M580.835 227.5L562.335 227.5L562.335 222.025C562.335 221.35 562.479 220.682 562.758 220.066V220.066C563.739 217.901 566.171 216.796 568.447 217.481L570.439 218.08C571.35 218.354 572.322 218.362 573.238 218.104L575.121 217.572C578.585 216.593 581.917 219.485 581.435 223.052L580.835 227.5Z" fill="#D9D9D9"/>
<g opacity="0.5">
<path fill-rule="evenodd" clip-rule="evenodd" d="M701.579 231.581C705.483 233.945 709.319 235.087 711.12 234.621C715.636 233.452 716.051 216.855 712.557 210.312C709.063 203.769 691.101 200.917 690.196 213.881C689.882 218.38 691.762 222.395 694.541 225.672L689.559 249H704.029L701.579 231.581Z" fill="#B28B67"/>
<path fill-rule="evenodd" clip-rule="evenodd" d="M702.302 215.313C703.554 213.44 704.755 212.012 706.319 211.182C712.68 211.283 713.425 210.138 713.425 206.276C712.398 205.537 708.772 204.293 704.712 203.943C702.641 203.348 700.187 203.46 697.824 204.453C694.906 205.285 692.435 207.076 691.344 210.43C687.396 217.275 690.392 224.401 694.431 226.836C695.506 225.556 696.444 224.316 697.281 223.129C696.609 222.469 696.191 221.548 696.191 220.529C696.191 218.521 697.811 216.894 699.809 216.894C699.956 216.894 700.101 216.903 700.243 216.92C700.333 219.43 700.703 227.921 701.675 230.87C702.82 234.347 709.506 235.201 711.838 235.201C713.852 235.201 713.784 233.285 713.734 231.912C713.727 231.714 713.721 231.527 713.721 231.36C713.721 231.009 713.267 231.01 712.753 231.011C712.087 231.012 711.321 231.014 711.321 230.245C711.321 229.408 712.473 228.766 713.503 228.191C714.146 227.833 714.742 227.5 714.982 227.164C715.738 226.101 715.992 224.667 714.852 224.667C714.229 224.667 713.373 225.028 712.345 225.462C710.791 226.118 708.842 226.941 706.698 226.941C703.155 226.941 702.313 215.456 702.302 215.313Z" fill="#020E2C"/>
</g>
<path fill-rule="evenodd" clip-rule="evenodd" d="M484.566 419.652C491.851 424.043 499.009 426.164 502.369 425.298C510.795 423.127 511.569 392.304 505.05 380.153C498.531 368.001 465.017 362.705 463.328 386.781C462.742 395.136 466.25 402.593 471.434 408.678L462.139 452.002H489.139L484.566 419.652Z" fill="#997659"/>
<path fill-rule="evenodd" clip-rule="evenodd" d="M485.916 389.439C488.252 385.962 490.494 383.31 493.41 381.769C505.28 381.957 506.67 379.829 506.67 372.657C504.753 371.285 497.988 368.975 490.412 368.325C486.548 367.219 481.97 367.427 477.56 369.272C472.115 370.817 467.506 374.143 465.469 380.371C458.103 393.085 463.694 406.319 471.229 410.84C473.235 408.463 474.986 406.16 476.547 403.956C475.293 402.73 474.514 401.019 474.514 399.127C474.514 395.399 477.536 392.377 481.264 392.377C481.538 392.377 481.808 392.393 482.074 392.425C482.242 397.086 482.932 412.855 484.745 418.332C486.883 424.79 499.358 426.376 503.709 426.376C507.467 426.376 507.339 422.817 507.247 420.267C507.234 419.899 507.221 419.553 507.221 419.241C507.221 418.59 506.374 418.591 505.417 418.593C504.173 418.596 502.745 418.598 502.745 417.172C502.745 415.617 504.893 414.424 506.816 413.357C508.016 412.691 509.127 412.074 509.575 411.448C510.985 409.474 511.46 406.812 509.332 406.812C508.169 406.812 506.574 407.482 504.654 408.289C501.756 409.507 498.119 411.035 494.118 411.035C487.508 411.035 485.936 389.706 485.916 389.439Z" fill="#020E2C"/>
<path fill-rule="evenodd" clip-rule="evenodd" d="M596.962 625.277C594.872 648.143 596.961 697.293 598.085 711.471C598.792 720.382 610.928 718.049 612.06 710.917C612.252 709.709 613.034 705.465 614.201 699.132C619.922 668.078 634.896 586.803 634.922 567.041C634.934 557.979 614.774 550.732 606.708 561.679C600.077 557.018 590.665 555.768 584.862 565.182C580.469 572.308 570.031 592.54 558.899 616.166C549.147 636.863 533.908 687.104 533.908 687.104L546.845 693.019C546.845 693.019 578.802 641.604 598.923 605.555C598.255 611.758 597.591 618.399 596.962 625.277Z" fill="#997659"/>
<path fill-rule="evenodd" clip-rule="evenodd" d="M534.833 668.504L579.236 563.243C589.873 546.12 619.697 566.727 616.069 576.659C607.834 599.206 565.949 672.201 563.496 678.918L534.833 668.504Z" fill="#EDBB80"/>
<path fill-rule="evenodd" clip-rule="evenodd" d="M534.833 668.504L579.236 563.243C589.873 546.12 619.697 566.727 616.069 576.659C607.834 599.206 565.949 672.201 563.496 678.918L534.833 668.504Z" fill="black" fill-opacity="0.2"/>
<path fill-rule="evenodd" clip-rule="evenodd" d="M636.046 575.259C636.046 605.095 622.977 675.227 622.968 681.796L591.31 680.728C591.31 680.728 599.611 589.265 598.311 588.645C596.362 587.715 518.39 599.444 495.005 600.33C461.284 601.607 447.334 580.905 446.202 541.619H511.521C511.521 541.619 595.302 551.626 621.65 555.54C632.929 557.215 636.046 567.04 636.046 575.259Z" fill="#EDBB80"/>
<path fill-rule="evenodd" clip-rule="evenodd" d="M535.271 683.174C534.349 682.451 532.998 682.606 532.341 683.576C530.996 685.559 528.985 688.738 528.507 690.66C527.771 693.61 527.344 699.515 527.344 699.515C530.764 700.369 588.82 714.854 588.82 714.854C588.82 714.854 593.191 707.524 588.186 705.604C583.18 703.683 579.892 702.322 579.892 702.322L554.395 682.368C553.951 682.02 553.308 682.108 552.974 682.562L549.951 686.664C549.951 686.664 544.616 687.703 541.627 686.958C539.733 686.485 537.011 684.537 535.271 683.174Z" fill="#F4F4F4"/>
<path fill-rule="evenodd" clip-rule="evenodd" d="M599.236 693.305C598.167 692.827 596.893 693.304 596.49 694.404C595.665 696.654 594.482 700.225 594.482 702.205C594.482 705.246 595.495 711.079 595.495 711.079C599.02 711.079 658.853 711.079 658.853 711.079C658.853 711.079 661.322 702.909 656.001 702.258C650.68 701.606 647.161 701.081 647.161 701.081L617.597 687.892C617.083 687.663 616.48 687.903 616.265 688.425L614.324 693.137C614.324 693.137 609.398 695.437 606.318 695.437C604.366 695.437 601.254 694.206 599.236 693.305Z" fill="#F4F4F4"/>
<rect x="595.606" y="711.079" width="59.5367" height="7.86885" rx="3.93443" fill="#50595F"/>
<path d="M431.599 558.082C431.599 552.559 436.076 548.082 441.599 548.082H564.262C569.785 548.082 574.262 552.559 574.262 558.082V614.405H435.599C433.39 614.405 431.599 612.614 431.599 610.405V558.082Z" fill="#50595F"/>
<path fill-rule="evenodd" clip-rule="evenodd" d="M563.029 548.082H566.54C571.438 548.082 575.615 551.629 576.408 556.463L601.222 707.707H589.219" fill="#50595F"/>
<path fill-rule="evenodd" clip-rule="evenodd" d="M595.606 730.189C606.773 730.189 615.826 721.13 615.826 709.955C615.826 698.78 606.773 689.721 595.606 689.721C584.438 689.721 575.386 698.78 575.386 709.955C575.386 721.13 584.438 730.189 595.606 730.189Z" fill="#020E2C"/>
<path fill-rule="evenodd" clip-rule="evenodd" d="M531.576 642.508C531.576 689.691 493.353 727.941 446.202 727.941C399.052 727.941 360.829 689.691 360.829 642.508C360.829 595.324 399.052 557.075 446.202 557.075C493.353 557.075 531.576 595.324 531.576 642.508ZM515.849 642.508C515.849 681 484.667 712.203 446.202 712.203C407.737 712.203 376.556 681 376.556 642.508C376.556 604.016 407.737 572.812 446.202 572.812C484.667 572.812 515.849 604.016 515.849 642.508Z" fill="#020E2C"/>
<rect x="441.709" y="568.316" width="8.98667" height="148.384" fill="#020E2C"/>
<rect width="8.98982" height="148.332" rx="2" transform="matrix(0.706859 0.707355 -0.706859 0.707355 495.45 586.867)" fill="#020E2C"/>
<rect x="520.342" y="638.011" width="8.99297" height="148.28" rx="2" transform="rotate(90 520.342 638.011)" fill="#020E2C"/>
<rect width="8.98982" height="148.332" rx="2" transform="matrix(-0.706859 0.707355 -0.706859 -0.707355 501.804 691.79)" fill="#020E2C"/>
<path fill-rule="evenodd" clip-rule="evenodd" d="M417.697 521.022C417.697 521.022 407.717 578.965 404.787 584.91C403.354 587.817 392.751 596.647 385.394 601.692C382.44 603.717 383.663 606.308 384.778 606.996C393.851 612.594 399.824 605.975 407.677 602.321C416.28 598.319 415.553 609.621 422.374 606.569C420.28 601.876 415.383 593.142 417.697 587.408C419.239 583.585 438.594 521.104 438.594 521.104L417.697 521.022Z" fill="#997659"/>
<path fill-rule="evenodd" clip-rule="evenodd" d="M439.389 542.002C439.389 542.002 491.397 542.002 515.9 542.002C519.397 542.002 518.738 536.954 518.232 534.406C512.4 505.006 489.63 473.313 489.63 431.463L467.561 428.002C449.306 457.36 442.994 493.507 439.389 542.002Z" fill="#F4F4F4"/>
<path fill-rule="evenodd" clip-rule="evenodd" d="M430.786 563.002C427.347 571.261 423.975 578.467 420.798 584.002H404.389C402.624 526.921 424.234 482.998 442.32 456.515C438.305 456.228 434.68 454.547 432.389 450.413C424.322 435.858 427.236 427.844 435.856 425.21C440.596 423.762 445.055 424.75 450.391 425.934C454.758 426.902 459.714 428.001 465.893 428.002C465.895 428.002 465.897 428.002 465.899 428.002C466.498 428.002 467.043 428.042 467.537 428.119L474.86 428.537C474.86 428.537 504.594 529.307 491.261 563.002H430.786Z" fill="#761111"/>
<path fill-rule="evenodd" clip-rule="evenodd" d="M430.786 563.002C435.297 552.166 439.924 539.518 444.376 526.456C446.034 540.841 448.794 555.288 453.389 563.002H430.786Z" fill="black" fill-opacity="0.1"/>
<path fill-rule="evenodd" clip-rule="evenodd" d="M281.221 352.994C289.282 355.256 296.643 355.442 299.623 353.801C307.098 349.685 299.979 320.874 290.67 311.217C281.361 301.559 248.078 304.993 252.605 327.767C254.176 335.671 259.42 341.72 265.911 346.078L268.098 388.618L293.824 381.891L281.221 352.994Z" fill="#D4A181"/>
<path fill-rule="evenodd" clip-rule="evenodd" d="M277.135 301.586C273.333 301.461 268.132 302.441 266.051 303.242C266.49 300.072 266.102 296.769 264.858 293.78C263.649 290.875 261.569 288.677 259.558 286.329C258.631 285.247 257.628 284.191 256.376 283.506C255.1 282.807 253.646 282.506 252.22 282.554C250.762 282.603 249.332 283.004 248.034 283.645C247.46 283.929 246.988 284.343 246.433 284.65C245.864 284.964 245.465 284.669 244.919 284.41C243.602 283.787 241.912 283.752 240.516 283.946C238.949 284.164 237.436 284.799 236.122 285.663C234.843 286.505 233.701 287.627 232.99 289.013C232.673 289.63 232.417 290.305 232.322 291.001C232.283 291.286 232.306 291.443 232.069 291.606C231.85 291.757 231.566 291.834 231.337 291.983C229.128 293.419 227.554 295.791 227.068 298.435C226.784 299.977 227.134 302.47 227.961 305.151C228.789 307.832 233.23 314.23 236.279 316.19C239.001 317.939 242.491 318.651 245.639 318.539C244.272 321.246 243.714 324.33 243.51 327.37C243.288 330.673 243.501 333.989 244.14 337.257C244.747 340.362 245.61 343.588 247.161 346.376C248.612 348.984 250.705 350.887 253.55 351.697C254.853 352.069 256.196 352.253 257.534 352.392C258.853 352.529 260.172 352.652 261.493 352.577C263.994 352.434 266.702 351.639 268.023 349.323C268.499 348.489 268.994 347.467 269.251 346.532C269.344 346.196 269.396 345.978 269.108 345.748C268.763 345.473 268.285 345.319 267.889 345.136C265.632 344.098 263.936 342.366 262.987 340.03C262.024 337.66 261.831 334.325 263.979 332.619C266.631 330.513 270.365 331.158 273.43 331.868C273.494 327.656 274.863 323.52 278.034 320.766C281.543 317.719 286.131 316.27 289.829 313.477C290.793 312.749 291.76 311.955 292.311 310.841C292.541 310.376 292.798 309.783 292.794 309.247C292.789 308.544 292.203 308.107 291.726 307.683C289.199 305.433 280.937 301.712 277.135 301.586Z" fill="#020E2C"/>
<path fill-rule="evenodd" clip-rule="evenodd" d="M268.456 479.002L309.545 616.875L339.523 718.496H361.389L329.532 479.002H268.456Z" fill="#0E9C99"/>
<path fill-rule="evenodd" clip-rule="evenodd" d="M268.456 479.002L309.545 616.875L339.523 718.496H361.389L329.532 479.002H268.456Z" fill="black" fill-opacity="0.2"/>
<path fill-rule="evenodd" clip-rule="evenodd" d="M257.467 479.002C256.517 550.064 253.276 588.822 252.278 595.279C251.28 601.735 236.192 642.807 207.013 718.496H229.665C266.811 645.886 287.547 604.813 291.873 595.279C296.199 585.744 309.549 546.985 329.656 479.002H257.467Z" fill="#0E9C99"/>
<path fill-rule="evenodd" clip-rule="evenodd" d="M204.989 738.002L206.122 715.245L229.922 715.245C246.85 726.623 274.122 733.667 274.122 733.667V738.002H231.056L216.322 735.835V738.002H204.989Z" fill="#020E2C"/>
<path fill-rule="evenodd" clip-rule="evenodd" d="M336.456 738.002L337.589 715.245L361.389 715.245C378.317 726.623 405.589 733.667 405.589 733.667V738.002H362.522L347.789 735.835V738.002H336.456Z" fill="#ECF9FF"/>
<path fill-rule="evenodd" clip-rule="evenodd" d="M336.456 738.002L337.589 715.245L361.389 715.245C378.317 726.623 405.589 733.667 405.589 733.667V738.002H362.522L347.789 735.835V738.002H336.456Z" fill="#020E2C"/>
<path fill-rule="evenodd" clip-rule="evenodd" d="M196.045 537.553C199.066 531.017 211.433 464.907 211.433 464.907L231.285 464.315C231.285 464.315 212.022 535.571 210.458 539.761C208.427 545.205 212.479 552.874 215.227 558.074C215.652 558.878 216.046 559.623 216.381 560.292C212.884 561.963 211.112 560.149 209.243 558.237C207.132 556.078 204.898 553.793 199.919 556.261C197.995 557.214 196.182 558.326 194.411 559.412C188.293 563.162 182.673 566.608 174.703 562.184C173.439 561.483 171.984 558.728 175.182 556.428C183.148 550.695 194.568 540.749 196.045 537.553ZM400.867 472.568L362.953 450.992L357.187 470.537L393.564 481.045C404.638 491.318 410.657 495.457 411.623 493.461C412.436 491.777 411.508 490.375 410.653 489.084C409.986 488.078 409.365 487.139 409.646 486.187C410.287 484.012 416.934 483.552 423.26 483.377C429.587 483.203 427.465 480.67 425.807 479.482C418.999 476.403 410.686 474.098 400.867 472.568Z" fill="#D4A181"/>
<path fill-rule="evenodd" clip-rule="evenodd" d="M278.445 374.092L289.741 368.162C313.167 404.968 344.356 439.112 390.746 464.503L383.766 483.082C344.439 468.762 307.84 458.679 288.608 430.345C282.154 420.835 280.295 386.472 278.445 374.092Z" fill="#ECF9FF"/>
<path fill-rule="evenodd" clip-rule="evenodd" d="M278.445 374.092L289.741 368.162C313.167 404.968 344.356 439.112 390.746 464.503L383.766 483.082C344.439 468.762 307.84 458.679 288.608 430.345C282.154 420.835 280.295 386.472 278.445 374.092Z" fill="black" fill-opacity="0.04"/>
<path fill-rule="evenodd" clip-rule="evenodd" d="M257.387 492.646C257.387 492.646 309.887 489.101 338.519 478.684C340.884 477.823 340.549 473.769 338.926 471.258C313.659 432.149 294.91 397.457 289.621 368.183C285.194 371.406 272.745 371.825 272.745 371.825C256.432 405.738 252.681 442.074 257.387 492.646Z" fill="#0E9C99"/>
<path fill-rule="evenodd" clip-rule="evenodd" d="M257.387 492.646C257.387 492.646 309.887 489.101 338.519 478.684C340.884 477.823 340.549 473.769 338.926 471.258C313.659 432.149 294.91 397.457 289.621 368.183C285.194 371.406 272.745 371.825 272.745 371.825C256.432 405.738 252.681 442.074 257.387 492.646Z" fill="black" fill-opacity="0.2"/>
<path fill-rule="evenodd" clip-rule="evenodd" d="M266.051 370.37C266.546 369.904 266.81 369.67 266.81 369.67L266.878 370.227L275.948 368.667C276.875 371.2 279.292 380.766 282.816 394.714C295.62 445.4 323.045 553.957 346.766 593.225L235.504 612.372C229.216 564.169 236.974 503.896 246.94 452.136C235.537 467.918 223.45 493.164 217.159 532.81L195.376 531.183C200.503 438.351 254.419 381.652 265.01 371.366C265.08 371.08 265.15 370.796 265.219 370.513L266.051 370.37Z" fill="#ECF9FF"/>
<path fill-rule="evenodd" clip-rule="evenodd" d="M266.051 370.37C266.546 369.904 266.81 369.67 266.81 369.67L266.878 370.227L275.948 368.667C276.875 371.2 279.292 380.766 282.816 394.714C295.62 445.4 323.045 553.957 346.766 593.225L235.504 612.372C229.216 564.169 236.974 503.896 246.94 452.136C235.537 467.918 223.45 493.164 217.159 532.81L195.376 531.183C200.503 438.351 254.419 381.652 265.01 371.366C265.08 371.08 265.15 370.796 265.219 370.513L266.051 370.37Z" fill="white" fill-opacity="0.5"/>
<path d="M157.001 817.5C157.001 827.993 148.494 836.5 138.001 836.5C127.508 836.5 119.001 827.993 119.001 817.5C119.001 807.007 127.508 798.5 138.001 798.5C148.494 798.5 157.001 807.007 157.001 817.5Z" fill="#148F47"/>
<path d="M21.889 186.205C21.9671 184.697 23.6238 183.816 24.9175 184.594L59.0043 205.105C60.3363 205.907 60.2847 207.855 58.912 208.585L22.7684 227.803C21.3958 228.532 19.7517 227.486 19.8321 225.933L21.889 186.205Z" fill="#30638E"/>
<defs>
<clipPath id="clip0_301_1395">
<rect width="158" height="42" fill="white" transform="translate(492 272)"/>
</clipPath>
<clipPath id="clip1_301_1395">
<rect width="100" height="16.8" fill="white" transform="translate(501 284.6)"/>
</clipPath>
<clipPath id="clip2_301_1395">
<rect width="167" height="204" fill="white" transform="translate(615 264)"/>
</clipPath>
<clipPath id="clip3_301_1395">
<rect width="167" height="54" fill="white" transform="translate(615 264)"/>
</clipPath>
<clipPath id="clip4_301_1395">
<rect width="109" height="21.6" fill="white" transform="translate(654 280.2)"/>
</clipPath>
<clipPath id="clip5_301_1395">
<rect width="167" height="42" fill="white" transform="translate(615 326)"/>
</clipPath>
<clipPath id="clip6_301_1395">
<rect width="109" height="16.8" fill="white" transform="translate(654 338.6)"/>
</clipPath>
<clipPath id="clip7_301_1395">
<rect width="167" height="42" fill="white" transform="translate(615 376)"/>
</clipPath>
<clipPath id="clip8_301_1395">
<rect width="109" height="16.8" fill="white" transform="translate(654 388.6)"/>
</clipPath>
<clipPath id="clip9_301_1395">
<rect width="167" height="42" fill="white" transform="translate(615 426)"/>
</clipPath>
<clipPath id="clip10_301_1395">
<rect width="109" height="16.8" fill="white" transform="translate(654 438.6)"/>
</clipPath>
</defs>
</svg>
