<svg width="1180" height="724" viewBox="0 0 1180 724" fill="none" xmlns="http://www.w3.org/2000/svg">
<path fill-rule="evenodd" clip-rule="evenodd" d="M448.581 393.21C555.431 297.104 591.43 309.819 844.931 258.604C906.999 246.065 1025.58 265.794 1083.5 393.21C1155.45 551.499 965.934 620.98 844.931 626C519.5 639.5 190.082 667.21 448.581 393.21Z" fill="#E5DED3"/>
<path d="M760.5 675C682 675 706.001 675 637.5 675C428.501 675 503.309 624.363 542 614C598 599 635.555 595.27 760.5 599C1095.5 609 1007.33 675 760.5 675Z" fill="#C5C5D0"/>
<path fill-rule="evenodd" clip-rule="evenodd" d="M681.038 261.846C674.529 265.692 668.15 267.522 665.17 266.726C657.698 264.731 657.248 237.328 663.137 226.578C669.026 215.827 698.856 211.38 700.171 232.793C700.627 240.224 697.451 246.825 692.796 252.194L700.722 290.774L676.723 290.565L681.038 261.846Z" fill="#D4A181"/>
<path fill-rule="evenodd" clip-rule="evenodd" d="M672.72 214.897C676.008 213.925 680.771 213.628 682.772 213.875C681.656 211.135 681.231 208.091 681.625 205.133C682.008 202.259 683.315 199.821 684.527 197.264C685.085 196.086 685.716 194.915 686.65 194.018C687.601 193.104 688.801 192.506 690.055 192.227C691.339 191.94 692.679 191.977 693.96 192.258C694.526 192.382 695.034 192.646 695.589 192.795C696.158 192.948 696.438 192.594 696.855 192.239C697.859 191.383 699.325 190.969 700.588 190.828C702.005 190.669 703.472 190.895 704.818 191.372C706.128 191.837 707.384 192.583 708.325 193.663C708.744 194.144 709.123 194.69 709.367 195.292C709.468 195.539 709.483 195.685 709.728 195.777C709.954 195.863 710.22 195.867 710.454 195.949C712.713 196.736 714.634 198.504 715.67 200.76C716.274 202.077 716.545 204.389 716.443 206.976C716.34 209.563 713.945 216.295 711.738 218.738C709.768 220.92 706.888 222.345 704.115 222.956C705.933 225.072 707.133 227.706 708.014 230.382C708.971 233.289 709.552 236.306 709.75 239.376C709.938 242.293 709.931 245.376 709.222 248.223C708.56 250.886 707.173 253.063 704.879 254.431C703.827 255.058 702.698 255.526 701.563 255.953C700.444 256.374 699.322 256.782 698.152 257.014C695.938 257.451 693.391 257.351 691.704 255.576C691.096 254.937 690.428 254.134 689.987 253.355C689.828 253.075 689.733 252.892 689.931 252.621C690.168 252.297 690.549 252.05 690.852 251.798C692.581 250.357 693.661 248.424 693.949 246.118C694.241 243.778 693.638 240.75 691.37 239.707C688.57 238.421 685.462 239.842 682.951 241.171C681.922 237.414 679.771 234.02 676.368 232.272C672.603 230.337 668.266 230.076 664.394 228.411C663.385 227.977 662.357 227.485 661.619 226.612C661.311 226.247 660.95 225.774 660.829 225.294C660.671 224.664 661.082 224.14 661.399 223.652C663.084 221.066 669.432 215.868 672.72 214.897Z" fill="#0F182E"/>
<path fill-rule="evenodd" clip-rule="evenodd" d="M707.875 387.84L670.144 513.742L652.088 608.361L634.796 608.211L653.986 387.37L707.875 387.84Z" fill="#997659"/>
<path fill-rule="evenodd" clip-rule="evenodd" d="M724.336 387.984C721.208 453.533 721.904 489.307 722.424 495.269C722.944 501.231 725.844 541.159 747.364 611.193L729.378 611.036C700.656 543.78 690.773 503.791 687.489 494.964C684.204 486.137 674.589 450.286 660.643 387.428L724.336 387.984Z" fill="#8E5B4C"/>
<path fill-rule="evenodd" clip-rule="evenodd" d="M708.661 387.847C698.754 431.197 681.67 500.384 657.409 595.407L632.116 595.187C631.101 497.428 639.61 433.166 653.772 387.368L708.661 387.847Z" fill="#3C52AB"/>
<path fill-rule="evenodd" clip-rule="evenodd" d="M708.661 387.847C698.754 431.197 681.67 500.384 657.409 595.407L632.116 595.187C631.101 497.428 639.61 433.166 653.772 387.368L708.661 387.847Z" fill="black" fill-opacity="0.2"/>
<path fill-rule="evenodd" clip-rule="evenodd" d="M724.464 387.985C721.389 453.535 727.312 518.192 746.719 597.208L719.734 596.972C690.949 530.716 670.466 466.25 656.771 387.394L724.464 387.985Z" fill="#3C52AB"/>
<path fill-rule="evenodd" clip-rule="evenodd" d="M749.814 624.215L749.027 609.457C748.993 608.817 748.374 608.373 747.746 608.501C739.063 610.266 727.146 606.017 727.146 606.017C715.041 614.433 697.663 618.193 691.546 619.31C690.363 619.527 689.594 620.712 689.912 621.872L691.237 626.704L726.963 627.016L747.803 627.198L749.814 624.215Z" fill="#020E2C"/>
<path fill-rule="evenodd" clip-rule="evenodd" d="M655.817 623.395L655.031 608.637C654.997 607.996 654.378 607.553 653.749 607.68C645.066 609.446 633.149 605.196 633.149 605.196C621.044 613.613 603.667 617.373 597.55 618.49C596.366 618.706 595.597 619.892 595.916 621.052L597.24 625.884L632.966 626.196L653.806 626.377L655.817 623.395Z" fill="#020E2C"/>
<path fill-rule="evenodd" clip-rule="evenodd" d="M618.079 335.709L584.811 314.277C576.033 312.475 568.641 310.017 562.635 306.903C561.19 305.74 559.382 303.316 565.084 303.405C570.787 303.494 576.789 303.332 577.454 301.348C578.119 299.364 574.542 297.259 575.966 294.55C576.915 292.744 582.168 296.806 591.725 306.735L624.054 317.881L618.079 335.709Z" fill="#D4A181"/>
<path fill-rule="evenodd" clip-rule="evenodd" d="M677.391 289.934L694.534 290.532C694.17 302.097 675.87 339.007 671.084 348.405C657.866 353.909 622.806 340.485 600.877 327.562C597.633 327.512 594.17 326.659 590.52 325.041C588.818 324.288 588.069 322.381 588.845 320.782C589.002 320.459 589.209 320.173 589.454 319.929C589.401 319.887 589.347 319.845 589.294 319.803L596.197 302.033C597.34 302.587 598.473 303.137 599.597 303.682C642.985 324.737 671.317 338.485 677.391 289.934Z" fill="#ECF9FF"/>
<path fill-rule="evenodd" clip-rule="evenodd" d="M677.391 289.934L694.534 290.532C694.17 302.097 675.87 339.007 671.084 348.405C657.866 353.909 622.806 340.485 600.877 327.562C597.633 327.512 594.17 326.659 590.52 325.041C588.818 324.288 588.069 322.381 588.845 320.782C589.002 320.459 589.209 320.173 589.454 319.929C589.401 319.887 589.347 319.845 589.294 319.803L596.197 302.033C597.34 302.587 598.473 303.137 599.597 303.682C642.985 324.737 671.317 338.485 677.391 289.934Z" fill="white" fill-opacity="0.26"/>
<path fill-rule="evenodd" clip-rule="evenodd" d="M723.814 394.889C723.814 394.889 676.613 399.658 649.58 394.241C647.348 393.794 647.53 384.153 648.59 381.529C665.099 340.667 675.986 310.743 676.235 282.262C680.66 284.623 691.788 283.094 691.788 283.094C711.445 312.618 720.304 346.373 723.814 394.889Z" fill="#3C52AB"/>
<path fill-rule="evenodd" clip-rule="evenodd" d="M723.814 394.889C723.814 394.889 676.613 399.658 649.58 394.241C647.348 393.794 647.53 384.153 648.59 381.529C665.099 340.667 675.986 310.743 676.235 282.262C680.66 284.623 691.788 283.094 691.788 283.094C711.445 312.618 720.304 346.373 723.814 394.889Z" fill="black" fill-opacity="0.2"/>
<path fill-rule="evenodd" clip-rule="evenodd" d="M701.557 503.163C723.885 500.463 748.672 497.467 772.952 507.412C772.19 487.055 760.506 464.426 748.874 441.899C741.501 427.619 734.149 413.381 729.614 399.788C730.69 398.793 731.26 397.292 731 395.738L730.505 392.779C730.169 390.774 728.556 389.302 726.638 389.057C726.316 387.554 726.039 386.061 725.813 384.58C724.658 377.011 725.503 369.548 726.338 362.169C727.415 352.655 728.476 343.281 725.215 333.997C721.086 322.245 714.377 310.501 708.449 300.125C704.285 292.835 700.506 286.221 698.278 280.752L688.462 280.666C689.602 297.713 683.333 322.449 676.06 351.145C664.43 397.038 650.233 453.058 659.67 503.942C671.795 506.761 686.086 505.033 701.557 503.163Z" fill="#ECF9FF"/>
<path fill-rule="evenodd" clip-rule="evenodd" d="M701.557 503.163C723.885 500.463 748.672 497.467 772.952 507.412C772.19 487.055 760.506 464.426 748.874 441.899C741.501 427.619 734.149 413.381 729.614 399.788C730.69 398.793 731.26 397.292 731 395.738L730.505 392.779C730.169 390.774 728.556 389.302 726.638 389.057C726.316 387.554 726.039 386.061 725.813 384.58C724.658 377.011 725.503 369.548 726.338 362.169C727.415 352.655 728.476 343.281 725.215 333.997C721.086 322.245 714.377 310.501 708.449 300.125C704.285 292.835 700.506 286.221 698.278 280.752L688.462 280.666C689.602 297.713 683.333 322.449 676.06 351.145C664.43 397.038 650.233 453.058 659.67 503.942C671.795 506.761 686.086 505.033 701.557 503.163Z" fill="white" fill-opacity="0.35"/>
<path fill-rule="evenodd" clip-rule="evenodd" d="M601.576 359.203C602.43 356.869 610.882 359.963 610.027 362.297C607.607 368.906 602.146 374.009 593.958 377.634C591.686 378.64 589.028 377.613 588.022 375.34C587.016 373.068 588.042 370.41 590.315 369.404C596.431 366.696 600.08 363.286 601.576 359.203Z" fill="#D9F0F3"/>
<path fill-rule="evenodd" clip-rule="evenodd" d="M601.132 357.647L585.959 349.139C585.959 349.139 582.857 336.901 578.395 336.785C576.119 335.702 580.009 346.022 575.684 345.093C571.359 344.163 560.853 336.206 559.017 337.787C556.301 340.126 558.641 347.401 561.442 351.034C566.676 357.824 571.038 360.169 581.844 363.284C590.318 365.726 600.13 372.939 600.13 372.939L601.132 357.647Z" fill="#D4A181"/>
<path fill-rule="evenodd" clip-rule="evenodd" d="M692.217 348.477C692.217 348.477 685.043 352.667 666.138 358.975C647.234 365.284 599.053 347.664 599.053 347.664C599.053 347.664 586.531 361.723 587.297 371.689C680.74 403.104 708.896 385.349 709.372 330.852L692.217 348.477Z" fill="#ECF9FF"/>
<path fill-rule="evenodd" clip-rule="evenodd" d="M692.217 348.477C692.217 348.477 685.043 352.667 666.138 358.975C647.234 365.284 599.053 347.664 599.053 347.664C599.053 347.664 586.531 361.723 587.297 371.689C680.74 403.104 708.896 385.349 709.372 330.852L692.217 348.477Z" fill="white" fill-opacity="0.35"/>
<path fill-rule="evenodd" clip-rule="evenodd" d="M445.5 342.5C548.571 147.191 182.742 -5.20192 119.242 12.7231C16.0175 41.8547 62.445 204.887 136.742 319.223C206.742 413.723 375.071 463.691 445.5 342.5Z" fill="#E1E1EC"/>
<path fill-rule="evenodd" clip-rule="evenodd" d="M343.618 137.945C346.804 144.802 351.024 149.923 353.93 150.955C361.219 153.543 377.11 131.214 378.346 119.019C379.582 106.824 357.517 86.2631 344.306 103.165C339.72 109.031 338.599 116.27 339.395 123.331L311.01 150.637L330.907 164.058L343.618 137.945Z" fill="#8E5B4C"/>
<path fill-rule="evenodd" clip-rule="evenodd" d="M373.967 101.049C371.634 98.8504 364.773 93.7924 363.471 92.9144C362.639 92.3534 361.609 91.9354 361.631 90.8384C361.65 89.9404 362.511 88.9824 362.881 88.1744C363.31 87.2374 363.673 86.2704 364.032 85.3044C365.054 82.5554 365.706 79.7244 365.92 76.7974C366.321 71.3054 365.088 65.9604 362.107 61.3234C358.815 56.2034 353.876 52.2074 348.616 49.2484C342.988 46.0814 336.968 44.5842 330.811 42.8434C324.944 41.1845 319.494 38.414 314.993 34.2551C310.458 30.0649 308.483 24.7436 305.971 19.2619C303.399 13.65 299.583 8.53933 294.147 5.45603C289.074 2.57793 283.287 1.57143 277.506 1.54163C272.098 1.51383 267.001 2.43132 262.421 5.47262C257.494 8.74393 254.141 13.72 254.513 19.799C255.052 28.6104 262.312 35.6914 269.294 40.1841C273.333 42.7829 277.733 44.6932 282.382 45.9064C288.583 47.5244 294.93 47.4574 301.254 48.1964C304.222 48.5424 307.127 49.1424 309.965 50.0774C312.719 50.9844 315.2 52.2224 316.352 55.0324C317.569 58.0054 318.576 60.7974 320.487 63.4324C322.32 65.9614 324.561 68.1954 327.165 69.9224C332.233 73.2844 338.262 75.0654 343.867 77.3154C348.439 79.1504 353.287 81.1774 356.801 84.7474C358.268 86.2374 360.27 88.6214 359.691 90.8004C348.104 85.7074 335.437 95.7414 332.025 107.078C330.183 113.197 335.637 125.482 341.103 125.298C344.566 125.182 344.646 122.018 344.717 119.941C344.853 115.963 346.677 111.967 351.229 112.205C355.156 112.41 355.403 118.379 355.462 118.412C356.27 118.869 365.436 119.592 373.7 117.2C378.029 120.509 380.719 117.997 381.282 114.839C381.846 111.681 377.189 104.088 373.967 101.049Z" fill="#0F182E"/>
<mask id="mask0_37_87" style="mask-type:alpha" maskUnits="userSpaceOnUse" x="61" y="94" width="268" height="297">
<path fill-rule="evenodd" clip-rule="evenodd" d="M311.46 378.308C386.357 350.395 187.395 82.9944 113.758 94.8514C40.1226 106.709 47.1845 182.956 113.758 286.487C180.332 390.019 234.834 406.865 311.46 378.308Z" fill="#F9E9D0"/>
</mask>
<g mask="url(#mask0_37_87)">
<path fill-rule="evenodd" clip-rule="evenodd" d="M135.875 378.577L181.726 415.707L241.487 323.521L301.247 231.335L258.227 196.499L135.875 378.577Z" fill="#A62F5D"/>
<path fill-rule="evenodd" clip-rule="evenodd" d="M135.875 378.577L181.726 415.707L241.487 323.521L301.247 231.335L258.227 196.499L135.875 378.577Z" fill="black" fill-opacity="0.1"/>
<path fill-rule="evenodd" clip-rule="evenodd" d="M89.7559 358.548L137.12 396.902C137.12 396.902 189.538 357.523 206.787 336.222C231.645 305.525 289.858 233.639 289.858 233.639L246.45 198.488C246.45 198.488 171.337 293.542 167.785 295.631C164.232 297.72 89.7559 358.548 89.7559 358.548Z" fill="#A62F5D"/>
</g>
<path d="M474.695 240.96L431.274 227.685C429.162 227.039 426.926 228.228 426.28 230.341L408.293 289.171C407.648 291.284 408.837 293.52 410.949 294.166L454.37 307.441C456.482 308.087 458.718 306.898 459.364 304.785L477.35 245.955C477.996 243.842 476.807 241.606 474.695 240.96Z" fill="#EEF1FF"/>
<path d="M474.695 240.96L431.274 227.685C429.162 227.039 426.926 228.228 426.28 230.341L408.293 289.171C407.648 291.284 408.837 293.52 410.949 294.166L454.37 307.441C456.482 308.087 458.718 306.898 459.364 304.785L477.35 245.955C477.996 243.842 476.807 241.606 474.695 240.96Z" fill="black" fill-opacity="0.2"/>
<path d="M473.695 238.96L430.274 225.685C428.162 225.039 425.926 226.228 425.28 228.341L407.293 287.171C406.648 289.284 407.837 291.52 409.949 292.166L453.37 305.441C455.482 306.087 457.718 304.898 458.364 302.785L476.35 243.955C476.996 241.842 475.807 239.606 473.695 238.96Z" fill="#EEF1FF"/>
<path d="M458.117 245.779L470.117 249.779" stroke="black"/>
<path d="M442.117 286.778L454.117 290.778" stroke="black"/>
<path d="M425.117 247.778L437.117 251.778" stroke="black"/>
<path d="M421.105 262.775L460.105 274.775" stroke="black"/>
<path d="M419.105 267.775L458.105 279.775" stroke="black"/>
<path d="M423.105 257.775L462.105 269.775" stroke="black"/>
<path d="M430.107 253.775L459.107 262.775" stroke="black"/>
<path d="M456.117 250.778L468.117 254.778" stroke="black"/>
<path fill-rule="evenodd" clip-rule="evenodd" d="M409.571 237.621L373.789 220.714L370.193 239.17L403.7 246.001C414.472 254.598 420.21 257.939 420.915 256.024C421.509 254.411 420.606 253.28 419.771 252.234C419.119 251.418 418.509 250.654 418.685 249.754L420.185 244.754L422.019 239.254C419.369 238.319 418.606 238.265 411.211 237.738C410.697 237.701 410.151 237.662 409.571 237.621ZM173.008 189.173C179.354 187.261 232.789 155.555 232.789 155.555L244.935 168.7C244.935 168.7 183.834 198.839 179.986 200.318C174.987 202.239 172.031 209.65 170.027 214.674C169.717 215.452 169.43 216.172 169.161 216.806C165.929 215.441 166.147 213.135 166.376 210.703C166.635 207.956 166.91 205.05 162.245 203.161C160.443 202.431 158.596 201.872 156.791 201.326C150.558 199.441 144.832 197.708 143.209 189.602C142.951 188.317 144.013 185.655 147.508 186.434C156.216 188.375 169.905 190.107 173.008 189.173Z" fill="#8E5B4C"/>
<path fill-rule="evenodd" clip-rule="evenodd" d="M310.125 143.431L320.619 138.582C331.822 195.74 332.092 199.26 406.053 233.086L398.73 249.849C364.163 234.458 330.405 239.244 314.7 212.029C309.429 202.895 305.286 153.786 310.125 143.431Z" fill="#ECF9FF"/>
<path fill-rule="evenodd" clip-rule="evenodd" d="M310.125 143.431L320.619 138.582C331.822 195.74 332.092 199.26 406.053 233.086L398.73 249.849C364.163 234.458 330.405 239.244 314.7 212.029C309.429 202.895 305.286 153.786 310.125 143.431Z" fill="white" fill-opacity="0.31"/>
<path fill-rule="evenodd" clip-rule="evenodd" d="M232.176 209.043C232.176 209.043 265.678 242.606 289.869 255.761C291.867 256.848 294.498 254.16 295.291 251.532C307.645 210.61 320.769 176.803 338.069 155.44C333.203 154.384 325.553 146.17 325.553 146.17C292.25 155.653 264.681 175.152 232.176 209.043Z" fill="#A62F5D"/>
<path fill-rule="evenodd" clip-rule="evenodd" d="M232.176 209.043C232.176 209.043 265.678 242.606 289.869 255.761C291.867 256.848 294.498 254.16 295.291 251.532C307.645 210.61 320.769 176.803 338.069 155.44C333.203 154.384 325.553 146.17 325.553 146.17C292.25 155.653 264.681 175.152 232.176 209.043Z" fill="#30638E" fill-opacity="0.2"/>
<path fill-rule="evenodd" clip-rule="evenodd" d="M322.613 140.732C323.23 140.786 323.549 140.823 323.549 140.823L323.2 141.208L329.65 146.431C328.43 148.599 323.184 156.048 315.535 166.91C287.738 206.38 228.203 290.914 214.825 330.88L135.707 266.812C165.623 233.282 212.262 201.983 254.267 177.352C236.516 179.172 211.758 186.27 180.378 206.05L168.639 190.245C236.44 137.397 307.866 139.666 321.302 140.628C321.543 140.502 321.783 140.377 322.021 140.253L322.613 140.732Z" fill="#ECF9FF"/>
<path fill-rule="evenodd" clip-rule="evenodd" d="M322.613 140.732C323.23 140.786 323.549 140.823 323.549 140.823L323.2 141.208L329.65 146.431C328.43 148.599 323.184 156.048 315.535 166.91C287.738 206.38 228.203 290.914 214.825 330.88L135.707 266.812C165.623 233.282 212.262 201.983 254.267 177.352C236.516 179.172 211.758 186.27 180.378 206.05L168.639 190.245C236.44 137.397 307.866 139.666 321.302 140.628C321.543 140.502 321.783 140.377 322.021 140.253L322.613 140.732Z" fill="white" fill-opacity="0.61"/>
<path fill-rule="evenodd" clip-rule="evenodd" d="M833.623 346.426C842.456 367.415 857.471 381.999 865.424 403.823C870.139 416.766 872.105 430.838 872.224 445.25C872.289 453.078 872.153 460.912 872.116 468.74C872.081 476.374 871.873 483.96 871.225 491.545C870.574 499.17 869.845 506.705 869.523 514.377C869.273 520.356 869.159 527.309 867.132 532.762C865.521 537.099 861.425 537.734 860.338 532.475C859.735 529.551 859.811 526.287 859.877 523.282C859.963 519.426 860.187 515.577 860.301 511.722C860.761 496.254 860.165 480.784 860.476 465.31C860.781 450.191 862.724 435.089 860.574 420.072C858.798 407.67 854.287 397.021 849.103 386.811C844.116 376.989 838.687 367.405 835.317 356.233C834.349 353.024 833.601 349.699 833.242 346.248C833.399 346.176 833.526 346.235 833.623 346.426Z" fill="#C1DEE2"/>
<path fill-rule="evenodd" clip-rule="evenodd" d="M831.215 387.836C832.964 389.099 833.942 390.947 835.124 392.77C836.594 395.036 838.322 397.082 839.792 399.35C842.857 404.079 845.55 409.098 848.343 414.018C853.647 423.357 857.674 433.31 859.669 444.114C861.736 455.311 862.294 466.868 863.161 478.231C864.081 490.275 865.007 502.407 865.129 514.498C865.183 519.915 865.476 525.665 864.826 531.044C864.421 534.392 862.91 537.246 859.503 537.219C852.267 537.162 848.869 529.147 847.45 522.573C845.361 512.894 844.944 502.612 845.274 492.713C845.674 480.777 847.746 469.021 848.642 457.131C849.592 444.544 849.055 432.179 844.728 420.328C842.542 414.339 840.004 408.494 837.726 402.544C836.756 400.011 835.961 397.409 834.651 395.051C833.193 392.427 831.383 390.045 830.242 387.219C830.566 387.425 830.891 387.631 831.215 387.836Z" fill="#89C5CC"/>
<path fill-rule="evenodd" clip-rule="evenodd" d="M914.577 362.737C914.799 362.564 915.021 362.392 915.243 362.219C914.604 364.912 913.449 367.099 912.567 369.561C911.774 371.773 911.372 374.277 910.837 376.696C909.583 382.377 908.133 387.93 906.948 393.659C904.603 404.996 905.046 417.209 906.585 429.787C908.037 441.669 910.335 453.532 911.43 465.411C912.338 475.262 912.728 485.421 911.862 494.82C911.274 501.204 909.345 508.825 904.091 508.181C901.617 507.878 900.327 504.9 899.807 501.539C898.972 496.141 898.797 490.465 898.471 485.097C897.745 473.115 897.6 461.17 897.457 449.312C897.321 438.123 896.947 426.713 897.695 415.807C898.416 405.282 900.671 395.799 903.896 387.049C905.594 382.439 907.212 377.721 909.121 373.328C910.036 371.22 911.154 369.358 912.069 367.252C912.805 365.558 913.391 363.82 914.577 362.737Z" fill="#C1DEE2"/>
<path fill-rule="evenodd" clip-rule="evenodd" d="M833.451 422.521C834.407 420.915 836.514 426.213 836.834 426.879C836.699 426.548 836.563 426.217 836.425 425.886C838.325 429.044 840.062 432.332 841.143 435.953C842.212 439.538 843.13 443.196 844.133 446.806C846.015 453.58 848.443 460.162 850.149 466.997C851.81 473.657 852.229 480.205 851.827 487.094C851.409 494.255 851.153 501.525 851.641 508.681C851.874 512.099 852.984 515.283 853.746 518.574C854.508 521.867 855.108 525.205 856.009 528.458C856.216 528.034 856.242 529.451 856.242 529.558C856.236 530.371 856.123 531.053 855.861 531.823C855.189 533.805 853.932 535.488 852.02 536.035C848.563 537.022 845.354 533.878 844.239 530.558C842.64 525.795 841.759 520.53 840.997 515.523C840.298 510.932 840.133 506.313 840.341 501.659C840.75 492.48 842.411 483.421 842.86 474.245C843.349 464.255 841.37 454.869 839.713 445.144C838.914 440.458 838.151 435.817 836.598 431.353C835.969 429.545 835.149 427.95 834.289 426.281C833.8 425.331 832.811 423.637 833.451 422.521Z" fill="#C1DEE2"/>
<path fill-rule="evenodd" clip-rule="evenodd" d="M861.495 406.916C861.098 418.361 860.415 429.719 858.889 441.043C857.332 452.6 855.543 464.116 854.045 475.683C852.586 486.942 851.057 498.388 851.261 509.804C851.411 518.213 850.017 532.438 859.356 536.588C868.815 540.791 870.844 522.843 871.465 516.918C872.655 505.552 872.27 494.066 871.692 482.638C871.099 470.909 870.109 459.239 868.882 447.553C867.52 434.572 866.45 421.533 865.592 408.515C865.168 402.076 865.063 395.648 865.18 389.207C865.291 383.13 865.06 376.99 862.899 371.219C862.786 371.301 862.674 371.383 862.56 371.465" fill="#69A1AC"/>
<path fill-rule="evenodd" clip-rule="evenodd" d="M910.325 443.174C908.624 445.653 906.91 448.106 905.303 450.731C902.429 455.428 899.83 460.651 899.048 467.366C897.411 481.42 898.724 496.598 899.041 511.082C899.106 514.042 898.731 516.912 899.898 519.729C900.956 522.283 902.933 524.23 904.818 524.219C908.854 524.196 908.238 514.315 908.244 509.965C908.257 502.342 907.402 494.641 907.475 487.025C907.549 479.48 908.008 471.913 909.102 464.747C910.209 457.494 911.831 450.529 913.972 444.029C914.269 443.127 916.401 436.157 914.387 437.358" fill="#89C5CC"/>
<path fill-rule="evenodd" clip-rule="evenodd" d="M892.504 368.219C889.851 368.219 889.867 381.445 889.787 383.144C889.499 389.275 889.567 395.407 889.384 401.539C888.985 414.92 888.495 428.419 886.485 441.646C885.403 448.766 884.148 455.855 882.799 462.921C881.445 470.008 879.629 477.086 878.738 484.263C877.883 491.162 878.366 498.196 878.484 505.13C878.601 512.104 878.812 519.093 879.725 526.007C879.951 527.714 880.215 529.414 880.498 531.11C880.734 532.524 880.597 534.277 880.995 535.62C881.635 537.772 884.375 538.476 886.22 538.139C891.212 537.228 894.401 530.959 896.107 526.379C898.285 520.53 899.44 514.187 900.581 508.023C901.873 501.041 902.63 493.951 902.985 486.842C903.707 472.394 902.781 457.931 901.746 443.529C901.17 435.52 900.505 427.546 899.488 419.586C898.474 411.66 897.174 403.77 896.328 395.821C895.713 390.044 895.107 384.259 894.708 378.461C894.613 377.078 894.533 368.219 892.504 368.219Z" fill="#69A1AC"/>
<path fill-rule="evenodd" clip-rule="evenodd" d="M889.182 464.358C888.75 450.472 883.168 389.478 881.898 372.686C881.581 368.483 878.523 350.984 878.127 346.219C877.051 347.566 877.143 368.529 877.155 373.345C877.167 378.11 876.577 382.796 876.273 387.535C875.963 392.37 868.814 454.82 867.886 459.466C866.041 468.71 864.806 478.196 863.853 487.647C862.925 496.859 861.482 506.577 862.724 515.837C863.009 517.969 863.461 520.067 864.196 522.025C864.991 524.141 865.536 526.098 866.173 528.312C867.2 531.879 869.057 535.009 871.91 536.481C877.759 539.5 880.9 532.666 882.492 526.716C885.035 517.214 886.667 507.557 887.432 497.578C888.279 486.538 889.529 475.474 889.182 464.358Z" fill="#89C5CC"/>
<path d="M916.242 505.219H829.242C828.138 505.219 827.242 506.114 827.242 507.219V594.219C827.242 595.323 828.138 596.219 829.242 596.219H916.242C917.347 596.219 918.242 595.323 918.242 594.219V507.219C918.242 506.114 917.347 505.219 916.242 505.219Z" fill="#A7A49E"/>
<path d="M825.242 515.219H819.242C818.138 515.219 817.242 516.114 817.242 517.219V626.219C817.242 627.323 818.138 628.219 819.242 628.219H825.242C826.347 628.219 827.242 627.323 827.242 626.219V517.219C827.242 516.114 826.347 515.219 825.242 515.219Z" fill="#FFFAFF"/>
<path d="M875.242 515.219H869.242C868.138 515.219 867.242 516.114 867.242 517.219V626.219C867.242 627.323 868.138 628.219 869.242 628.219H875.242C876.347 628.219 877.242 627.323 877.242 626.219V517.219C877.242 516.114 876.347 515.219 875.242 515.219Z" fill="#FFFAFF"/>
<path d="M926.242 515.219H920.242C919.138 515.219 918.242 516.114 918.242 517.219V626.219C918.242 627.323 919.138 628.219 920.242 628.219H926.242C927.347 628.219 928.242 627.323 928.242 626.219V517.219C928.242 516.114 927.347 515.219 926.242 515.219Z" fill="#FFFAFF"/>
<mask id="mask1_37_87" style="mask-type:luminance" maskUnits="userSpaceOnUse" x="778" y="79" width="99" height="210">
<path d="M877 79H778V289H877V79Z" fill="white"/>
</mask>
<g mask="url(#mask1_37_87)">
<path fill-rule="evenodd" clip-rule="evenodd" d="M827.5 288.674C850.972 288.674 870 278.6 870 266.174C870 253.747 850.972 243.674 827.5 243.674C804.028 243.674 785 253.747 785 266.174C785 278.6 804.028 288.674 827.5 288.674Z" fill="#FCC876"/>
<path fill-rule="evenodd" clip-rule="evenodd" d="M877 281.674C877 254.059 854.838 231.674 827.5 231.674C800.162 231.674 778 254.059 778 281.674" fill="#9DA0A7"/>
<path d="M830 79H825V239H830V79Z" fill="#9DA0A7"/>
</g>
<mask id="mask2_37_87" style="mask-type:luminance" maskUnits="userSpaceOnUse" x="903" y="79" width="74" height="159">
<path d="M977 79H903V238H977V79Z" fill="white"/>
</mask>
<g mask="url(#mask2_37_87)">
<g opacity="0.7">
<path fill-rule="evenodd" clip-rule="evenodd" d="M940 238C957.545 238 971.767 229.871 971.767 219.842C971.767 209.814 957.545 201.684 940 201.684C922.455 201.684 908.232 209.814 908.232 219.842C908.232 229.871 922.455 238 940 238Z" fill="#FCC876"/>
<path fill-rule="evenodd" clip-rule="evenodd" d="M977 232.351C977 210.066 960.434 192 940 192C919.565 192 903 210.066 903 232.351" fill="#767B85"/>
<path d="M943 79H938V215H943V79Z" fill="#767B85"/>
</g>
</g>
<path d="M684.697 314.526L686.59 314.542C687.69 314.552 688.655 313.86 688.932 312.864L690.963 305.551C691.001 305.412 691.215 305.422 691.239 305.563L693.46 318.698C693.46 318.698 693.354 315.144 694.25 314.477C694.665 314.169 696.367 314.584 696.367 314.584" stroke="#89B1F2" stroke-width="2" stroke-miterlimit="10" stroke-linecap="round" stroke-linejoin="round"/>
<path d="M19.3193 227.092L6.43976 231.277C2.88318 232.432 0.936801 236.252 2.0924 239.809C3.24801 243.365 7.06798 245.312 10.6246 244.156L23.5041 239.971C27.0607 238.816 29.007 234.996 27.8514 231.439C26.6958 227.883 22.8758 225.936 19.3193 227.092Z" fill="#F39B10"/>
<path d="M1168.72 21.442C1174.64 21.442 1179.44 16.642 1179.44 10.721C1179.44 4.79996 1174.64 0 1168.72 0C1162.8 0 1158 4.79996 1158 10.721C1158 16.642 1162.8 21.442 1168.72 21.442Z" fill="#02724F"/>
<path d="M1118.59 698.537C1119.3 698.066 1120.26 698.522 1120.34 699.37L1122.48 721.715C1122.56 722.588 1121.66 723.219 1120.87 722.841L1100.02 712.897C1099.23 712.52 1099.15 711.423 1099.88 710.938L1118.59 698.537Z" fill="#89B1F2"/>
</svg>
