<svg width="1143" height="777" viewBox="0 0 1143 777" fill="none" xmlns="http://www.w3.org/2000/svg">
<path fill-rule="evenodd" clip-rule="evenodd" d="M261.245 417.273C317.981 513.75 719.869 728.735 816.847 668.755C966.183 651.749 1017.46 305.552 831.262 254.311C645.069 203.069 227.278 269.986 261.245 417.273Z" fill="#30638E" fill-opacity="0.12"/>
<path fill-rule="evenodd" clip-rule="evenodd" d="M468.516 470.376C479.561 470.376 488.516 479.331 488.516 490.376V670.007C488.516 681.053 479.561 690.007 468.516 690.007H176.003C164.958 690.007 156.003 681.053 156.003 670.007V490.376C156.003 479.331 164.958 470.376 176.003 470.376H468.516ZM436.529 501.475C447.575 501.475 456.529 510.429 456.529 521.475V638.585C456.529 649.631 447.575 658.585 436.529 658.585H208.308C197.262 658.585 188.308 649.631 188.308 638.585V521.475C188.308 510.429 197.262 501.475 208.308 501.475H436.529Z" fill="#5989B1"/>
<path fill-rule="evenodd" clip-rule="evenodd" d="M648.916 280.547C641.916 286.017 634.76 289.123 631.164 288.656C622.147 287.483 617.429 255.7 622.649 242.301C627.869 228.903 661.966 219.155 666.776 243.842C668.445 252.41 665.752 260.57 661.147 267.524L676.292 311.151L648.281 314.591L648.916 280.547Z" fill="#D4A181"/>
<path fill-rule="evenodd" clip-rule="evenodd" d="M625.597 227.93C619.772 229.368 614.975 230.552 612.679 229.461C612.326 239.147 618.169 246.205 635.226 242.608C639.287 244.261 642.48 247.901 646.376 252.711C647.131 252.303 647.974 252.027 648.878 251.916C652.745 251.441 656.264 254.182 656.738 258.038C656.978 259.995 656.387 261.864 655.241 263.291C657.142 265.372 659.25 267.531 661.633 269.734C668.828 264.136 672.941 249.889 663.922 237.73C657.267 220.113 638.793 224.673 625.597 227.93Z" fill="#0F182E"/>
<path fill-rule="evenodd" clip-rule="evenodd" d="M855.223 299.958C859.425 293.992 867.224 278.84 873.138 276.709C876.948 275.336 875.837 289.539 875.884 292.247C876.067 302.725 875.043 313.136 873.778 323.526C871.498 342.264 864.045 358.951 853.822 374.899C848.562 383.105 842.391 391.411 833.845 396.531C829.912 398.889 825.179 399.284 821.294 401.316C816.769 403.681 819.233 401.769 817.194 406.463C814.363 412.98 813.457 421.388 812.147 428.342C806.132 460.264 791.568 629.013 794.093 661.484C794.317 664.362 790.287 665.05 790.085 661.537C789.016 642.907 798.27 513.896 802.94 471.706C807.609 429.515 812.334 392.242 817.071 377.646C822.819 359.937 833.199 338.641 841.84 322.127C845.854 314.455 850.229 307.047 855.223 299.958Z" fill="#97A7A7"/>
<path fill-rule="evenodd" clip-rule="evenodd" d="M886.414 506.882C897.349 498.889 909.186 513.974 899.29 521.969C893.82 526.387 888.101 524.816 884.882 521.133C882.792 523.67 880.836 526.322 878.956 528.562C873.229 535.388 867.817 542.377 862.644 549.529C851.898 564.387 842.689 580.084 833.06 595.494C823.558 610.703 814.132 625.99 805.519 641.584C798.223 654.796 788.498 670.339 786 684.823C789.79 654.105 804.172 624.578 821.298 597.497C838.285 570.639 857.779 541.306 884.081 520.11C881.404 516.191 881.33 510.596 886.414 506.882Z" fill="#D3DCE0"/>
<path fill-rule="evenodd" clip-rule="evenodd" d="M674.913 420.015C681.032 421.138 691.031 434.125 696.075 439.073C702.07 444.953 707.508 451.221 712.635 457.787C723.671 471.922 733.541 486.95 741.934 502.622C755.616 528.17 766.578 554.395 774.533 582.216C779.403 599.245 782.556 616.896 784.424 634.423C784.777 637.729 788.471 663.214 783.148 663.901C778.361 664.52 779.84 644.55 779.609 641.833C776.998 611.187 769.177 581.369 758.299 552.483C755.929 546.19 753.728 538.483 749.938 532.821C747.209 528.742 749.919 530.164 745.123 528.621C741.005 527.295 736.313 527.619 732.096 525.995C722.936 522.471 715.601 515.629 709.171 508.746C696.676 495.371 686.774 480.901 681.613 463.762C678.749 454.26 676.118 444.702 674.658 434.905C674.281 432.373 670.972 419.292 674.913 420.015Z" fill="#97A7A7"/>
<path fill-rule="evenodd" clip-rule="evenodd" d="M703.061 202.656C726.111 242.456 745.053 286.175 757.283 330.455C764.694 357.284 769.876 384.815 775.025 412.147C782.997 454.467 790.538 496.783 792.683 539.855C794.841 583.176 799.108 633.142 784.861 674.867C791.978 632.505 785.202 587.413 784.002 544.788C783.429 524.439 781.768 504.29 779.588 484.06C777.473 464.436 774.018 444.906 770.801 425.436C769.234 415.954 767.588 406.486 765.912 397.023C765.411 394.2 765.2 385.823 763.401 383.894C761.591 381.953 752.354 381.161 749.454 379.737C743.615 376.868 738.122 372.793 733.261 368.487C723.942 360.232 715.835 349.447 709.436 338.815C694.631 314.214 688.712 284.192 689.011 255.701C689.068 250.17 698.003 190.603 694.415 189.783C694.631 189.531 694.835 189.271 695.028 189C697.745 193.529 700.411 198.088 703.061 202.656Z" fill="#A8BCBC"/>
<path fill-rule="evenodd" clip-rule="evenodd" d="M951.846 346.197C952.202 345.686 954.517 342.134 953.351 342.361C955.724 341.899 950.087 346.279 956 343.592C953.192 346.232 954.813 349.661 954.85 353.214C954.911 358.983 953.942 364.705 952.851 370.35C951.126 379.274 948.557 387.95 944.828 396.249C936.701 414.336 922.901 431.749 906.518 443.056C898.43 448.64 890.504 450.54 881.28 453.111C875.453 454.734 874.991 457.735 871.898 463.364C865.46 475.089 859.136 486.771 853.457 498.891C846.677 513.364 840.095 527.852 833.886 542.579C812.969 592.188 795.945 643.582 787.005 696.771C786.786 665.427 794.069 633.146 803.255 603.27C809.947 581.503 818.658 560.52 827.95 539.75C830.201 534.718 833.613 528.245 834.57 522.69C835.239 518.798 833.192 515.054 832.255 510.954C828.601 494.987 828.863 477.098 832.071 461.045C835.609 443.344 845.839 435.128 863.145 432.621C869.474 431.704 877.519 432.04 883.322 429.353C889.645 426.427 892.253 416.81 895.849 410.637C905.506 394.053 916.98 378.149 930.155 364.176C933.803 360.307 937.726 356.737 941.888 353.428C944.513 351.341 950.058 348.769 951.846 346.197Z" fill="#A8BCBC"/>
<path fill-rule="evenodd" clip-rule="evenodd" d="M719.108 648.547C718.067 645.318 720.474 642.011 723.867 642.011H869.133C872.526 642.011 874.933 645.318 873.892 648.547L862.805 682.912C860.14 691.172 852.451 696.771 843.771 696.771H749.229C740.549 696.771 732.86 691.172 730.195 682.912L719.108 648.547Z" fill="#A8BCBC"/>
<path fill-rule="evenodd" clip-rule="evenodd" d="M680.048 427.779L653.485 562.375L631.267 678.602H615.981L641.661 427.779H680.048Z" fill="#B28B67"/>
<path fill-rule="evenodd" clip-rule="evenodd" d="M644.091 465.077L696.844 600.766L721.258 666.865L734.47 664.416L686.942 457.135L644.091 465.077Z" fill="#B28B67"/>
<path fill-rule="evenodd" clip-rule="evenodd" d="M632.18 675.986C633.239 675.49 634.517 675.944 634.942 677.033C635.847 679.358 637.185 683.133 637.221 685.226C637.277 688.396 636.323 694.498 636.323 694.498C632.634 694.562 570.01 695.655 570.01 695.655C570.01 695.655 567.277 687.181 572.834 686.404C578.391 685.627 582.065 685.016 582.065 685.016L612.813 670.702C613.323 670.464 613.929 670.694 614.153 671.21L616.289 676.132C616.289 676.132 621.487 678.44 624.71 678.384C626.785 678.348 630.089 676.966 632.18 675.986Z" fill="#0D2029"/>
<path fill-rule="evenodd" clip-rule="evenodd" d="M675.642 663.321L602.543 663.735L627.959 411.014L692.634 403.645L675.642 663.321Z" fill="#0E9C99"/>
<path fill-rule="evenodd" clip-rule="evenodd" d="M675.642 663.321L602.543 663.735L627.959 411.014L692.634 403.645L675.642 663.321Z" fill="black" fill-opacity="0.2"/>
<path fill-rule="evenodd" clip-rule="evenodd" d="M745.808 640.445L677.942 658.747C677.942 658.747 652.161 585.534 647.33 555.249C643.119 528.848 637.479 409.838 637.479 409.838H710.762C710.762 409.838 712.812 537.443 714.709 541.967C716.607 546.491 745.808 640.445 745.808 640.445Z" fill="#0E9C99"/>
<path fill-rule="evenodd" clip-rule="evenodd" d="M734.64 656.439C735.466 655.61 736.827 655.601 737.6 656.482C739.25 658.362 741.803 661.456 742.557 663.412C743.7 666.376 744.904 672.44 744.904 672.44C741.463 673.755 683.06 696.075 683.06 696.075C683.06 696.075 677.579 689.031 682.528 686.411C687.477 683.791 690.715 681.967 690.715 681.967L714.647 658.049C715.046 657.651 715.695 657.661 716.083 658.07L719.781 661.973C719.781 661.973 725.453 662.378 728.46 661.229C730.392 660.491 733.014 658.072 734.64 656.439Z" fill="#0D2029"/>
<path fill-rule="evenodd" clip-rule="evenodd" d="M543.874 385.917L588.438 399.241L577.052 418.147L542.407 397.825C526.231 396.87 518.588 395.282 519.479 393.061C520.23 391.188 522.017 390.868 523.662 390.574C524.944 390.344 526.14 390.13 526.695 389.209C527.962 387.105 523.526 381.632 519.093 376.618C514.66 371.604 518.209 371.369 520.352 371.77C527.722 374.751 535.562 379.467 543.874 385.917ZM736.704 391.016L760.04 383.348C781.494 423.979 794.032 446.149 797.654 449.857C800.31 452.577 815.369 458.571 825.426 461.526C829.463 462.711 829.036 466.042 828.039 467.213C821.747 474.602 814.874 473.127 807.392 471.521C805.225 471.057 803.008 470.581 800.74 470.306C794.867 469.595 793.492 472.73 792.192 475.692C791.041 478.315 789.949 480.803 785.848 480.367C785.934 479.565 786.049 478.663 786.174 477.691C786.98 471.402 788.168 462.128 784.125 457.32C782.051 454.853 766.244 432.752 736.704 391.016Z" fill="#D4A181"/>
<path fill-rule="evenodd" clip-rule="evenodd" d="M660.166 305.053L649.861 304.567C630.49 328.525 627.79 380.702 613.971 389.262C600.905 397.354 580.512 393.58 556.148 388.093L550.956 404.892C574.969 425.16 622.517 438.937 639.473 425.657C666.584 404.426 665.608 340.602 660.166 305.053Z" fill="#F4F4F4"/>
<path fill-rule="evenodd" clip-rule="evenodd" d="M660.166 305.053L649.861 304.567C630.49 328.525 627.79 380.702 613.971 389.262C600.905 397.354 580.512 393.58 556.148 388.093L550.956 404.892C574.969 425.16 622.517 438.937 639.473 425.657C666.584 404.426 665.608 340.602 660.166 305.053Z" fill="black" fill-opacity="0.03"/>
<path fill-rule="evenodd" clip-rule="evenodd" d="M719.687 426.1C719.687 426.1 658.987 433.553 630.388 437.065C626.308 437.566 626.355 431.597 626.581 428.56C629.188 393.513 651.235 353.372 645.256 304.674L670.519 297.484C696.019 329.03 708.551 370.186 719.687 426.1Z" fill="#0D8C8A"/>
<path fill-rule="evenodd" clip-rule="evenodd" d="M671.887 297.316L672.181 297.28C734.314 325.682 775.986 376.418 797.197 449.489L778.928 455.443C764.76 442.563 746.565 420.872 724.341 390.369C732.347 409.405 738.909 429.13 742.529 448.1L662.146 457.97C641.77 420.673 661.982 298.532 661.982 298.532L667.532 297.851L671.887 297.316Z" fill="#F4F4F4"/>
<rect x="306.223" y="417.953" width="11.3379" height="48.5909" fill="#616466"/>
<rect x="312.054" y="417.953" width="11.3379" height="48.5909" fill="#B1BABE"/>
<path d="M363.236 475.938C333.651 475.938 361.56 475.938 309.82 475.938C258.08 475.938 289.001 475.938 265.444 475.938C265.444 475.938 258.08 466.543 309.82 466.543C361.56 466.543 363.236 471.419 363.236 475.938Z" fill="#6F7577"/>
<path d="M370.687 475.938C342.274 475.938 369.077 475.938 319.386 475.938C269.696 475.938 311.355 475.938 288.73 475.938C288.73 475.938 268.97 475.128 268.97 470.755C278.202 466.543 301.528 466.543 319.386 466.543C369.077 466.543 370.687 471.419 370.687 475.938Z" fill="#9CA5A7"/>
<path d="M211.28 294.286C210.176 284.406 217.34 276.31 227.28 276.201L411.001 274.196C420.941 274.088 429.895 282.009 430.999 291.889L443.719 405.714C444.823 415.593 437.66 423.69 427.719 423.799L243.999 425.803C234.058 425.912 225.105 417.991 224.001 408.111L211.28 294.286Z" fill="#9CA5A7"/>
<rect x="461.812" y="342.057" width="38.7868" height="50.4903" rx="4" transform="rotate(13 461.812 342.057)" fill="#EEF1FF"/>
<line x1="484.918" y1="359.114" x2="493.814" y2="361.404" stroke="black" stroke-opacity="0.58"/>
<line x1="466.223" y1="362.602" x2="487.69" y2="367.653" stroke="black" stroke-opacity="0.58"/>
<line x1="461.353" y1="365.854" x2="490.217" y2="372.573" stroke="black" stroke-opacity="0.58"/>
<line x1="458.961" y1="373.302" x2="487.825" y2="380.02" stroke="black" stroke-opacity="0.58"/>
<line x1="460.156" y1="369.578" x2="489.02" y2="376.297" stroke="black" stroke-opacity="0.58"/>
<line x1="462.306" y1="358.511" x2="471.203" y2="360.801" stroke="black" stroke-opacity="0.58"/>
<line x1="476.598" y1="385.905" x2="485.495" y2="388.196" stroke="black" stroke-opacity="0.58"/>
<line x1="486.114" y1="355.39" x2="495.011" y2="357.68" stroke="black" stroke-opacity="0.58"/>
<rect width="204.284" height="132.039" rx="18" transform="matrix(0.99994 -0.0109114 0.111062 0.993814 218.641 282.845)" fill="#BFC6D6"/>
<mask id="mask0_326_1088" style="mask-type:alpha" maskUnits="userSpaceOnUse" x="222" y="284" width="212" height="131">
<path d="M223.048 322.225C220.812 302.218 235.318 285.822 255.448 285.602L386.767 284.169C406.897 283.95 425.027 299.99 427.263 319.996L433.529 376.063C435.765 396.069 421.259 412.465 401.129 412.685L269.81 414.118C249.68 414.337 231.55 398.297 229.314 378.291L223.048 322.225Z" fill="#1E305D"/>
</mask>
<g mask="url(#mask0_326_1088)">
<path fill-rule="evenodd" clip-rule="evenodd" d="M292.964 407.519C292.964 407.519 317.223 419.681 335.837 423.299C354.45 426.917 372.563 418.97 372.563 418.97C372.563 418.97 348.889 406.725 332.644 403.567C316.398 400.41 292.964 407.519 292.964 407.519Z" fill="#163045"/>
<path fill-rule="evenodd" clip-rule="evenodd" d="M349.302 433.072C349.185 432.792 349.098 432.496 349.044 432.182C347.933 425.692 323.993 353.352 322.663 340.719L363.89 348.732C364.901 358.338 366.326 417.659 365.876 429.352C367.939 448.335 368.08 508.543 368.756 512.844C369.468 517.368 359.988 520.094 358.699 514.452C356.65 505.474 352.383 480.906 351.219 466.185C350.127 452.384 349.455 440.028 349.302 433.072Z" fill="#C99778"/>
<path fill-rule="evenodd" clip-rule="evenodd" d="M314.025 434.479C296.462 435.456 233.739 431.203 229.304 431.585C224.741 431.979 222.683 422.332 228.401 421.441C237.5 420.022 262.306 417.48 277.073 417.345C288.95 417.237 299.745 417.363 306.96 417.61C310.189 397.834 316.65 350.125 320.407 340.28L356.885 347.37C353.282 356.811 325.021 425.314 320.956 431.931C319.612 434.314 316.858 434.947 314.025 434.479V434.479Z" fill="#D4A181"/>
<path fill-rule="evenodd" clip-rule="evenodd" d="M320.525 340.303C320.525 340.303 345.977 338.091 366.153 349.172C366.717 372.912 377.087 384.306 372.434 419.63C345.853 426.963 319.92 400.508 292.684 407.403C288.748 389.588 306.42 351.962 320.525 340.303Z" fill="#1E305D"/>
</g>
<path fill-rule="evenodd" clip-rule="evenodd" d="M398.802 283.838C401.458 288.644 404.775 292.141 406.933 292.741C412.345 294.247 422.727 277.264 423.005 268.366C423.282 259.468 406.254 245.689 397.538 258.604C394.513 263.086 394.068 268.388 395.002 273.463L375.821 294.685L390.916 303.4L398.802 283.838Z" fill="#B28B67"/>
<path fill-rule="evenodd" clip-rule="evenodd" d="M428.481 263.029C426.541 266.389 422.323 267.612 418.905 265.875C416.671 265.365 413.986 264.388 411.179 263.009C410.872 264.147 410.368 265.351 409.636 266.617C408.991 267.736 408.182 268.85 407.26 269.924C407.076 268.889 406.555 267.982 405.759 267.522C403.534 266.238 400.928 267.174 399.806 269.117C398.382 271.584 398.776 274.19 400.772 275.533C396.826 278.046 392.675 279.257 390.088 277.764C385.175 274.927 385.475 266.342 389.552 259.28C389.695 259.032 389.842 258.788 389.993 258.549C387.671 258.73 385.266 259.337 382.844 259.947L382.844 259.947C377.698 261.244 372.473 262.562 367.797 259.862C358.442 254.461 365.621 233.446 378.692 240.993C387.581 246.125 391.205 249.945 393.867 254.037C395.819 252.371 397.97 251.264 400.066 250.834C400.616 250.651 401.334 250.587 402.186 250.635C402.716 250.647 403.237 250.708 403.744 250.82C406.498 251.297 410.13 252.609 413.881 254.603C414.582 254.976 415.26 255.358 415.913 255.746C417.924 252.288 422.355 251.106 425.822 253.108C429.296 255.113 430.486 259.555 428.481 263.029Z" fill="#0F182E"/>
<path fill-rule="evenodd" clip-rule="evenodd" d="M450.248 352.407L423.467 341.971L421.797 355.525L446.419 358.776C454.659 364.459 458.986 366.589 459.4 365.166C459.748 363.967 459.037 363.193 458.379 362.478C457.865 361.92 457.385 361.397 457.466 360.736L458.299 357.038L459.35 352.96C457.382 352.417 456.827 352.416 451.442 352.409C451.068 352.408 450.671 352.408 450.248 352.407ZM276.399 329.291C280.901 327.584 318.009 301.905 318.009 301.905L327.475 310.814C327.475 310.814 284.733 335.745 282.02 337.012C278.496 338.657 276.73 344.176 275.532 347.918C275.347 348.497 275.175 349.033 275.013 349.506C272.602 348.681 272.643 346.999 272.686 345.226C272.734 343.223 272.786 341.103 269.31 339.97C267.968 339.533 266.601 339.222 265.266 338.918C260.655 337.867 256.418 336.902 254.831 331.111C254.58 330.193 255.214 328.211 257.786 328.598C264.193 329.563 274.199 330.125 276.399 329.291Z" fill="#B28B67"/>
<path fill-rule="evenodd" clip-rule="evenodd" d="M367.739 287.302L375.096 283.258C386.109 324.102 386.483 326.638 441.782 347.399L437.326 359.915C411.502 350.515 387.286 355.693 374.529 336.771C370.247 330.42 364.757 295.05 367.739 287.302Z" fill="#ECF9FF"/>
<path fill-rule="evenodd" clip-rule="evenodd" d="M367.739 287.302L375.096 283.258C386.109 324.102 386.483 326.638 441.782 347.399L437.326 359.915C411.502 350.515 387.286 355.693 374.529 336.771C370.247 330.42 364.757 295.05 367.739 287.302Z" fill="black" fill-opacity="0.05"/>
<path fill-rule="evenodd" clip-rule="evenodd" d="M323.242 336.866C323.242 336.866 349.215 359.486 367.408 367.792C368.911 368.478 370.68 366.397 371.122 364.453C377.999 334.179 385.795 309.02 397.247 292.665C393.668 292.147 387.71 286.583 387.71 286.583C364.061 295.141 345.075 310.665 323.242 336.866Z" fill="#6CA1CF"/>
<path fill-rule="evenodd" clip-rule="evenodd" d="M385.305 282.793C385.755 282.801 385.988 282.812 385.988 282.812L385.754 283.108L390.692 286.565C389.918 288.198 386.495 293.861 381.503 302.118C363.363 332.123 324.512 396.385 316.844 426.019L256.276 383.609C276.252 357.801 308.457 332.761 337.642 312.787C324.874 315.005 307.296 321.402 285.562 337.323L276.256 326.467C322.702 284.742 374.566 282.767 384.35 282.784C384.518 282.681 384.685 282.578 384.851 282.476L385.305 282.793Z" fill="#ECF9FF"/>
<path d="M662.555 321.703L664.131 321.703C665.047 321.703 665.846 321.081 666.069 320.194L667.707 313.68C667.738 313.556 667.916 313.563 667.937 313.689L669.882 325.343C669.882 325.343 669.768 322.185 670.509 321.586C670.852 321.309 672.273 321.665 672.273 321.665" stroke="#F5FCFF" stroke-width="5" stroke-miterlimit="10" stroke-linecap="round" stroke-linejoin="round"/>
<path d="M195.348 140.101L165.558 110.296C162.433 107.169 157.366 107.169 154.241 110.296L77.1175 187.459C74.1187 190.46 72.4342 194.528 72.4342 198.77V681.22" stroke="#C2CFD6" stroke-width="8"/>
<rect width="86.3321" height="10.2439" rx="3" transform="matrix(-1 0 0 1 116.332 679.756)" fill="#CADCE6"/>
<path d="M238.253 115.102C224.389 101.239 201.912 101.239 188.048 115.102L169.96 133.19C156.097 147.054 156.097 169.531 169.96 183.395L207.977 221.411L276.269 153.119L238.253 115.102Z" fill="#CCD2D5"/>
<path fill-rule="evenodd" clip-rule="evenodd" d="M247.69 193.21C228.833 212.069 210.535 224.347 206.82 220.632C203.106 216.917 215.382 198.617 234.239 179.758C253.097 160.898 271.395 148.621 275.109 152.336C278.824 156.05 266.548 174.351 247.69 193.21Z" fill="#FCC876"/>
<path d="M665.185 342.46L667.055 342.163C668.141 341.991 668.979 341.15 669.088 340.122L669.883 332.573C669.899 332.43 670.111 332.405 670.158 332.54L674.516 345.129C674.516 345.129 673.825 341.64 674.598 340.835C674.957 340.462 676.704 340.591 676.704 340.591" stroke="#30638E" stroke-width="2" stroke-miterlimit="10" stroke-linecap="round" stroke-linejoin="round"/>
<path d="M29 14.5C29 22.5081 22.5081 29 14.5 29C6.49187 29 0 22.5081 0 14.5C0 6.49187 6.49187 0 14.5 0C22.5081 0 29 6.49187 29 14.5Z" fill="#30638E"/>
<path fill-rule="evenodd" clip-rule="evenodd" d="M824.309 183.618C856.512 183.618 882.618 157.512 882.618 125.309C882.618 93.1058 856.512 67 824.309 67C792.106 67 766 93.1058 766 125.309C766 157.512 792.106 183.618 824.309 183.618Z" fill="#D3DCE0"/>
<path fill-rule="evenodd" clip-rule="evenodd" d="M824.309 82.4023C826.132 82.4023 827.61 80.9246 827.61 79.1018C827.61 77.279 826.132 75.8013 824.309 75.8013C822.486 75.8013 821.009 77.279 821.009 79.1018C821.009 80.9246 822.486 82.4023 824.309 82.4023Z" fill="#63868B"/>
<path fill-rule="evenodd" clip-rule="evenodd" d="M778.102 128.61C779.925 128.61 781.403 127.132 781.403 125.309C781.403 123.486 779.925 122.009 778.102 122.009C776.279 122.009 774.802 123.486 774.802 125.309C774.802 127.132 776.279 128.61 778.102 128.61Z" fill="#63868B"/>
<path fill-rule="evenodd" clip-rule="evenodd" d="M870.516 128.61C872.339 128.61 873.817 127.132 873.817 125.309C873.817 123.486 872.339 122.009 870.516 122.009C868.694 122.009 867.216 123.486 867.216 125.309C867.216 127.132 868.694 128.61 870.516 128.61Z" fill="#63868B"/>
<path fill-rule="evenodd" clip-rule="evenodd" d="M824.309 174.817C826.132 174.817 827.61 173.339 827.61 171.516C827.61 169.693 826.132 168.216 824.309 168.216C822.486 168.216 821.009 169.693 821.009 171.516C821.009 173.339 822.486 174.817 824.309 174.817Z" fill="#63868B"/>
<path fill-rule="evenodd" clip-rule="evenodd" d="M804.926 90.1049L824.946 123.071L821.061 125.137L804.926 90.1049Z" fill="#63868B"/>
<path fill-rule="evenodd" clip-rule="evenodd" d="M822.046 98.6709L826.994 124.7L822.617 125.16L822.046 98.6709Z" fill="#63868B"/>
<path fill-rule="evenodd" clip-rule="evenodd" d="M824.309 129.71C826.739 129.71 828.71 127.74 828.71 125.309C828.71 122.879 826.739 120.908 824.309 120.908C821.878 120.908 819.908 122.879 819.908 125.309C819.908 127.74 821.878 129.71 824.309 129.71Z" fill="#63868B"/>
<path d="M1120.23 734.236C1121.64 733.371 1123.49 733.814 1124.35 735.227L1136 754.227C1136.86 755.64 1136.42 757.487 1135.01 758.353L1116.01 769.996C1114.59 770.862 1112.75 770.418 1111.88 769.006L1100.24 750.005C1099.37 748.593 1099.81 746.746 1101.23 745.88L1120.23 734.236Z" fill="#8E3030"/>
<path d="M963.849 198.278C962.078 191.892 965.82 185.279 972.206 183.508L995.333 177.094C1001.72 175.323 1008.33 179.064 1010.1 185.451V185.451C1011.87 191.837 1008.13 198.45 1001.75 200.221L978.62 206.635C972.233 208.406 965.621 204.665 963.849 198.278V198.278Z" fill="#FCC876"/>
</svg>
