<svg width="1033" height="821" viewBox="0 0 1033 821" fill="none" xmlns="http://www.w3.org/2000/svg">
<path d="M606 210.837H623.52C633.698 210.837 642.573 204.483 645.057 195.428L663.261 128.908C663.606 127.647 665.586 127.719 665.816 129.001L687.432 248C687.432 248 686.165 215.757 694.4 209.641C698.215 206.808 714 210.44 714 210.44" stroke="#9DD1D9" stroke-width="13.1807" stroke-miterlimit="10" stroke-linecap="round" stroke-linejoin="round"/>
<path fill-rule="evenodd" clip-rule="evenodd" d="M804.162 744.492C794.774 557.733 327.162 -36.5076 75.6616 109.992C-6.33844 157.758 -50.3384 261.992 96.1616 499.862C271.662 744.492 813.549 931.252 804.162 744.492Z" fill="#F7FAFB"/>
<path fill-rule="evenodd" clip-rule="evenodd" d="M362.223 572.757C371.772 496.436 884.1 349.128 979.212 421.418C1074.32 493.708 1050.25 645.761 850.93 680.502C651.61 715.244 352.675 649.078 362.223 572.757Z" fill="#F7DBB5"/>
<g clip-path="url(#clip0_96_2301)">
<rect x="296" y="39" width="335" height="346" rx="8" fill="#AFB9C5"/>
<rect x="545" y="82" width="70" height="81" rx="8" fill="#F0FAFE"/>
<path fill-rule="evenodd" clip-rule="evenodd" d="M580 129C588.837 129 596 121.837 596 113C596 104.163 588.837 97 580 97C571.163 97 564 104.163 564 113C564 121.837 571.163 129 580 129Z" fill="#AFB9C5"/>
<rect x="555" y="133" width="50" height="6" rx="3" fill="#AFB9C5"/>
<rect x="563" y="143" width="34" height="6" rx="3" fill="#AFB9C5"/>
<path d="M296 47C296 42.5817 299.582 39 304 39H623C627.418 39 631 42.5817 631 47V66H296V47Z" fill="#449CC8"/>
<path fill-rule="evenodd" clip-rule="evenodd" d="M309 57C311.209 57 313 55.2091 313 53C313 50.7909 311.209 49 309 49C306.791 49 305 50.7909 305 53C305 55.2091 306.791 57 309 57Z" fill="#AFB9C5"/>
<path fill-rule="evenodd" clip-rule="evenodd" d="M321 57C323.209 57 325 55.2091 325 53C325 50.7909 323.209 49 321 49C318.791 49 317 50.7909 317 53C317 55.2091 318.791 57 321 57Z" fill="#AFB9C5"/>
<path fill-rule="evenodd" clip-rule="evenodd" d="M333 57C335.209 57 337 55.2091 337 53C337 50.7909 335.209 49 333 49C330.791 49 329 50.7909 329 53C329 55.2091 330.791 57 333 57Z" fill="#AFB9C5"/>
<g clip-path="url(#clip1_96_2301)">
<rect x="545" y="171" width="70" height="194" rx="8" fill="#F0FAFE"/>
<g clip-path="url(#clip2_96_2301)">
<rect x="563" y="189" width="34" height="26" rx="4" fill="#AFB9C5"/>
<rect x="563" y="223" width="34" height="25" rx="4" fill="#8EA9B8"/>
<rect x="563" y="256" width="34" height="25" rx="4" fill="#AFB9C5"/>
<rect x="563" y="322" width="34" height="25" rx="4" fill="#AFB9C5"/>
<rect x="563" y="289" width="34" height="25" rx="4" fill="#AFB9C5"/>
</g>
</g>
<g clip-path="url(#clip3_96_2301)">
<g clip-path="url(#clip4_96_2301)">
<rect x="312" y="83" width="225" height="47" rx="4" fill="#F0FAFE"/>
<g clip-path="url(#clip5_96_2301)">
<rect x="321" y="97.1" width="167" height="7.05" rx="3" fill="#AFB9C5"/>
<rect x="321" y="108.85" width="112.096" height="7.05" rx="3" fill="#AFB9C5"/>
</g>
<path fill-rule="evenodd" clip-rule="evenodd" d="M512.954 113.5C516.82 113.5 519.954 110.366 519.954 106.5C519.954 102.634 516.82 99.5 512.954 99.5C509.088 99.5 505.954 102.634 505.954 106.5C505.954 110.366 509.088 113.5 512.954 113.5Z" fill="#AFB9C5"/>
<path fill-rule="evenodd" clip-rule="evenodd" d="M512.954 109.5C514.611 109.5 515.954 108.157 515.954 106.5C515.954 104.843 514.611 103.5 512.954 103.5C511.297 103.5 509.954 104.843 509.954 106.5C509.954 108.157 511.297 109.5 512.954 109.5Z" fill="#AFB9C5"/>
</g>
<g clip-path="url(#clip6_96_2301)">
<rect x="312" y="138" width="225" height="39" rx="4" fill="#F0FAFE"/>
<g clip-path="url(#clip7_96_2301)">
<rect x="321" y="149.7" width="167" height="5.85" rx="2.925" fill="#AFB9C5"/>
<rect x="321" y="159.45" width="112.096" height="5.85" rx="2.925" fill="#AFB9C5"/>
</g>
<path fill-rule="evenodd" clip-rule="evenodd" d="M512.954 164.5C516.82 164.5 519.954 161.366 519.954 157.5C519.954 153.634 516.82 150.5 512.954 150.5C509.088 150.5 505.954 153.634 505.954 157.5C505.954 161.366 509.088 164.5 512.954 164.5Z" fill="#AFB9C5"/>
<path fill-rule="evenodd" clip-rule="evenodd" d="M512.954 160.5C514.611 160.5 515.954 159.157 515.954 157.5C515.954 155.843 514.611 154.5 512.954 154.5C511.297 154.5 509.954 155.843 509.954 157.5C509.954 159.157 511.297 160.5 512.954 160.5Z" fill="#AFB9C5"/>
</g>
<g clip-path="url(#clip8_96_2301)">
<rect x="312" y="185" width="225" height="39" rx="4" fill="#F0FAFE"/>
<g clip-path="url(#clip9_96_2301)">
<rect x="321" y="196.7" width="167" height="5.85" rx="2.925" fill="#AFB9C5"/>
<rect x="321" y="206.45" width="112.096" height="5.85" rx="2.925" fill="#AFB9C5"/>
</g>
<path fill-rule="evenodd" clip-rule="evenodd" d="M512.954 211.5C516.82 211.5 519.954 208.366 519.954 204.5C519.954 200.634 516.82 197.5 512.954 197.5C509.088 197.5 505.954 200.634 505.954 204.5C505.954 208.366 509.088 211.5 512.954 211.5Z" fill="#AFB9C5"/>
<path fill-rule="evenodd" clip-rule="evenodd" d="M512.954 207.5C514.611 207.5 515.954 206.157 515.954 204.5C515.954 202.843 514.611 201.5 512.954 201.5C511.297 201.5 509.954 202.843 509.954 204.5C509.954 206.157 511.297 207.5 512.954 207.5Z" fill="#F0FAFE"/>
</g>
<g clip-path="url(#clip10_96_2301)">
<rect x="312" y="326" width="225" height="39" rx="4" fill="#F0FAFE"/>
<g clip-path="url(#clip11_96_2301)">
<rect x="321" y="337.7" width="167" height="5.85" rx="2.925" fill="#AFB9C5"/>
<rect x="321" y="347.45" width="112.096" height="5.85" rx="2.925" fill="#AFB9C5"/>
</g>
<path fill-rule="evenodd" clip-rule="evenodd" d="M512.954 352.5C516.82 352.5 519.954 349.366 519.954 345.5C519.954 341.634 516.82 338.5 512.954 338.5C509.088 338.5 505.954 341.634 505.954 345.5C505.954 349.366 509.088 352.5 512.954 352.5Z" fill="#AFB9C5"/>
<path fill-rule="evenodd" clip-rule="evenodd" d="M512.954 348.5C514.611 348.5 515.954 347.157 515.954 345.5C515.954 343.843 514.611 342.5 512.954 342.5C511.297 342.5 509.954 343.843 509.954 345.5C509.954 347.157 511.297 348.5 512.954 348.5Z" fill="#AFB9C5"/>
</g>
<g clip-path="url(#clip12_96_2301)">
<rect x="312" y="279" width="225" height="39" rx="4" fill="#F0FAFE"/>
<g clip-path="url(#clip13_96_2301)">
<rect x="321" y="290.7" width="167" height="5.85" rx="2.925" fill="#AFB9C5"/>
<rect x="321" y="300.45" width="112.096" height="5.85" rx="2.925" fill="#AFB9C5"/>
</g>
<path fill-rule="evenodd" clip-rule="evenodd" d="M512.954 305.5C516.82 305.5 519.954 302.366 519.954 298.5C519.954 294.634 516.82 291.5 512.954 291.5C509.088 291.5 505.954 294.634 505.954 298.5C505.954 302.366 509.088 305.5 512.954 305.5Z" fill="#AFB9C5"/>
<path fill-rule="evenodd" clip-rule="evenodd" d="M512.954 301.5C514.611 301.5 515.954 300.157 515.954 298.5C515.954 296.843 514.611 295.5 512.954 295.5C511.297 295.5 509.954 296.843 509.954 298.5C509.954 300.157 511.297 301.5 512.954 301.5Z" fill="#AFB9C5"/>
</g>
<g clip-path="url(#clip14_96_2301)">
<rect x="312" y="232" width="225" height="39" rx="4" fill="#F0FAFE"/>
<g clip-path="url(#clip15_96_2301)">
<rect x="321" y="243.7" width="167" height="5.85" rx="2.925" fill="#AFB9C5"/>
<rect x="321" y="253.45" width="112.096" height="5.85" rx="2.925" fill="#AFB9C5"/>
</g>
<path fill-rule="evenodd" clip-rule="evenodd" d="M512.954 258.5C516.82 258.5 519.954 255.366 519.954 251.5C519.954 247.634 516.82 244.5 512.954 244.5C509.088 244.5 505.954 247.634 505.954 251.5C505.954 255.366 509.088 258.5 512.954 258.5Z" fill="#AFB9C5"/>
<path fill-rule="evenodd" clip-rule="evenodd" d="M512.954 254.5C514.611 254.5 515.954 253.157 515.954 251.5C515.954 249.843 514.611 248.5 512.954 248.5C511.297 248.5 509.954 249.843 509.954 251.5C509.954 253.157 511.297 254.5 512.954 254.5Z" fill="#AFB9C5"/>
</g>
</g>
</g>
<path fill-rule="evenodd" clip-rule="evenodd" d="M577.869 352.961C570.643 357.316 563.544 359.42 560.211 358.561C551.854 356.407 551.086 325.835 557.552 313.783C564.018 301.731 597.259 296.478 598.934 320.357C599.516 328.645 596.036 336.041 590.894 342.076L600.114 385.047H573.333L577.869 352.961Z" fill="#997659"/>
<path fill-rule="evenodd" clip-rule="evenodd" d="M554.364 302.475C554.364 308.435 559.037 313.303 564.918 313.617C568.283 314.656 572.605 315.418 577.399 315.739C576.934 317.49 576.681 319.478 576.681 321.725C576.681 323.709 576.9 325.814 577.303 327.95C578.343 326.714 579.733 325.908 581.144 325.908C585.092 325.908 587.839 329.155 587.839 332.603C587.839 336.979 585.313 340.144 581.626 340.397C584.946 346.772 589.539 351.572 594.128 351.572C602.843 351.572 609.04 339.92 609.04 327.391C609.04 326.951 609.032 326.514 609.014 326.08C611.965 328.105 614.699 330.759 617.452 333.432C623.303 339.111 629.243 344.877 637.538 344.877C654.135 344.877 660.726 311.402 637.538 311.402C621.769 311.402 614.012 313.701 607.327 317.101C606.009 313.384 603.998 310.259 601.54 308.077C600.948 307.411 600.042 306.774 598.872 306.183C598.157 305.792 597.417 305.473 596.656 305.234C592.624 303.752 586.785 302.707 580.262 302.479C579.044 302.437 577.848 302.424 576.681 302.44C576.662 296.294 571.673 291.317 565.523 291.317C559.36 291.317 554.364 296.313 554.364 302.475Z" fill="#191847"/>
<path fill-rule="evenodd" clip-rule="evenodd" d="M607.925 474.314L567.05 615.163L547.825 720.915H528.529L547.791 474.314H607.925Z" fill="#997659"/>
<path fill-rule="evenodd" clip-rule="evenodd" d="M626.294 474.314C623.442 547.485 624.567 587.394 625.205 594.042C625.843 600.689 629.467 645.212 654.161 723.147H634.091C601.388 648.382 589.972 603.859 586.221 594.042C582.47 584.224 571.393 544.315 555.22 474.314H626.294Z" fill="#997659"/>
<path fill-rule="evenodd" clip-rule="evenodd" d="M608.802 474.314C598.17 522.781 579.781 600.146 553.636 706.409H525.413C523.328 597.34 532.196 525.554 547.552 474.314H608.802Z" fill="#003D5B"/>
<path fill-rule="evenodd" clip-rule="evenodd" d="M626.436 474.314C623.643 547.485 630.882 619.571 653.305 707.548H623.193C590.43 633.899 566.948 562.168 550.899 474.314H626.436Z" fill="#035983"/>
<path fill-rule="evenodd" clip-rule="evenodd" d="M657.021 737.653L655.992 721.048C655.952 720.408 655.329 719.97 654.703 720.108C645.021 722.239 631.552 717.567 631.552 717.567C617.946 727.205 598.251 731.557 591.69 732.799C590.508 733.022 589.761 734.212 590.089 735.369L591.686 741H631.552H654.807L657.021 737.653Z" fill="#191847"/>
<path fill-rule="evenodd" clip-rule="evenodd" d="M552.133 737.653L551.103 721.048C551.063 720.408 550.44 719.97 549.814 720.108C540.132 722.239 526.663 717.567 526.663 717.567C513.057 727.205 493.362 731.557 486.801 732.799C485.619 733.022 484.872 734.212 485.2 735.369L486.797 741H526.663H549.918L552.133 737.653Z" fill="#191847"/>
<path fill-rule="evenodd" clip-rule="evenodd" d="M512.69 386.933L551.421 408.145L537.118 423.496L508.976 397.729C494.15 393.643 487.371 390.654 488.636 388.762C489.704 387.167 491.425 387.222 493.01 387.273C494.245 387.313 495.398 387.35 496.095 386.602C497.686 384.894 494.65 378.922 491.526 373.377C488.402 367.833 491.742 368.315 493.653 369.113C499.904 373.345 506.249 379.285 512.69 386.933ZM473.749 416.697L490.761 426.043L489.793 443.116C489.793 443.116 478.774 435.163 469.294 432.52C457.207 429.15 452.317 426.576 446.411 419.05C443.251 415.024 440.569 406.929 443.577 404.293C444.73 403.282 449.03 405.671 453.416 408.108C456.76 409.966 460.154 411.852 462.245 412.282C465.059 412.862 464.73 409.213 464.467 406.298C464.278 404.206 464.123 402.491 465.188 402.987C470.168 403.072 473.749 416.697 473.749 416.697Z" fill="#E8B8BE"/>
<path fill-rule="evenodd" clip-rule="evenodd" d="M570.283 403.42C556.717 403.277 538.627 400.411 519.324 388.159L511.744 405.064C525.058 418.277 543.779 429.134 560.149 428.674C573.049 428.312 579.642 412.708 570.283 403.42Z" fill="#37240D"/>
<path fill-rule="evenodd" clip-rule="evenodd" d="M606.871 519.236C619.767 517.555 631.618 516.01 638.64 517.392C646.52 491.803 639.977 475.691 633.937 460.818C630.297 451.854 626.839 443.339 626.832 433.471C626.81 404.733 603.735 360.499 600.34 360.499H599.366H572.46H569.379C567.995 378.282 562.087 397.537 556.141 416.915C554.753 421.441 553.362 425.973 552.027 430.495C529.526 435.602 479.563 417.823 479.563 417.823C479.563 417.823 466.95 443.917 467.902 455.029C496.983 470.22 521.908 476.993 542.443 477.44C541.791 489.625 543.274 501.219 548.256 511.813C554.932 526.008 582.734 522.383 606.871 519.236Z" fill="#593C18"/>
<path fill-rule="evenodd" clip-rule="evenodd" d="M790.035 444.616C781.822 446.829 774.356 446.896 771.365 445.137C763.865 440.727 771.616 410.885 781.232 401.001C790.848 391.118 824.523 395.264 819.511 418.873C817.771 427.066 812.343 433.268 805.683 437.688L802.676 481.895L776.722 474.453L790.035 444.616Z" fill="#BA8B72"/>
<path fill-rule="evenodd" clip-rule="evenodd" d="M789.213 389.409C783.544 388.499 778.877 387.751 777.264 385.928C773.324 394.353 775.826 402.774 792.193 405.977C795.15 408.958 796.598 413.368 798.226 419.076C799.044 418.997 799.89 419.068 800.727 419.308C804.311 420.336 806.383 424.074 805.355 427.657C804.833 429.477 803.613 430.906 802.069 431.739C802.963 434.288 804.011 436.985 805.284 439.822C813.717 437.568 822.676 426.521 819.289 412.406C820.028 394.353 802.052 391.469 789.213 389.409Z" fill="#191847"/>
<path fill-rule="evenodd" clip-rule="evenodd" d="M899.463 615.272C908.3 615.272 915.463 622.435 915.463 631.272V738.837C915.463 747.673 908.3 754.837 899.463 754.837H766.333C757.497 754.837 750.333 747.673 750.333 738.837V631.272C750.333 622.435 757.497 615.272 766.333 615.272H899.463ZM880.01 646.787C882.219 646.787 884.01 648.577 884.01 650.787V719.322C884.01 721.531 882.219 723.322 880.01 723.322H785.787C783.577 723.322 781.787 721.531 781.787 719.322V650.787C781.787 648.577 783.577 646.787 785.787 646.787H880.01Z" fill="#8A8883"/>
<path fill-rule="evenodd" clip-rule="evenodd" d="M638.945 749.209C661.092 722.111 676.078 702.022 683.901 688.942C697.297 666.545 708.261 646.616 711.721 639.003C719.971 620.849 692.727 612.349 686.561 620.816C677.228 633.632 657.297 673.96 626.767 741.8L638.945 749.209Z" fill="#BA8B72"/>
<path fill-rule="evenodd" clip-rule="evenodd" d="M684.329 741.331L725.547 637.374C734.362 618.423 691.79 605.966 685.311 614.785C670.602 634.808 635.642 713.794 631.26 719.759L684.329 741.331Z" fill="#00798C"/>
<path fill-rule="evenodd" clip-rule="evenodd" d="M794.106 720.482C786.077 708.748 756.873 669.268 740.966 652.933C736.395 648.239 731.935 643.734 727.716 639.535C715.177 627.056 690.208 648.031 702.724 659.398C733.893 687.705 779.37 725.919 783.17 729.326C788.495 734.101 799.152 727.857 794.106 720.482Z" fill="#BA8B72"/>
<path fill-rule="evenodd" clip-rule="evenodd" d="M789.062 715.435C789.75 714.485 791.091 714.261 791.989 715.012C793.827 716.55 796.637 719.054 797.626 720.772C799.146 723.408 801.184 728.974 801.184 728.974C798.131 730.739 746.314 760.714 746.314 760.714C746.314 760.714 740.093 754.867 744.375 751.636C748.658 748.406 751.444 746.188 751.444 746.188L770.457 719.94C770.788 719.484 771.43 719.391 771.876 719.735L775.912 722.849C775.912 722.849 781.327 722.375 783.994 720.832C785.685 719.854 787.766 717.227 789.062 715.435Z" fill="#593C18"/>
<path fill-rule="evenodd" clip-rule="evenodd" d="M645.601 743.793C646.671 743.315 647.946 743.793 648.349 744.893C649.174 747.146 650.357 750.722 650.357 752.705C650.357 755.749 649.344 761.59 649.344 761.59C645.819 761.59 585.986 761.59 585.986 761.59C585.986 761.59 583.517 753.409 588.837 752.757C594.158 752.105 597.678 751.579 597.678 751.579L627.241 738.374C627.756 738.144 628.359 738.385 628.574 738.907L630.515 743.625C630.515 743.625 635.441 745.928 638.52 745.928C640.472 745.928 643.584 744.696 645.601 743.793Z" fill="#593C18"/>
<path fill-rule="evenodd" clip-rule="evenodd" d="M740.378 642.566C740.378 642.566 791.765 634.178 809.218 631.095C842.382 625.236 852.053 607.354 846.335 568.34L785.23 568.34C773.101 571.85 683.868 611.751 683.868 611.751C673.165 617.075 675.159 632.771 677.115 637.942C677.235 638.259 731.245 730.878 731.245 730.878L781.231 698.972L740.284 646.326C740.284 646.326 738.662 643.052 740.378 642.566Z" fill="#1F90A2"/>
<path fill-rule="evenodd" clip-rule="evenodd" d="M906.09 612.661C901.895 606.508 877.624 541.072 877.624 541.072L857.699 543.961C857.699 543.961 889.782 613.445 892.099 617.456C895.109 622.665 892.446 631.222 890.641 637.023C890.362 637.921 890.103 638.752 889.889 639.496C893.681 640.589 895.124 638.422 896.645 636.138C898.363 633.557 900.18 630.827 905.597 632.475C907.689 633.112 909.699 633.929 911.663 634.728C918.448 637.487 924.68 640.022 931.839 634.095C932.974 633.155 933.93 630.082 930.323 628.292C921.336 623.831 908.141 615.669 906.09 612.661ZM689.886 582.248L723.846 553.509L733.128 572.483L698.706 589.632C689.504 602.087 684.241 607.38 682.917 605.508C681.801 603.93 682.475 602.333 683.096 600.861C683.58 599.715 684.031 598.646 683.579 597.721C682.546 595.61 675.828 596.309 669.48 597.244C663.133 598.179 664.794 595.215 666.235 593.708C672.477 589.361 680.36 585.541 689.886 582.248Z" fill="#BA8B72"/>
<path fill-rule="evenodd" clip-rule="evenodd" d="M794.343 459.988L781.996 455.912C765.248 497.676 740.269 538.086 698.536 572.218L708.856 589.991C745.534 568.424 780.254 551.67 794.343 519.307C799.072 508.446 794.729 472.975 794.343 459.988Z" fill="#CDD1D2"/>
<path fill-rule="evenodd" clip-rule="evenodd" d="M836.75 577.529C836.75 577.529 783.698 583.144 753.234 577.529C750.718 577.066 750.321 572.86 751.488 570.006C769.659 525.562 782.12 486.782 782.12 455.912C787.121 458.429 799.625 456.666 799.625 456.666C822.028 488.479 832.326 524.98 836.75 577.529Z" fill="#6BA6AF"/>
<path fill-rule="evenodd" clip-rule="evenodd" d="M806.045 454C805.467 453.611 805.162 453.418 805.162 453.418L805.194 454L795.858 454C795.389 456.754 794.702 466.963 793.7 481.848C790.058 535.94 782.26 651.789 765.661 696.124L880.192 696.124C877.775 645.72 859.158 585.443 839.873 534.261C854.104 548.394 870.724 572.086 884.155 611.525L905.608 606.028C883.746 511.989 819.693 463.491 807.264 454.835C807.143 454.555 807.022 454.277 806.902 454L806.045 454Z" fill="#EEFAFF"/>
<path fill-rule="evenodd" clip-rule="evenodd" d="M328.247 455.95C334.746 458.311 340.543 459.009 343.295 457.899C351.353 454.649 348.1 424.013 340.061 412.825C332.023 401.637 298.154 400.758 299.622 424.829C300.226 434.735 306.364 442.638 313.941 448.284L305.66 486.909H332.62L328.247 455.95Z" fill="#915B3C"/>
<path fill-rule="evenodd" clip-rule="evenodd" d="M316.931 402.217C313.229 403.281 308.536 405.873 306.79 407.315C306.192 404.045 304.756 400.901 302.596 398.335C300.498 395.842 297.787 394.319 295.095 392.627C293.854 391.846 292.549 391.117 291.122 390.83C289.669 390.538 288.171 390.695 286.814 391.187C285.425 391.691 284.178 392.534 283.134 393.573C282.672 394.033 282.351 394.59 281.915 395.066C281.468 395.554 280.989 395.387 280.38 395.302C278.911 395.098 277.272 395.59 275.99 396.218C274.552 396.923 273.299 398.023 272.311 399.288C271.351 400.519 270.612 401.985 270.373 403.576C270.266 404.285 270.237 405.032 270.369 405.75C270.423 406.044 270.497 406.192 270.32 406.427C270.158 406.645 269.909 406.809 269.737 407.028C268.072 409.137 267.319 411.973 267.701 414.738C267.924 416.351 269.063 418.706 270.723 421.097C272.382 423.488 278.718 428.424 282.285 429.409C285.469 430.288 289.059 429.901 292.054 428.807C291.609 431.91 292.064 435.132 292.845 438.2C293.695 441.534 294.966 444.745 296.633 447.775C298.217 450.654 300.086 453.573 302.477 455.844C304.713 457.969 307.341 459.196 310.342 459.108C311.716 459.068 313.069 458.831 314.402 458.55C315.716 458.274 317.026 457.984 318.274 457.497C320.636 456.575 322.988 454.943 323.515 452.242C323.705 451.269 323.853 450.104 323.8 449.1C323.781 448.738 323.761 448.507 323.41 448.37C322.99 448.206 322.48 448.202 322.04 448.146C319.532 447.824 317.341 446.643 315.676 444.63C313.985 442.588 312.727 439.353 314.247 436.996C316.123 434.086 319.926 433.558 323.107 433.302C321.812 429.119 321.8 424.604 323.968 420.892C326.367 416.785 330.319 413.92 332.981 410.004C333.675 408.983 334.351 407.897 334.523 406.624C334.552 406.41 334.452 406.023 334.322 405.637C334.067 404.88 333.521 404.265 332.856 403.821C332.535 403.608 332.191 403.433 331.826 403.308C325.963 401.306 320.521 401.185 316.931 402.217Z" fill="#191847"/>
<path fill-rule="evenodd" clip-rule="evenodd" d="M294.54 780.932C342.311 780.932 381.037 743.941 381.037 698.309C381.037 652.678 342.311 615.686 294.54 615.686C246.769 615.686 208.043 652.678 208.043 698.309C208.043 743.941 246.769 780.932 294.54 780.932Z" fill="#A7A49E"/>
<path fill-rule="evenodd" clip-rule="evenodd" d="M429.015 693.903C433.193 708.548 443.602 736.306 457.995 768.184L471.672 764.191C459.707 690.837 449.749 642.273 444.045 627.492C440.276 617.726 411.764 618.87 415.044 638.52C416.419 646.761 421.861 668.826 429.015 693.903ZM372.8 641.947C350.495 646.571 304.25 662.918 291.045 668.142C282.745 671.425 288.095 682.558 295.176 681.584C296.375 681.419 300.617 680.944 306.946 680.236C327.276 677.96 369.143 673.272 400.896 668.699C417.615 666.291 408.621 634.951 391.261 638.268C385.421 639.384 379.209 640.618 372.8 641.947Z" fill="#915B3C"/>
<path fill-rule="evenodd" clip-rule="evenodd" d="M444.919 619.214C442.639 611.767 338.982 585.335 338.982 585.335H330.487V593.256L401.916 629.644C401.821 630.818 401.879 632.059 402.11 633.368C401.594 660.343 413.131 680.495 424.553 700.447C432.023 713.494 439.444 726.456 443.413 741.185L469.656 737.267C468.891 735.31 467.682 726.489 466.03 714.428C461.862 684.016 454.873 633.007 445.067 619.512C445.032 619.465 444.998 619.418 444.962 619.371C444.95 619.319 444.935 619.266 444.919 619.214Z" fill="#003D5B"/>
<path fill-rule="evenodd" clip-rule="evenodd" d="M336.421 651.254C329.886 649.945 323.867 648.776 318.717 647.872C285.451 642.033 275.751 624.214 281.486 585.335H342.778C352.79 588.213 404.822 610.049 431.819 621.662C449.686 629.349 444.054 657.059 433.936 664.27C433.881 664.713 433.698 665.013 433.374 665.148C395.011 681.059 362.297 679.872 341.29 679.109C332.491 678.79 325.746 678.545 321.5 679.662L314.847 658.66L336.421 651.254Z" fill="#035983"/>
<path fill-rule="evenodd" clip-rule="evenodd" d="M298.043 666.783C298.004 665.612 297.017 664.678 295.853 664.797C293.471 665.041 289.744 665.543 287.965 666.411C285.234 667.744 280.438 671.212 280.438 671.212C281.983 674.382 308.213 728.198 308.213 728.198C308.213 728.198 316.634 726.837 314.886 721.766C313.139 716.695 312.067 713.299 312.067 713.299L310.953 680.926C310.934 680.363 310.454 679.927 309.892 679.962L304.808 680.282C304.808 680.282 300.583 676.86 299.233 674.09C298.377 672.334 298.118 668.992 298.043 666.783Z" fill="#CDD5D7"/>
<path fill-rule="evenodd" clip-rule="evenodd" d="M454.314 760.909C453.245 760.431 451.971 760.908 451.568 762.008C450.743 764.258 449.56 767.829 449.56 769.81C449.56 772.85 450.572 778.684 450.572 778.684C454.097 778.684 513.93 778.684 513.93 778.684C513.93 778.684 516.4 770.513 511.079 769.862C505.758 769.211 502.239 768.686 502.239 768.686L472.675 755.497C472.16 755.267 471.558 755.508 471.343 756.029L469.402 760.741C469.402 760.741 464.476 763.041 461.396 763.041C459.444 763.041 456.332 761.81 454.314 760.909Z" fill="#CDD5D7"/>
<path fill-rule="evenodd" clip-rule="evenodd" d="M425.61 596.166L389.778 569.835L381.856 589.429L417.34 604.154C427.375 615.95 432.987 620.868 434.175 618.907C435.176 617.253 434.393 615.705 433.672 614.279C433.11 613.169 432.586 612.132 432.972 611.177C433.854 608.997 440.595 609.227 446.982 609.718C453.37 610.21 451.509 607.365 449.968 605.961C443.448 602.055 435.328 598.79 425.61 596.166ZM237.697 642.562C240.989 635.879 252.199 570.744 252.199 570.744L275.674 570.836C275.674 570.836 253.932 641.072 252.199 645.369C249.948 650.952 253.772 659.063 256.365 664.563C256.766 665.414 257.138 666.202 257.453 666.909C253.855 668.52 252.127 666.573 250.305 664.52C248.247 662.201 246.069 659.748 240.943 662.134C238.963 663.056 237.089 664.146 235.258 665.211C228.934 668.89 223.124 672.27 215.22 667.389C213.967 666.616 212.594 663.703 215.912 661.426C224.177 655.755 236.088 645.829 237.697 642.562Z" fill="#915B3C"/>
<path fill-rule="evenodd" clip-rule="evenodd" d="M318.911 472.172L328.624 470.505C364.665 501.66 379.468 561.514 423.644 593.22L413.011 606.41C336.373 596.914 317.378 523.907 318.911 472.172Z" fill="#C69039"/>
<path fill-rule="evenodd" clip-rule="evenodd" d="M276.567 594.328C276.567 594.328 334.989 594.328 362.515 594.328C366.442 594.328 365.702 588.653 365.134 585.789C358.582 552.74 333.004 517.114 333.004 470.068L308.213 466.178C287.707 499.18 280.616 539.813 276.567 594.328Z" fill="#E4F7FF"/>
<path fill-rule="evenodd" clip-rule="evenodd" d="M266.902 617.934C263.04 627.218 259.252 635.319 255.683 641.541H237.25C235.267 577.375 259.543 528.001 279.86 498.23C275.349 497.907 271.277 496.018 268.703 491.371C259.642 475.009 262.914 466.001 272.598 463.04C277.923 461.411 282.931 462.523 288.926 463.853C293.832 464.942 299.398 466.177 306.339 466.178C306.342 466.178 306.344 466.178 306.346 466.178C307.019 466.178 307.631 466.223 308.187 466.309L316.413 466.779C316.413 466.779 349.814 580.058 334.837 617.934H266.902Z" fill="#EDAE49"/>
<path fill-rule="evenodd" clip-rule="evenodd" d="M266.902 617.934C271.971 605.753 277.168 591.536 282.169 576.853C284.031 593.023 287.131 609.263 292.293 617.934H266.902Z" fill="black" fill-opacity="0.1"/>
<path d="M892.665 360L927.329 394.665L892.665 429.329L858 394.665L892.665 360Z" fill="#9DD1D9"/>
<path d="M244.332 110L262 127.668L244.668 145L227 127.332L244.332 110Z" fill="#9DD1D9"/>
<circle cx="761.5" cy="13.5" r="13.5" fill="#EDAE49" fill-opacity="0.38"/>
<circle cx="180" cy="526" r="27" fill="#BC3244" fill-opacity="0.32"/>
<defs>
<clipPath id="clip0_96_2301">
<rect width="335" height="346" fill="white" transform="translate(296 39)"/>
</clipPath>
<clipPath id="clip1_96_2301">
<rect width="70" height="194" fill="white" transform="translate(545 171)"/>
</clipPath>
<clipPath id="clip2_96_2301">
<rect width="34" height="158" fill="white" transform="translate(563 189)"/>
</clipPath>
<clipPath id="clip3_96_2301">
<rect width="225" height="282" fill="white" transform="translate(312 83)"/>
</clipPath>
<clipPath id="clip4_96_2301">
<rect width="225" height="47" fill="white" transform="translate(312 83)"/>
</clipPath>
<clipPath id="clip5_96_2301">
<rect width="167" height="18.8" fill="white" transform="translate(321 97.1)"/>
</clipPath>
<clipPath id="clip6_96_2301">
<rect width="225" height="39" fill="white" transform="translate(312 138)"/>
</clipPath>
<clipPath id="clip7_96_2301">
<rect width="167" height="15.6" fill="white" transform="translate(321 149.7)"/>
</clipPath>
<clipPath id="clip8_96_2301">
<rect width="225" height="39" fill="white" transform="translate(312 185)"/>
</clipPath>
<clipPath id="clip9_96_2301">
<rect width="167" height="15.6" fill="white" transform="translate(321 196.7)"/>
</clipPath>
<clipPath id="clip10_96_2301">
<rect width="225" height="39" fill="white" transform="translate(312 326)"/>
</clipPath>
<clipPath id="clip11_96_2301">
<rect width="167" height="15.6" fill="white" transform="translate(321 337.7)"/>
</clipPath>
<clipPath id="clip12_96_2301">
<rect width="225" height="39" fill="white" transform="translate(312 279)"/>
</clipPath>
<clipPath id="clip13_96_2301">
<rect width="167" height="15.6" fill="white" transform="translate(321 290.7)"/>
</clipPath>
<clipPath id="clip14_96_2301">
<rect width="225" height="39" fill="white" transform="translate(312 232)"/>
</clipPath>
<clipPath id="clip15_96_2301">
<rect width="167" height="15.6" fill="white" transform="translate(321 243.7)"/>
</clipPath>
</defs>
</svg>
