<svg width="775" height="631" viewBox="0 0 775 631" fill="none" xmlns="http://www.w3.org/2000/svg">
<path fill-rule="evenodd" clip-rule="evenodd" d="M358 476C485.025 476 588 373.025 588 246C588 118.975 485.025 16 358 16C230.975 16 128 118.975 128 246C128 373.025 230.975 476 358 476Z" fill="#1F603A" fill-opacity="0.22"/>
<path fill-rule="evenodd" clip-rule="evenodd" d="M376.799 460C503.825 460 606.799 357.025 606.799 230C606.799 102.975 503.825 0 376.799 0C249.774 0 146.799 102.975 146.799 230C146.799 357.025 249.774 460 376.799 460Z" fill="white"/>
<path fill-rule="evenodd" clip-rule="evenodd" d="M376.799 460C503.825 460 606.799 357.025 606.799 230C606.799 102.975 503.825 0 376.799 0C249.774 0 146.799 102.975 146.799 230C146.799 357.025 249.774 460 376.799 460Z" fill="#FCC876" fill-opacity="0.5"/>
<g clip-path="url(#clip0_229_927)">
<rect x="394" y="48" width="231" height="239" rx="8" fill="#BFC6D6"/>
<rect x="556" y="83" width="49" height="51" rx="8" fill="#EEF1FF"/>
<path fill-rule="evenodd" clip-rule="evenodd" d="M580.033 108.104C586.126 108.104 591.066 103.156 591.066 97.052C591.066 90.9482 586.126 86 580.033 86C573.94 86 569 90.9482 569 97.052C569 103.156 573.94 108.104 580.033 108.104Z" fill="#BFC6D6"/>
<rect x="563" y="112" width="34.4776" height="4.14451" rx="2.07225" fill="#BFC6D6"/>
<rect x="568" y="120" width="23.4448" height="4.14451" rx="2.07225" fill="#BFC6D6"/>
<path d="M394 56C394 51.5817 397.582 48 402 48H617C621.418 48 625 51.5817 625 56V75H394V56Z" fill="#6270B9"/>
<path fill-rule="evenodd" clip-rule="evenodd" d="M407 66C409.209 66 411 64.2091 411 62C411 59.7909 409.209 58 407 58C404.791 58 403 59.7909 403 62C403 64.2091 404.791 66 407 66Z" fill="#BFC6D6"/>
<path fill-rule="evenodd" clip-rule="evenodd" d="M419 66C421.209 66 423 64.2091 423 62C423 59.7909 421.209 58 419 58C416.791 58 415 59.7909 415 62C415 64.2091 416.791 66 419 66Z" fill="#BFC6D6"/>
<path fill-rule="evenodd" clip-rule="evenodd" d="M431 66C433.209 66 435 64.2091 435 62C435 59.7909 433.209 58 431 58C428.791 58 427 59.7909 427 62C427 64.2091 428.791 66 431 66Z" fill="#BFC6D6"/>
<g clip-path="url(#clip1_229_927)">
<rect x="556" y="142" width="53" height="75" rx="8" fill="#EEF1FF"/>
<g clip-path="url(#clip2_229_927)">
<rect x="574" y="150" width="17" height="26" rx="4" fill="#BFC6D6"/>
<rect x="574" y="184" width="17" height="25" rx="4" fill="#BFC6D6"/>
</g>
</g>
<path d="M564 254.541H570.002C573.489 254.541 576.53 252.582 577.381 249.79L583.617 229.28C583.735 228.891 584.414 228.914 584.493 229.309L591.898 266C591.898 266 591.464 256.058 594.285 254.173C595.592 253.299 601 254.419 601 254.419" stroke="#6270B9" stroke-width="4" stroke-miterlimit="10" stroke-linecap="round" stroke-linejoin="round"/>
<g clip-path="url(#clip3_229_927)">
<g clip-path="url(#clip4_229_927)">
<rect x="414.513" y="83" width="121" height="47" rx="4" fill="#EEF1FF"/>
<g clip-path="url(#clip5_229_927)">
<rect x="423.513" y="97.1001" width="63" height="7.05" rx="3" fill="#BFC6D6"/>
<rect x="423.513" y="108.85" width="42.2877" height="7.05" rx="3" fill="#BFC6D6"/>
</g>
</g>
<g clip-path="url(#clip6_229_927)">
<rect x="414.513" y="138" width="121" height="39" rx="4" fill="#EEF1FF"/>
<g clip-path="url(#clip7_229_927)">
<rect x="423.513" y="149.7" width="63" height="5.85" rx="2.925" fill="#BFC6D6"/>
<rect x="423.513" y="159.45" width="42.2877" height="5.85" rx="2.925" fill="#BFC6D6"/>
</g>
</g>
<g clip-path="url(#clip8_229_927)">
<rect x="414.513" y="185" width="121" height="39" rx="4" fill="#EEF1FF"/>
<g clip-path="url(#clip9_229_927)">
<rect x="423.513" y="196.7" width="63" height="5.85" rx="2.925" fill="#BFC6D6"/>
<rect x="423.513" y="206.45" width="42.2877" height="5.85" rx="2.925" fill="#BFC6D6"/>
</g>
</g>
<g clip-path="url(#clip10_229_927)">
<rect x="414.513" y="232" width="121" height="39" rx="4" fill="#EEF1FF"/>
<g clip-path="url(#clip11_229_927)">
<rect x="423.513" y="243.7" width="63" height="5.85" rx="2.925" fill="#BFC6D6"/>
<rect x="423.513" y="253.45" width="42.2877" height="5.85" rx="2.925" fill="#BFC6D6"/>
</g>
</g>
</g>
</g>
<path fill-rule="evenodd" clip-rule="evenodd" d="M284.567 195.527C292.313 196.977 299.211 196.498 301.845 194.656C308.449 190.037 299.114 163.021 289.514 154.584C279.913 146.147 249.12 152.418 255.471 173.872C257.675 181.318 263.14 186.656 269.612 190.258L275.614 230.893L299.037 222.136L284.567 195.527Z" fill="#B28B67"/>
<path fill-rule="evenodd" clip-rule="evenodd" d="M271.617 147.415C268.34 148.062 259.898 150.822 258.365 151.395C257.385 151.761 256.407 152.382 255.491 151.699C254.74 151.139 254.448 149.827 253.986 149.024C253.45 148.092 252.849 147.198 252.247 146.308C250.532 143.775 248.524 141.507 246.17 139.552C241.752 135.884 236.471 133.693 230.733 133.414C224.397 133.106 218.019 134.877 212.327 137.549C206.235 140.407 201.324 144.61 196.122 148.781C191.166 152.756 185.519 155.703 179.267 157.004C172.968 158.315 167.259 156.766 161.088 155.578C154.77 154.361 148.124 154.505 142.22 157.25C136.709 159.813 132.355 164.115 128.833 169.004C125.538 173.577 123.234 178.46 123.044 184.189C122.84 190.353 125.034 196.214 130.418 199.581C138.221 204.461 148.62 202.59 156.656 199.385C161.304 197.531 165.587 194.954 169.428 191.743C174.552 187.459 178.334 182.032 182.786 177.112C184.875 174.803 187.141 172.7 189.651 170.858C192.087 169.07 194.638 167.714 197.719 168.439C200.979 169.206 203.957 170.043 207.349 170.018C210.603 169.994 213.854 169.445 216.895 168.281C222.813 166.016 227.971 161.978 233.271 158.584C237.593 155.816 242.246 152.928 247.401 152.108C249.552 151.766 252.785 151.511 254.285 153.321C242.955 160.071 243.807 176.902 251.363 186.667C255.442 191.937 269.165 194.75 272.315 190C274.311 186.99 271.674 185.005 269.955 183.687C266.662 181.162 264.375 177.192 267.329 173.472C269.878 170.264 275.093 173.67 275.157 173.64C276.034 173.231 282.191 165.89 285.16 157.426C290.586 155.756 290.082 151.951 287.743 149.56C285.404 147.168 276.144 146.52 271.617 147.415Z" fill="#020E2C"/>
<path fill-rule="evenodd" clip-rule="evenodd" d="M269.029 327.502C274.242 352.704 404.101 411.825 405.078 413.835C405.729 415.175 379.392 507.349 379.392 507.349L390.418 510.048C390.418 510.048 436.266 410.065 431.991 400.618C425.871 387.092 326.685 320.187 326.685 320.187L269.029 327.502Z" fill="#B28B67"/>
<path fill-rule="evenodd" clip-rule="evenodd" d="M381.957 486.969L399.794 491.423C431.718 446.704 442.369 411.457 437.972 394.53C433.576 377.603 335.146 311.491 335.146 311.491L273.729 317.946C282.038 376.84 398.212 408.948 399.969 411.311C401.726 413.673 389.634 439.888 381.957 486.969Z" fill="#8FBFE8"/>
<path fill-rule="evenodd" clip-rule="evenodd" d="M381.957 486.969L399.794 491.423C431.718 446.704 442.369 411.457 437.972 394.53C433.576 377.603 335.146 311.491 335.146 311.491L273.729 317.946C282.038 376.84 398.212 408.948 399.969 411.311C401.726 413.673 389.634 439.888 381.957 486.969Z" fill="black" fill-opacity="0.1"/>
<path fill-rule="evenodd" clip-rule="evenodd" d="M377.443 497.867C376.777 496.903 375.442 496.643 374.526 497.372C372.784 498.759 370.219 500.943 369.282 502.473C367.808 504.879 365.783 509.985 365.783 509.985C368.57 511.694 415.887 540.71 415.887 540.71C415.887 540.71 421.798 535.443 417.906 532.348C414.014 529.252 411.485 527.13 411.485 527.13L394.537 502.42C394.219 501.956 393.579 501.846 393.124 502.178L389.366 504.921C389.366 504.921 384.356 504.352 381.921 502.858C380.416 501.936 378.606 499.553 377.443 497.867Z" fill="#020E2C"/>
<path fill-rule="evenodd" clip-rule="evenodd" d="M277.775 329.359L281.217 469.649L277.358 591.267L288.78 586.182L316.49 312.122L277.775 329.359Z" fill="#B28B67"/>
<path fill-rule="evenodd" clip-rule="evenodd" d="M275.529 581.602C274.706 580.769 273.346 580.745 272.57 581.622C271.094 583.291 268.946 585.887 268.288 587.557C267.254 590.182 266.145 595.561 266.145 595.561C269.187 596.76 320.823 617.1 320.823 617.1C320.823 617.1 325.732 610.886 321.362 608.515C316.991 606.144 314.133 604.494 314.133 604.494L293.156 583.113C292.761 582.71 292.112 582.713 291.721 583.12L288.495 586.474C288.495 586.474 283.462 586.785 280.805 585.738C279.163 585.091 276.967 583.06 275.529 581.602Z" fill="#020E2C"/>
<path fill-rule="evenodd" clip-rule="evenodd" d="M272.475 568.533L299.975 561.998C306.741 524.384 336.146 369.417 320.608 310.288L264.11 335.443C251.782 388.677 278.11 530.851 272.475 568.533Z" fill="#8FBFE8"/>
<path fill-rule="evenodd" clip-rule="evenodd" d="M219.487 296.231C219.487 296.231 207.294 357.157 204.468 363.152C203.086 366.083 192.639 375.096 185.37 380.269C182.453 382.346 183.72 384.915 184.848 385.584C194.017 391.023 199.874 384.3 207.661 380.51C216.194 376.358 215.664 387.671 222.43 384.501C220.254 379.844 215.206 371.198 217.42 365.424C218.895 361.574 237.383 296.001 237.383 296.001L219.487 296.231Z" fill="#B28B67"/>
<path fill-rule="evenodd" clip-rule="evenodd" d="M367.309 174.714L393.424 144.979C396.504 136.564 400.027 129.617 403.994 124.137C405.358 122.88 408.023 121.45 407.092 127.076C406.161 132.703 405.435 138.663 407.298 139.614C409.162 140.565 411.773 137.339 414.242 139.147C415.887 140.352 411.094 144.948 399.861 152.932L384.06 183.258L367.309 174.714Z" fill="#B28B67"/>
<path fill-rule="evenodd" clip-rule="evenodd" d="M290.715 210.049C340.919 196.529 354.028 184.627 384.515 152.162L396.979 165.016C376.467 203.185 328.154 240.442 296.503 246.593C291.208 247.622 294.061 231.17 290.715 210.049Z" fill="#F3FBFF"/>
<path fill-rule="evenodd" clip-rule="evenodd" d="M261.126 323.271C261.126 323.271 308.486 320.833 334.449 311.658C336.593 310.9 336.356 307.147 334.934 304.799C312.79 268.236 296.448 235.861 292.148 208.711C288.107 211.62 276.884 211.808 276.884 211.808C261.647 242.903 257.69 276.438 261.126 323.271Z" fill="#6CA1CF"/>
<path fill-rule="evenodd" clip-rule="evenodd" d="M270.116 209.163C270.57 208.74 270.811 208.528 270.811 208.528L270.863 209.045L279.06 207.746C279.855 210.103 281.881 218.986 284.834 231.939C295.566 279.007 318.551 379.814 339.3 416.499L238.748 432.425C233.848 387.757 241.796 332.154 251.598 284.457C241.073 298.866 229.782 322.015 223.483 358.57L203.883 356.718C209.977 270.97 259.456 219.408 269.162 210.067C269.23 209.804 269.297 209.542 269.364 209.282L270.116 209.163Z" fill="#ECF9FF"/>
<path d="M38 97C38 107.493 29.4934 116 19 116C8.50659 116 0 107.493 0 97C0 86.5066 8.50659 78 19 78C29.4934 78 38 86.5066 38 97Z" fill="#8E3030"/>
<path d="M752.281 273.741C753.613 272.755 755.492 273.036 756.477 274.368L769.733 292.281C770.718 293.613 770.437 295.492 769.105 296.477L751.192 309.732C749.86 310.718 747.982 310.437 746.996 309.105L733.741 291.192C732.755 289.86 733.036 287.981 734.368 286.996L752.281 273.741Z" fill="#30638E"/>
<rect x="90.0229" y="568.806" width="48" height="24" rx="12" transform="rotate(-48 90.0229 568.806)" fill="#148F47"/>
<defs>
<clipPath id="clip0_229_927">
<rect x="394" y="48" width="231" height="239" rx="8" fill="white"/>
</clipPath>
<clipPath id="clip1_229_927">
<rect width="53" height="75" fill="white" transform="translate(556 142)"/>
</clipPath>
<clipPath id="clip2_229_927">
<rect width="17" height="158" fill="white" transform="translate(574 150)"/>
</clipPath>
<clipPath id="clip3_229_927">
<rect width="121" height="282" fill="white" transform="translate(414.513 83)"/>
</clipPath>
<clipPath id="clip4_229_927">
<rect width="121" height="47" fill="white" transform="translate(414.513 83)"/>
</clipPath>
<clipPath id="clip5_229_927">
<rect width="63" height="18.8" fill="white" transform="translate(423.513 97.1001)"/>
</clipPath>
<clipPath id="clip6_229_927">
<rect width="121" height="39" fill="white" transform="translate(414.513 138)"/>
</clipPath>
<clipPath id="clip7_229_927">
<rect width="63" height="15.6" fill="white" transform="translate(423.513 149.7)"/>
</clipPath>
<clipPath id="clip8_229_927">
<rect width="121" height="39" fill="white" transform="translate(414.513 185)"/>
</clipPath>
<clipPath id="clip9_229_927">
<rect width="63" height="15.6" fill="white" transform="translate(423.513 196.7)"/>
</clipPath>
<clipPath id="clip10_229_927">
<rect width="121" height="39" fill="white" transform="translate(414.513 232)"/>
</clipPath>
<clipPath id="clip11_229_927">
<rect width="63" height="15.6" fill="white" transform="translate(423.513 243.7)"/>
</clipPath>
</defs>
</svg>
