<svg width="1160" height="732" viewBox="0 0 1160 732" fill="none" xmlns="http://www.w3.org/2000/svg">
<path d="M1078.42 647.1C1183.9 669.685 885.918 709.648 615.921 709.648C345.924 709.648 -91.3291 683.345 32.6443 647.1C156.618 610.856 333.421 598.648 615.921 598.648C848.107 598.648 972.945 624.515 1078.42 647.1Z" fill="#D9D9D9"/>
<path d="M1147.39 710.644C1148.05 709.983 1149.12 709.983 1149.78 710.644L1158.67 719.535C1159.33 720.197 1159.33 721.268 1158.67 721.929L1149.78 730.821C1149.12 731.482 1148.05 731.482 1147.39 730.821L1138.5 721.929C1137.83 721.268 1137.83 720.197 1138.5 719.535L1147.39 710.644Z" fill="#02724F"/>
<path d="M10.721 233.59C16.642 233.59 21.442 228.79 21.442 222.869C21.442 216.948 16.642 212.148 10.721 212.148C4.79996 212.148 0 216.948 0 222.869C0 228.79 4.79996 233.59 10.721 233.59Z" fill="#89B1F2"/>
<path d="M793.388 24.0568L802.71 14.2335C805.284 11.5209 805.172 7.23512 802.459 4.66094C799.746 2.08676 795.461 2.19899 792.886 4.91161L783.564 14.7349C780.99 17.4475 781.103 21.7333 783.815 24.3075C786.528 26.8816 790.814 26.7694 793.388 24.0568Z" fill="#F39B10"/>
<path fill-rule="evenodd" clip-rule="evenodd" d="M301.18 220.591C357.916 317.068 560.189 643.592 841.189 628.592C990.525 611.586 1149.88 344.332 963.682 293.091C935.907 285.45 202.181 90.5907 301.18 220.591Z" fill="#E5DED3"/>
<path fill-rule="evenodd" clip-rule="evenodd" d="M511.437 434.819C522.482 434.819 531.437 443.774 531.437 454.819V634.45C531.437 645.496 522.482 654.45 511.437 654.45H218.924C207.879 654.45 198.924 645.496 198.924 634.45V454.819C198.924 443.774 207.879 434.819 218.924 434.819H511.437ZM479.45 465.918C490.496 465.918 499.45 474.872 499.45 485.918V603.028C499.45 614.074 490.496 623.028 479.45 623.028H251.229C240.183 623.028 231.229 614.074 231.229 603.028V485.918C231.229 474.872 240.183 465.918 251.229 465.918H479.45Z" fill="#9DA0A7"/>
<path fill-rule="evenodd" clip-rule="evenodd" d="M680.836 238.695C673.836 244.165 666.68 247.271 663.084 246.804C654.067 245.631 649.349 213.848 654.569 200.449C659.789 187.051 693.886 177.303 698.696 201.99C700.365 210.558 697.672 218.718 693.067 225.672L708.212 269.299L680.201 272.739L680.836 238.695Z" fill="#D4A181"/>
<path fill-rule="evenodd" clip-rule="evenodd" d="M657.518 186.078C651.693 187.516 646.896 188.7 644.6 187.609C644.247 197.295 650.09 204.353 667.147 200.756C671.208 202.409 674.401 206.049 678.297 210.859C679.052 210.451 679.895 210.175 680.799 210.064C684.666 209.589 688.185 212.33 688.659 216.186C688.899 218.143 688.308 220.012 687.162 221.439C689.063 223.52 691.171 225.679 693.554 227.882C700.749 222.284 704.862 208.037 695.843 195.878C689.188 178.261 670.714 182.821 657.518 186.078Z" fill="#0F182E"/>
<path fill-rule="evenodd" clip-rule="evenodd" d="M995.144 261.106C999.346 255.14 1007.15 239.988 1013.06 237.857C1016.87 236.484 1015.76 250.687 1015.81 253.395C1015.99 263.873 1014.96 274.284 1013.7 284.674C1011.42 303.412 1003.97 320.099 993.743 336.047C988.483 344.253 982.312 352.559 973.766 357.679C969.833 360.037 965.1 360.432 961.215 362.464C956.69 364.829 959.154 362.917 957.115 367.611C954.284 374.128 953.378 382.536 952.068 389.49C946.053 421.412 931.489 590.161 934.014 622.632C934.238 625.51 930.208 626.198 930.006 622.685C928.937 604.055 938.191 475.044 942.861 432.854C947.53 390.663 952.255 353.39 956.992 338.794C962.74 321.085 973.12 299.789 981.761 283.275C985.775 275.603 990.15 268.195 995.144 261.106Z" fill="#C0D3CE"/>
<path fill-rule="evenodd" clip-rule="evenodd" d="M1026.33 468.03C1037.27 460.037 1049.11 475.122 1039.21 483.117C1033.74 487.535 1028.02 485.964 1024.8 482.281C1022.71 484.818 1020.76 487.47 1018.88 489.71C1013.15 496.536 1007.74 503.525 1002.56 510.677C991.819 525.535 982.61 541.232 972.981 556.642C963.479 571.851 954.053 587.138 945.44 602.732C938.144 615.944 928.419 631.487 925.921 645.971C929.711 615.253 944.093 585.726 961.219 558.645C978.206 531.787 997.7 502.454 1024 481.258C1021.32 477.339 1021.25 471.744 1026.33 468.03Z" fill="#C5CFCC"/>
<path fill-rule="evenodd" clip-rule="evenodd" d="M814.834 381.163C820.953 382.286 830.952 395.273 835.996 400.221C841.991 406.101 847.429 412.369 852.556 418.935C863.592 433.07 873.462 448.098 881.855 463.77C895.537 489.318 906.499 515.543 914.454 543.364C919.324 560.393 922.477 578.044 924.345 595.571C924.698 598.877 928.392 624.362 923.069 625.049C918.282 625.668 919.761 605.698 919.53 602.981C916.919 572.335 909.098 542.517 898.22 513.631C895.85 507.338 893.649 499.631 889.859 493.969C887.13 489.89 889.84 491.312 885.044 489.769C880.926 488.443 876.234 488.767 872.017 487.143C862.857 483.619 855.522 476.777 849.092 469.894C836.597 456.519 826.695 442.049 821.534 424.91C818.67 415.408 816.039 405.85 814.579 396.053C814.202 393.521 810.893 380.44 814.834 381.163Z" fill="#C0D3CE"/>
<path fill-rule="evenodd" clip-rule="evenodd" d="M842.982 163.804C866.032 203.604 884.974 247.323 897.204 291.603C904.615 318.432 909.797 345.963 914.946 373.295C922.918 415.615 930.459 457.931 932.604 501.003C934.762 544.324 939.029 594.29 924.782 636.015C931.899 593.653 925.123 548.561 923.923 505.936C923.35 485.587 921.689 465.438 919.509 445.208C917.394 425.584 913.939 406.054 910.722 386.584C909.155 377.102 907.509 367.634 905.833 358.171C905.332 355.348 905.121 346.971 903.322 345.042C901.512 343.101 892.275 342.309 889.375 340.885C883.536 338.016 878.043 333.941 873.182 329.635C863.863 321.38 855.756 310.595 849.357 299.963C834.552 275.362 828.633 245.34 828.932 216.849C828.989 211.318 837.924 151.751 834.336 150.931C834.552 150.679 834.756 150.419 834.949 150.148C837.666 154.677 840.332 159.236 842.982 163.804Z" fill="#C5CFCC"/>
<path fill-rule="evenodd" clip-rule="evenodd" d="M1091.77 307.345C1092.12 306.834 1094.44 303.282 1093.27 303.509C1095.64 303.047 1090.01 307.427 1095.92 304.74C1093.11 307.38 1094.73 310.809 1094.77 314.362C1094.83 320.131 1093.86 325.853 1092.77 331.498C1091.05 340.422 1088.48 349.098 1084.75 357.397C1076.62 375.484 1062.82 392.897 1046.44 404.204C1038.35 409.788 1030.42 411.688 1021.2 414.259C1015.37 415.882 1014.91 418.883 1011.82 424.512C1005.38 436.237 999.057 447.919 993.378 460.039C986.598 474.512 980.016 489 973.807 503.727C952.89 553.336 935.866 604.73 926.926 657.919C926.707 626.575 933.99 594.294 943.176 564.418C949.868 542.651 958.579 521.668 967.871 500.898C970.122 495.866 973.534 489.393 974.491 483.838C975.16 479.946 973.113 476.202 972.176 472.102C968.522 456.135 968.784 438.246 971.992 422.193C975.53 404.492 985.76 396.276 1003.07 393.769C1009.39 392.852 1017.44 393.188 1023.24 390.501C1029.57 387.575 1032.17 377.958 1035.77 371.785C1045.43 355.201 1056.9 339.297 1070.08 325.324C1073.72 321.455 1077.65 317.885 1081.81 314.576C1084.43 312.489 1089.98 309.917 1091.77 307.345Z" fill="#C5CFCC"/>
<path fill-rule="evenodd" clip-rule="evenodd" d="M859.029 609.695C857.988 606.466 860.395 603.159 863.788 603.159H1009.05C1012.45 603.159 1014.85 606.466 1013.81 609.695L1002.73 644.06C1000.06 652.32 992.372 657.919 983.692 657.919H889.15C880.47 657.919 872.781 652.32 870.116 644.06L859.029 609.695Z" fill="#9DA0A7"/>
<path fill-rule="evenodd" clip-rule="evenodd" d="M711.969 385.927L685.406 520.523L663.188 636.75H647.902L673.582 385.927H711.969Z" fill="#B28B67"/>
<path fill-rule="evenodd" clip-rule="evenodd" d="M676.012 423.225L728.765 558.914L753.179 625.013L766.391 622.564L718.863 415.283L676.012 423.225Z" fill="#B28B67"/>
<path fill-rule="evenodd" clip-rule="evenodd" d="M664.101 634.134C665.16 633.638 666.438 634.092 666.863 635.181C667.768 637.506 669.106 641.281 669.142 643.374C669.198 646.544 668.244 652.646 668.244 652.646C664.555 652.71 601.931 653.803 601.931 653.803C601.931 653.803 599.198 645.329 604.755 644.552C610.312 643.775 613.986 643.164 613.986 643.164L644.734 628.85C645.244 628.612 645.85 628.842 646.074 629.358L648.21 634.28C648.21 634.28 653.408 636.588 656.631 636.532C658.706 636.496 662.01 635.114 664.101 634.134Z" fill="#0D2029"/>
<path fill-rule="evenodd" clip-rule="evenodd" d="M707.563 621.469L634.464 621.883L659.88 369.162L724.555 361.793L707.563 621.469Z" fill="#3C52AB"/>
<path fill-rule="evenodd" clip-rule="evenodd" d="M707.563 621.469L634.464 621.883L659.88 369.162L724.555 361.793L707.563 621.469Z" fill="black" fill-opacity="0.2"/>
<path fill-rule="evenodd" clip-rule="evenodd" d="M777.728 598.593L709.862 616.895C709.862 616.895 684.081 543.682 679.25 513.397C675.039 486.996 669.399 367.986 669.399 367.986H742.682C742.682 367.986 744.732 495.591 746.629 500.115C748.527 504.639 777.728 598.593 777.728 598.593Z" fill="#3C52AB"/>
<path fill-rule="evenodd" clip-rule="evenodd" d="M766.561 614.587C767.387 613.758 768.747 613.749 769.52 614.63C771.17 616.51 773.724 619.604 774.478 621.56C775.621 624.524 776.825 630.588 776.825 630.588C773.384 631.903 714.981 654.223 714.981 654.223C714.981 654.223 709.5 647.179 714.449 644.559C719.398 641.939 722.636 640.115 722.636 640.115L746.567 616.197C746.966 615.799 747.616 615.809 748.004 616.218L751.702 620.121C751.702 620.121 757.374 620.526 760.381 619.377C762.313 618.639 764.935 616.22 766.561 614.587Z" fill="#0D2029"/>
<path fill-rule="evenodd" clip-rule="evenodd" d="M575.794 344.065L620.358 357.389L608.972 376.295L574.327 355.973C558.151 355.018 550.508 353.43 551.399 351.209C552.15 349.336 553.937 349.016 555.582 348.722C556.864 348.492 558.06 348.278 558.615 347.357C559.882 345.253 555.446 339.78 551.013 334.766C546.58 329.752 550.129 329.517 552.272 329.918C559.642 332.899 567.482 337.615 575.794 344.065ZM768.624 349.164L791.96 341.496C813.414 382.127 825.952 404.297 829.574 408.005C832.23 410.725 847.289 416.719 857.346 419.674C861.383 420.859 860.956 424.19 859.959 425.361C853.667 432.75 846.794 431.275 839.312 429.669C837.145 429.205 834.928 428.729 832.66 428.454C826.787 427.743 825.412 430.878 824.112 433.84C822.961 436.463 821.869 438.951 817.768 438.515C817.854 437.713 817.969 436.811 818.094 435.839C818.9 429.55 820.088 420.276 816.045 415.468C813.971 413.001 798.164 390.9 768.624 349.164Z" fill="#D4A181"/>
<path fill-rule="evenodd" clip-rule="evenodd" d="M692.087 263.201L681.782 262.715C662.411 286.673 659.711 338.85 645.892 347.41C632.826 355.502 612.433 351.728 588.069 346.241L582.877 363.04C606.89 383.308 654.438 397.085 671.394 383.805C698.505 362.574 697.529 298.75 692.087 263.201Z" fill="#F4F4F4"/>
<path fill-rule="evenodd" clip-rule="evenodd" d="M692.087 263.201L681.782 262.715C662.411 286.673 659.711 338.85 645.892 347.41C632.826 355.502 612.433 351.728 588.069 346.241L582.877 363.04C606.89 383.308 654.438 397.085 671.394 383.805C698.505 362.574 697.529 298.75 692.087 263.201Z" fill="black" fill-opacity="0.03"/>
<path fill-rule="evenodd" clip-rule="evenodd" d="M751.608 384.248C751.608 384.248 690.907 391.701 662.308 395.213C658.228 395.714 658.275 389.745 658.501 386.708C661.108 351.661 683.155 311.52 677.176 262.822L702.439 255.632C727.939 287.178 740.472 328.334 751.608 384.248Z" fill="#3C52AB"/>
<path fill-rule="evenodd" clip-rule="evenodd" d="M703.808 255.464L704.102 255.428C766.235 283.83 807.907 334.566 829.118 407.637L810.848 413.591C796.68 400.711 778.485 379.02 756.261 348.517C764.267 367.553 770.829 387.278 774.449 406.248L694.066 416.118C673.69 378.821 693.902 256.68 693.902 256.68L699.452 255.999L703.808 255.464Z" fill="#F4F4F4"/>
<path d="M360.481 382.397H349.144V430.988H360.481V382.397Z" fill="#616466"/>
<path d="M366.313 382.397H354.975V430.988H366.313V382.397Z" fill="#B1BABE"/>
<path d="M406.156 440.381C376.571 440.381 404.48 440.381 352.74 440.381C301 440.381 331.921 440.381 308.364 440.381C308.364 440.381 301 430.986 352.74 430.986C404.48 430.986 406.156 435.862 406.156 440.381Z" fill="#6F7577"/>
<path d="M413.608 440.381C385.195 440.381 411.998 440.381 362.307 440.381C312.617 440.381 354.276 440.381 331.651 440.381C331.651 440.381 311.891 439.571 311.891 435.198C321.123 430.986 344.449 430.986 362.307 430.986C411.998 430.986 413.608 435.862 413.608 440.381Z" fill="#CCD2D5"/>
<path d="M254.201 258.729C253.097 248.849 260.261 240.753 270.201 240.644L453.922 238.639C463.862 238.531 472.816 246.452 473.92 256.332L486.64 370.157C487.744 380.036 480.581 388.133 470.64 388.242L286.92 390.246C276.979 390.355 268.026 382.434 266.922 372.554L254.201 258.729Z" fill="#CCD2D5"/>
<path d="M540.253 306.825L510.255 299.9C508.103 299.403 505.955 300.745 505.458 302.897L495.9 344.299C495.403 346.451 496.745 348.599 498.898 349.096L528.895 356.022C531.048 356.519 533.196 355.176 533.693 353.024L543.251 311.623C543.748 309.47 542.406 307.322 540.253 306.825Z" fill="#EEF1FF"/>
<path d="M529.463 316.057L538.359 318.347" stroke="black" stroke-opacity="0.58"/>
<path d="M510.768 319.545L532.235 324.596" stroke="black" stroke-opacity="0.58"/>
<path d="M505.898 322.797L534.762 329.516" stroke="black" stroke-opacity="0.58"/>
<path d="M503.506 330.245L532.37 336.963" stroke="black" stroke-opacity="0.58"/>
<path d="M504.702 326.521L533.566 333.24" stroke="black" stroke-opacity="0.58"/>
<path d="M506 315L516 317" stroke="black" stroke-opacity="0.58"/>
<path d="M521.143 342.848L530.04 345.139" stroke="black" stroke-opacity="0.58"/>
<path d="M530.66 312.333L539.557 314.623" stroke="black" stroke-opacity="0.58"/>
<path d="M447.834 245.256L279.56 247.092C269.62 247.201 262.457 255.297 263.561 265.177L274.227 360.622C275.331 370.502 284.284 378.423 294.225 378.314L462.499 376.478C472.439 376.37 479.603 368.273 478.499 358.393L467.832 262.948C466.728 253.068 457.775 245.147 447.834 245.256Z" fill="#89B1F2"/>
<mask id="mask0_51_6" style="mask-type:alpha" maskUnits="userSpaceOnUse" x="265" y="248" width="212" height="131">
<path d="M265.969 286.668C263.733 266.661 278.239 250.265 298.369 250.045L429.688 248.612C449.818 248.393 467.948 264.433 470.184 284.439L476.45 340.506C478.686 360.512 464.18 376.908 444.05 377.128L312.731 378.561C292.601 378.78 274.471 362.74 272.235 342.734L265.969 286.668Z" fill="#A62F5D"/>
</mask>
<g mask="url(#mask0_51_6)">
<path fill-rule="evenodd" clip-rule="evenodd" d="M365.399 313.18C365.399 313.18 390.851 310.968 411.027 322.049C411.591 345.789 421.961 357.183 417.308 392.507C390.727 399.84 364.794 373.385 337.558 380.28C333.622 362.465 351.294 324.839 365.399 313.18Z" fill="#304289"/>
</g>
<path fill-rule="evenodd" clip-rule="evenodd" d="M441.723 248.282C444.379 253.088 447.696 256.585 449.854 257.185C455.266 258.691 465.648 241.708 465.926 232.81C466.203 223.912 449.175 210.133 440.459 223.048C437.434 227.53 436.989 232.832 437.923 237.907L418.742 259.129L433.837 267.844L441.723 248.282Z" fill="#B28B67"/>
<path fill-rule="evenodd" clip-rule="evenodd" d="M471.402 227.473C469.462 230.833 465.244 232.056 461.826 230.319C459.592 229.809 456.907 228.832 454.1 227.453C453.793 228.591 453.289 229.795 452.557 231.061C451.912 232.18 451.103 233.294 450.181 234.368C449.997 233.333 449.476 232.426 448.68 231.966C446.455 230.682 443.849 231.618 442.727 233.561C441.303 236.028 441.697 238.634 443.693 239.977C439.747 242.49 435.596 243.701 433.009 242.208C428.096 239.371 428.396 230.786 432.473 223.724C432.616 223.476 432.763 223.232 432.914 222.993C430.592 223.174 428.187 223.781 425.765 224.391C420.619 225.688 415.394 227.006 410.718 224.306C401.363 218.905 408.542 197.89 421.613 205.437C430.502 210.569 434.126 214.389 436.788 218.481C438.74 216.815 440.891 215.708 442.987 215.278C443.537 215.095 444.255 215.031 445.107 215.079C445.637 215.091 446.158 215.152 446.665 215.264C449.419 215.741 453.051 217.053 456.802 219.047C457.503 219.42 458.181 219.802 458.834 220.19C460.845 216.732 465.276 215.55 468.743 217.552C472.217 219.557 473.407 223.999 471.402 227.473Z" fill="#0F182E"/>
<path fill-rule="evenodd" clip-rule="evenodd" d="M493.169 316.851L466.388 306.415L464.718 319.969L489.34 323.22C497.58 328.903 501.907 331.032 502.321 329.609C502.669 328.41 501.958 327.637 501.3 326.922C500.786 326.364 500.306 325.841 500.387 325.18L501.22 321.482L502.271 317.404C500.303 316.861 499.748 316.86 494.363 316.853C493.989 316.852 493.592 316.852 493.169 316.851ZM319.32 293.734C323.822 292.027 360.93 266.349 360.93 266.349L370.396 275.258C370.396 275.258 327.654 300.189 324.941 301.456C321.417 303.101 319.651 308.62 318.453 312.362C318.268 312.941 318.096 313.477 317.934 313.95C315.523 313.125 315.564 311.443 315.607 309.67C315.655 307.667 315.707 305.547 312.231 304.414C310.889 303.977 309.522 303.666 308.187 303.361C303.576 302.311 299.339 301.346 297.752 295.555C297.501 294.637 298.135 292.655 300.707 293.042C307.114 294.007 317.12 294.568 319.32 293.734Z" fill="#B28B67"/>
<path fill-rule="evenodd" clip-rule="evenodd" d="M410.66 251.746L418.017 247.702C429.03 288.546 429.404 291.082 484.703 311.843L480.247 324.359C454.423 314.959 430.207 320.137 417.45 301.215C413.168 294.864 407.678 259.494 410.66 251.746Z" fill="#ECF9FF"/>
<path fill-rule="evenodd" clip-rule="evenodd" d="M410.66 251.746L418.017 247.702C429.03 288.546 429.404 291.082 484.703 311.843L480.247 324.359C454.423 314.959 430.207 320.137 417.45 301.215C413.168 294.864 407.678 259.494 410.66 251.746Z" fill="black" fill-opacity="0.05"/>
<path fill-rule="evenodd" clip-rule="evenodd" d="M366.163 301.309C366.163 301.309 392.136 323.929 410.329 332.235C411.832 332.921 413.601 330.84 414.043 328.896C420.92 298.622 428.716 273.463 440.168 257.108C436.589 256.59 430.631 251.026 430.631 251.026C406.982 259.584 387.996 275.108 366.163 301.309Z" fill="#A62F5D"/>
<path fill-rule="evenodd" clip-rule="evenodd" d="M428.226 247.237C428.676 247.245 428.909 247.256 428.909 247.256L428.675 247.552L433.613 251.009C432.839 252.642 429.416 258.305 424.424 266.562C406.284 296.567 368.668 373.866 361 403.5L282 363C301.976 337.192 351.378 297.205 380.563 277.231C367.794 279.449 350.217 285.846 328.483 301.767L319.177 290.911C365.623 249.186 417.487 247.211 427.271 247.228C427.439 247.125 427.606 247.022 427.772 246.92L428.226 247.237Z" fill="#ECF9FF"/>
<path d="M694.476 279.851H696.052C696.968 279.851 697.767 279.229 697.99 278.342L699.628 271.828C699.659 271.704 699.837 271.711 699.858 271.837L701.803 283.491C701.803 283.491 701.689 280.333 702.43 279.734C702.773 279.457 704.194 279.813 704.194 279.813" stroke="#F5FCFF" stroke-width="5" stroke-miterlimit="10" stroke-linecap="round" stroke-linejoin="round"/>
<path d="M238.269 104.544L208.479 74.7394C205.354 71.6124 200.287 71.6124 197.162 74.7394L120.039 151.902C117.04 154.903 115.355 158.971 115.355 163.213V645.663" stroke="#9DA0A7" stroke-width="8"/>
<path d="M75.9208 644.199H156.253C157.91 644.199 159.253 645.542 159.253 647.199V651.443C159.253 653.1 157.91 654.443 156.253 654.443H75.9208C74.264 654.443 72.9208 653.1 72.9208 651.443V647.199C72.9208 645.542 74.264 644.199 75.9208 644.199Z" fill="#9DA0A7"/>
<path d="M281.174 79.5456C267.31 65.6826 244.833 65.6826 230.969 79.5456L212.881 97.6336C199.018 111.498 199.018 133.975 212.881 147.839L250.898 185.855L319.19 117.563L281.174 79.5456Z" fill="#CCD2D5"/>
<path fill-rule="evenodd" clip-rule="evenodd" d="M290.611 157.653C271.754 176.512 253.456 188.79 249.741 185.075C246.027 181.36 258.303 163.06 277.16 144.201C296.018 125.341 314.316 113.064 318.03 116.779C321.745 120.493 309.469 138.794 290.611 157.653Z" fill="#FCC876"/>
<path d="M697.105 300.608L698.975 300.311C700.061 300.139 700.899 299.298 701.008 298.27L701.803 290.721C701.819 290.578 702.031 290.553 702.078 290.688L706.436 303.277C706.436 303.277 705.745 299.788 706.518 298.983C706.877 298.61 708.624 298.739 708.624 298.739" stroke="#30638E" stroke-width="2" stroke-miterlimit="10" stroke-linecap="round" stroke-linejoin="round"/>
<path fill-rule="evenodd" clip-rule="evenodd" d="M928.23 143.766C960.433 143.766 986.539 117.66 986.539 85.4573C986.539 53.2541 960.433 27.1483 928.23 27.1483C896.027 27.1483 869.921 53.2541 869.921 85.4573C869.921 117.66 896.027 143.766 928.23 143.766Z" fill="#9DA0A7"/>
<path fill-rule="evenodd" clip-rule="evenodd" d="M928.23 42.5506C930.053 42.5506 931.531 41.0729 931.531 39.2501C931.531 37.4273 930.053 35.9496 928.23 35.9496C926.407 35.9496 924.93 37.4273 924.93 39.2501C924.93 41.0729 926.407 42.5506 928.23 42.5506Z" fill="#DAE0FF"/>
<path fill-rule="evenodd" clip-rule="evenodd" d="M882.023 88.7583C883.846 88.7583 885.324 87.2803 885.324 85.4573C885.324 83.6343 883.846 82.1573 882.023 82.1573C880.2 82.1573 878.723 83.6343 878.723 85.4573C878.723 87.2803 880.2 88.7583 882.023 88.7583Z" fill="#DAE0FF"/>
<path fill-rule="evenodd" clip-rule="evenodd" d="M974.437 88.7583C976.26 88.7583 977.738 87.2803 977.738 85.4573C977.738 83.6343 976.26 82.1573 974.437 82.1573C972.615 82.1573 971.137 83.6343 971.137 85.4573C971.137 87.2803 972.615 88.7583 974.437 88.7583Z" fill="#DAE0FF"/>
<path fill-rule="evenodd" clip-rule="evenodd" d="M856.23 132.965C858.053 132.965 859.531 131.487 859.531 129.664C859.531 127.841 858.053 126.364 856.23 126.364C854.407 126.364 852.93 127.841 852.93 129.664C852.93 131.487 854.407 132.965 856.23 132.965Z" fill="#DAE0FF"/>
<path fill-rule="evenodd" clip-rule="evenodd" d="M908.847 50.2533L928.867 83.2194L924.982 85.2854L908.847 50.2533Z" fill="#DAE0FF"/>
<path fill-rule="evenodd" clip-rule="evenodd" d="M925.967 58.8192L930.915 84.8483L926.538 85.3083L925.967 58.8192Z" fill="#DAE0FF"/>
<path fill-rule="evenodd" clip-rule="evenodd" d="M928.23 89.8583C930.66 89.8583 932.631 87.8883 932.631 85.4573C932.631 83.0273 930.66 81.0563 928.23 81.0563C925.799 81.0563 923.829 83.0273 923.829 85.4573C923.829 87.8883 925.799 89.8583 928.23 89.8583Z" fill="#DAE0FF"/>
</svg>
