<svg width="649" height="693" viewBox="0 0 649 693" fill="none" xmlns="http://www.w3.org/2000/svg">
<path fill-rule="evenodd" clip-rule="evenodd" d="M370 560.702C497.026 560.702 600 457.728 600 330.702C600 203.677 497.026 100.702 370 100.702C242.975 100.702 140 203.677 140 330.702C140 457.728 242.975 560.702 370 560.702Z" fill="#F9E6C7"/>
<path fill-rule="evenodd" clip-rule="evenodd" d="M394 644.702C435.421 644.702 469 611.124 469 569.702C469 528.281 435.421 494.702 394 494.702C352.579 494.702 319 528.281 319 569.702C319 611.124 352.579 644.702 394 644.702Z" fill="#9AA2DD"/>
<path fill-rule="evenodd" clip-rule="evenodd" d="M39.8582 230.255C41.8446 228.337 45.0099 228.392 46.9282 230.379L80.751 265.403C82.6692 267.39 82.614 270.555 80.6276 272.473L45.603 306.296C43.6166 308.214 40.4513 308.159 38.533 306.173L4.7102 271.148C2.79196 269.162 2.84721 265.996 4.83361 264.078L39.8582 230.255Z" fill="#9AA2DD"/>
<path fill-rule="evenodd" clip-rule="evenodd" d="M106.172 647.828C107.734 646.266 110.266 646.266 111.828 647.828L130.172 666.172C131.734 667.734 131.734 670.266 130.172 671.828L111.828 690.172C110.266 691.734 107.734 691.734 106.172 690.172L87.8284 671.828C86.2663 670.266 86.2663 667.734 87.8284 666.172L106.172 647.828Z" fill="#FEB644" fill-opacity="0.5"/>
<path fill-rule="evenodd" clip-rule="evenodd" d="M635.586 1.41421C636.367 0.633165 637.633 0.633165 638.414 1.41421L647.586 10.5858C648.367 11.3668 648.367 12.6332 647.586 13.4142L638.414 22.5858C637.633 23.3668 636.367 23.3668 635.586 22.5858L626.414 13.4142C625.633 12.6332 625.633 11.3668 626.414 10.5858L635.586 1.41421Z" fill="#9AA2DD"/>
<path fill-rule="evenodd" clip-rule="evenodd" d="M220.701 217.624C227.975 220.653 234.823 221.618 237.782 220.364C245.202 217.22 241.688 188.853 234.051 178.604C226.415 168.355 194.99 168.087 196.742 190.393C197.35 198.134 201.586 204.491 207.168 209.361L204.59 250.356L229.322 246.659L220.701 217.624Z" fill="#BA8B72"/>
<path fill-rule="evenodd" clip-rule="evenodd" d="M218.036 167.87C214.696 167.822 205.865 168.766 204.246 169.008C203.212 169.163 202.126 169.567 201.371 168.708C200.753 168.004 200.74 166.66 200.456 165.779C200.125 164.756 199.723 163.757 199.319 162.761C198.169 159.927 196.676 157.29 194.78 154.888C191.221 150.383 186.511 147.141 180.956 145.675C174.823 144.057 168.217 144.463 162.093 145.893C155.54 147.422 149.862 150.512 143.907 153.511C138.232 156.368 132.096 158.076 125.711 158.049C119.276 158.022 114.014 155.32 108.225 152.875C102.299 150.371 95.768 149.13 89.4222 150.588C83.4986 151.949 78.3451 155.251 73.8838 159.301C69.7098 163.09 66.4406 167.386 65.0641 172.951C63.5832 178.938 64.5104 185.127 69.0764 189.54C75.6945 195.936 86.2559 196.267 94.7824 194.803C99.7144 193.956 104.439 192.326 108.864 189.983C114.767 186.859 119.595 182.337 124.972 178.449C127.496 176.625 130.149 175.04 132.988 173.76C135.742 172.517 138.519 171.721 141.382 173.071C144.411 174.499 147.15 175.937 150.473 176.617C153.661 177.27 156.955 177.41 160.172 176.904C166.431 175.919 172.316 173.041 178.206 170.823C183.009 169.014 188.16 167.156 193.373 167.426C195.549 167.539 198.765 167.962 199.855 170.044C187.369 174.291 184.703 190.932 190.064 202.054C192.958 208.057 205.796 213.662 209.865 209.67C212.443 207.141 210.277 204.651 208.869 203.004C206.173 199.85 204.761 195.491 208.425 192.467C211.585 189.859 215.978 194.275 216.046 194.259C216.989 194.041 224.538 188.14 229.202 180.479C234.857 179.973 235.154 176.147 233.364 173.321C231.573 170.496 222.65 167.937 218.036 167.87Z" fill="#092330"/>
<path fill-rule="evenodd" clip-rule="evenodd" d="M190.592 346.534C197.982 371.186 332.5 418.764 333.648 420.681C334.414 421.959 316.21 516.078 316.21 516.078L327.43 517.806C327.43 517.806 364.389 414.207 359.307 405.168C352.031 392.227 247.391 334.222 247.391 334.222L190.592 346.534Z" fill="#B28B67"/>
<path fill-rule="evenodd" clip-rule="evenodd" d="M316.062 502.548L334.289 504.954C360.946 456.909 367.538 420.682 361.254 404.362C354.969 388.042 249.688 333.497 249.688 333.497L189.397 346.864C204.319 404.438 323.381 423.189 325.394 425.337C327.407 427.485 318.36 454.901 316.062 502.548Z" fill="#03567E"/>
<path fill-rule="evenodd" clip-rule="evenodd" d="M314.91 514.122C313.91 513.511 312.585 513.817 312.044 514.856C311.017 516.831 309.562 519.87 309.328 521.649C308.961 524.446 309.187 529.934 309.187 529.934C312.429 530.362 367.456 537.624 367.456 537.624C367.456 537.624 370.714 530.409 365.9 529.164C361.085 527.919 357.911 527.009 357.911 527.009L332.379 511.329C331.899 511.034 331.27 511.193 330.989 511.682L328.672 515.716C328.672 515.716 323.864 517.234 321.031 516.86C319.281 516.629 316.659 515.189 314.91 514.122Z" fill="#092330"/>
<path fill-rule="evenodd" clip-rule="evenodd" d="M204.179 343.522L179.583 481.683L151.555 600.089L163.761 597.383L245.554 334.35L204.179 343.522Z" fill="#BA8B72"/>
<path fill-rule="evenodd" clip-rule="evenodd" d="M152.209 593.534C151.061 593.302 149.92 594.043 149.767 595.205C149.477 597.413 149.148 600.767 149.536 602.519C150.147 605.273 152.235 610.354 152.235 610.354C155.427 609.646 209.61 597.634 209.61 597.634C209.61 597.634 210.205 589.737 205.256 590.216C200.307 590.694 197.014 590.925 197.014 590.925L167.667 584.928C167.115 584.816 166.579 585.181 166.482 585.737L165.683 590.321C165.683 590.321 161.684 593.393 158.896 594.012C157.173 594.394 154.217 593.938 152.209 593.534Z" fill="#092330"/>
<path fill-rule="evenodd" clip-rule="evenodd" d="M151.302 576.838L179.552 575.917C193.681 540.407 253.392 394.413 249.955 333.374L189.575 346.76C166.882 396.467 164.336 541.036 151.302 576.838Z" fill="#0871A5"/>
<path fill-rule="evenodd" clip-rule="evenodd" d="M116.272 376.435C120.108 370.687 142.059 309.724 142.059 309.724L160.537 312.245C160.537 312.245 131.383 377.031 129.269 380.774C126.523 385.636 129.058 393.56 130.777 398.933C131.043 399.765 131.29 400.535 131.494 401.223C127.99 402.269 126.637 400.269 125.209 398.16C123.597 395.778 121.892 393.257 116.889 394.831C114.956 395.439 113.1 396.215 111.288 396.973C105.026 399.59 99.2739 401.995 92.5959 396.548C91.5372 395.685 90.6269 392.839 93.9535 391.147C102.241 386.932 114.396 379.245 116.272 376.435ZM327.031 336.284L292.761 313.332L286.212 331.813L319.69 344.023C329.466 354.549 334.865 358.88 335.887 357.014C336.748 355.441 335.96 354.038 335.234 352.745C334.668 351.739 334.141 350.799 334.46 349.899C335.189 347.842 341.445 347.782 347.384 347.979C353.324 348.175 351.484 345.615 350 344.375C343.799 341.02 336.143 338.322 327.031 336.284Z" fill="#BA8B72"/>
<path fill-rule="evenodd" clip-rule="evenodd" d="M228.995 229.371L218.062 234.428C218.305 237.333 218.475 241.474 218.669 246.218C219.277 261.108 220.129 281.94 224.294 289.165C238.725 314.194 266.643 326.341 297.738 339.871C301.906 341.684 306.131 343.522 310.388 345.42L318.017 327.937C317.017 327.291 316.025 326.641 315.041 325.986C316.337 325.467 317.389 324.377 317.807 322.93C318.525 320.44 317.092 317.838 314.604 317.119C309.548 315.656 304.87 315.15 300.611 315.644C268.264 290.692 245.916 260.803 228.995 229.371Z" fill="#C3C5C7"/>
<path fill-rule="evenodd" clip-rule="evenodd" d="M183.843 348.126C183.843 348.126 233.168 351.381 261.12 344.752C263.429 344.205 262.888 334.163 261.688 331.467C243.009 289.475 230.584 258.681 229.288 229.005C224.766 231.626 213.122 230.437 213.122 230.437C193.728 261.925 185.731 297.43 183.843 348.126Z" fill="#0871A5"/>
<path fill-rule="evenodd" clip-rule="evenodd" d="M121.609 351.361C146.923 267.34 204.66 228.303 204.66 228.303L206.28 228.232L210.283 228.057L216.498 227.786C215.932 245.595 223.361 271.15 231.978 300.796C245.76 348.207 262.583 406.081 254.608 459.461C242.085 462.84 227.141 461.559 210.963 460.172C187.614 458.17 161.694 455.948 136.773 467.197C136.825 445.951 148.168 421.939 159.46 398.036C166.606 382.911 173.73 367.829 177.961 353.519C176.809 352.564 176.158 351.057 176.367 349.464L176.826 345.979C177.097 343.914 178.728 342.362 180.699 342.104C180.977 340.541 181.208 338.991 181.387 337.454C182.315 329.522 181.163 321.774 180.025 314.114C179.4 309.908 178.779 305.728 178.508 301.558C165.109 314.599 149.179 337.011 136.579 375.204L116.666 370.272C117.296 367.443 117.963 364.659 118.666 361.919C116.336 360.763 113.393 354.919 115.266 353.841C117.245 352.703 119.362 351.878 121.609 351.361Z" fill="#CFDADF"/>
<path fill-rule="evenodd" clip-rule="evenodd" d="M209.005 229.157L204.356 245.922L215.712 257.843L206.363 268.008L231.778 307.502L201.096 268.319L210.267 258.081L200.189 247.548L209.005 229.157Z" fill="black" fill-opacity="0.1"/>
<path fill-rule="evenodd" clip-rule="evenodd" d="M225.526 323.434C227.825 323.334 229.608 321.386 229.508 319.084C229.407 316.783 227.461 314.998 225.162 315.098C222.862 315.199 221.08 317.146 221.18 319.448C221.281 321.75 223.226 323.534 225.526 323.434ZM231.777 347.172C234.076 347.071 235.859 345.124 235.759 342.822C235.658 340.52 233.713 338.736 231.413 338.836C229.113 338.936 227.331 340.884 227.431 343.186C227.532 345.487 229.477 347.272 231.777 347.172ZM237.846 366.742C237.947 369.043 236.164 370.991 233.864 371.091C231.565 371.192 229.619 369.407 229.518 367.105C229.418 364.803 231.201 362.856 233.5 362.756C235.8 362.655 237.746 364.44 237.846 366.742Z" fill="black" fill-opacity="0.4"/>
<g clip-path="url(#clip0_96_2352)">
<rect x="394" y="56" width="231" height="239" rx="6" fill="#CFDADF"/>
<rect x="565.699" y="85.7023" width="48.2687" height="55.9509" rx="8" fill="#EDF9FE"/>
<path fill-rule="evenodd" clip-rule="evenodd" d="M589.833 118.168C595.926 118.168 600.866 113.219 600.866 107.116C600.866 101.012 595.926 96.0636 589.833 96.0636C583.74 96.0636 578.8 101.012 578.8 107.116C578.8 113.219 583.74 118.168 589.833 118.168Z" fill="#8EB1C0"/>
<rect x="572.594" y="120.931" width="34.4776" height="4.14451" rx="2.07225" fill="#8EB1C0"/>
<rect x="578.111" y="127.838" width="23.4448" height="4.14451" rx="2.07225" fill="#8EB1C0"/>
<path d="M394 64C394 59.5817 397.582 56 402 56H617C621.418 56 625 59.5817 625 64V83H394V64Z" fill="#9DD1D9"/>
<path fill-rule="evenodd" clip-rule="evenodd" d="M407 74C409.209 74 411 72.2091 411 70C411 67.7909 409.209 66 407 66C404.791 66 403 67.7909 403 70C403 72.2091 404.791 74 407 74Z" fill="#8EB1C0"/>
<path fill-rule="evenodd" clip-rule="evenodd" d="M419 74C421.209 74 423 72.2091 423 70C423 67.7909 421.209 66 419 66C416.791 66 415 67.7909 415 70C415 72.2091 416.791 74 419 74Z" fill="#8EB1C0"/>
<path fill-rule="evenodd" clip-rule="evenodd" d="M431 74C433.209 74 435 72.2091 435 70C435 67.7909 433.209 66 431 66C428.791 66 427 67.7909 427 70C427 72.2091 428.791 74 431 74Z" fill="#8EB1C0"/>
<g clip-path="url(#clip1_96_2352)">
<rect x="565.699" y="147.179" width="48.2687" height="134.006" rx="8" fill="#EDF9FE"/>
<g clip-path="url(#clip2_96_2352)">
<rect x="583.699" y="165.179" width="12" height="26" rx="4" fill="#8EB1C0"/>
<rect x="583.699" y="199.179" width="12" height="25" rx="4" fill="#BDCACF"/>
<rect x="583.699" y="232.179" width="12" height="25" rx="4" fill="#8EB1C0"/>
<rect x="583.699" y="265.179" width="12" height="25" rx="4" fill="#9DD1D9"/>
</g>
</g>
<g clip-path="url(#clip3_96_2352)">
<g clip-path="url(#clip4_96_2352)">
<rect x="410" y="100" width="121" height="47" rx="4" fill="#EDF9FE"/>
<g clip-path="url(#clip5_96_2352)">
<rect x="419" y="114.1" width="63" height="7.05" rx="3" fill="#8EB1C0"/>
<rect x="419" y="125.85" width="42.2877" height="7.05" rx="3" fill="#8EB1C0"/>
</g>
</g>
<g clip-path="url(#clip6_96_2352)">
<rect x="410" y="155" width="121" height="39" rx="4" fill="#EDF9FE"/>
<g clip-path="url(#clip7_96_2352)">
<rect x="419" y="166.7" width="63" height="5.85" rx="2.925" fill="#8EB1C0"/>
<rect x="419" y="176.45" width="42.2877" height="5.85" rx="2.925" fill="#8EB1C0"/>
</g>
</g>
<g clip-path="url(#clip8_96_2352)">
<rect x="410" y="202" width="121" height="39" rx="4" fill="#EDF9FE"/>
<g clip-path="url(#clip9_96_2352)">
<rect x="419" y="213.7" width="63" height="5.85" rx="2.925" fill="#8EB1C0"/>
<rect x="419" y="223.45" width="42.2877" height="5.85" rx="2.925" fill="#8EB1C0"/>
</g>
</g>
<g clip-path="url(#clip10_96_2352)">
<rect x="410" y="249" width="121" height="39" rx="4" fill="#EDF9FE"/>
<g clip-path="url(#clip11_96_2352)">
<rect x="419" y="260.7" width="63" height="5.85" rx="2.925" fill="#8EB1C0"/>
<rect x="419" y="270.45" width="42.2877" height="5.85" rx="2.925" fill="#8EB1C0"/>
</g>
</g>
</g>
</g>
<path d="M469 469.487H490.414C502.853 469.487 513.701 461.757 516.736 450.74L538.985 369.807C539.408 368.273 541.827 368.361 542.109 369.92L568.528 514.702C568.528 514.702 566.98 475.473 577.044 468.033C581.707 464.585 601 469.005 601 469.005" stroke="#9DD1D9" stroke-width="13.1807" stroke-miterlimit="10" stroke-linecap="round" stroke-linejoin="round"/>
<defs>
<clipPath id="clip0_96_2352">
<rect x="394" y="56" width="231" height="239" rx="6" fill="white"/>
</clipPath>
<clipPath id="clip1_96_2352">
<rect width="48.2687" height="134.006" fill="white" transform="translate(565.699 147.179)"/>
</clipPath>
<clipPath id="clip2_96_2352">
<rect width="12" height="158" fill="white" transform="translate(583.699 165.179)"/>
</clipPath>
<clipPath id="clip3_96_2352">
<rect width="121" height="282" fill="white" transform="translate(410 100)"/>
</clipPath>
<clipPath id="clip4_96_2352">
<rect width="121" height="47" fill="white" transform="translate(410 100)"/>
</clipPath>
<clipPath id="clip5_96_2352">
<rect width="63" height="18.8" fill="white" transform="translate(419 114.1)"/>
</clipPath>
<clipPath id="clip6_96_2352">
<rect width="121" height="39" fill="white" transform="translate(410 155)"/>
</clipPath>
<clipPath id="clip7_96_2352">
<rect width="63" height="15.6" fill="white" transform="translate(419 166.7)"/>
</clipPath>
<clipPath id="clip8_96_2352">
<rect width="121" height="39" fill="white" transform="translate(410 202)"/>
</clipPath>
<clipPath id="clip9_96_2352">
<rect width="63" height="15.6" fill="white" transform="translate(419 213.7)"/>
</clipPath>
<clipPath id="clip10_96_2352">
<rect width="121" height="39" fill="white" transform="translate(410 249)"/>
</clipPath>
<clipPath id="clip11_96_2352">
<rect width="63" height="15.6" fill="white" transform="translate(419 260.7)"/>
</clipPath>
</defs>
</svg>
