<svg width="670" height="165" viewBox="0 0 670 165" fill="none" xmlns="http://www.w3.org/2000/svg">
<path d="M22.5563 114.528C13.4933 114.528 7.27731 113.099 3.01538 110.96C0.884408 109.894 0 107.932 0 106.148C0 102.58 3.37754 99.1971 7.10885 100.795C11.5477 102.757 16.1718 103.823 20.9644 103.823C27.1804 103.823 32.1583 102.394 32.1583 96.8717C32.1583 91.6965 25.7653 89.0243 19.3724 85.811C10.4948 81.3545 1.96253 76.5345 1.96253 67.2665C1.96253 55.6731 10.3095 50.3203 23.6344 50.3203C32.8742 50.3203 37.8437 52.2822 41.3981 54.244C43.3522 55.3179 44.0597 57.1022 44.0597 58.7004C44.0597 62.0913 40.859 65.4738 36.7739 64.2308C33.9355 62.9792 28.9576 61.2034 23.9881 61.2034C18.3028 61.2034 15.2874 63.3428 15.2874 66.9114C15.2874 71.7229 23.4575 73.6848 31.8045 78.1497C38.5512 81.8957 45.3062 87.0625 45.3062 96.5165C45.2978 110.249 33.7502 114.528 22.5563 114.528Z" fill="white"/>
<path d="M106.043 108.998L85.4411 62.0997C84.9105 60.8482 83.8408 59.0724 83.8408 57.1106C83.8408 53.3645 86.8646 50.3372 90.5874 50.3372C94.1419 50.3372 96.2728 53.5505 97.6963 57.1106L114.037 96.1613L130.2 57.1106C131.623 53.542 133.754 50.3372 137.486 50.3372C141.217 50.3372 143.879 53.0093 143.879 56.5778C143.879 58.7172 143.171 60.8566 142.455 62.1082L107.821 137.723C104.982 143.609 102.489 147 98.766 147C94.8578 147 91.834 144.15 91.834 140.404C91.834 138.087 93.7881 134.696 94.3188 133.267L106.043 108.998Z" fill="white"/>
<path d="M354.364 103.645C350.102 110.782 342.462 114.528 333.046 114.528C314.398 114.528 303.734 100.44 303.734 82.4286C303.734 64.772 314.212 50.3289 333.576 50.3289C342.993 50.3289 349.917 54.2525 354.002 59.9604V57.4659C354.002 53.5422 356.84 50.3289 361.287 50.3289C365.019 50.3289 368.034 52.6459 368.034 57.4659V107.4C368.034 112.211 365.196 114.537 361.287 114.537C357.556 114.537 354.355 112.397 354.355 107.4V103.645H354.364ZM353.833 82.4286C353.833 71.9091 347.617 62.9878 336.246 62.9878C324.876 62.9878 318.483 71.723 318.483 82.6061C318.483 93.4893 325.052 101.869 336.07 101.869C347.617 101.861 353.833 92.9481 353.833 82.4286Z" fill="white"/>
<path d="M417.063 57.6349C417.063 53.5337 420.078 50.3203 424.172 50.3203C427.373 50.3203 430.919 52.4597 430.919 57.6349V62.4465C434.827 55.3095 442.643 50.3203 451.875 50.3203C469.992 50.3203 481.363 64.4084 481.363 82.42C481.363 100.609 469.992 114.697 452.051 114.697C443.351 114.697 435.711 110.241 431.272 102.749V139.127C431.272 144.48 427.718 146.442 424.164 146.442C420.609 146.442 417.055 144.302 417.055 139.127V57.6349H417.063ZM466.8 82.6061C466.8 70.4799 459.337 63.1653 449.036 63.1653C438.558 63.1653 431.272 72.0781 431.272 82.7837C431.272 93.3032 438.558 102.047 449.036 102.047C459.337 102.038 466.8 94.5547 466.8 82.6061Z" fill="white"/>
<path d="M544.248 114.528C535.185 114.528 528.969 113.099 524.707 110.96C522.576 109.894 521.691 107.932 521.691 106.148C521.691 102.58 525.069 99.1971 528.8 100.795C533.239 102.757 537.863 103.823 542.656 103.823C548.872 103.823 553.85 102.394 553.85 96.8717C553.85 91.6965 547.457 89.0243 541.064 85.811C532.186 81.3545 523.654 76.5345 523.654 67.2665C523.654 55.6731 532.001 50.3203 545.326 50.3203C554.566 50.3203 559.535 52.2822 563.089 54.244C565.044 55.3179 565.751 57.1022 565.751 58.7004C565.751 62.0913 562.55 65.4738 558.465 64.2308C555.627 62.9792 550.649 61.2034 545.68 61.2034C539.994 61.2034 536.979 63.3428 536.979 66.9114C536.979 71.7229 545.149 73.6848 553.496 78.1497C560.243 81.8957 566.998 87.0625 566.998 96.5165C566.981 110.249 555.433 114.528 544.248 114.528Z" fill="white"/>
<path d="M623.11 85.9885C623.641 95.7977 630.926 103.467 643.358 103.467C650.644 103.467 655.614 101.328 660.052 98.6559C664.668 96.3389 668.753 99.7214 668.753 103.467C668.753 105.252 667.869 107.036 665.915 108.279C660.406 112.025 651.528 114.52 641.935 114.52C618.132 114.52 608.008 99.3578 608.008 82.7752C608.008 65.6514 618.84 50.3203 639.45 50.3203C658.991 50.3203 670 63.698 670 79.5703C670 83.1388 667.692 85.9885 662.537 85.9885H623.11ZM656.329 76.3654C655.622 68.6956 650.113 61.2034 639.812 61.2034C629.334 61.2034 624.003 68.6956 623.295 76.3654H656.329Z" fill="white"/>
<path d="M155 110.779H176.792C189.452 110.779 200.491 102.896 203.58 91.6614L226.222 9.12696C226.652 7.56183 229.114 7.65195 229.4 9.24167L256.287 156.889C256.287 156.889 254.711 116.884 264.953 109.296C269.698 105.78 289.333 110.287 289.333 110.287" stroke="white" stroke-width="16" stroke-miterlimit="10" stroke-linecap="round" stroke-linejoin="round"/>
</svg>
