<svg width="713" height="163" viewBox="0 0 713 163" fill="none" xmlns="http://www.w3.org/2000/svg">
<path d="M23.9765 111.541C14.3429 111.541 7.73552 110.156 3.20523 108.083C0.940093 107.05 0 105.149 0 103.42C0 99.9621 3.59021 96.6843 7.55644 98.2331C12.2747 100.134 17.19 101.167 22.2843 101.167C28.8917 101.167 34.1831 99.7818 34.1831 94.4309C34.1831 89.4159 27.3876 86.8264 20.5922 83.7125C11.1556 79.394 2.08609 74.7232 2.08609 65.7421C2.08609 54.5075 10.9587 49.3204 25.1225 49.3204C34.9441 49.3204 40.2264 51.2216 44.0046 53.1227C46.0818 54.1634 46.8338 55.8924 46.8338 57.4411C46.8338 60.7271 43.4316 64.0049 39.0893 62.8003C36.0721 61.5875 30.7809 59.8667 25.4985 59.8667C19.4552 59.8667 16.2499 61.9399 16.2499 65.3979C16.2499 70.0606 24.9345 71.9617 33.807 76.2884C40.9785 79.9185 48.1589 84.9253 48.1589 94.0867C48.1499 107.394 35.8752 111.541 23.9765 111.541Z" fill="#003D5B"/>
<path d="M112.72 106.182L90.8205 60.7353C90.2565 59.5225 89.1194 57.8017 89.1194 55.9006C89.1194 52.2704 92.3336 49.3369 96.2909 49.3369C100.069 49.3369 102.334 52.4507 103.847 55.9006L121.216 93.7425L138.397 55.9006C139.911 52.4425 142.176 49.3369 146.142 49.3369C150.108 49.3369 152.937 51.9263 152.937 55.3843C152.937 57.4575 152.185 59.5307 151.424 60.7435L114.609 134.018C111.592 139.722 108.942 143.008 104.984 143.008C100.83 143.008 97.616 140.246 97.616 136.616C97.616 134.371 99.6931 131.085 100.257 129.7L112.72 106.182Z" fill="#003D5B"/>
<path d="M376.676 100.995C372.146 107.911 364.025 111.541 354.016 111.541C334.193 111.541 322.859 97.8889 322.859 80.4347C322.859 63.3247 333.996 49.3286 354.58 49.3286C364.589 49.3286 371.949 53.1309 376.291 58.6621V56.2448C376.291 52.4425 379.308 49.3286 384.035 49.3286C388.002 49.3286 391.207 51.5739 391.207 56.2448V104.633C391.207 109.296 388.19 111.549 384.035 111.549C380.069 111.549 376.667 109.476 376.667 104.633V100.995H376.676ZM376.112 80.4347C376.112 70.2409 369.504 61.5957 357.418 61.5957C345.331 61.5957 338.536 70.0606 338.536 80.6068C338.536 91.1531 345.519 99.2738 357.23 99.2738C369.504 99.2656 376.112 90.6286 376.112 80.4347Z" fill="#003D5B"/>
<path d="M443.323 56.4086C443.323 52.4343 446.528 49.3204 450.879 49.3204C454.282 49.3204 458.051 51.3936 458.051 56.4086V61.0713C462.205 54.1552 470.514 49.3204 480.326 49.3204C499.584 49.3204 511.671 62.9724 511.671 80.4266C511.671 98.0528 499.584 111.705 480.514 111.705C471.266 111.705 463.145 107.386 458.427 100.126V135.379C458.427 140.566 454.649 142.467 450.87 142.467C447.092 142.467 443.314 140.394 443.314 135.379V56.4086H443.323ZM496.191 80.6068C496.191 68.856 488.259 61.7678 477.309 61.7678C466.171 61.7678 458.427 70.4048 458.427 80.7789C458.427 90.9728 466.171 99.4459 477.309 99.4459C488.259 99.4377 496.191 92.1856 496.191 80.6068Z" fill="#003D5B"/>
<path d="M578.515 111.541C568.882 111.541 562.274 110.156 557.744 108.083C555.479 107.05 554.539 105.149 554.539 103.42C554.539 99.9621 558.129 96.6843 562.095 98.2331C566.813 100.134 571.729 101.167 576.823 101.167C583.43 101.167 588.722 99.7818 588.722 94.4309C588.722 89.4159 581.926 86.8264 575.131 83.7125C565.694 79.394 556.625 74.7232 556.625 65.7421C556.625 54.5075 565.497 49.3204 579.661 49.3204C589.483 49.3204 594.765 51.2216 598.543 53.1227C600.62 54.1634 601.373 55.8924 601.373 57.4411C601.373 60.7271 597.97 64.0049 593.628 62.8003C590.611 61.5875 585.32 59.8667 580.037 59.8667C573.994 59.8667 570.789 61.9399 570.789 65.3979C570.789 70.0606 579.473 71.9617 588.346 76.2884C595.517 79.9185 602.698 84.9253 602.698 94.0867C602.68 107.394 590.405 111.541 578.515 111.541Z" fill="#003D5B"/>
<path d="M662.343 83.8846C662.907 93.3902 670.652 100.823 683.867 100.823C691.611 100.823 696.893 98.7493 701.612 96.1599C706.518 93.9146 710.86 97.1924 710.86 100.823C710.86 102.552 709.92 104.281 707.843 105.485C701.988 109.115 692.551 111.533 682.353 111.533C657.052 111.533 646.29 96.84 646.29 80.7707C646.29 64.177 657.804 49.3204 679.712 49.3204C700.484 49.3204 712.185 62.284 712.185 77.665C712.185 81.1231 709.732 83.8846 704.253 83.8846H662.343ZM697.654 74.5593C696.902 67.127 691.047 59.8667 680.097 59.8667C668.96 59.8667 663.292 67.127 662.54 74.5593H697.654Z" fill="#003D5B"/>
<path d="M168.713 109.779H190.505C203.164 109.779 214.204 101.896 217.292 90.6614L239.935 8.12696C240.365 6.56183 242.827 6.65195 243.113 8.24167L269.999 155.889C269.999 155.889 268.424 115.884 278.666 108.296C283.411 104.78 303.045 109.287 303.045 109.287" stroke="#00798C" stroke-width="13.1807" stroke-miterlimit="10" stroke-linecap="round" stroke-linejoin="round"/>
</svg>
