<svg width="188" height="50" viewBox="0 0 188 50" fill="none" xmlns="http://www.w3.org/2000/svg">
<path d="M7.3 35.76C4.85 35.76 3.17 35.38 2.02 34.8C1.44 34.51 1.2 33.98 1.2 33.5C1.2 32.54 2.11 31.63 3.12 32.06C4.32 32.59 5.57 32.88 6.86 32.88C8.54 32.88 9.88 32.5 9.88 31.01C9.88 29.62 8.15 28.9 6.42 28.03C4.02 26.83 1.72 25.53 1.72 23.04C1.72 19.92 3.98 18.48 7.58 18.48C10.08 18.48 11.42 19.01 12.38 19.54C12.91 19.83 13.1 20.31 13.1 20.74C13.1 21.65 12.24 22.56 11.13 22.23C10.36 21.89 9.02 21.41 7.67 21.41C6.13 21.41 5.32 21.99 5.32 22.95C5.32 24.25 7.53 24.77 9.78 25.97C11.6 26.98 13.43 28.37 13.43 30.91C13.44 34.6 10.32 35.76 7.3 35.76Z" fill="black"/>
<path d="M29.85 34.27L24.28 21.64C24.14 21.3 23.85 20.82 23.85 20.3C23.85 19.29 24.67 18.48 25.67 18.48C26.63 18.48 27.21 19.34 27.59 20.3L32.01 30.81L36.38 20.3C36.76 19.34 37.34 18.48 38.35 18.48C39.36 18.48 40.08 19.2 40.08 20.16C40.08 20.74 39.89 21.31 39.7 21.65L30.34 42C29.57 43.58 28.9 44.5 27.89 44.5C26.83 44.5 26.02 43.73 26.02 42.72C26.02 42.1 26.55 41.18 26.69 40.8L29.85 34.27Z" fill="black"/>
<path d="M96.96 32.83C95.81 34.75 93.74 35.76 91.2 35.76C86.16 35.76 83.28 31.97 83.28 27.12C83.28 22.37 86.11 18.48 91.34 18.48C93.88 18.48 95.76 19.54 96.86 21.07V20.4C96.86 19.34 97.63 18.48 98.83 18.48C99.84 18.48 100.65 19.1 100.65 20.4V33.84C100.65 35.14 99.88 35.76 98.83 35.76C97.82 35.76 96.96 35.18 96.96 33.84V32.83ZM96.81 27.11C96.81 24.28 95.13 21.88 92.06 21.88C88.99 21.88 87.26 24.23 87.26 27.16C87.26 30.09 89.04 32.34 92.01 32.34C95.13 32.35 96.81 29.95 96.81 27.11Z" fill="black"/>
<path d="M113.9 20.44C113.9 19.34 114.72 18.47 115.82 18.47C116.68 18.47 117.64 19.05 117.64 20.44V21.74C118.7 19.82 120.81 18.48 123.3 18.48C128.2 18.48 131.27 22.27 131.27 27.12C131.27 32.02 128.2 35.81 123.35 35.81C121 35.81 118.93 34.61 117.73 32.59V42.38C117.73 43.82 116.77 44.35 115.81 44.35C114.85 44.35 113.89 43.77 113.89 42.38V20.44H113.9ZM127.34 27.16C127.34 23.9 125.32 21.93 122.54 21.93C119.71 21.93 117.74 24.33 117.74 27.21C117.74 30.04 119.71 32.39 122.54 32.39C125.32 32.39 127.34 30.38 127.34 27.16Z" fill="black"/>
<path d="M148.27 35.76C145.82 35.76 144.14 35.38 142.99 34.8C142.41 34.51 142.17 33.98 142.17 33.5C142.17 32.54 143.08 31.63 144.09 32.06C145.29 32.59 146.54 32.88 147.83 32.88C149.51 32.88 150.85 32.5 150.85 31.01C150.85 29.62 149.12 28.9 147.39 28.03C144.99 26.83 142.69 25.53 142.69 23.04C142.69 19.92 144.95 18.48 148.55 18.48C151.05 18.48 152.39 19.01 153.35 19.54C153.88 19.83 154.07 20.31 154.07 20.74C154.07 21.65 153.21 22.56 152.1 22.23C151.33 21.89 149.99 21.41 148.64 21.41C147.1 21.41 146.29 21.99 146.29 22.95C146.29 24.25 148.5 24.77 150.75 25.97C152.57 26.98 154.4 28.37 154.4 30.91C154.41 34.6 151.29 35.76 148.27 35.76Z" fill="black"/>
<path d="M169.58 28.07C169.72 30.71 171.69 32.77 175.05 32.77C177.02 32.77 178.36 32.19 179.56 31.47C180.81 30.85 181.91 31.76 181.91 32.77C181.91 33.25 181.67 33.73 181.14 34.07C179.65 35.08 177.25 35.75 174.66 35.75C168.23 35.75 165.49 31.67 165.49 27.21C165.49 22.6 168.42 18.47 173.99 18.47C179.27 18.47 182.25 22.07 182.25 26.34C182.25 27.3 181.63 28.07 180.23 28.07H169.58ZM178.56 25.48C178.37 23.42 176.88 21.4 174.1 21.4C171.27 21.4 169.83 23.42 169.64 25.48H178.56Z" fill="black"/>
<path d="M43.28 32.6H48.26C51.81 32.6 54.9 30.19 55.76 26.75L60.55 7.69C60.85 6.5 62.56 6.57 62.76 7.78L67.86 38.36C68 39.18 69.19 39.15 69.27 38.32C69.55 35.68 70.11 33.1 71.24 32.19C72.45 31.21 77.44 32.47 77.44 32.47" stroke="#8FBFE8" stroke-width="3.8" stroke-miterlimit="10" stroke-linecap="round"/>
</svg>
