<svg width="713" height="163" viewBox="0 0 713 163" fill="none" xmlns="http://www.w3.org/2000/svg">
<path d="M24.1281 111.958C14.4945 111.958 7.88713 110.573 3.35685 108.5C1.0917 107.468 0.151611 105.567 0.151611 103.838C0.151611 100.379 3.74182 97.1017 7.70805 98.6504C12.4263 100.552 17.3416 101.584 22.436 101.584C29.0434 101.584 34.3347 100.199 34.3347 94.8482C34.3347 89.8332 27.5392 87.2437 20.7438 84.1298C11.3072 79.8114 2.2377 75.1406 2.2377 66.1594C2.2377 54.9249 11.1103 49.7378 25.2741 49.7378C35.0957 49.7378 40.378 51.6389 44.1562 53.54C46.2334 54.5807 46.9854 56.3097 46.9854 57.8585C46.9854 61.1444 43.5832 64.4222 39.241 63.2176C36.2238 62.0049 30.9325 60.284 25.6501 60.284C19.6068 60.284 16.4016 62.3572 16.4016 65.8153C16.4016 70.4779 25.0861 72.379 33.9586 76.7057C41.1301 80.3358 48.3105 85.3426 48.3105 94.504C48.3015 107.812 36.0268 111.958 24.1281 111.958Z" fill="white" fill-opacity="0.98"/>
<path d="M112.871 106.599L90.9721 61.1526C90.4081 59.9398 89.2711 58.219 89.2711 56.3179C89.2711 52.6878 92.4852 49.7542 96.4425 49.7542C100.221 49.7542 102.486 52.868 103.999 56.3179L121.368 94.1599L138.549 56.3179C140.062 52.8598 142.327 49.7542 146.294 49.7542C150.26 49.7542 153.089 52.3436 153.089 55.8016C153.089 57.8748 152.337 59.948 151.576 61.1608L114.761 134.436C111.743 140.139 109.093 143.425 105.136 143.425C100.982 143.425 97.7676 140.663 97.7676 137.033C97.7676 134.788 99.8447 131.502 100.409 130.117L112.871 106.599Z" fill="white" fill-opacity="0.98"/>
<path d="M376.828 101.412C372.297 108.328 364.177 111.958 354.167 111.958C334.345 111.958 323.01 98.3062 323.01 80.8521C323.01 63.7421 334.148 49.746 354.731 49.746C364.741 49.746 372.1 53.5482 376.443 59.0794V56.6621C376.443 52.8599 379.46 49.746 384.187 49.746C388.153 49.746 391.358 51.9912 391.358 56.6621V105.05C391.358 109.713 388.341 111.966 384.187 111.966C380.221 111.966 376.819 109.893 376.819 105.05V101.412H376.828ZM376.263 80.8521C376.263 70.6582 369.656 62.0131 357.569 62.0131C345.483 62.0131 338.687 70.4779 338.687 81.0241C338.687 91.5704 345.671 99.6911 357.381 99.6911C369.656 99.6829 376.263 91.046 376.263 80.8521Z" fill="white" fill-opacity="0.98"/>
<path d="M443.475 56.826C443.475 52.8517 446.68 49.7378 451.031 49.7378C454.433 49.7378 458.202 51.811 458.202 56.826V61.4886C462.357 54.5725 470.665 49.7378 480.478 49.7378C499.736 49.7378 511.823 63.3897 511.823 80.8439C511.823 98.4701 499.736 112.122 480.666 112.122C471.417 112.122 463.297 107.804 458.579 100.543V135.796C458.579 140.983 454.8 142.884 451.022 142.884C447.244 142.884 443.466 140.811 443.466 135.796V56.826H443.475ZM496.343 81.0241C496.343 69.2733 488.41 62.1851 477.461 62.1851C466.323 62.1851 458.579 70.8221 458.579 81.1962C458.579 91.3901 466.323 99.8632 477.461 99.8632C488.41 99.855 496.343 92.6029 496.343 81.0241Z" fill="white" fill-opacity="0.98"/>
<path d="M578.667 111.958C569.033 111.958 562.426 110.573 557.895 108.5C555.63 107.468 554.69 105.567 554.69 103.838C554.69 100.379 558.281 97.1017 562.247 98.6504C566.965 100.552 571.88 101.584 576.975 101.584C583.582 101.584 588.873 100.199 588.873 94.8482C588.873 89.8332 582.078 87.2437 575.282 84.1298C565.846 79.8114 556.776 75.1406 556.776 66.1594C556.776 54.9249 565.649 49.7378 579.813 49.7378C589.634 49.7378 594.917 51.6389 598.695 53.54C600.772 54.5807 601.524 56.3097 601.524 57.8585C601.524 61.1444 598.122 64.4222 593.78 63.2176C590.762 62.0049 585.471 60.284 580.189 60.284C574.145 60.284 570.94 62.3572 570.94 65.8153C570.94 70.4779 579.625 72.379 588.497 76.7057C595.669 80.3358 602.849 85.3426 602.849 94.504C602.831 107.812 590.557 111.958 578.667 111.958Z" fill="white" fill-opacity="0.98"/>
<path d="M662.495 84.3019C663.059 93.8075 670.803 101.24 684.018 101.24C691.763 101.24 697.045 99.1667 701.763 96.5772C706.67 94.3319 711.012 97.6097 711.012 101.24C711.012 102.969 710.072 104.698 707.995 105.902C702.139 109.533 692.703 111.95 682.505 111.95C657.204 111.95 646.442 97.2574 646.442 81.188C646.442 64.5943 657.956 49.7378 679.864 49.7378C700.635 49.7378 712.337 62.7014 712.337 78.0823C712.337 81.5404 709.884 84.3019 704.404 84.3019H662.495ZM697.806 74.9767C697.054 67.5443 691.199 60.284 680.249 60.284C669.111 60.284 663.444 67.5443 662.692 74.9767H697.806Z" fill="white" fill-opacity="0.98"/>
<path d="M168.864 110.196H190.656C203.316 110.196 214.355 102.313 217.444 91.0788L240.086 8.54431C240.516 6.97917 242.978 7.06929 243.265 8.65902L270.151 156.307C270.151 156.307 268.575 116.301 278.818 108.713C283.563 105.198 303.197 109.705 303.197 109.705" stroke="#CFDADF" stroke-opacity="0.98" stroke-width="13.1807" stroke-miterlimit="10" stroke-linecap="round" stroke-linejoin="round"/>
</svg>
