<svg width="1152" height="1104" viewBox="0 0 1152 1104" fill="none" xmlns="http://www.w3.org/2000/svg">
<path d="M1079.29 373.48C1085.79 368.063 1094.27 365.082 1103.04 365.125C1110.16 365.203 1117.12 367.067 1123.17 370.516C1127.82 373.082 1131.98 376.329 1135.48 380.129C1145.47 390.843 1151.28 404.311 1152 418.402V1053.06C1151.94 1066.53 1146.11 1079.44 1135.78 1089C1125.41 1098.53 1111.35 1103.89 1096.69 1103.91H55.411C40.7561 1103.85 26.7148 1098.49 16.3204 1089C11.1654 1084.29 7.07714 1078.69 4.29248 1072.52C1.50783 1066.35 0.0820716 1059.74 0.0977847 1053.06V418.402C0.830589 404.086 6.7862 390.414 17.0045 379.59C20.6079 376.056 24.7567 373.029 29.318 370.605C35.2184 367.313 41.962 365.515 48.8633 365.395C55.7853 365.291 62.5858 367.073 68.4086 370.516V24.6172C68.4079 18.1501 71.1753 11.9425 76.1127 7.33604C81.0502 2.72962 87.761 0.0944101 94.7948 0L771.062 0C774.994 0.00317501 778.875 0.811092 782.425 2.36511C785.975 3.91913 789.104 6.18025 791.585 8.98438L1071.57 274.832C1076.45 279.382 1079.19 285.513 1079.19 291.902V299C1079.19 299.988 1079.19 300.977 1079.19 302.055C1079.19 303.133 1079.19 304.031 1079.19 305.02V373.57L1079.29 373.48Z" fill="#102044"/>
<path d="M1098.35 986.035V423.344L748.585 704.285L1098.35 986.035Z" fill="#89B1F2"/>
<path d="M398.626 706.98L53.6514 423.613V984.957L398.626 706.98Z" fill="#89B1F2"/>
<path d="M552.35 833.211L438.792 739.953L53.6516 1050.27V1053.06C53.4833 1053.43 53.4833 1053.85 53.6516 1054.23C54.0654 1054.34 54.5083 1054.34 54.9221 1054.23H1096.59C1097 1054.34 1097.45 1054.34 1097.86 1054.23C1098.03 1053.85 1098.03 1053.43 1097.86 1053.06V1051.17L708.028 736.719L587.825 833.391C582.946 837.363 576.654 839.556 570.136 839.556C563.619 839.556 557.327 837.363 552.448 833.391L552.35 833.211Z" fill="#89B1F2"/>
<path d="M999.839 277.258L762.266 51.5703V49.3242H121.571V413.281L455.991 688.203L457.457 689.461L570.331 782.18L1026.13 416.516V326.672L1000.33 277.348L999.839 277.258Z" fill="#D8CBB8"/>
<path fill-rule="evenodd" clip-rule="evenodd" d="M573.655 119.941C622.479 119.941 670.206 133.252 710.802 158.189C751.397 183.126 783.037 218.57 801.721 260.038C820.405 301.507 825.294 347.138 815.769 391.162C806.244 435.185 782.733 475.622 748.209 507.361C713.686 539.1 669.7 560.715 621.814 569.471C573.929 578.228 524.294 573.734 479.187 556.557C434.08 539.38 395.526 510.292 368.401 472.971C341.276 435.65 326.798 391.772 326.798 346.887C326.798 286.697 352.806 228.973 399.101 186.412C445.395 143.852 508.184 119.941 573.655 119.941Z" fill="#02724F"/>
<path d="M453 397.92H492.42C515.322 397.92 535.29 383.66 540.878 363.338L581.836 214.039C582.614 211.207 587.068 211.37 587.587 214.246L636.222 481.332C636.222 481.332 633.371 408.964 651.9 395.238C660.483 388.879 696 397.032 696 397.032" stroke="#D8CBB8" stroke-width="48" stroke-miterlimit="10" stroke-linecap="round" stroke-linejoin="round"/>
</svg>
